<?xml version="1.0" encoding="utf-8"?>
<!-- Generator: Adobe Illustrator 15.1.0, SVG Export Plug-In . SVG Version: 6.00 Build 0)  -->
<!DOCTYPE svg PUBLIC "-//W3C//DTD SVG 1.1//EN" "http://www.w3.org/Graphics/SVG/1.1/DTD/svg11.dtd">
<svg version="1.1" id="Layer_1" xmlns="http://www.w3.org/2000/svg" xmlns:xlink="http://www.w3.org/1999/xlink" x="0px" y="0px"
	 width="180px" height="181.285px" viewBox="0 0 180 181.285" enable-background="new 0 0 180 181.285" xml:space="preserve">
<g>
	<rect x="0.014" y="-0.071" fill="#2B2333" width="180" height="181.285"/>
</g>
<g>
	<rect x="0.014" y="27.071" fill="#2B2333" width="25.714" height="25.715"/>
</g>
<g>
	<rect x="25.729" y="27.071" fill="#2B2333" width="25.714" height="25.715"/>
</g>
<g>
	<rect x="51.443" y="27.071" fill="#2B2333" width="25.714" height="25.715"/>
</g>
<g>
	<rect x="77.157" y="27.071" fill="#2B2333" width="25.714" height="25.715"/>
</g>
<g>
	<rect x="102.871" y="27.071" fill="#2B2333" width="25.715" height="25.715"/>
</g>
<g>
	<rect x="128.586" y="27.071" fill="#2B2333" width="25.714" height="25.715"/>
</g>
<g>
	<rect x="25.729" y="155.643" fill="#2B2333" width="25.714" height="25.714"/>
</g>
<g>
	<rect x="51.443" y="155.643" fill="#2B2333" width="25.714" height="25.714"/>
</g>
<g>
	<rect x="77.157" y="155.643" fill="#2B2333" width="25.714" height="25.714"/>
</g>
<g>
	<rect x="102.871" y="155.643" fill="#2B2333" width="25.715" height="25.714"/>
</g>
<g>
	<rect x="128.586" y="155.643" fill="#2B2333" width="25.714" height="25.714"/>
</g>
<g>
	<rect x="154.3" y="155.643" fill="#2B2333" width="25.714" height="25.714"/>
</g>
<g>
	<rect x="0.015" y="27" fill="#2B2333" width="25.714" height="25.715"/>
</g>
<g>
	<rect x="25.729" y="27" fill="#2B2333" width="25.714" height="25.715"/>
</g>
<g>
	<rect x="51.443" y="27" fill="#2B2333" width="25.714" height="25.715"/>
</g>
<g>
	<rect x="77.158" y="27" fill="#2B2333" width="25.713" height="25.715"/>
</g>
<g>
	<rect x="102.871" y="27" fill="#2B2333" width="25.715" height="25.715"/>
</g>
<g>
	<rect x="102.871" y="104.143" fill="#2B2333" width="25.715" height="25.715"/>
</g>
<g>
	<rect x="25.729" y="155.571" fill="#2B2333" width="25.714" height="25.714"/>
</g>
<g>
	<rect x="51.443" y="155.571" fill="#2B2333" width="25.714" height="25.714"/>
</g>
<g>
	<rect x="77.158" y="155.571" fill="#2B2333" width="25.713" height="25.714"/>
</g>
<g>
	<rect x="102.871" y="155.571" fill="#2B2333" width="25.715" height="25.714"/>
</g>
<g>
	<rect x="128.586" y="155.571" fill="#2B2333" width="25.715" height="25.714"/>
</g>
<g>
	<rect x="154.301" y="155.571" fill="#2B2333" width="25.713" height="25.714"/>
</g>
<g>
	<g>
		<rect x="128.586" y="27" fill="#2B2333" width="25.715" height="25.715"/>
	</g>
	<g>
		<path fill="#FF4F5F" d="M142.301,37.829c0,0.121-0.061,0.182-0.182,0.182h-0.533c-0.121,0-0.182-0.061-0.182-0.182v-8.45
			c-0.269,0.226-0.52,0.438-0.754,0.637c-0.234,0.199-0.48,0.412-0.741,0.637c-0.095,0.078-0.182,0.069-0.26-0.026l-0.261-0.312
			c-0.025-0.043-0.038-0.089-0.038-0.137c0-0.047,0.021-0.088,0.065-0.124l2.014-1.69c0.035-0.034,0.088-0.052,0.156-0.052h0.352
			c0.182,0,0.288,0.015,0.318,0.045s0.045,0.137,0.045,0.318V37.829z"/>
	</g>
</g>
<g>
	<g>
		<rect x="154.301" y="27" fill="#2B2333" width="25.713" height="25.715"/>
	</g>
	<g>
		<path fill="#E1DFE5" d="M164.389,38.011c-0.096,0-0.168-0.002-0.215-0.006c-0.048-0.004-0.082-0.018-0.104-0.039
			c-0.022-0.021-0.035-0.057-0.039-0.104c-0.005-0.048-0.007-0.119-0.007-0.214l0.013-0.286c0-0.112,0.035-0.204,0.104-0.273
			l2.146-2.366c1.595-1.724,2.392-3.033,2.392-3.926c0-0.52-0.173-0.953-0.52-1.3c-0.338-0.338-0.758-0.507-1.261-0.507
			c-0.702,0-1.435,0.195-2.197,0.585c-0.122,0.061-0.19,0.035-0.208-0.078l-0.078-0.429c-0.025-0.147,0.018-0.238,0.131-0.273
			c0.441-0.199,0.84-0.347,1.195-0.442s0.719-0.143,1.092-0.143c0.832,0,1.495,0.208,1.989,0.624
			c0.555,0.451,0.832,1.092,0.832,1.924c0,0.321-0.078,0.672-0.233,1.053c-0.156,0.381-0.373,0.78-0.65,1.196
			c-0.174,0.243-0.418,0.559-0.734,0.949c-0.316,0.39-0.679,0.806-1.086,1.248c-0.303,0.329-0.604,0.663-0.903,1.001
			c-0.3,0.338-0.601,0.671-0.903,1.001h4.55c0.121,0,0.182,0.061,0.182,0.182v0.442c0,0.121-0.061,0.182-0.182,0.182H164.389z"/>
	</g>
</g>
<g>
	<g>
		<rect x="0.015" y="52.715" fill="#2B2333" width="25.714" height="25.714"/>
	</g>
	<g>
		<path fill="#FF4F5F" d="M9.934,63.505c-0.13-0.035-0.187-0.135-0.169-0.299l0.052-0.507c0.018-0.104,0.087-0.13,0.208-0.078
			c0.364,0.147,0.708,0.251,1.034,0.312c0.325,0.061,0.704,0.096,1.138,0.104c0.685,0.009,1.261-0.165,1.729-0.52
			c0.546-0.364,0.819-0.897,0.819-1.599c0-1.231-0.923-1.846-2.769-1.846h-0.676c-0.113,0-0.169-0.047-0.169-0.143v-0.481
			c0-0.112,0.057-0.169,0.169-0.169h0.065c0.927,0,1.651-0.1,2.171-0.299c0.789-0.304,1.183-0.85,1.183-1.638
			c0-0.251-0.067-0.483-0.202-0.695s-0.314-0.392-0.54-0.54c-0.208-0.122-0.442-0.217-0.702-0.286
			c-0.26-0.069-0.533-0.104-0.819-0.104c-0.295,0-0.62,0.039-0.975,0.117c-0.355,0.078-0.698,0.182-1.027,0.312
			c-0.113,0.044-0.178,0.009-0.195-0.104l-0.052-0.481c-0.026-0.121,0.03-0.208,0.169-0.26c0.39-0.13,0.754-0.225,1.092-0.286
			c0.338-0.061,0.697-0.091,1.079-0.091c0.875,0,1.59,0.187,2.145,0.559c0.633,0.425,0.949,1.044,0.949,1.859
			c0,0.581-0.208,1.083-0.624,1.508c-0.347,0.373-0.797,0.646-1.352,0.819c0.277,0.035,0.535,0.108,0.773,0.221
			c0.238,0.113,0.444,0.269,0.618,0.468c0.199,0.217,0.351,0.461,0.455,0.734s0.156,0.574,0.156,0.903
			c0,0.434-0.089,0.826-0.267,1.177s-0.431,0.652-0.76,0.903c-0.321,0.234-0.689,0.418-1.105,0.553
			c-0.416,0.134-0.88,0.197-1.391,0.188c-0.459-0.009-0.856-0.035-1.189-0.078S10.281,63.617,9.934,63.505z"/>
	</g>
</g>
<g>
	<g>
		<rect x="25.729" y="52.715" fill="#2B2333" width="25.714" height="25.714"/>
	</g>
	<g>
		<path fill="#E1DFE5" d="M40.627,63.544c0,0.121-0.061,0.182-0.182,0.182h-0.52c-0.121,0-0.182-0.061-0.182-0.182v-2.106h-4.29
			c-0.182,0-0.289-0.015-0.319-0.046c-0.03-0.03-0.045-0.136-0.045-0.318v-0.403c0-0.078,0.004-0.13,0.013-0.156
			c0.008-0.026,0.035-0.073,0.078-0.143l4.147-6.188c0.052-0.078,0.088-0.124,0.11-0.136c0.021-0.013,0.08-0.02,0.175-0.02h0.65
			c0.182,0,0.288,0.015,0.318,0.045c0.03,0.03,0.045,0.137,0.045,0.318v6.253h1.287c0.121,0,0.182,0.061,0.182,0.182v0.429
			c0,0.122-0.061,0.182-0.182,0.182h-1.287V63.544z M39.744,60.645v-5.798c-0.642,0.971-1.279,1.937-1.911,2.899
			c-0.633,0.962-1.274,1.929-1.924,2.899H39.744z"/>
	</g>
</g>
<g>
	<g>
		<rect x="51.443" y="52.715" fill="#2B2333" width="25.714" height="25.714"/>
	</g>
	<g>
		<path fill="#E1DFE5" d="M61.857,63.531c-0.122-0.043-0.182-0.122-0.182-0.234v-0.546c0-0.147,0.061-0.191,0.182-0.13
			c0.312,0.147,0.617,0.251,0.917,0.312c0.299,0.061,0.626,0.091,0.981,0.091c0.763,0,1.382-0.187,1.859-0.559
			c0.52-0.398,0.78-0.971,0.78-1.716c0-1.464-0.837-2.197-2.509-2.197c-0.33,0-0.626,0.018-0.891,0.052
			c-0.264,0.035-0.557,0.096-0.877,0.182c-0.095,0.026-0.173,0.015-0.234-0.032c-0.061-0.048-0.091-0.119-0.091-0.215l0.078-4.147
			c0-0.182,0.015-0.288,0.046-0.318c0.03-0.03,0.136-0.045,0.318-0.045h4.446c0.122,0,0.182,0.061,0.182,0.182v0.429
			c0,0.122-0.061,0.182-0.182,0.182h-3.926c-0.009,0.546-0.02,1.079-0.033,1.599c-0.013,0.52-0.024,1.053-0.032,1.599
			c0.424-0.165,0.94-0.247,1.547-0.247c0.91,0,1.646,0.247,2.21,0.741c0.563,0.512,0.845,1.196,0.845,2.054
			c0,1.049-0.325,1.859-0.975,2.431c-0.624,0.546-1.478,0.819-2.561,0.819c-0.39,0-0.728-0.022-1.014-0.065
			C62.455,63.708,62.16,63.635,61.857,63.531z"/>
	</g>
</g>
<g>
	<g>
		<rect x="77.158" y="52.715" fill="#2B2333" width="25.713" height="25.714"/>
	</g>
	<g>
		<path fill="#E1DFE5" d="M92.666,54.963c-0.199-0.069-0.426-0.125-0.682-0.169s-0.51-0.065-0.761-0.065
			c-1.179,0-2.05,0.424-2.613,1.274c-0.477,0.71-0.724,1.686-0.741,2.925c0.19-0.347,0.468-0.641,0.832-0.884
			c0.451-0.321,0.958-0.481,1.521-0.481c0.789,0,1.451,0.208,1.989,0.624c0.685,0.528,1.026,1.334,1.026,2.418
			c0,0.918-0.281,1.681-0.845,2.288c-0.571,0.615-1.343,0.923-2.314,0.923c-2.08,0-3.12-1.534-3.12-4.602
			c0-1.604,0.321-2.855,0.962-3.757c0.754-1.022,1.889-1.534,3.406-1.534c0.225,0,0.461,0.018,0.708,0.052
			c0.247,0.035,0.475,0.083,0.683,0.143c0.13,0.026,0.186,0.104,0.169,0.234l-0.026,0.481c0,0.061-0.021,0.102-0.064,0.123
			C92.754,54.979,92.71,54.981,92.666,54.963z M92.328,60.67c0-0.702-0.182-1.257-0.545-1.664c-0.365-0.416-0.884-0.624-1.561-0.624
			c-0.347,0-0.659,0.054-0.936,0.163s-0.514,0.258-0.708,0.448c-0.195,0.191-0.347,0.42-0.455,0.689
			c-0.108,0.269-0.163,0.563-0.163,0.884c0,0.659,0.182,1.213,0.546,1.664c0.398,0.528,0.931,0.793,1.599,0.793
			c0.685,0,1.235-0.229,1.651-0.689C92.139,61.901,92.328,61.346,92.328,60.67z"/>
	</g>
</g>
<g>
	<g>
		<rect x="102.871" y="52.715" fill="#2B2333" width="25.715" height="25.714"/>
	</g>
	<g>
		<path fill="#E1DFE5" d="M114.936,63.543c-0.061,0.121-0.146,0.182-0.26,0.182h-0.65c-0.051,0-0.088-0.017-0.109-0.052
			s-0.02-0.078,0.006-0.13l3.783-8.723h-4.823c-0.121,0-0.182-0.061-0.182-0.182v-0.429c0-0.122,0.061-0.182,0.182-0.182h5.396
			c0.182,0,0.287,0.015,0.318,0.045c0.03,0.03,0.045,0.137,0.045,0.318v0.325c0,0.069-0.013,0.13-0.039,0.182L114.936,63.543z"/>
	</g>
</g>
<g>
	<g>
		<rect x="128.586" y="52.715" fill="#2B2333" width="25.715" height="25.714"/>
	</g>
	<g>
		<path fill="#E1DFE5" d="M144.719,61.229c0,0.424-0.088,0.806-0.266,1.144c-0.178,0.338-0.432,0.62-0.761,0.845
			c-0.286,0.19-0.615,0.338-0.987,0.442c-0.373,0.104-0.776,0.156-1.209,0.156c-0.426,0-0.822-0.057-1.19-0.169
			c-0.368-0.113-0.704-0.269-1.007-0.468c-0.33-0.234-0.586-0.518-0.768-0.852c-0.182-0.333-0.273-0.7-0.273-1.098
			c0-0.676,0.227-1.227,0.677-1.651c0.347-0.329,0.88-0.628,1.599-0.897c-1.317-0.65-1.976-1.482-1.976-2.496
			c0-0.364,0.091-0.687,0.272-0.968s0.438-0.535,0.768-0.761c0.277-0.173,0.574-0.305,0.891-0.396
			c0.316-0.091,0.652-0.136,1.008-0.136c0.416,0,0.787,0.045,1.117,0.136c0.33,0.091,0.629,0.228,0.896,0.41
			c0.599,0.416,0.897,0.988,0.897,1.716c0,0.902-0.676,1.734-2.028,2.496c0.355,0.13,0.674,0.273,0.956,0.429
			c0.281,0.156,0.509,0.312,0.683,0.468C144.485,59.994,144.719,60.545,144.719,61.229z M143.81,61.164
			c0-0.477-0.217-0.893-0.65-1.248c-0.139-0.112-0.333-0.238-0.585-0.377c-0.252-0.138-0.559-0.29-0.923-0.455
			c-0.112-0.061-0.238-0.061-0.377,0c-0.338,0.13-0.638,0.266-0.897,0.409s-0.468,0.275-0.623,0.396
			c-0.174,0.174-0.314,0.375-0.423,0.604c-0.108,0.23-0.163,0.475-0.163,0.735c0,0.528,0.248,0.962,0.741,1.3
			c0.45,0.338,0.979,0.507,1.587,0.507c0.623,0,1.147-0.147,1.572-0.442C143.563,62.256,143.81,61.78,143.81,61.164z
			 M143.484,56.289c0-0.494-0.217-0.884-0.65-1.17c-0.381-0.269-0.827-0.403-1.338-0.403c-0.556,0-1.023,0.139-1.404,0.416
			c-0.416,0.277-0.625,0.663-0.625,1.157c0,0.451,0.217,0.858,0.65,1.222c0.121,0.113,0.284,0.234,0.488,0.364
			c0.203,0.13,0.443,0.26,0.721,0.39c0.069,0.035,0.126,0.05,0.17,0.045c0.043-0.004,0.107-0.028,0.194-0.071
			c0.555-0.303,0.992-0.622,1.313-0.956C143.324,56.95,143.484,56.619,143.484,56.289z"/>
	</g>
</g>
<g>
	<g>
		<rect x="154.301" y="52.715" fill="#2B2333" width="25.713" height="25.714"/>
	</g>
	<g>
		<path fill="#E1DFE5" d="M164.545,63.634c-0.131-0.026-0.188-0.126-0.17-0.299l0.039-0.455c0.018-0.104,0.087-0.13,0.208-0.078
			c0.217,0.087,0.436,0.147,0.657,0.182c0.221,0.035,0.47,0.052,0.747,0.052c0.606,0,1.136-0.119,1.586-0.357
			s0.819-0.579,1.104-1.021c0.434-0.728,0.659-1.651,0.676-2.769c-0.527,0.85-1.313,1.274-2.353,1.274
			c-0.798,0-1.464-0.203-2.002-0.611c-0.685-0.528-1.026-1.339-1.026-2.431c0-0.962,0.281-1.729,0.845-2.301
			c0.571-0.598,1.353-0.897,2.34-0.897c2.08,0,3.12,1.534,3.12,4.602c0,3.527-1.461,5.291-4.381,5.291
			C165.537,63.816,165.072,63.755,164.545,63.634z M169.303,57.173c0-0.676-0.183-1.244-0.547-1.703
			c-0.398-0.494-0.928-0.741-1.586-0.741c-0.701,0-1.252,0.221-1.65,0.663c-0.391,0.416-0.586,0.971-0.586,1.664
			c0,0.737,0.178,1.309,0.533,1.716h-0.013c0.372,0.398,0.901,0.598,1.586,0.598c0.711,0,1.266-0.199,1.664-0.598
			C169.104,58.356,169.303,57.823,169.303,57.173z"/>
	</g>
</g>
<g>
	<g>
		<rect x="0.015" y="78.429" fill="#2B2333" width="25.714" height="25.714"/>
	</g>
	<g>
		<path fill="#FF4F5F" d="M9.791,89.257c0,0.121-0.061,0.182-0.182,0.182H9.076c-0.122,0-0.182-0.061-0.182-0.182v-8.45
			c-0.269,0.226-0.52,0.438-0.754,0.637c-0.234,0.199-0.481,0.412-0.741,0.637c-0.095,0.078-0.182,0.069-0.26-0.026l-0.26-0.312
			C6.853,81.7,6.84,81.654,6.84,81.606c0-0.047,0.021-0.088,0.065-0.124l2.015-1.69c0.035-0.034,0.087-0.052,0.156-0.052h0.351
			c0.182,0,0.288,0.015,0.318,0.045s0.045,0.137,0.045,0.318V89.257z"/>
		<path fill="#FF4F5F" d="M20.035,84.577c0,3.276-1.058,4.914-3.172,4.914c-2.132,0-3.198-1.638-3.198-4.914
			c0-1.36,0.208-2.465,0.624-3.315c0.528-1.066,1.387-1.599,2.574-1.599c1.17,0,2.023,0.533,2.561,1.599
			c0.2,0.425,0.351,0.91,0.455,1.456S20.035,83.884,20.035,84.577z M19.099,84.577c0-2.721-0.746-4.082-2.236-4.082
			c-1.491,0-2.236,1.361-2.236,4.082c0,2.73,0.746,4.095,2.236,4.095C18.354,88.672,19.099,87.307,19.099,84.577z"/>
	</g>
</g>
<g>
	<g>
		<rect x="25.729" y="78.429" fill="#2B2333" width="25.714" height="25.714"/>
	</g>
	<g>
		<path fill="#E1DFE5" d="M35.505,89.257c0,0.121-0.061,0.182-0.182,0.182h-0.533c-0.122,0-0.182-0.061-0.182-0.182v-8.45
			c-0.269,0.226-0.52,0.438-0.754,0.637c-0.234,0.199-0.481,0.412-0.741,0.637c-0.095,0.078-0.182,0.069-0.26-0.026l-0.26-0.312
			c-0.026-0.043-0.039-0.089-0.039-0.137c0-0.047,0.021-0.088,0.065-0.124l2.015-1.69c0.035-0.034,0.087-0.052,0.156-0.052h0.351
			c0.182,0,0.288,0.015,0.318,0.045s0.045,0.137,0.045,0.318V89.257z"/>
		<path fill="#E1DFE5" d="M43.383,89.257c0,0.121-0.061,0.182-0.182,0.182h-0.533c-0.122,0-0.182-0.061-0.182-0.182v-8.45
			c-0.269,0.226-0.52,0.438-0.754,0.637c-0.234,0.199-0.481,0.412-0.741,0.637c-0.095,0.078-0.182,0.069-0.26-0.026l-0.26-0.312
			c-0.026-0.043-0.039-0.089-0.039-0.137c0-0.047,0.021-0.088,0.065-0.124l2.015-1.69c0.035-0.034,0.087-0.052,0.156-0.052h0.351
			c0.182,0,0.288,0.015,0.318,0.045s0.045,0.137,0.045,0.318V89.257z"/>
	</g>
</g>
<g>
	<g>
		<rect x="51.443" y="78.429" fill="#2B2333" width="25.714" height="25.714"/>
	</g>
	<g>
		<path fill="#E1DFE5" d="M61.22,89.257c0,0.121-0.061,0.182-0.182,0.182h-0.533c-0.122,0-0.182-0.061-0.182-0.182v-8.45
			c-0.269,0.226-0.52,0.438-0.754,0.637c-0.234,0.199-0.481,0.412-0.741,0.637c-0.095,0.078-0.182,0.069-0.26-0.026l-0.26-0.312
			c-0.026-0.043-0.039-0.089-0.039-0.137c0-0.047,0.021-0.088,0.065-0.124l2.015-1.69c0.035-0.034,0.087-0.052,0.156-0.052h0.351
			c0.182,0,0.288,0.015,0.318,0.045s0.045,0.137,0.045,0.318V89.257z"/>
		<path fill="#E1DFE5" d="M65.471,89.439c-0.095,0-0.167-0.002-0.214-0.006c-0.048-0.004-0.083-0.018-0.104-0.039
			c-0.022-0.021-0.035-0.057-0.039-0.104c-0.004-0.048-0.006-0.119-0.006-0.214l0.013-0.286c0-0.112,0.035-0.204,0.104-0.273
			l2.145-2.366c1.595-1.724,2.392-3.033,2.392-3.926c0-0.52-0.173-0.953-0.52-1.3c-0.338-0.338-0.758-0.507-1.261-0.507
			c-0.702,0-1.435,0.195-2.197,0.585c-0.122,0.061-0.19,0.035-0.208-0.078l-0.078-0.429c-0.026-0.147,0.018-0.238,0.13-0.273
			c0.442-0.199,0.84-0.347,1.196-0.442s0.719-0.143,1.092-0.143c0.832,0,1.495,0.208,1.989,0.624
			c0.555,0.451,0.832,1.092,0.832,1.924c0,0.321-0.078,0.672-0.234,1.053c-0.156,0.381-0.373,0.78-0.65,1.196
			c-0.173,0.243-0.418,0.559-0.734,0.949c-0.316,0.39-0.678,0.806-1.085,1.248c-0.303,0.329-0.604,0.663-0.903,1.001
			c-0.299,0.338-0.601,0.671-0.904,1.001h4.55c0.121,0,0.182,0.061,0.182,0.182v0.442c0,0.121-0.061,0.182-0.182,0.182H65.471z"/>
	</g>
</g>
<g>
	<g>
		<rect x="77.158" y="78.429" fill="#2B2333" width="25.713" height="25.714"/>
	</g>
	<g>
		<path fill="#E1DFE5" d="M86.934,89.258c0,0.121-0.061,0.182-0.182,0.182h-0.533c-0.122,0-0.182-0.061-0.182-0.182v-8.45
			c-0.269,0.226-0.52,0.438-0.754,0.637c-0.234,0.199-0.481,0.412-0.741,0.637c-0.095,0.078-0.182,0.069-0.26-0.026l-0.26-0.312
			c-0.026-0.043-0.039-0.089-0.039-0.137c0-0.047,0.021-0.088,0.065-0.124l2.015-1.69c0.035-0.034,0.087-0.052,0.156-0.052h0.351
			c0.182,0,0.288,0.015,0.318,0.045s0.045,0.137,0.045,0.318V89.258z"/>
		<path fill="#E1DFE5" d="M91.016,89.219c-0.13-0.035-0.187-0.135-0.169-0.299l0.052-0.507c0.018-0.104,0.087-0.13,0.208-0.078
			c0.364,0.147,0.708,0.251,1.034,0.312c0.324,0.061,0.703,0.096,1.137,0.104c0.686,0.009,1.262-0.165,1.729-0.52
			c0.546-0.364,0.819-0.897,0.819-1.599c0-1.231-0.924-1.846-2.77-1.846h-0.676c-0.113,0-0.17-0.047-0.17-0.143v-0.481
			c0-0.112,0.057-0.169,0.17-0.169h0.064c0.928,0,1.651-0.1,2.172-0.299c0.788-0.304,1.183-0.85,1.183-1.638
			c0-0.251-0.067-0.483-0.202-0.695c-0.134-0.212-0.314-0.392-0.539-0.54c-0.208-0.122-0.441-0.217-0.702-0.286
			c-0.26-0.069-0.532-0.104-0.819-0.104c-0.295,0-0.619,0.039-0.975,0.117c-0.355,0.078-0.697,0.182-1.027,0.312
			c-0.112,0.044-0.178,0.009-0.194-0.104l-0.052-0.481c-0.026-0.121,0.029-0.208,0.168-0.26c0.391-0.13,0.754-0.225,1.093-0.286
			c0.338-0.061,0.697-0.091,1.079-0.091c0.875,0,1.59,0.187,2.145,0.559c0.633,0.425,0.949,1.044,0.949,1.859
			c0,0.581-0.208,1.083-0.624,1.508c-0.347,0.373-0.798,0.646-1.353,0.819c0.277,0.035,0.535,0.108,0.773,0.221
			c0.238,0.113,0.445,0.269,0.618,0.468c0.199,0.217,0.351,0.461,0.455,0.734s0.155,0.574,0.155,0.903
			c0,0.434-0.088,0.826-0.266,1.177s-0.432,0.652-0.761,0.903c-0.321,0.234-0.688,0.418-1.104,0.553
			c-0.416,0.134-0.881,0.197-1.392,0.188c-0.46-0.009-0.856-0.035-1.189-0.078S91.362,89.331,91.016,89.219z"/>
	</g>
</g>
<g>
	<g>
		<rect x="102.871" y="78.429" fill="#2B2333" width="25.715" height="25.714"/>
	</g>
	<g>
		<path fill="#E1DFE5" d="M112.648,89.258c0,0.121-0.061,0.182-0.182,0.182h-0.533c-0.122,0-0.183-0.061-0.183-0.182v-8.45
			c-0.269,0.226-0.521,0.438-0.754,0.637c-0.233,0.199-0.481,0.412-0.741,0.637c-0.096,0.078-0.182,0.069-0.26-0.026l-0.26-0.312
			c-0.026-0.043-0.039-0.089-0.039-0.137c0-0.047,0.021-0.088,0.064-0.124l2.016-1.69c0.034-0.034,0.086-0.052,0.156-0.052h0.351
			c0.183,0,0.288,0.015,0.318,0.045s0.046,0.137,0.046,0.318V89.258z"/>
		<path fill="#E1DFE5" d="M121.709,89.258c0,0.121-0.061,0.182-0.182,0.182h-0.521c-0.121,0-0.182-0.061-0.182-0.182v-2.106h-4.29
			c-0.182,0-0.289-0.015-0.318-0.046c-0.031-0.03-0.046-0.136-0.046-0.318v-0.403c0-0.078,0.005-0.13,0.013-0.156
			c0.009-0.026,0.035-0.073,0.078-0.143l4.147-6.188c0.052-0.078,0.089-0.124,0.11-0.136c0.021-0.013,0.08-0.02,0.176-0.02h0.65
			c0.182,0,0.287,0.015,0.318,0.045c0.029,0.03,0.045,0.137,0.045,0.318v6.253h1.287c0.121,0,0.182,0.061,0.182,0.182v0.429
			c0,0.122-0.061,0.182-0.182,0.182h-1.287V89.258z M120.825,86.358v-5.798c-0.642,0.971-1.278,1.937-1.911,2.899
			s-1.273,1.929-1.924,2.899H120.825z"/>
	</g>
</g>
<g>
	<g>
		<rect x="128.586" y="78.429" fill="#2B2333" width="25.715" height="25.714"/>
	</g>
	<g>
		<path fill="#E1DFE5" d="M138.362,89.258c0,0.121-0.061,0.182-0.182,0.182h-0.533c-0.122,0-0.183-0.061-0.183-0.182v-8.45
			c-0.268,0.226-0.52,0.438-0.754,0.637c-0.233,0.199-0.48,0.412-0.74,0.637c-0.096,0.078-0.182,0.069-0.26-0.026l-0.261-0.312
			c-0.026-0.043-0.038-0.089-0.038-0.137c0-0.047,0.021-0.088,0.064-0.124l2.015-1.69c0.034-0.034,0.087-0.052,0.156-0.052h0.351
			c0.183,0,0.289,0.015,0.318,0.045c0.031,0.03,0.046,0.137,0.046,0.318V89.258z"/>
		<path fill="#E1DFE5" d="M142.938,89.245c-0.122-0.043-0.183-0.122-0.183-0.234v-0.546c0-0.147,0.061-0.191,0.183-0.13
			c0.312,0.147,0.617,0.251,0.917,0.312c0.299,0.061,0.625,0.091,0.98,0.091c0.764,0,1.383-0.187,1.859-0.559
			c0.52-0.398,0.78-0.971,0.78-1.716c0-1.464-0.837-2.197-2.509-2.197c-0.33,0-0.627,0.018-0.891,0.052
			c-0.265,0.035-0.557,0.096-0.878,0.182c-0.095,0.026-0.173,0.015-0.233-0.032c-0.061-0.048-0.092-0.119-0.092-0.215l0.078-4.147
			c0-0.182,0.016-0.288,0.046-0.318s0.136-0.045,0.318-0.045h4.446c0.121,0,0.182,0.061,0.182,0.182v0.429
			c0,0.122-0.061,0.182-0.182,0.182h-3.926c-0.01,0.546-0.02,1.079-0.033,1.599c-0.013,0.52-0.023,1.053-0.032,1.599
			c0.425-0.165,0.94-0.247,1.547-0.247c0.91,0,1.646,0.247,2.21,0.741c0.563,0.512,0.846,1.196,0.846,2.054
			c0,1.049-0.326,1.859-0.976,2.431c-0.624,0.546-1.478,0.819-2.562,0.819c-0.39,0-0.728-0.022-1.014-0.065
			C143.536,89.422,143.242,89.349,142.938,89.245z"/>
	</g>
</g>
<g>
	<g>
		<rect x="154.301" y="78.429" fill="#2B2333" width="25.713" height="25.714"/>
	</g>
	<g>
		<path fill="#E1DFE5" d="M164.076,89.258c0,0.121-0.061,0.182-0.182,0.182h-0.533c-0.121,0-0.182-0.061-0.182-0.182v-8.45
			c-0.27,0.226-0.521,0.438-0.754,0.637c-0.234,0.199-0.481,0.412-0.742,0.637c-0.095,0.078-0.182,0.069-0.26-0.026l-0.26-0.312
			c-0.025-0.043-0.039-0.089-0.039-0.137c0-0.047,0.021-0.088,0.065-0.124l2.015-1.69c0.035-0.034,0.087-0.052,0.156-0.052h0.352
			c0.182,0,0.287,0.015,0.318,0.045c0.029,0.03,0.045,0.137,0.045,0.318V89.258z"/>
		<path fill="#E1DFE5" d="M173.748,80.678c-0.199-0.069-0.427-0.125-0.682-0.169c-0.256-0.043-0.51-0.065-0.762-0.065
			c-1.178,0-2.049,0.424-2.612,1.274c-0.478,0.71-0.724,1.686-0.741,2.925c0.19-0.347,0.469-0.641,0.832-0.884
			c0.451-0.321,0.957-0.481,1.521-0.481c0.788,0,1.451,0.208,1.988,0.624c0.685,0.528,1.027,1.334,1.027,2.418
			c0,0.918-0.281,1.681-0.846,2.288c-0.571,0.615-1.343,0.923-2.313,0.923c-2.08,0-3.12-1.534-3.12-4.602
			c0-1.604,0.32-2.855,0.963-3.757c0.754-1.022,1.889-1.534,3.405-1.534c0.226,0,0.462,0.018,0.708,0.052
			c0.248,0.035,0.475,0.083,0.684,0.143c0.129,0.026,0.186,0.104,0.168,0.234l-0.025,0.481c0,0.061-0.021,0.102-0.064,0.123
			C173.835,80.693,173.791,80.695,173.748,80.678z M173.41,86.385c0-0.702-0.182-1.257-0.546-1.664
			c-0.364-0.416-0.884-0.624-1.56-0.624c-0.348,0-0.659,0.054-0.937,0.163s-0.514,0.258-0.708,0.448
			c-0.195,0.191-0.348,0.42-0.455,0.689c-0.109,0.269-0.163,0.563-0.163,0.884c0,0.659,0.183,1.213,0.546,1.664
			c0.398,0.528,0.932,0.793,1.6,0.793c0.684,0,1.234-0.229,1.65-0.689C173.22,87.615,173.41,87.061,173.41,86.385z"/>
	</g>
</g>
<g>
	<g>
		<rect x="0.015" y="104.143" fill="#2B2333" width="25.714" height="25.715"/>
	</g>
	<g>
		<path fill="#FF4F5F" d="M9.898,115.258c0,0.121-0.061,0.182-0.182,0.182H9.183c-0.122,0-0.182-0.061-0.182-0.182v-8.45
			c-0.269,0.226-0.52,0.438-0.754,0.638c-0.234,0.199-0.481,0.411-0.741,0.637c-0.095,0.078-0.182,0.068-0.26-0.026l-0.26-0.312
			c-0.026-0.044-0.039-0.09-0.039-0.137c0-0.048,0.021-0.089,0.065-0.124l2.015-1.69c0.035-0.033,0.087-0.051,0.156-0.051h0.351
			c0.182,0,0.288,0.015,0.318,0.045s0.045,0.137,0.045,0.318V115.258z"/>
		<path fill="#FF4F5F" d="M16.125,115.258c-0.061,0.121-0.147,0.182-0.26,0.182h-0.65c-0.052,0-0.089-0.018-0.11-0.052
			s-0.02-0.078,0.006-0.13l3.783-8.723h-4.823c-0.121,0-0.182-0.061-0.182-0.183v-0.429c0-0.121,0.061-0.182,0.182-0.182h5.395
			c0.182,0,0.288,0.015,0.319,0.045c0.03,0.03,0.045,0.137,0.045,0.318v0.325c0,0.069-0.013,0.13-0.039,0.183L16.125,115.258z"/>
	</g>
</g>
<g>
	<g>
		<rect x="25.729" y="104.143" fill="#2B2333" width="25.714" height="25.715"/>
	</g>
	<g>
		<path fill="#E1DFE5" d="M35.612,115.258c0,0.121-0.061,0.182-0.182,0.182h-0.533c-0.122,0-0.182-0.061-0.182-0.182v-8.45
			c-0.269,0.226-0.52,0.438-0.754,0.638c-0.234,0.199-0.481,0.411-0.741,0.637c-0.095,0.078-0.182,0.068-0.26-0.026l-0.26-0.312
			c-0.026-0.044-0.039-0.09-0.039-0.137c0-0.048,0.021-0.089,0.065-0.124l2.015-1.69c0.035-0.033,0.087-0.051,0.156-0.051h0.351
			c0.182,0,0.288,0.015,0.318,0.045s0.045,0.137,0.045,0.318V115.258z"/>
		<path fill="#E1DFE5" d="M45.908,112.943c0,0.425-0.089,0.807-0.266,1.145c-0.178,0.338-0.432,0.619-0.761,0.845
			c-0.286,0.19-0.615,0.338-0.988,0.442c-0.373,0.104-0.776,0.156-1.209,0.156c-0.425,0-0.821-0.057-1.19-0.17
			c-0.368-0.112-0.704-0.269-1.007-0.468c-0.33-0.233-0.585-0.518-0.767-0.852c-0.182-0.333-0.273-0.7-0.273-1.099
			c0-0.676,0.226-1.227,0.676-1.65c0.346-0.33,0.879-0.629,1.599-0.897c-1.317-0.649-1.976-1.481-1.976-2.496
			c0-0.364,0.091-0.687,0.273-0.968c0.182-0.282,0.438-0.535,0.767-0.762c0.277-0.172,0.574-0.305,0.891-0.396
			c0.316-0.09,0.652-0.136,1.008-0.136c0.416,0,0.788,0.046,1.118,0.136c0.33,0.092,0.628,0.229,0.897,0.41
			c0.598,0.416,0.897,0.988,0.897,1.716c0,0.901-0.676,1.733-2.028,2.496c0.355,0.13,0.674,0.272,0.956,0.429
			c0.281,0.156,0.509,0.313,0.683,0.469C45.674,111.709,45.908,112.26,45.908,112.943z M44.999,112.879
			c0-0.477-0.217-0.893-0.65-1.248c-0.139-0.113-0.333-0.238-0.585-0.377s-0.559-0.291-0.923-0.455
			c-0.113-0.061-0.238-0.061-0.377,0c-0.338,0.13-0.637,0.266-0.897,0.409c-0.26,0.144-0.468,0.275-0.624,0.396
			c-0.173,0.174-0.314,0.375-0.422,0.604c-0.108,0.23-0.163,0.475-0.163,0.734c0,0.529,0.247,0.963,0.741,1.301
			c0.451,0.338,0.979,0.506,1.586,0.506c0.624,0,1.148-0.146,1.573-0.441C44.751,113.971,44.999,113.494,44.999,112.879z
			 M44.673,108.004c0-0.494-0.217-0.885-0.65-1.17c-0.381-0.27-0.828-0.403-1.339-0.403c-0.555,0-1.023,0.139-1.404,0.416
			c-0.416,0.277-0.624,0.663-0.624,1.157c0,0.451,0.217,0.857,0.65,1.222c0.122,0.112,0.284,0.233,0.488,0.364
			c0.204,0.13,0.444,0.26,0.721,0.39c0.069,0.034,0.126,0.05,0.169,0.046c0.043-0.004,0.108-0.028,0.195-0.072
			c0.555-0.303,0.992-0.621,1.313-0.955C44.513,108.664,44.673,108.333,44.673,108.004z"/>
	</g>
</g>
<g>
	<g>
		<rect x="51.443" y="104.143" fill="#2B2333" width="25.714" height="25.715"/>
	</g>
	<g>
		<path fill="#E1DFE5" d="M61.327,115.258c0,0.121-0.061,0.182-0.182,0.182h-0.533c-0.122,0-0.182-0.061-0.182-0.182v-8.45
			c-0.269,0.226-0.52,0.438-0.754,0.638c-0.234,0.199-0.481,0.411-0.741,0.637c-0.095,0.078-0.182,0.068-0.26-0.026l-0.26-0.312
			c-0.026-0.044-0.039-0.09-0.039-0.137c0-0.048,0.021-0.089,0.065-0.124l2.015-1.69c0.035-0.033,0.087-0.051,0.156-0.051h0.351
			c0.182,0,0.288,0.015,0.318,0.045s0.045,0.137,0.045,0.318V115.258z"/>
		<path fill="#E1DFE5" d="M65.734,115.349c-0.13-0.026-0.187-0.126-0.169-0.299l0.039-0.455c0.018-0.104,0.087-0.13,0.208-0.078
			c0.217,0.087,0.436,0.147,0.657,0.183c0.221,0.034,0.47,0.051,0.748,0.051c0.606,0,1.135-0.119,1.586-0.357
			s0.819-0.578,1.105-1.02c0.433-0.729,0.659-1.651,0.676-2.77c-0.528,0.85-1.313,1.273-2.353,1.273
			c-0.797,0-1.464-0.203-2.002-0.61c-0.685-0.528-1.027-1.339-1.027-2.431c0-0.963,0.282-1.729,0.845-2.301
			c0.572-0.599,1.352-0.897,2.34-0.897c2.08,0,3.12,1.534,3.12,4.603c0,3.527-1.46,5.291-4.381,5.291
			C66.726,115.531,66.262,115.47,65.734,115.349z M70.492,108.888c0-0.677-0.182-1.243-0.546-1.703
			c-0.399-0.494-0.928-0.741-1.586-0.741c-0.702,0-1.252,0.221-1.651,0.663c-0.39,0.416-0.585,0.971-0.585,1.664
			c0,0.737,0.178,1.31,0.533,1.716h-0.013c0.373,0.398,0.901,0.598,1.586,0.598c0.711,0,1.266-0.199,1.664-0.598
			C70.292,110.07,70.492,109.537,70.492,108.888z"/>
	</g>
</g>
<g>
	<g>
		<rect x="77.158" y="104.143" fill="#2B2333" width="25.713" height="25.715"/>
	</g>
	<g>
		<path fill="#E1DFE5" d="M83.307,115.154c-0.095,0-0.167-0.002-0.214-0.007c-0.048-0.005-0.083-0.018-0.104-0.039
			c-0.022-0.021-0.035-0.057-0.039-0.104c-0.004-0.047-0.006-0.119-0.006-0.214l0.013-0.286c0-0.112,0.035-0.203,0.104-0.273
			l2.145-2.365c1.595-1.725,2.392-3.033,2.392-3.926c0-0.521-0.173-0.953-0.52-1.301c-0.338-0.338-0.758-0.507-1.261-0.507
			c-0.702,0-1.435,0.195-2.197,0.585c-0.122,0.061-0.19,0.035-0.208-0.078l-0.078-0.429c-0.026-0.147,0.018-0.238,0.13-0.272
			c0.442-0.199,0.84-0.348,1.196-0.442s0.719-0.144,1.092-0.144c0.832,0,1.495,0.209,1.989,0.625
			c0.555,0.45,0.832,1.092,0.832,1.924c0,0.32-0.078,0.672-0.234,1.053c-0.156,0.381-0.373,0.779-0.65,1.195
			c-0.173,0.243-0.418,0.56-0.734,0.949c-0.316,0.391-0.678,0.807-1.085,1.248c-0.303,0.33-0.604,0.663-0.903,1.002
			c-0.299,0.338-0.601,0.671-0.904,1h4.55c0.121,0,0.182,0.061,0.182,0.182v0.443c0,0.121-0.061,0.182-0.182,0.182H83.307z"/>
		<path fill="#E1DFE5" d="M97.178,110.292c0,3.276-1.058,4.914-3.172,4.914c-2.133,0-3.198-1.638-3.198-4.914
			c0-1.36,0.208-2.466,0.624-3.315c0.528-1.065,1.387-1.599,2.574-1.599c1.17,0,2.023,0.533,2.561,1.599
			c0.199,0.426,0.352,0.91,0.455,1.457C97.125,108.979,97.178,109.599,97.178,110.292z M96.242,110.292
			c0-2.722-0.746-4.082-2.236-4.082s-2.236,1.36-2.236,4.082c0,2.729,0.746,4.095,2.236,4.095S96.242,113.021,96.242,110.292z"/>
	</g>
</g>
<g>
	<path fill="#E1DFE5" d="M109.021,115.154c-0.096,0-0.168-0.002-0.215-0.007c-0.048-0.005-0.082-0.018-0.104-0.039
		c-0.022-0.021-0.035-0.057-0.039-0.104c-0.005-0.047-0.007-0.119-0.007-0.214l0.013-0.286c0-0.112,0.035-0.203,0.104-0.273
		l2.146-2.365c1.595-1.725,2.392-3.033,2.392-3.926c0-0.521-0.173-0.953-0.52-1.301c-0.338-0.338-0.758-0.507-1.261-0.507
		c-0.702,0-1.435,0.195-2.197,0.585c-0.122,0.061-0.19,0.035-0.208-0.078l-0.078-0.429c-0.025-0.147,0.018-0.238,0.131-0.272
		c0.441-0.199,0.84-0.348,1.195-0.442s0.719-0.144,1.092-0.144c0.832,0,1.495,0.209,1.989,0.625c0.555,0.45,0.832,1.092,0.832,1.924
		c0,0.32-0.078,0.672-0.233,1.053c-0.156,0.381-0.373,0.779-0.65,1.195c-0.174,0.243-0.418,0.56-0.734,0.949
		c-0.316,0.391-0.679,0.807-1.086,1.248c-0.303,0.33-0.604,0.663-0.903,1.002c-0.3,0.338-0.601,0.671-0.903,1h4.55
		c0.121,0,0.182,0.061,0.182,0.182v0.443c0,0.121-0.061,0.182-0.182,0.182H109.021z"/>
	<path fill="#E1DFE5" d="M120.525,114.973c0,0.121-0.061,0.182-0.182,0.182h-0.533c-0.121,0-0.182-0.061-0.182-0.182v-8.451
		c-0.269,0.227-0.52,0.438-0.754,0.638c-0.234,0.199-0.48,0.411-0.741,0.637c-0.095,0.078-0.182,0.069-0.26-0.026l-0.261-0.312
		c-0.025-0.044-0.038-0.089-0.038-0.137s0.021-0.089,0.065-0.124l2.014-1.689c0.035-0.034,0.088-0.052,0.156-0.052h0.352
		c0.182,0,0.288,0.015,0.318,0.046c0.03,0.029,0.045,0.137,0.045,0.318V114.973z"/>
</g>
<g>
	<g>
		<rect x="128.586" y="104.143" fill="#2B2333" width="25.715" height="25.715"/>
	</g>
	<g>
		<path fill="#E1DFE5" d="M134.735,115.154c-0.095,0-0.167-0.002-0.214-0.007c-0.049-0.005-0.083-0.018-0.104-0.039
			c-0.022-0.021-0.034-0.057-0.039-0.104c-0.005-0.047-0.007-0.119-0.007-0.214l0.014-0.286c0-0.112,0.034-0.203,0.104-0.273
			l2.145-2.365c1.596-1.725,2.393-3.033,2.393-3.926c0-0.521-0.174-0.953-0.52-1.301c-0.338-0.338-0.759-0.507-1.262-0.507
			c-0.701,0-1.434,0.195-2.197,0.585c-0.121,0.061-0.189,0.035-0.207-0.078l-0.078-0.429c-0.026-0.147,0.018-0.238,0.13-0.272
			c0.442-0.199,0.841-0.348,1.196-0.442s0.719-0.144,1.092-0.144c0.832,0,1.494,0.209,1.988,0.625
			c0.555,0.45,0.832,1.092,0.832,1.924c0,0.32-0.078,0.672-0.233,1.053c-0.156,0.381-0.373,0.779-0.65,1.195
			c-0.173,0.243-0.418,0.56-0.734,0.949c-0.316,0.391-0.679,0.807-1.085,1.248c-0.304,0.33-0.605,0.663-0.904,1.002
			c-0.299,0.338-0.6,0.671-0.903,1h4.55c0.121,0,0.182,0.061,0.182,0.182v0.443c0,0.121-0.061,0.182-0.182,0.182H134.735z"/>
		<path fill="#E1DFE5" d="M142.613,115.154c-0.096,0-0.167-0.002-0.215-0.007c-0.047-0.005-0.082-0.018-0.104-0.039
			s-0.035-0.057-0.039-0.104c-0.004-0.047-0.006-0.119-0.006-0.214l0.012-0.286c0-0.112,0.035-0.203,0.104-0.273l2.146-2.365
			c1.594-1.725,2.392-3.033,2.392-3.926c0-0.521-0.173-0.953-0.521-1.301c-0.338-0.338-0.758-0.507-1.26-0.507
			c-0.703,0-1.436,0.195-2.197,0.585c-0.122,0.061-0.191,0.035-0.209-0.078l-0.078-0.429c-0.025-0.147,0.018-0.238,0.131-0.272
			c0.441-0.199,0.84-0.348,1.195-0.442s0.72-0.144,1.092-0.144c0.832,0,1.496,0.209,1.99,0.625c0.555,0.45,0.832,1.092,0.832,1.924
			c0,0.32-0.078,0.672-0.234,1.053s-0.373,0.779-0.65,1.195c-0.174,0.243-0.418,0.56-0.734,0.949
			c-0.316,0.391-0.678,0.807-1.086,1.248c-0.303,0.33-0.604,0.663-0.902,1.002c-0.3,0.338-0.602,0.671-0.904,1h4.551
			c0.121,0,0.182,0.061,0.182,0.182v0.443c0,0.121-0.061,0.182-0.182,0.182H142.613z"/>
	</g>
</g>
<g>
	<g>
		<rect x="154.301" y="104.143" fill="#2B2333" width="25.713" height="25.715"/>
	</g>
	<g>
		<path fill="#E1DFE5" d="M160.449,115.154c-0.096,0-0.167-0.002-0.215-0.007c-0.047-0.005-0.082-0.018-0.104-0.039
			s-0.035-0.057-0.039-0.104c-0.004-0.047-0.006-0.119-0.006-0.214l0.012-0.286c0-0.112,0.035-0.203,0.104-0.273l2.146-2.365
			c1.594-1.725,2.392-3.033,2.392-3.926c0-0.521-0.173-0.953-0.521-1.301c-0.338-0.338-0.758-0.507-1.26-0.507
			c-0.703,0-1.436,0.195-2.197,0.585c-0.122,0.061-0.191,0.035-0.209-0.078l-0.078-0.429c-0.025-0.147,0.018-0.238,0.131-0.272
			c0.441-0.199,0.84-0.348,1.195-0.442s0.72-0.144,1.092-0.144c0.832,0,1.496,0.209,1.99,0.625c0.555,0.45,0.832,1.092,0.832,1.924
			c0,0.32-0.078,0.672-0.234,1.053s-0.373,0.779-0.65,1.195c-0.174,0.243-0.418,0.56-0.734,0.949
			c-0.316,0.391-0.678,0.807-1.086,1.248c-0.303,0.33-0.604,0.663-0.902,1.002c-0.3,0.338-0.602,0.671-0.904,1h4.551
			c0.121,0,0.182,0.061,0.182,0.182v0.443c0,0.121-0.061,0.182-0.182,0.182H160.449z"/>
		<path fill="#E1DFE5" d="M168.158,114.934c-0.13-0.035-0.187-0.135-0.169-0.3l0.052-0.507c0.018-0.104,0.087-0.13,0.208-0.078
			c0.364,0.147,0.708,0.252,1.034,0.313c0.324,0.061,0.703,0.096,1.137,0.104c0.686,0.009,1.262-0.164,1.729-0.52
			c0.546-0.364,0.819-0.897,0.819-1.6c0-1.23-0.924-1.846-2.77-1.846h-0.676c-0.113,0-0.17-0.047-0.17-0.143v-0.481
			c0-0.112,0.057-0.169,0.17-0.169h0.064c0.928,0,1.651-0.1,2.172-0.299c0.788-0.304,1.183-0.85,1.183-1.639
			c0-0.251-0.067-0.482-0.202-0.695c-0.134-0.212-0.314-0.392-0.539-0.539c-0.208-0.121-0.441-0.217-0.702-0.286
			c-0.26-0.069-0.532-0.104-0.819-0.104c-0.295,0-0.619,0.039-0.975,0.117s-0.697,0.182-1.027,0.313
			c-0.112,0.043-0.178,0.008-0.194-0.104l-0.052-0.481c-0.026-0.121,0.029-0.207,0.168-0.26c0.391-0.129,0.754-0.225,1.093-0.285
			c0.338-0.061,0.697-0.092,1.079-0.092c0.875,0,1.59,0.188,2.145,0.56c0.633,0.425,0.949,1.044,0.949,1.858
			c0,0.581-0.208,1.084-0.624,1.508c-0.347,0.373-0.798,0.646-1.353,0.82c0.277,0.034,0.535,0.107,0.773,0.221
			c0.238,0.112,0.445,0.269,0.618,0.468c0.199,0.217,0.351,0.462,0.455,0.734s0.155,0.574,0.155,0.903
			c0,0.434-0.088,0.826-0.266,1.177s-0.432,0.652-0.761,0.903c-0.321,0.234-0.688,0.418-1.104,0.553s-0.881,0.197-1.392,0.188
			c-0.46-0.009-0.856-0.034-1.189-0.078S168.505,115.045,168.158,114.934z"/>
	</g>
</g>
<g>
	<g>
		<rect x="0.015" y="129.857" fill="#2B2333" width="25.714" height="25.714"/>
	</g>
	<g>
		<path fill="#FF4F5F" d="M6.164,140.869c-0.095,0-0.167-0.002-0.214-0.007c-0.048-0.005-0.083-0.018-0.104-0.039
			c-0.022-0.021-0.035-0.057-0.039-0.104C5.802,140.672,5.8,140.6,5.8,140.505l0.013-0.286c0-0.112,0.035-0.203,0.104-0.273
			l2.145-2.365c1.595-1.725,2.392-3.033,2.392-3.926c0-0.521-0.173-0.953-0.52-1.301c-0.338-0.338-0.758-0.507-1.261-0.507
			c-0.702,0-1.435,0.195-2.197,0.585c-0.122,0.061-0.19,0.035-0.208-0.078l-0.078-0.429c-0.026-0.147,0.018-0.238,0.13-0.272
			c0.442-0.199,0.84-0.348,1.196-0.442s0.719-0.144,1.092-0.144c0.832,0,1.495,0.209,1.989,0.625
			c0.555,0.45,0.832,1.092,0.832,1.924c0,0.32-0.078,0.672-0.234,1.053c-0.156,0.381-0.373,0.779-0.65,1.195
			c-0.173,0.243-0.418,0.56-0.734,0.949c-0.316,0.391-0.678,0.807-1.085,1.248c-0.303,0.33-0.604,0.663-0.903,1.002
			c-0.299,0.338-0.601,0.671-0.904,1h4.55c0.121,0,0.182,0.061,0.182,0.182v0.443c0,0.121-0.061,0.182-0.182,0.182H6.164z"/>
		<path fill="#FF4F5F" d="M18.852,140.688c0,0.121-0.061,0.182-0.182,0.182h-0.52c-0.121,0-0.182-0.061-0.182-0.182v-2.106h-4.29
			c-0.182,0-0.289-0.015-0.319-0.046c-0.03-0.03-0.045-0.137-0.045-0.318v-0.402c0-0.078,0.004-0.131,0.013-0.156
			c0.008-0.026,0.035-0.074,0.078-0.144l4.147-6.188c0.052-0.077,0.088-0.123,0.11-0.136c0.021-0.013,0.08-0.02,0.175-0.02h0.65
			c0.182,0,0.288,0.015,0.318,0.046c0.03,0.029,0.045,0.137,0.045,0.318v6.252h1.287c0.121,0,0.182,0.062,0.182,0.183v0.429
			c0,0.122-0.061,0.183-0.182,0.183h-1.287V140.688z M17.968,137.787v-5.797c-0.642,0.971-1.279,1.937-1.911,2.898
			c-0.633,0.962-1.274,1.929-1.924,2.898H17.968z"/>
	</g>
</g>
<g>
	<g>
		<rect x="25.729" y="129.857" fill="#2B2333" width="25.714" height="25.714"/>
	</g>
	<g>
		<path fill="#E1DFE5" d="M31.878,140.869c-0.095,0-0.167-0.002-0.214-0.007c-0.048-0.005-0.083-0.018-0.104-0.039
			c-0.022-0.021-0.035-0.057-0.039-0.104c-0.004-0.047-0.006-0.119-0.006-0.214l0.013-0.286c0-0.112,0.035-0.203,0.104-0.273
			l2.145-2.365c1.595-1.725,2.392-3.033,2.392-3.926c0-0.521-0.173-0.953-0.52-1.301c-0.338-0.338-0.758-0.507-1.261-0.507
			c-0.702,0-1.435,0.195-2.197,0.585c-0.122,0.061-0.19,0.035-0.208-0.078l-0.078-0.429c-0.026-0.147,0.018-0.238,0.13-0.272
			c0.442-0.199,0.84-0.348,1.196-0.442s0.719-0.144,1.092-0.144c0.832,0,1.495,0.209,1.989,0.625
			c0.555,0.45,0.832,1.092,0.832,1.924c0,0.32-0.078,0.672-0.234,1.053c-0.156,0.381-0.373,0.779-0.65,1.195
			c-0.173,0.243-0.418,0.56-0.734,0.949c-0.316,0.391-0.678,0.807-1.085,1.248c-0.303,0.33-0.604,0.663-0.903,1.002
			c-0.299,0.338-0.601,0.671-0.904,1h4.55c0.121,0,0.182,0.061,0.182,0.182v0.443c0,0.121-0.061,0.182-0.182,0.182H31.878z"/>
		<path fill="#E1DFE5" d="M40.082,140.674c-0.122-0.043-0.182-0.121-0.182-0.234v-0.545c0-0.148,0.061-0.191,0.182-0.131
			c0.312,0.147,0.617,0.252,0.917,0.313c0.299,0.061,0.626,0.091,0.981,0.091c0.763,0,1.382-0.187,1.859-0.56
			c0.52-0.398,0.78-0.971,0.78-1.716c0-1.464-0.837-2.196-2.509-2.196c-0.33,0-0.626,0.018-0.891,0.051
			c-0.264,0.035-0.557,0.096-0.877,0.183c-0.095,0.026-0.173,0.015-0.234-0.032c-0.061-0.048-0.091-0.119-0.091-0.215l0.078-4.146
			c0-0.182,0.015-0.289,0.046-0.318c0.03-0.031,0.136-0.046,0.318-0.046h4.446c0.122,0,0.182,0.061,0.182,0.183v0.428
			c0,0.122-0.061,0.183-0.182,0.183h-3.926c-0.009,0.546-0.02,1.079-0.033,1.599c-0.013,0.521-0.024,1.053-0.032,1.6
			c0.424-0.165,0.94-0.247,1.547-0.247c0.91,0,1.646,0.247,2.21,0.741c0.563,0.512,0.845,1.195,0.845,2.054
			c0,1.049-0.325,1.858-0.975,2.431c-0.624,0.547-1.478,0.819-2.561,0.819c-0.39,0-0.728-0.022-1.014-0.065
			S40.385,140.777,40.082,140.674z"/>
	</g>
</g>
<g>
	<g>
		<rect x="51.443" y="129.857" fill="#2B2333" width="25.714" height="25.714"/>
	</g>
	<g>
		<path fill="#E1DFE5" d="M57.593,140.869c-0.095,0-0.167-0.002-0.214-0.007c-0.048-0.005-0.083-0.018-0.104-0.039
			c-0.022-0.021-0.035-0.057-0.039-0.104c-0.004-0.047-0.006-0.119-0.006-0.214l0.013-0.286c0-0.112,0.035-0.203,0.104-0.273
			l2.145-2.365c1.595-1.725,2.392-3.033,2.392-3.926c0-0.521-0.173-0.953-0.52-1.301c-0.338-0.338-0.758-0.507-1.261-0.507
			c-0.702,0-1.435,0.195-2.197,0.585c-0.122,0.061-0.19,0.035-0.208-0.078l-0.078-0.429c-0.026-0.147,0.018-0.238,0.13-0.272
			c0.442-0.199,0.84-0.348,1.196-0.442s0.719-0.144,1.092-0.144c0.832,0,1.495,0.209,1.989,0.625
			c0.555,0.45,0.832,1.092,0.832,1.924c0,0.32-0.078,0.672-0.234,1.053c-0.156,0.381-0.373,0.779-0.65,1.195
			c-0.173,0.243-0.418,0.56-0.734,0.949c-0.316,0.391-0.678,0.807-1.085,1.248c-0.303,0.33-0.604,0.663-0.903,1.002
			c-0.299,0.338-0.601,0.671-0.904,1h4.55c0.121,0,0.182,0.061,0.182,0.182v0.443c0,0.121-0.061,0.182-0.182,0.182H57.593z"/>
		<path fill="#E1DFE5" d="M70.892,132.107c-0.199-0.07-0.427-0.126-0.682-0.17c-0.256-0.043-0.509-0.064-0.761-0.064
			c-1.179,0-2.05,0.424-2.613,1.273c-0.477,0.711-0.724,1.686-0.741,2.926c0.19-0.348,0.468-0.642,0.832-0.885
			c0.451-0.32,0.958-0.48,1.521-0.48c0.789,0,1.452,0.208,1.989,0.624c0.684,0.528,1.027,1.335,1.027,2.418
			c0,0.919-0.282,1.681-0.845,2.288c-0.572,0.615-1.343,0.923-2.314,0.923c-2.08,0-3.12-1.534-3.12-4.603
			c0-1.604,0.321-2.855,0.962-3.757c0.754-1.022,1.889-1.534,3.406-1.534c0.225,0,0.461,0.018,0.708,0.053
			c0.247,0.034,0.475,0.082,0.683,0.143c0.13,0.025,0.186,0.104,0.169,0.234l-0.026,0.48c0,0.061-0.022,0.102-0.065,0.123
			C70.979,132.122,70.935,132.125,70.892,132.107z M70.554,137.814c0-0.703-0.182-1.258-0.546-1.664
			c-0.364-0.416-0.884-0.625-1.56-0.625c-0.347,0-0.659,0.055-0.936,0.163s-0.514,0.258-0.708,0.448
			c-0.195,0.191-0.347,0.42-0.455,0.689c-0.108,0.269-0.163,0.563-0.163,0.884c0,0.659,0.182,1.214,0.546,1.664
			c0.398,0.528,0.931,0.793,1.599,0.793c0.685,0,1.235-0.229,1.651-0.688C70.363,139.045,70.554,138.49,70.554,137.814z"/>
	</g>
</g>
<g>
	<g>
		<rect x="77.158" y="129.857" fill="#2B2333" width="25.713" height="25.714"/>
	</g>
	<g>
		<path fill="#E1DFE5" d="M83.307,140.867c-0.095,0-0.167-0.002-0.214-0.006c-0.048-0.004-0.083-0.018-0.104-0.039
			c-0.022-0.021-0.035-0.057-0.039-0.104c-0.004-0.049-0.006-0.119-0.006-0.215l0.013-0.286c0-0.112,0.035-0.204,0.104-0.272
			l2.145-2.367c1.595-1.724,2.392-3.033,2.392-3.926c0-0.52-0.173-0.953-0.52-1.299c-0.338-0.339-0.758-0.508-1.261-0.508
			c-0.702,0-1.435,0.195-2.197,0.585c-0.122,0.062-0.19,0.034-0.208-0.077l-0.078-0.43c-0.026-0.147,0.018-0.238,0.13-0.273
			c0.442-0.199,0.84-0.346,1.196-0.441s0.719-0.143,1.092-0.143c0.832,0,1.495,0.207,1.989,0.623
			c0.555,0.451,0.832,1.092,0.832,1.924c0,0.321-0.078,0.672-0.234,1.054c-0.156,0.382-0.373,0.78-0.65,1.196
			c-0.173,0.242-0.418,0.559-0.734,0.949c-0.316,0.389-0.678,0.805-1.085,1.248c-0.303,0.328-0.604,0.662-0.903,1
			c-0.299,0.338-0.601,0.672-0.904,1.002h4.55c0.121,0,0.182,0.061,0.182,0.182v0.441c0,0.121-0.061,0.182-0.182,0.182H83.307z"/>
		<path fill="#E1DFE5" d="M93.161,140.686c-0.061,0.121-0.147,0.182-0.26,0.182h-0.65c-0.052,0-0.089-0.017-0.11-0.051
			c-0.021-0.035-0.02-0.078,0.006-0.131l3.783-8.723h-4.822c-0.122,0-0.182-0.061-0.182-0.182v-0.43
			c0-0.121,0.061-0.182,0.182-0.182h5.395c0.182,0,0.288,0.016,0.318,0.045c0.031,0.031,0.046,0.137,0.046,0.318v0.326
			c0,0.068-0.013,0.129-0.039,0.182L93.161,140.686z"/>
	</g>
</g>
<g>
	<g>
		<rect x="102.871" y="129.857" fill="#2B2333" width="25.715" height="25.714"/>
	</g>
	<g>
		<path fill="#E1DFE5" d="M109.021,140.867c-0.096,0-0.167-0.002-0.215-0.006c-0.047-0.004-0.082-0.018-0.104-0.039
			s-0.035-0.057-0.039-0.104c-0.004-0.049-0.006-0.119-0.006-0.215l0.012-0.286c0-0.112,0.035-0.204,0.104-0.272l2.146-2.367
			c1.594-1.724,2.392-3.033,2.392-3.926c0-0.52-0.173-0.953-0.521-1.299c-0.338-0.339-0.758-0.508-1.26-0.508
			c-0.703,0-1.436,0.195-2.197,0.585c-0.122,0.062-0.191,0.034-0.209-0.077l-0.078-0.43c-0.025-0.147,0.018-0.238,0.131-0.273
			c0.441-0.199,0.84-0.346,1.195-0.441s0.72-0.143,1.092-0.143c0.832,0,1.496,0.207,1.99,0.623c0.555,0.451,0.832,1.092,0.832,1.924
			c0,0.321-0.078,0.672-0.234,1.054s-0.373,0.78-0.65,1.196c-0.174,0.242-0.418,0.559-0.734,0.949
			c-0.316,0.389-0.678,0.805-1.086,1.248c-0.303,0.328-0.604,0.662-0.902,1c-0.3,0.338-0.602,0.672-0.904,1.002h4.551
			c0.121,0,0.182,0.061,0.182,0.182v0.441c0,0.121-0.061,0.182-0.182,0.182H109.021z"/>
		<path fill="#E1DFE5" d="M122.944,138.372c0,0.425-0.089,0.806-0.267,1.144s-0.432,0.62-0.76,0.846
			c-0.287,0.189-0.615,0.338-0.988,0.441s-0.775,0.156-1.209,0.156c-0.425,0-0.821-0.057-1.189-0.169
			c-0.369-0.112-0.705-0.269-1.008-0.468c-0.33-0.234-0.585-0.518-0.768-0.852c-0.182-0.334-0.272-0.7-0.272-1.099
			c0-0.677,0.226-1.227,0.677-1.651c0.346-0.329,0.879-0.628,1.598-0.896c-1.316-0.65-1.975-1.482-1.975-2.496
			c0-0.364,0.09-0.688,0.272-0.969c0.182-0.281,0.438-0.535,0.767-0.761c0.277-0.173,0.574-0.306,0.891-0.396
			s0.652-0.136,1.008-0.136c0.416,0,0.788,0.045,1.117,0.136c0.33,0.091,0.629,0.228,0.897,0.409
			c0.599,0.416,0.897,0.988,0.897,1.717c0,0.901-0.676,1.733-2.028,2.496c0.355,0.129,0.674,0.272,0.956,0.429
			c0.281,0.155,0.508,0.312,0.682,0.468C122.711,137.137,122.944,137.688,122.944,138.372z M122.035,138.307
			c0-0.477-0.217-0.893-0.65-1.248c-0.139-0.112-0.334-0.238-0.586-0.377c-0.251-0.139-0.559-0.29-0.922-0.455
			c-0.113-0.061-0.238-0.061-0.377,0c-0.338,0.131-0.638,0.267-0.897,0.41c-0.261,0.143-0.468,0.275-0.624,0.396
			c-0.174,0.174-0.314,0.375-0.422,0.604c-0.109,0.23-0.163,0.475-0.163,0.735c0,0.528,0.247,0.962,0.741,1.3
			c0.45,0.338,0.979,0.507,1.586,0.507c0.624,0,1.148-0.147,1.572-0.442C121.787,139.398,122.035,138.922,122.035,138.307z
			 M121.709,133.432c0-0.494-0.217-0.884-0.649-1.17c-0.382-0.269-0.827-0.402-1.339-0.402c-0.555,0-1.023,0.139-1.404,0.416
			c-0.416,0.277-0.624,0.662-0.624,1.156c0,0.451,0.217,0.858,0.649,1.223c0.122,0.112,0.285,0.233,0.488,0.363
			c0.203,0.131,0.443,0.26,0.721,0.391c0.07,0.034,0.127,0.05,0.17,0.045c0.043-0.004,0.107-0.027,0.195-0.071
			c0.555-0.304,0.992-0.622,1.313-0.956C121.549,134.093,121.709,133.762,121.709,133.432z"/>
	</g>
</g>
<g>
	<g>
		<rect x="128.586" y="129.857" fill="#2B2333" width="25.715" height="25.714"/>
	</g>
	<g>
		<path fill="#E1DFE5" d="M134.735,140.867c-0.095,0-0.167-0.002-0.214-0.006c-0.049-0.004-0.083-0.018-0.104-0.039
			c-0.022-0.021-0.034-0.057-0.039-0.104c-0.005-0.049-0.007-0.119-0.007-0.215l0.014-0.286c0-0.112,0.034-0.204,0.104-0.272
			l2.145-2.367c1.596-1.724,2.393-3.033,2.393-3.926c0-0.52-0.174-0.953-0.52-1.299c-0.338-0.339-0.759-0.508-1.262-0.508
			c-0.701,0-1.434,0.195-2.197,0.585c-0.121,0.062-0.189,0.034-0.207-0.077l-0.078-0.43c-0.026-0.147,0.018-0.238,0.13-0.273
			c0.442-0.199,0.841-0.346,1.196-0.441s0.719-0.143,1.092-0.143c0.832,0,1.494,0.207,1.988,0.623
			c0.555,0.451,0.832,1.092,0.832,1.924c0,0.321-0.078,0.672-0.233,1.054c-0.156,0.382-0.373,0.78-0.65,1.196
			c-0.173,0.242-0.418,0.559-0.734,0.949c-0.316,0.389-0.679,0.805-1.085,1.248c-0.304,0.328-0.605,0.662-0.904,1
			s-0.6,0.672-0.903,1.002h4.55c0.121,0,0.182,0.061,0.182,0.182v0.441c0,0.121-0.061,0.182-0.182,0.182H134.735z"/>
		<path fill="#E1DFE5" d="M142.77,140.777c-0.131-0.026-0.187-0.127-0.169-0.299l0.038-0.455c0.018-0.104,0.088-0.131,0.209-0.078
			c0.217,0.086,0.436,0.146,0.656,0.182s0.471,0.052,0.748,0.052c0.605,0,1.135-0.119,1.586-0.357
			c0.45-0.238,0.818-0.579,1.104-1.021c0.433-0.729,0.659-1.65,0.676-2.77c-0.528,0.85-1.313,1.274-2.353,1.274
			c-0.798,0-1.465-0.203-2.002-0.61c-0.686-0.529-1.027-1.34-1.027-2.432c0-0.962,0.281-1.729,0.846-2.301
			c0.571-0.598,1.352-0.896,2.34-0.896c2.08,0,3.119,1.533,3.119,4.602c0,3.527-1.46,5.291-4.381,5.291
			C143.762,140.959,143.298,140.898,142.77,140.777z M147.527,134.316c0-0.677-0.182-1.244-0.546-1.703
			c-0.399-0.494-0.928-0.741-1.586-0.741c-0.702,0-1.253,0.221-1.651,0.663c-0.39,0.416-0.585,0.971-0.585,1.664
			c0,0.736,0.178,1.309,0.533,1.716h-0.013c0.372,0.398,0.9,0.598,1.586,0.598c0.711,0,1.266-0.199,1.664-0.598
			C147.328,135.499,147.527,134.966,147.527,134.316z"/>
	</g>
</g>
<g>
	<g>
		<rect x="154.301" y="129.857" fill="#2B2333" width="25.713" height="25.714"/>
	</g>
	<g>
		<path fill="#E1DFE5" d="M160.28,140.646c-0.13-0.034-0.187-0.135-0.169-0.299l0.052-0.507c0.018-0.104,0.087-0.13,0.208-0.078
			c0.364,0.147,0.709,0.251,1.033,0.312c0.326,0.062,0.705,0.096,1.139,0.104c0.684,0.009,1.26-0.165,1.729-0.521
			c0.546-0.363,0.818-0.896,0.818-1.598c0-1.231-0.922-1.847-2.769-1.847h-0.676c-0.112,0-0.169-0.048-0.169-0.144v-0.48
			c0-0.112,0.057-0.169,0.169-0.169h0.065c0.927,0,1.65-0.1,2.17-0.299c0.789-0.304,1.184-0.85,1.184-1.638
			c0-0.252-0.067-0.483-0.201-0.695c-0.135-0.213-0.314-0.393-0.54-0.54c-0.208-0.122-0.442-0.217-0.702-0.286
			s-0.533-0.104-0.818-0.104c-0.295,0-0.62,0.039-0.976,0.117c-0.355,0.077-0.698,0.182-1.026,0.311
			c-0.113,0.045-0.178,0.01-0.195-0.104l-0.053-0.48c-0.025-0.121,0.031-0.209,0.17-0.26c0.39-0.131,0.754-0.226,1.092-0.287
			c0.338-0.061,0.697-0.09,1.078-0.09c0.876,0,1.591,0.186,2.146,0.559c0.633,0.425,0.949,1.045,0.949,1.859
			c0,0.58-0.208,1.083-0.624,1.508c-0.347,0.373-0.797,0.646-1.352,0.818c0.277,0.035,0.535,0.109,0.773,0.221
			c0.238,0.113,0.443,0.27,0.617,0.469c0.199,0.217,0.352,0.461,0.455,0.734s0.156,0.574,0.156,0.903
			c0,0.434-0.09,0.825-0.268,1.177s-0.431,0.652-0.76,0.903c-0.32,0.233-0.689,0.418-1.105,0.553
			c-0.416,0.134-0.879,0.196-1.391,0.188c-0.459-0.009-0.855-0.035-1.189-0.078S160.627,140.76,160.28,140.646z"/>
		<path fill="#E1DFE5" d="M174.32,136.006c0,3.275-1.058,4.914-3.172,4.914c-2.133,0-3.198-1.639-3.198-4.914
			c0-1.36,0.208-2.465,0.624-3.314c0.528-1.066,1.387-1.6,2.574-1.6c1.17,0,2.023,0.533,2.561,1.6
			c0.199,0.424,0.352,0.91,0.455,1.455C174.268,134.693,174.32,135.313,174.32,136.006z M173.385,136.006
			c0-2.721-0.746-4.082-2.236-4.082s-2.236,1.361-2.236,4.082c0,2.73,0.746,4.096,2.236,4.096S173.385,138.736,173.385,136.006z"/>
	</g>
</g>
<g>
	<g>
		<rect x="0.015" y="155.571" fill="#2B2333" width="25.714" height="25.714"/>
	</g>
	<g>
		<path fill="#FF4F5F" d="M5.995,166.361c-0.13-0.035-0.187-0.135-0.169-0.3l0.052-0.507c0.018-0.104,0.087-0.13,0.208-0.078
			c0.364,0.147,0.708,0.252,1.034,0.313s0.704,0.096,1.138,0.104c0.685,0.009,1.261-0.164,1.729-0.52
			c0.546-0.364,0.819-0.897,0.819-1.6c0-1.23-0.923-1.846-2.769-1.846H7.36c-0.113,0-0.169-0.047-0.169-0.143v-0.481
			c0-0.112,0.057-0.169,0.169-0.169h0.065c0.927,0,1.651-0.1,2.171-0.299c0.789-0.304,1.183-0.85,1.183-1.639
			c0-0.251-0.067-0.482-0.202-0.695c-0.134-0.212-0.314-0.392-0.54-0.539c-0.208-0.121-0.442-0.217-0.702-0.286
			c-0.26-0.069-0.533-0.104-0.819-0.104c-0.295,0-0.62,0.039-0.975,0.117s-0.698,0.182-1.027,0.313
			c-0.113,0.043-0.178,0.008-0.195-0.104l-0.052-0.481c-0.026-0.121,0.03-0.207,0.169-0.26c0.39-0.129,0.754-0.225,1.092-0.285
			c0.338-0.061,0.697-0.092,1.079-0.092c0.875,0,1.59,0.188,2.145,0.56c0.633,0.425,0.949,1.044,0.949,1.858
			c0,0.581-0.208,1.084-0.624,1.508c-0.347,0.373-0.797,0.646-1.352,0.82c0.277,0.034,0.535,0.107,0.773,0.221
			c0.238,0.112,0.444,0.269,0.618,0.468c0.199,0.217,0.351,0.462,0.455,0.734s0.156,0.574,0.156,0.903
			c0,0.434-0.089,0.826-0.267,1.177s-0.431,0.652-0.76,0.903c-0.321,0.234-0.689,0.418-1.105,0.553s-0.88,0.197-1.391,0.188
			c-0.459-0.009-0.856-0.034-1.189-0.078S6.342,166.473,5.995,166.361z"/>
		<path fill="#FF4F5F" d="M17.669,166.4c0,0.121-0.061,0.182-0.182,0.182h-0.533c-0.122,0-0.182-0.061-0.182-0.182v-8.451
			c-0.269,0.227-0.52,0.438-0.754,0.638c-0.234,0.199-0.481,0.411-0.741,0.637c-0.095,0.078-0.182,0.069-0.26-0.026l-0.26-0.312
			c-0.026-0.044-0.039-0.089-0.039-0.137s0.021-0.089,0.065-0.124l2.015-1.689c0.035-0.034,0.087-0.052,0.156-0.052h0.351
			c0.182,0,0.288,0.015,0.318,0.046c0.03,0.029,0.045,0.137,0.045,0.318V166.4z"/>
	</g>
</g>
<g>
	<g>
		<path fill="#FF4F5F" d="M5.352,14.294c0.406,0.167,0.826,0.25,1.26,0.25c0.36,0,0.657-0.088,0.89-0.265
			c0.233-0.176,0.35-0.415,0.35-0.715c0-0.173-0.065-0.342-0.195-0.505c-0.13-0.164-0.288-0.298-0.475-0.405
			c-0.207-0.113-0.418-0.222-0.635-0.325c-0.217-0.104-0.425-0.212-0.625-0.325c-0.24-0.133-0.417-0.298-0.53-0.495
			c-0.114-0.196-0.17-0.401-0.17-0.615c0-0.247,0.047-0.463,0.14-0.65c0.093-0.187,0.22-0.343,0.38-0.47
			c0.16-0.126,0.347-0.22,0.56-0.28c0.213-0.06,0.44-0.09,0.68-0.09c0.253,0,0.473,0.014,0.66,0.04
			c0.187,0.027,0.373,0.067,0.56,0.12c0.04,0.013,0.075,0.033,0.105,0.06c0.03,0.027,0.042,0.063,0.035,0.11l-0.03,0.3
			c-0.007,0.054-0.027,0.087-0.06,0.1c-0.034,0.014-0.067,0.014-0.1,0c-0.167-0.06-0.333-0.102-0.5-0.125
			c-0.167-0.023-0.367-0.035-0.6-0.035c-0.773,0-1.16,0.307-1.16,0.92c0,0.133,0.051,0.26,0.155,0.38s0.278,0.24,0.525,0.36
			c0.213,0.107,0.423,0.208,0.63,0.305c0.207,0.097,0.43,0.212,0.67,0.345c0.207,0.114,0.378,0.287,0.515,0.52
			c0.137,0.234,0.205,0.487,0.205,0.76c0,0.267-0.053,0.497-0.16,0.69c-0.107,0.193-0.25,0.354-0.43,0.48s-0.387,0.222-0.62,0.285
			c-0.233,0.063-0.473,0.095-0.72,0.095c-0.147,0-0.279-0.003-0.395-0.01c-0.117-0.007-0.227-0.017-0.33-0.03
			c-0.104-0.013-0.208-0.03-0.315-0.05c-0.107-0.02-0.22-0.047-0.34-0.08c-0.093-0.033-0.137-0.093-0.13-0.18l0.04-0.37
			C5.205,14.288,5.258,14.254,5.352,14.294z"/>
		<path fill="#FF4F5F" d="M14.162,14.814c0,0.093-0.047,0.14-0.14,0.14h-0.36c-0.093,0-0.14-0.047-0.14-0.14v-0.83
			c-0.173,0.4-0.405,0.688-0.695,0.865c-0.29,0.176-0.655,0.265-1.095,0.265c-1.247,0-1.87-0.696-1.87-2.09v-3.34
			c0-0.093,0.046-0.14,0.14-0.14h0.4c0.093,0,0.14,0.047,0.14,0.14v3.16c0,1.134,0.434,1.7,1.3,1.7c0.253,0,0.481-0.055,0.685-0.165
			c0.203-0.11,0.375-0.26,0.515-0.45c0.14-0.19,0.247-0.411,0.32-0.665c0.073-0.253,0.106-0.52,0.1-0.8v-2.78
			c0-0.093,0.047-0.14,0.14-0.14h0.4c0.093,0,0.14,0.047,0.14,0.14v4.02c0,0.22,0.001,0.417,0.005,0.59S14.155,14.641,14.162,14.814
			z"/>
		<path fill="#FF4F5F" d="M20.202,14.814c0,0.093-0.047,0.14-0.14,0.14h-0.4c-0.093,0-0.14-0.047-0.14-0.14v-3.15
			c0-0.613-0.11-1.048-0.33-1.305c-0.22-0.256-0.53-0.385-0.93-0.385c-0.54,0-0.952,0.15-1.235,0.45
			c-0.284,0.3-0.425,0.72-0.425,1.26v3.13c0,0.093-0.046,0.14-0.14,0.14h-0.4c-0.093,0-0.14-0.047-0.14-0.14v-4
			c0-0.287-0.002-0.51-0.005-0.67c-0.003-0.16-0.012-0.313-0.025-0.46c-0.007-0.047,0.005-0.082,0.035-0.105
			c0.03-0.023,0.065-0.035,0.105-0.035h0.36c0.093,0,0.14,0.047,0.14,0.14v0.55c0.187-0.287,0.412-0.497,0.675-0.63
			c0.264-0.133,0.625-0.2,1.085-0.2c0.633,0,1.11,0.184,1.43,0.55s0.48,0.883,0.48,1.55V14.814z"/>
	</g>
</g>
<g>
	<g>
		<path fill="#BEBDC1" d="M28.926,10.814c0-0.28-0.003-0.501-0.01-0.665c-0.007-0.163-0.017-0.318-0.03-0.465
			c0-0.093,0.047-0.14,0.14-0.14h0.37c0.093,0,0.14,0.047,0.14,0.14v0.54c0.153-0.247,0.36-0.442,0.62-0.585
			c0.26-0.144,0.58-0.215,0.96-0.215c0.4,0,0.75,0.099,1.05,0.295c0.3,0.197,0.483,0.485,0.55,0.865
			c0.14-0.38,0.365-0.668,0.675-0.865c0.31-0.196,0.668-0.295,1.075-0.295c0.26,0,0.495,0.047,0.705,0.14s0.39,0.222,0.54,0.385
			c0.15,0.164,0.265,0.355,0.345,0.575c0.08,0.22,0.12,0.454,0.12,0.7v3.59c0,0.093-0.047,0.14-0.14,0.14h-0.38
			c-0.093,0-0.14-0.043-0.14-0.13v-3.46c0-0.913-0.383-1.37-1.15-1.37c-0.233,0-0.441,0.051-0.625,0.155
			c-0.183,0.104-0.34,0.245-0.47,0.425c-0.13,0.18-0.227,0.39-0.29,0.63c-0.063,0.24-0.092,0.493-0.085,0.76v2.85
			c0,0.093-0.047,0.14-0.14,0.14h-0.4c-0.094,0-0.14-0.047-0.14-0.14v-3.45c0-0.913-0.387-1.37-1.16-1.37
			c-0.453,0-0.81,0.146-1.07,0.44s-0.39,0.68-0.39,1.16v3.22c0,0.093-0.046,0.14-0.14,0.14h-0.39c-0.094,0-0.14-0.047-0.14-0.14
			V10.814z"/>
		<path fill="#BEBDC1" d="M42.696,12.254c0,0.394-0.057,0.758-0.17,1.095c-0.113,0.336-0.263,0.631-0.45,0.885
			c-0.233,0.28-0.512,0.497-0.835,0.65s-0.691,0.23-1.105,0.23c-0.413,0-0.783-0.077-1.11-0.23s-0.606-0.37-0.84-0.65
			c-0.187-0.253-0.335-0.548-0.445-0.885c-0.11-0.337-0.165-0.702-0.165-1.095c0-0.807,0.204-1.466,0.61-1.98
			c0.466-0.58,1.116-0.87,1.95-0.87c0.42,0,0.79,0.072,1.11,0.215c0.32,0.143,0.596,0.361,0.83,0.655
			C42.49,10.801,42.696,11.46,42.696,12.254z M41.957,12.254c0-0.313-0.042-0.606-0.125-0.88c-0.083-0.273-0.199-0.517-0.345-0.73
			c-0.347-0.427-0.797-0.64-1.35-0.64c-0.28,0-0.532,0.055-0.755,0.165s-0.422,0.269-0.595,0.475
			c-0.154,0.213-0.272,0.457-0.355,0.73c-0.083,0.273-0.125,0.566-0.125,0.88c0,0.32,0.042,0.617,0.125,0.89
			c0.083,0.273,0.201,0.513,0.355,0.72c0.353,0.434,0.803,0.65,1.35,0.65c0.28,0,0.532-0.057,0.755-0.17
			c0.223-0.113,0.421-0.273,0.595-0.48c0.146-0.207,0.262-0.446,0.345-0.72C41.915,12.871,41.957,12.574,41.957,12.254z"/>
		<path fill="#BEBDC1" d="M48.336,14.814c0,0.093-0.047,0.14-0.14,0.14h-0.4c-0.093,0-0.14-0.047-0.14-0.14v-3.15
			c0-0.613-0.11-1.048-0.33-1.305c-0.22-0.256-0.53-0.385-0.93-0.385c-0.54,0-0.952,0.15-1.235,0.45
			c-0.284,0.3-0.425,0.72-0.425,1.26v3.13c0,0.093-0.046,0.14-0.14,0.14h-0.4c-0.093,0-0.14-0.047-0.14-0.14v-4
			c0-0.287-0.002-0.51-0.005-0.67c-0.003-0.16-0.012-0.313-0.025-0.46c-0.007-0.047,0.005-0.082,0.035-0.105
			c0.03-0.023,0.065-0.035,0.105-0.035h0.36c0.093,0,0.14,0.047,0.14,0.14v0.55c0.187-0.287,0.412-0.497,0.675-0.63
			c0.264-0.133,0.625-0.2,1.085-0.2c0.633,0,1.11,0.184,1.43,0.55s0.48,0.883,0.48,1.55V14.814z"/>
	</g>
</g>
<g>
	<g>
		<path fill="#BEBDC1" d="M60.181,14.964c-0.28,0.1-0.557,0.15-0.83,0.15c-0.54,0-0.897-0.177-1.07-0.53
			c-0.113-0.24-0.17-0.664-0.17-1.27v-3.19h-0.94c-0.093,0-0.14-0.047-0.14-0.14v-0.3c0-0.093,0.047-0.14,0.14-0.14h0.94v-1.35
			c0-0.1,0.043-0.15,0.13-0.15h0.42c0.086,0,0.13,0.05,0.13,0.15v1.35h1.11c0.093,0,0.14,0.047,0.14,0.14v0.3
			c0,0.093-0.047,0.14-0.14,0.14h-1.11v3.53c0,0.594,0.24,0.89,0.72,0.89c0.187,0,0.397-0.04,0.63-0.12
			c0.033-0.013,0.065-0.013,0.095,0c0.03,0.014,0.045,0.04,0.045,0.08l0.02,0.26C60.314,14.857,60.274,14.924,60.181,14.964z"/>
		<path fill="#BEBDC1" d="M65.59,14.814c0,0.093-0.047,0.14-0.14,0.14h-0.36c-0.093,0-0.14-0.047-0.14-0.14v-0.83
			c-0.173,0.4-0.405,0.688-0.695,0.865c-0.29,0.176-0.655,0.265-1.095,0.265c-1.247,0-1.87-0.696-1.87-2.09v-3.34
			c0-0.093,0.046-0.14,0.14-0.14h0.4c0.093,0,0.14,0.047,0.14,0.14v3.16c0,1.134,0.434,1.7,1.3,1.7c0.253,0,0.481-0.055,0.685-0.165
			c0.203-0.11,0.375-0.26,0.515-0.45c0.14-0.19,0.247-0.411,0.32-0.665c0.073-0.253,0.106-0.52,0.1-0.8v-2.78
			c0-0.093,0.047-0.14,0.14-0.14h0.4c0.093,0,0.14,0.047,0.14,0.14v4.02c0,0.22,0.001,0.417,0.005,0.59S65.583,14.641,65.59,14.814z
			"/>
		<path fill="#BEBDC1" d="M67.69,12.444c-0.007,0.333,0.032,0.628,0.115,0.885c0.083,0.256,0.205,0.472,0.365,0.645
			s0.352,0.307,0.575,0.4c0.223,0.093,0.471,0.14,0.745,0.14c0.267,0,0.517-0.025,0.75-0.075s0.45-0.132,0.65-0.245
			c0.086-0.04,0.13-0.017,0.13,0.07v0.45c0,0.06-0.037,0.106-0.11,0.14c-0.22,0.086-0.45,0.151-0.69,0.195
			c-0.24,0.043-0.5,0.065-0.78,0.065c-0.82,0-1.44-0.238-1.86-0.715s-0.63-1.195-0.63-2.155c0-0.847,0.21-1.53,0.63-2.05
			c0.44-0.526,0.997-0.79,1.67-0.79c0.373,0,0.696,0.067,0.97,0.2s0.507,0.333,0.7,0.6c0.34,0.473,0.51,1.106,0.51,1.9
			c0,0.086-0.001,0.153-0.005,0.2c-0.003,0.047-0.015,0.08-0.035,0.1s-0.055,0.032-0.105,0.035c-0.05,0.003-0.122,0.005-0.215,0.005
			H67.69z M70.69,11.874c0-0.273-0.027-0.517-0.08-0.73s-0.137-0.407-0.25-0.58c-0.247-0.394-0.604-0.59-1.07-0.59
			c-0.48,0-0.87,0.2-1.17,0.6c-0.12,0.18-0.22,0.387-0.3,0.62s-0.124,0.46-0.13,0.68H70.69z"/>
	</g>
</g>
<g>
	<g>
		<path fill="#BEBDC1" d="M86.61,14.844c-0.02,0.073-0.073,0.11-0.16,0.11h-0.59c-0.08,0-0.133-0.037-0.16-0.11l-1.42-4.6
			c-0.247,0.773-0.493,1.54-0.74,2.3c-0.247,0.76-0.494,1.523-0.74,2.29c-0.02,0.08-0.08,0.12-0.18,0.12h-0.55
			c-0.046,0-0.085-0.007-0.115-0.02c-0.03-0.014-0.052-0.047-0.065-0.1l-1.67-5.15c-0.014-0.033-0.01-0.065,0.01-0.095
			c0.02-0.03,0.05-0.045,0.09-0.045h0.46c0.08,0,0.14,0.047,0.18,0.14l1.42,4.56c0.247-0.767,0.488-1.519,0.725-2.255
			c0.237-0.736,0.479-1.488,0.725-2.255c0.033-0.126,0.11-0.19,0.23-0.19h0.47c0.127,0,0.207,0.063,0.24,0.19l1.39,4.51
			c0.253-0.787,0.498-1.547,0.735-2.28c0.236-0.733,0.481-1.493,0.735-2.28c0.013-0.04,0.037-0.073,0.07-0.1
			c0.033-0.027,0.07-0.04,0.11-0.04h0.4c0.04,0,0.07,0.015,0.09,0.045c0.02,0.03,0.023,0.062,0.01,0.095L86.61,14.844z"/>
		<path fill="#BEBDC1" d="M89.77,12.444c-0.007,0.333,0.032,0.628,0.115,0.885c0.083,0.256,0.205,0.472,0.365,0.645
			s0.352,0.307,0.575,0.4s0.472,0.14,0.745,0.14c0.266,0,0.516-0.025,0.75-0.075c0.232-0.05,0.449-0.132,0.65-0.245
			c0.086-0.04,0.129-0.017,0.129,0.07v0.45c0,0.06-0.036,0.106-0.109,0.14c-0.221,0.086-0.45,0.151-0.69,0.195
			c-0.239,0.043-0.5,0.065-0.78,0.065c-0.819,0-1.439-0.238-1.859-0.715s-0.63-1.195-0.63-2.155c0-0.847,0.21-1.53,0.63-2.05
			c0.44-0.526,0.997-0.79,1.67-0.79c0.373,0,0.696,0.067,0.97,0.2s0.507,0.333,0.7,0.6c0.34,0.473,0.51,1.106,0.51,1.9
			c0,0.086-0.002,0.153-0.005,0.2c-0.003,0.047-0.015,0.08-0.034,0.1c-0.021,0.02-0.056,0.032-0.105,0.035
			c-0.051,0.003-0.122,0.005-0.215,0.005H89.77z M92.77,11.874c0-0.273-0.026-0.517-0.08-0.73c-0.053-0.213-0.137-0.407-0.25-0.58
			c-0.246-0.394-0.604-0.59-1.069-0.59c-0.48,0-0.87,0.2-1.17,0.6c-0.12,0.18-0.22,0.387-0.3,0.62s-0.124,0.46-0.13,0.68H92.77z"/>
		<path fill="#BEBDC1" d="M99.21,14.814c0,0.093-0.046,0.14-0.14,0.14H98.68c-0.093,0-0.14-0.047-0.14-0.14v-0.75
			c-0.36,0.68-0.94,1.02-1.739,1.02c-0.714,0-1.271-0.273-1.67-0.82c-0.367-0.507-0.551-1.18-0.551-2.02
			c0-1.874,0.74-2.81,2.221-2.81c0.399,0,0.754,0.08,1.064,0.24c0.311,0.16,0.535,0.367,0.675,0.62v-3.15
			c0-0.093,0.047-0.14,0.14-0.14h0.391c0.094,0,0.14,0.047,0.14,0.14V14.814z M95.32,12.244c0,0.313,0.025,0.598,0.074,0.855
			c0.051,0.256,0.129,0.481,0.236,0.675c0.146,0.24,0.324,0.423,0.534,0.55c0.21,0.127,0.462,0.19,0.755,0.19
			c0.267,0,0.502-0.07,0.705-0.21c0.203-0.14,0.373-0.318,0.51-0.535s0.238-0.46,0.306-0.73c0.066-0.27,0.1-0.535,0.1-0.795
			c0-0.32-0.034-0.617-0.104-0.89s-0.174-0.51-0.311-0.71c-0.137-0.2-0.305-0.356-0.505-0.47c-0.2-0.113-0.434-0.17-0.7-0.17
			c-0.566,0-0.996,0.244-1.289,0.73c-0.107,0.193-0.186,0.418-0.236,0.675C95.346,11.666,95.32,11.944,95.32,12.244z"/>
	</g>
</g>
<g>
	<g>
		<path fill="#BEBDC1" d="M111.305,14.964c-0.281,0.1-0.558,0.15-0.83,0.15c-0.541,0-0.897-0.177-1.07-0.53
			c-0.113-0.24-0.17-0.664-0.17-1.27v-3.19h-0.94c-0.093,0-0.14-0.047-0.14-0.14v-0.3c0-0.093,0.047-0.14,0.14-0.14h0.94v-1.35
			c0-0.1,0.043-0.15,0.129-0.15h0.421c0.087,0,0.13,0.05,0.13,0.15v1.35h1.109c0.094,0,0.141,0.047,0.141,0.14v0.3
			c0,0.093-0.047,0.14-0.141,0.14h-1.109v3.53c0,0.594,0.24,0.89,0.72,0.89c0.187,0,0.397-0.04,0.63-0.12
			c0.033-0.013,0.065-0.013,0.096,0c0.029,0.014,0.045,0.04,0.045,0.08l0.02,0.26C111.438,14.857,111.397,14.924,111.305,14.964z"/>
		<path fill="#BEBDC1" d="M116.693,14.814c0,0.093-0.047,0.14-0.14,0.14h-0.399c-0.094,0-0.141-0.047-0.141-0.14v-3.08
			c0-0.32-0.028-0.591-0.085-0.815c-0.057-0.223-0.138-0.403-0.245-0.54c-0.106-0.137-0.236-0.235-0.39-0.295
			s-0.323-0.09-0.511-0.09c-0.546,0-0.965,0.13-1.254,0.39c-0.291,0.26-0.436,0.62-0.436,1.08v3.35c0,0.093-0.047,0.14-0.14,0.14
			h-0.4c-0.093,0-0.14-0.047-0.14-0.14v-7.68c0-0.093,0.047-0.14,0.14-0.14h0.4c0.093,0,0.14,0.046,0.14,0.14v2.9
			c0.187-0.213,0.418-0.368,0.695-0.465c0.276-0.097,0.621-0.145,1.035-0.145c0.646,0,1.119,0.19,1.42,0.57
			c0.3,0.38,0.449,0.957,0.449,1.73V14.814z"/>
		<path fill="#BEBDC1" d="M122.773,14.814c0,0.093-0.047,0.14-0.14,0.14h-0.36c-0.093,0-0.14-0.047-0.14-0.14v-0.83
			c-0.173,0.4-0.405,0.688-0.694,0.865c-0.291,0.176-0.655,0.265-1.096,0.265c-1.246,0-1.869-0.696-1.869-2.09v-3.34
			c0-0.093,0.046-0.14,0.139-0.14h0.4c0.094,0,0.141,0.047,0.141,0.14v3.16c0,1.134,0.434,1.7,1.3,1.7
			c0.253,0,0.481-0.055,0.685-0.165s0.375-0.26,0.516-0.45c0.14-0.19,0.246-0.411,0.32-0.665c0.072-0.253,0.105-0.52,0.1-0.8v-2.78
			c0-0.093,0.047-0.14,0.14-0.14h0.399c0.094,0,0.141,0.047,0.141,0.14v4.02c0,0.22,0.002,0.417,0.005,0.59
			S122.768,14.641,122.773,14.814z"/>
	</g>
</g>
<g>
	<g>
		<path fill="#BEBDC1" d="M139.953,6.914c0.086,0.026,0.127,0.097,0.12,0.21l-0.021,0.29c-0.006,0.04-0.023,0.065-0.05,0.075
			c-0.026,0.01-0.057,0.009-0.09-0.005c-0.073-0.026-0.14-0.045-0.2-0.055c-0.061-0.01-0.13-0.015-0.21-0.015
			c-0.394,0-0.646,0.197-0.76,0.59c-0.047,0.16-0.07,0.514-0.07,1.06v0.48h1.101c0.093,0,0.14,0.047,0.14,0.14v0.3
			c0,0.093-0.047,0.14-0.14,0.14h-1.101v4.69c0,0.093-0.046,0.14-0.14,0.14h-0.391c-0.093,0-0.14-0.047-0.14-0.14v-4.69h-0.97
			c-0.094,0-0.141-0.047-0.141-0.14v-0.3c0-0.093,0.047-0.14,0.141-0.14h0.97v-0.41c0-0.727,0.067-1.25,0.2-1.57
			c0.207-0.48,0.62-0.72,1.24-0.72C139.637,6.844,139.807,6.867,139.953,6.914z"/>
		<path fill="#BEBDC1" d="M143.703,10.154c-0.12-0.04-0.28-0.06-0.48-0.06c-0.493,0-0.859,0.244-1.1,0.73
			c-0.188,0.38-0.28,0.867-0.28,1.46v2.53c0,0.093-0.046,0.14-0.14,0.14h-0.391c-0.094,0-0.14-0.047-0.14-0.14v-4.06
			c0-0.24-0.001-0.435-0.005-0.585s-0.008-0.312-0.016-0.485c0-0.093,0.047-0.14,0.141-0.14h0.37c0.093,0,0.14,0.047,0.14,0.14v0.98
			c0.326-0.84,0.807-1.26,1.439-1.26c0.154,0,0.307,0.02,0.461,0.06c0.039,0.014,0.074,0.035,0.105,0.065
			c0.029,0.03,0.045,0.072,0.045,0.125v0.42c0,0.04-0.018,0.067-0.051,0.08C143.77,10.167,143.736,10.167,143.703,10.154z"/>
		<path fill="#BEBDC1" d="M144.652,7.654c0-0.133,0.047-0.248,0.141-0.345s0.207-0.145,0.34-0.145s0.248,0.048,0.346,0.145
			c0.096,0.097,0.145,0.211,0.145,0.345c0,0.134-0.049,0.247-0.145,0.34c-0.098,0.093-0.213,0.14-0.346,0.14s-0.246-0.046-0.34-0.14
			S144.652,7.788,144.652,7.654z M145.363,14.954h-0.44c-0.093,0-0.14-0.047-0.14-0.14v-5.13c0-0.093,0.047-0.14,0.14-0.14h0.44
			c0.093,0,0.14,0.047,0.14,0.14v5.13C145.503,14.907,145.456,14.954,145.363,14.954z"/>
	</g>
</g>
<g>
	<g>
		<path fill="#BEBDC1" d="M161.158,14.294c0.406,0.167,0.826,0.25,1.26,0.25c0.359,0,0.656-0.088,0.89-0.265
			c0.233-0.176,0.351-0.415,0.351-0.715c0-0.173-0.065-0.342-0.195-0.505c-0.131-0.164-0.289-0.298-0.475-0.405
			c-0.207-0.113-0.419-0.222-0.636-0.325c-0.217-0.104-0.425-0.212-0.625-0.325c-0.239-0.133-0.417-0.298-0.53-0.495
			c-0.113-0.196-0.17-0.401-0.17-0.615c0-0.247,0.047-0.463,0.141-0.65c0.093-0.187,0.22-0.343,0.379-0.47
			c0.16-0.126,0.348-0.22,0.561-0.28c0.213-0.06,0.439-0.09,0.68-0.09c0.254,0,0.474,0.014,0.66,0.04
			c0.188,0.027,0.373,0.067,0.561,0.12c0.039,0.013,0.074,0.033,0.105,0.06c0.029,0.027,0.041,0.063,0.034,0.11l-0.03,0.3
			c-0.006,0.054-0.026,0.087-0.06,0.1c-0.034,0.014-0.067,0.014-0.101,0c-0.166-0.06-0.333-0.102-0.5-0.125
			c-0.166-0.023-0.366-0.035-0.6-0.035c-0.773,0-1.16,0.307-1.16,0.92c0,0.133,0.052,0.26,0.155,0.38s0.278,0.24,0.524,0.36
			c0.214,0.107,0.424,0.208,0.631,0.305s0.43,0.212,0.67,0.345c0.207,0.114,0.378,0.287,0.515,0.52
			c0.137,0.234,0.205,0.487,0.205,0.76c0,0.267-0.054,0.497-0.159,0.69c-0.107,0.193-0.25,0.354-0.431,0.48s-0.387,0.222-0.62,0.285
			c-0.233,0.063-0.473,0.095-0.72,0.095c-0.147,0-0.278-0.003-0.396-0.01c-0.116-0.007-0.227-0.017-0.33-0.03
			c-0.104-0.013-0.208-0.03-0.314-0.05c-0.107-0.02-0.221-0.047-0.34-0.08c-0.094-0.033-0.137-0.093-0.131-0.18l0.041-0.37
			C161.011,14.288,161.064,14.254,161.158,14.294z"/>
		<path fill="#BEBDC1" d="M165.897,10.384c-0.034,0.02-0.065,0.025-0.095,0.015c-0.03-0.01-0.045-0.032-0.045-0.065v-0.38
			c0-0.093,0.046-0.164,0.14-0.21c0.233-0.127,0.481-0.215,0.745-0.265c0.264-0.05,0.551-0.075,0.865-0.075
			c0.666,0,1.152,0.159,1.459,0.475c0.307,0.317,0.461,0.795,0.461,1.435v2.51c0,0.2,0.003,0.378,0.01,0.535
			c0.006,0.157,0.017,0.308,0.029,0.455c0,0.093-0.047,0.14-0.14,0.14h-0.36c-0.093,0-0.14-0.047-0.14-0.14v-0.77
			c-0.14,0.34-0.375,0.603-0.705,0.79c-0.329,0.187-0.688,0.28-1.075,0.28c-0.673,0-1.166-0.197-1.479-0.59
			c-0.106-0.133-0.187-0.288-0.24-0.465s-0.08-0.352-0.08-0.525c0-0.406,0.095-0.756,0.285-1.05s0.481-0.513,0.875-0.66
			c0.479-0.173,1.217-0.26,2.21-0.26h0.13v-0.3c0-0.42-0.095-0.74-0.284-0.96c-0.19-0.22-0.509-0.33-0.955-0.33
			c-0.301,0-0.584,0.032-0.851,0.095C166.391,10.132,166.137,10.237,165.897,10.384z M168.747,12.134h-0.19
			c-0.373-0.013-0.704,0.002-0.994,0.045c-0.29,0.043-0.531,0.102-0.725,0.175c-0.281,0.1-0.49,0.249-0.631,0.445
			c-0.14,0.197-0.21,0.432-0.21,0.705c0,0.167,0.026,0.322,0.08,0.465c0.054,0.144,0.137,0.255,0.25,0.335
			c0.2,0.16,0.467,0.24,0.8,0.24c0.233,0,0.449-0.046,0.646-0.14c0.196-0.093,0.368-0.227,0.515-0.4s0.26-0.388,0.34-0.645
			c0.08-0.256,0.12-0.552,0.12-0.885V12.134z"/>
		<path fill="#BEBDC1" d="M173.638,14.964c-0.28,0.1-0.558,0.15-0.83,0.15c-0.54,0-0.897-0.177-1.07-0.53
			c-0.113-0.24-0.17-0.664-0.17-1.27v-3.19h-0.94c-0.093,0-0.14-0.047-0.14-0.14v-0.3c0-0.093,0.047-0.14,0.14-0.14h0.94v-1.35
			c0-0.1,0.044-0.15,0.13-0.15h0.42c0.087,0,0.131,0.05,0.131,0.15v1.35h1.109c0.094,0,0.141,0.047,0.141,0.14v0.3
			c0,0.093-0.047,0.14-0.141,0.14h-1.109v3.53c0,0.594,0.239,0.89,0.719,0.89c0.188,0,0.397-0.04,0.631-0.12
			c0.033-0.013,0.064-0.013,0.095,0c0.03,0.014,0.045,0.04,0.045,0.08l0.021,0.26C173.771,14.857,173.73,14.924,173.638,14.964z"/>
	</g>
</g>
</svg>
