<?xml version="1.0" encoding="utf-8"?>
<!-- Generator: Adobe Illustrator 15.1.0, SVG Export Plug-In . SVG Version: 6.00 Build 0)  -->
<!DOCTYPE svg PUBLIC "-//W3C//DTD SVG 1.1//EN" "http://www.w3.org/Graphics/SVG/1.1/DTD/svg11.dtd">
<svg version="1.1" id="Layer_1" xmlns="http://www.w3.org/2000/svg" xmlns:xlink="http://www.w3.org/1999/xlink" x="0px" y="0px"
	 width="180px" height="35px" viewBox="0 0 180 35" enable-background="new 0 0 180 35" xml:space="preserve">
<g>
	<rect x="0.649" y="0.5" fill="#2B2333" width="179" height="34"/>
	<path fill="#BEBDC1" d="M179.148,1v33h-178V1H179.148 M180.148,0h-180v35h180V0L180.148,0z"/>
</g>
<g>
	<path fill="#BEBDC1" d="M22.183,20.016c0,0.424-0.089,0.805-0.266,1.143c-0.178,0.339-0.432,0.621-0.761,0.846
		c-0.286,0.19-0.615,0.338-0.988,0.441c-0.373,0.104-0.776,0.156-1.209,0.156c-0.425,0-0.821-0.057-1.19-0.168
		c-0.368-0.113-0.704-0.27-1.007-0.469c-0.33-0.234-0.585-0.518-0.767-0.852c-0.182-0.334-0.273-0.699-0.273-1.098
		c0-0.677,0.226-1.227,0.676-1.652c0.346-0.328,0.879-0.627,1.599-0.896c-1.317-0.65-1.976-1.482-1.976-2.496
		c0-0.364,0.091-0.687,0.273-0.968c0.182-0.282,0.438-0.535,0.767-0.761c0.277-0.173,0.574-0.305,0.891-0.396
		c0.316-0.091,0.652-0.136,1.008-0.136c0.416,0,0.788,0.045,1.118,0.136c0.33,0.091,0.628,0.228,0.897,0.41
		c0.598,0.416,0.897,0.988,0.897,1.716c0,0.902-0.676,1.734-2.028,2.496c0.355,0.13,0.674,0.273,0.956,0.429
		c0.281,0.156,0.509,0.312,0.683,0.467C21.949,18.779,22.183,19.33,22.183,20.016z M21.273,19.949c0-0.477-0.217-0.893-0.65-1.248
		c-0.139-0.111-0.333-0.237-0.585-0.377c-0.251-0.138-0.559-0.289-0.923-0.454c-0.113-0.061-0.238-0.061-0.377,0
		c-0.338,0.13-0.637,0.267-0.897,0.409c-0.26,0.143-0.468,0.275-0.624,0.396c-0.173,0.174-0.314,0.375-0.422,0.604
		c-0.108,0.229-0.163,0.475-0.163,0.735c0,0.527,0.247,0.961,0.741,1.299c0.451,0.338,0.979,0.508,1.586,0.508
		c0.624,0,1.148-0.147,1.573-0.442C21.026,21.042,21.273,20.565,21.273,19.949z M20.948,15.075c0-0.494-0.217-0.884-0.65-1.17
		c-0.381-0.269-0.828-0.403-1.339-0.403c-0.555,0-1.023,0.139-1.404,0.416c-0.416,0.277-0.624,0.663-0.624,1.157
		c0,0.451,0.217,0.858,0.65,1.222c0.122,0.113,0.284,0.234,0.488,0.364c0.204,0.13,0.444,0.26,0.721,0.39
		c0.069,0.035,0.126,0.05,0.169,0.045c0.043-0.004,0.108-0.028,0.195-0.071c0.555-0.303,0.992-0.622,1.313-0.956
		C20.787,15.736,20.948,15.404,20.948,15.075z"/>
	<path fill="#BEBDC1" d="M31.361,16.258c0.043-0.008,0.084-0.002,0.124,0.02c0.039,0.022,0.063,0.05,0.071,0.084l0.052,0.442
		c0.026,0.113-0.026,0.178-0.156,0.195c-0.546,0.069-1.135,0.132-1.768,0.188s-1.261,0.097-1.885,0.124v1.69
		c0,0.052-0.015,0.098-0.045,0.136c-0.031,0.039-0.072,0.059-0.124,0.059h-0.559c-0.043,0-0.083-0.02-0.117-0.059
		c-0.035-0.038-0.052-0.084-0.052-0.136V17.35c-0.26,0.008-0.54,0.02-0.839,0.032c-0.299,0.013-0.594,0.022-0.884,0.026
		c-0.291,0.005-0.57,0.009-0.838,0.013c-0.269,0.004-0.503,0.002-0.702-0.006c-0.052,0-0.098-0.018-0.136-0.052
		c-0.039-0.034-0.059-0.073-0.059-0.117v-0.442c0-0.052,0.02-0.093,0.059-0.124c0.039-0.03,0.084-0.045,0.136-0.045
		c0.243,0,0.535-0.002,0.877-0.006s0.696-0.011,1.06-0.02c0.364-0.008,0.717-0.017,1.06-0.026s0.635-0.018,0.877-0.026
		c0.303-0.009,0.624-0.024,0.962-0.046c0.338-0.021,0.676-0.045,1.014-0.071s0.667-0.054,0.988-0.084S31.092,16.292,31.361,16.258z
		 M30.243,13.892c0,0.294-0.078,0.565-0.234,0.813c-0.156,0.247-0.366,0.461-0.63,0.644c-0.265,0.182-0.577,0.323-0.936,0.422
		c-0.36,0.1-0.748,0.149-1.164,0.149c-0.399,0-0.776-0.05-1.131-0.149s-0.665-0.238-0.929-0.416
		c-0.265-0.178-0.473-0.39-0.624-0.637c-0.152-0.247-0.228-0.522-0.228-0.825c0-0.338,0.076-0.633,0.228-0.884
		c0.151-0.251,0.359-0.463,0.624-0.637c0.264-0.173,0.574-0.303,0.929-0.39c0.355-0.086,0.732-0.13,1.131-0.13
		c0.381,0,0.75,0.043,1.105,0.13c0.355,0.087,0.671,0.217,0.949,0.39s0.499,0.388,0.663,0.643
		C30.16,13.27,30.243,13.563,30.243,13.892z M29.385,13.879c0-0.234-0.063-0.431-0.188-0.591c-0.126-0.161-0.291-0.291-0.494-0.39
		s-0.431-0.173-0.683-0.221c-0.251-0.047-0.499-0.071-0.741-0.071c-0.251,0-0.5,0.024-0.748,0.071
		c-0.247,0.048-0.468,0.124-0.663,0.228S25.517,13.14,25.4,13.3c-0.117,0.161-0.176,0.354-0.176,0.579
		c0,0.217,0.056,0.407,0.169,0.572c0.113,0.165,0.265,0.301,0.455,0.41s0.41,0.188,0.657,0.241c0.247,0.052,0.504,0.078,0.773,0.078
		c0.242,0,0.489-0.028,0.741-0.084c0.251-0.056,0.479-0.141,0.683-0.253c0.204-0.112,0.368-0.249,0.494-0.409
		C29.322,14.271,29.385,14.087,29.385,13.879z M33.571,23.604c0,0.043-0.02,0.08-0.059,0.109c-0.039,0.031-0.076,0.046-0.11,0.046
		h-6.838c-0.407,0-0.674-0.075-0.799-0.228c-0.125-0.151-0.188-0.409-0.188-0.773v-0.585c0-0.364,0.076-0.608,0.228-0.734
		c0.151-0.126,0.422-0.188,0.813-0.188h5.499c0.121,0,0.199-0.018,0.234-0.053c0.035-0.033,0.052-0.116,0.052-0.246V20.6
		c0-0.13-0.016-0.212-0.046-0.246c-0.03-0.035-0.106-0.053-0.227-0.053h-6.396c-0.043,0-0.085-0.013-0.124-0.039
		c-0.039-0.025-0.059-0.061-0.059-0.104v-0.469c0-0.043,0.02-0.078,0.059-0.104c0.039-0.025,0.08-0.039,0.124-0.039h6.539
		c0.208,0,0.377,0.016,0.507,0.045c0.13,0.031,0.234,0.081,0.312,0.15c0.078,0.069,0.132,0.166,0.163,0.292
		c0.03,0.126,0.045,0.28,0.045,0.462v0.585c0,0.364-0.076,0.608-0.228,0.734c-0.152,0.126-0.423,0.188-0.813,0.188h-5.512
		c-0.122,0-0.197,0.018-0.228,0.052s-0.045,0.117-0.045,0.247v0.403c0,0.121,0.017,0.201,0.052,0.24
		c0.034,0.039,0.112,0.059,0.234,0.059h6.63c0.043,0,0.084,0.013,0.124,0.039s0.059,0.061,0.059,0.104V23.604z M32.414,17.779
		v-5.863c0-0.122,0.061-0.182,0.182-0.182h0.533c0.121,0,0.182,0.061,0.182,0.182v6.824c0,0.122-0.061,0.183-0.182,0.183h-0.533
		c-0.122,0-0.182-0.061-0.182-0.183v-0.207h-2.613c-0.113,0-0.169-0.053-0.169-0.156v-0.442c0-0.104,0.056-0.156,0.169-0.156H32.414
		z"/>
</g>
</svg>
