<?xml version="1.0" encoding="utf-8"?>
<!-- Generator: Adobe Illustrator 15.1.0, SVG Export Plug-In . SVG Version: 6.00 Build 0)  -->
<!DOCTYPE svg PUBLIC "-//W3C//DTD SVG 1.1//EN" "http://www.w3.org/Graphics/SVG/1.1/DTD/svg11.dtd">
<svg version="1.1" id="Layer_1" xmlns="http://www.w3.org/2000/svg" xmlns:xlink="http://www.w3.org/1999/xlink" x="0px" y="0px"
	 width="180px" height="155.714px" viewBox="0 0 180 155.714" enable-background="new 0 0 180 155.714" xml:space="preserve">
<g>
	<rect y="0" fill="#2B2333" width="180" height="155.714"/>
</g>
<g>
	<rect x="77.144" y="130" fill="#2B2333" width="25.714" height="25.714"/>
</g>
<g>
	<rect x="102.857" y="130" fill="#2B2333" width="25.715" height="25.714"/>
</g>
<g>
	<rect x="128.572" y="130" fill="#2B2333" width="25.714" height="25.714"/>
</g>
<g>
	<rect x="154.286" y="130" fill="#2B2333" width="25.714" height="25.714"/>
</g>
<g>
	<g>
		<rect y="27.143" fill="#2B2333" width="25.715" height="25.715"/>
	</g>
	<g>
		<path fill="#FF4F5F" d="M13.57,37.972c0,0.121-0.061,0.182-0.182,0.182h-0.533c-0.122,0-0.183-0.061-0.183-0.182v-8.45
			c-0.269,0.226-0.52,0.438-0.754,0.637c-0.233,0.199-0.48,0.412-0.741,0.637c-0.095,0.078-0.182,0.069-0.26-0.025l-0.26-0.313
			c-0.026-0.043-0.039-0.089-0.039-0.137c0-0.047,0.021-0.088,0.065-0.123l2.015-1.69c0.034-0.034,0.087-0.052,0.156-0.052h0.351
			c0.183,0,0.288,0.016,0.318,0.046s0.046,0.137,0.046,0.318V37.972z"/>
	</g>
</g>
<g>
	<g>
		<rect x="25.715" y="27.143" fill="#2B2333" width="25.714" height="25.715"/>
	</g>
	<g>
		<path fill="#E1DFE5" d="M35.949,38.154c-0.095,0-0.167-0.002-0.214-0.006c-0.048-0.005-0.083-0.018-0.104-0.039
			s-0.034-0.057-0.039-0.104c-0.004-0.048-0.006-0.119-0.006-0.214l0.013-0.287c0-0.111,0.034-0.203,0.104-0.272l2.146-2.366
			c1.595-1.725,2.392-3.033,2.392-3.926c0-0.521-0.173-0.953-0.52-1.3c-0.338-0.339-0.759-0.508-1.261-0.508
			c-0.702,0-1.435,0.195-2.197,0.585c-0.122,0.062-0.19,0.035-0.208-0.077l-0.078-0.43c-0.026-0.147,0.018-0.238,0.13-0.272
			c0.442-0.199,0.841-0.347,1.196-0.442c0.355-0.095,0.719-0.143,1.092-0.143c0.832,0,1.495,0.208,1.989,0.624
			c0.555,0.45,0.832,1.092,0.832,1.924c0,0.32-0.078,0.672-0.234,1.053c-0.156,0.382-0.373,0.78-0.65,1.196
			c-0.173,0.242-0.418,0.559-0.734,0.949c-0.316,0.39-0.678,0.806-1.085,1.248c-0.304,0.329-0.604,0.662-0.903,1.001
			c-0.3,0.338-0.601,0.672-0.904,1.001h4.551c0.121,0,0.182,0.061,0.182,0.182v0.442c0,0.121-0.061,0.182-0.182,0.182H35.949z"/>
	</g>
</g>
<g>
	<g>
		<rect x="51.429" y="27.143" fill="#2B2333" width="25.715" height="25.715"/>
	</g>
	<g>
		<path fill="#E1DFE5" d="M61.389,37.933c-0.13-0.035-0.187-0.135-0.169-0.299l0.052-0.508c0.018-0.104,0.087-0.129,0.208-0.078
			c0.364,0.148,0.708,0.252,1.033,0.313s0.704,0.096,1.138,0.104c0.685,0.01,1.261-0.164,1.729-0.52
			c0.546-0.364,0.818-0.897,0.818-1.599c0-1.231-0.923-1.847-2.769-1.847h-0.676c-0.113,0-0.17-0.047-0.17-0.143v-0.481
			c0-0.112,0.057-0.169,0.17-0.169h0.064c0.928,0,1.651-0.1,2.171-0.299c0.789-0.304,1.184-0.85,1.184-1.638
			c0-0.252-0.067-0.483-0.202-0.695c-0.134-0.213-0.314-0.393-0.539-0.54c-0.208-0.121-0.442-0.217-0.702-0.286
			s-0.533-0.104-0.819-0.104c-0.295,0-0.619,0.039-0.975,0.117c-0.355,0.077-0.698,0.182-1.027,0.312
			c-0.112,0.044-0.178,0.009-0.194-0.104l-0.053-0.48c-0.025-0.121,0.03-0.208,0.169-0.26c0.391-0.13,0.754-0.226,1.093-0.286
			c0.338-0.061,0.697-0.091,1.078-0.091c0.876,0,1.591,0.187,2.146,0.559c0.633,0.425,0.949,1.045,0.949,1.859
			c0,0.58-0.208,1.083-0.624,1.508c-0.347,0.373-0.798,0.646-1.353,0.819c0.277,0.034,0.535,0.108,0.773,0.221
			s0.444,0.269,0.618,0.468c0.199,0.217,0.351,0.462,0.455,0.734c0.104,0.273,0.155,0.574,0.155,0.903
			c0,0.434-0.089,0.826-0.267,1.177c-0.178,0.352-0.431,0.653-0.76,0.903c-0.321,0.234-0.689,0.418-1.105,0.553
			s-0.88,0.197-1.391,0.189c-0.46-0.01-0.856-0.035-1.189-0.078C62.075,38.124,61.735,38.045,61.389,37.933z"/>
	</g>
</g>
<g>
	<g>
		<rect x="77.144" y="27.143" fill="#2B2333" width="25.714" height="25.715"/>
	</g>
	<g>
		<path fill="#E1DFE5" d="M92.041,38.151c0,0.121-0.061,0.182-0.182,0.182h-0.521c-0.121,0-0.182-0.061-0.182-0.182v-2.106h-4.29
			c-0.183,0-0.289-0.015-0.319-0.046c-0.03-0.03-0.045-0.136-0.045-0.318v-0.402c0-0.078,0.004-0.131,0.013-0.156
			c0.009-0.026,0.035-0.073,0.078-0.144l4.147-6.188c0.052-0.078,0.088-0.124,0.11-0.137c0.021-0.013,0.08-0.02,0.176-0.02h0.65
			c0.182,0,0.287,0.016,0.318,0.046c0.029,0.03,0.045,0.137,0.045,0.318v6.253h1.287c0.121,0,0.182,0.061,0.182,0.182v0.43
			c0,0.121-0.061,0.182-0.182,0.182h-1.287V38.151z M91.157,35.251v-5.798c-0.642,0.971-1.279,1.937-1.911,2.898
			c-0.633,0.962-1.274,1.929-1.924,2.899H91.157z"/>
	</g>
</g>
<g>
	<g>
		<rect x="102.857" y="27.143" fill="#2B2333" width="25.715" height="25.715"/>
	</g>
	<g>
		<path fill="#E1DFE5" d="M112.898,38.281c-0.121-0.044-0.182-0.122-0.182-0.234V37.5c0-0.147,0.061-0.19,0.182-0.13
			c0.313,0.146,0.617,0.251,0.916,0.312c0.299,0.062,0.627,0.091,0.982,0.091c0.762,0,1.382-0.186,1.858-0.559
			c0.521-0.398,0.78-0.971,0.78-1.717c0-1.464-0.837-2.196-2.51-2.196c-0.329,0-0.625,0.018-0.891,0.052
			c-0.264,0.035-0.557,0.096-0.877,0.182c-0.096,0.026-0.174,0.016-0.234-0.032s-0.09-0.119-0.09-0.215l0.077-4.146
			c0-0.182,0.015-0.288,0.046-0.318c0.03-0.03,0.137-0.046,0.318-0.046h4.445c0.122,0,0.183,0.061,0.183,0.183v0.429
			c0,0.121-0.061,0.182-0.183,0.182h-3.926c-0.008,0.546-0.02,1.079-0.032,1.6c-0.013,0.52-0.024,1.053-0.032,1.599
			c0.424-0.165,0.939-0.247,1.547-0.247c0.91,0,1.646,0.247,2.21,0.741c0.563,0.512,0.845,1.196,0.845,2.054
			c0,1.049-0.324,1.859-0.975,2.432c-0.624,0.546-1.479,0.818-2.561,0.818c-0.391,0-0.729-0.021-1.015-0.064
			S113.201,38.384,112.898,38.281z"/>
	</g>
</g>
<g>
	<g>
		<rect x="128.572" y="27.143" fill="#2B2333" width="25.714" height="25.715"/>
	</g>
	<g>
		<path fill="#E1DFE5" d="M143.708,29.712c-0.199-0.069-0.427-0.125-0.683-0.169c-0.256-0.043-0.509-0.064-0.76-0.064
			c-1.18,0-2.051,0.424-2.613,1.273c-0.477,0.711-0.725,1.686-0.741,2.925c0.19-0.347,0.468-0.641,0.832-0.884
			c0.45-0.32,0.958-0.48,1.521-0.48c0.789,0,1.452,0.208,1.99,0.624c0.684,0.528,1.026,1.334,1.026,2.418
			c0,0.918-0.282,1.682-0.845,2.287c-0.572,0.615-1.344,0.924-2.314,0.924c-2.08,0-3.12-1.534-3.12-4.603
			c0-1.604,0.321-2.855,0.962-3.757c0.754-1.022,1.89-1.534,3.406-1.534c0.225,0,0.461,0.018,0.709,0.052
			c0.246,0.035,0.475,0.083,0.682,0.144c0.131,0.025,0.187,0.104,0.17,0.233l-0.026,0.481c0,0.061-0.022,0.102-0.065,0.123
			C143.795,29.728,143.752,29.73,143.708,29.712z M143.37,35.419c0-0.702-0.183-1.257-0.546-1.664
			c-0.364-0.416-0.884-0.624-1.561-0.624c-0.346,0-0.658,0.055-0.936,0.163s-0.514,0.258-0.709,0.448
			c-0.194,0.19-0.346,0.42-0.455,0.688c-0.107,0.27-0.162,0.563-0.162,0.885c0,0.658,0.182,1.213,0.547,1.664
			c0.398,0.528,0.931,0.793,1.598,0.793c0.686,0,1.236-0.229,1.652-0.689C143.18,36.65,143.37,36.095,143.37,35.419z"/>
	</g>
</g>
<g>
	<g>
		<rect x="154.286" y="27.143" fill="#2B2333" width="25.714" height="25.715"/>
	</g>
	<g>
		<path fill="#E1DFE5" d="M166.35,37.937c-0.061,0.121-0.146,0.182-0.26,0.182h-0.65c-0.051,0-0.088-0.018-0.109-0.053
			c-0.021-0.034-0.02-0.078,0.006-0.129l3.783-8.724h-4.823c-0.121,0-0.182-0.061-0.182-0.183v-0.429
			c0-0.121,0.061-0.182,0.182-0.182h5.396c0.182,0,0.287,0.015,0.318,0.045c0.03,0.03,0.045,0.137,0.045,0.318v0.325
			c0,0.069-0.013,0.13-0.039,0.183L166.35,37.937z"/>
	</g>
</g>
<g>
	<g>
		<rect y="52.858" fill="#2B2333" width="25.715" height="25.714"/>
	</g>
	<g>
		<path fill="#FF4F5F" d="M16.067,61.373c0,0.424-0.089,0.806-0.267,1.144c-0.178,0.339-0.432,0.62-0.761,0.845
			c-0.286,0.191-0.615,0.338-0.987,0.442c-0.373,0.104-0.776,0.156-1.209,0.156c-0.425,0-0.821-0.057-1.19-0.169
			c-0.368-0.113-0.704-0.27-1.007-0.469c-0.33-0.233-0.585-0.518-0.768-0.852c-0.182-0.333-0.272-0.699-0.272-1.098
			c0-0.676,0.226-1.227,0.676-1.651c0.347-0.329,0.88-0.628,1.599-0.897c-1.317-0.649-1.976-1.481-1.976-2.496
			c0-0.363,0.091-0.686,0.273-0.968c0.182-0.282,0.438-0.535,0.767-0.761c0.277-0.173,0.574-0.305,0.891-0.396
			c0.316-0.091,0.652-0.137,1.008-0.137c0.416,0,0.788,0.046,1.117,0.137c0.33,0.092,0.629,0.228,0.897,0.41
			c0.598,0.416,0.896,0.987,0.896,1.715c0,0.902-0.676,1.734-2.027,2.496c0.355,0.131,0.674,0.273,0.955,0.43
			s0.509,0.313,0.683,0.468C15.833,60.137,16.067,60.688,16.067,61.373z M15.157,61.307c0-0.477-0.217-0.893-0.65-1.248
			c-0.139-0.112-0.333-0.237-0.585-0.377c-0.251-0.138-0.559-0.29-0.923-0.454c-0.112-0.061-0.238-0.061-0.377,0
			c-0.338,0.129-0.637,0.266-0.896,0.408c-0.261,0.144-0.469,0.275-0.624,0.396c-0.174,0.174-0.314,0.375-0.423,0.605
			c-0.108,0.229-0.162,0.475-0.162,0.734c0,0.528,0.247,0.962,0.74,1.3c0.451,0.338,0.979,0.507,1.587,0.507
			c0.624,0,1.147-0.146,1.572-0.441C14.91,62.4,15.157,61.923,15.157,61.307z M14.832,56.432c0-0.493-0.217-0.884-0.649-1.17
			c-0.382-0.269-0.828-0.403-1.339-0.403c-0.556,0-1.023,0.139-1.404,0.416c-0.416,0.277-0.624,0.664-0.624,1.157
			c0,0.451,0.217,0.858,0.649,1.222c0.122,0.113,0.284,0.234,0.488,0.365c0.203,0.129,0.443,0.26,0.721,0.389
			c0.069,0.035,0.126,0.051,0.17,0.046c0.043-0.004,0.107-0.028,0.194-0.071c0.555-0.303,0.992-0.621,1.313-0.955
			C14.672,57.093,14.832,56.761,14.832,56.432z"/>
	</g>
</g>
<g>
	<g>
		<rect x="25.715" y="52.858" fill="#2B2333" width="25.714" height="25.714"/>
	</g>
	<g>
		<path fill="#E1DFE5" d="M36.185,63.777c-0.13-0.025-0.187-0.125-0.169-0.299l0.039-0.455c0.018-0.104,0.087-0.129,0.208-0.078
			c0.217,0.088,0.436,0.148,0.656,0.183c0.222,0.034,0.471,0.052,0.748,0.052c0.606,0,1.135-0.119,1.586-0.357
			c0.45-0.238,0.818-0.578,1.104-1.021c0.434-0.728,0.659-1.651,0.676-2.769c-0.528,0.85-1.313,1.273-2.353,1.273
			c-0.798,0-1.465-0.203-2.002-0.611c-0.685-0.527-1.027-1.338-1.027-2.431c0-0.962,0.282-1.729,0.846-2.301
			c0.571-0.599,1.352-0.897,2.34-0.897c2.08,0,3.12,1.534,3.12,4.603c0,3.527-1.461,5.291-4.382,5.291
			C37.177,63.959,36.713,63.898,36.185,63.777z M40.942,57.316c0-0.676-0.182-1.243-0.546-1.703c-0.398-0.494-0.928-0.74-1.586-0.74
			c-0.702,0-1.252,0.221-1.651,0.662c-0.39,0.416-0.585,0.971-0.585,1.664c0,0.737,0.178,1.31,0.533,1.717h-0.013
			c0.372,0.398,0.901,0.598,1.586,0.598c0.711,0,1.266-0.199,1.664-0.598C40.743,58.5,40.942,57.966,40.942,57.316z"/>
	</g>
</g>
<g>
	<g>
		<rect x="77.144" y="52.858" fill="#2B2333" width="25.714" height="25.714"/>
	</g>
	<g>
		<path fill="#E1DFE5" d="M86.998,63.865c0,0.121-0.061,0.182-0.182,0.182h-0.533c-0.121,0-0.182-0.061-0.182-0.182v-8.449
			c-0.269,0.225-0.521,0.438-0.754,0.637c-0.234,0.199-0.481,0.412-0.741,0.637c-0.096,0.078-0.182,0.069-0.26-0.025l-0.261-0.313
			c-0.025-0.043-0.038-0.089-0.038-0.137c0-0.047,0.021-0.088,0.064-0.123l2.015-1.69c0.035-0.034,0.087-0.052,0.156-0.052h0.352
			c0.182,0,0.288,0.016,0.318,0.045c0.03,0.031,0.045,0.137,0.045,0.318V63.865z"/>
		<path fill="#E1DFE5" d="M94.877,63.865c0,0.121-0.061,0.182-0.182,0.182h-0.533c-0.122,0-0.183-0.061-0.183-0.182v-8.449
			c-0.269,0.225-0.521,0.438-0.754,0.637s-0.481,0.412-0.741,0.637c-0.096,0.078-0.182,0.069-0.26-0.025l-0.26-0.313
			c-0.026-0.043-0.039-0.089-0.039-0.137c0-0.047,0.021-0.088,0.064-0.123l2.016-1.69c0.034-0.034,0.086-0.052,0.156-0.052h0.351
			c0.183,0,0.288,0.016,0.318,0.045c0.03,0.031,0.046,0.137,0.046,0.318V63.865z"/>
	</g>
</g>
<g>
	<g>
		<rect x="102.857" y="52.858" fill="#2B2333" width="25.715" height="25.714"/>
	</g>
	<g>
		<path fill="#E1DFE5" d="M112.234,64.007c0,0.121-0.061,0.182-0.182,0.182h-0.533c-0.121,0-0.182-0.061-0.182-0.182v-8.449
			c-0.27,0.225-0.521,0.438-0.754,0.637c-0.234,0.199-0.481,0.412-0.742,0.637c-0.095,0.078-0.182,0.069-0.26-0.025l-0.26-0.313
			c-0.025-0.043-0.039-0.089-0.039-0.137c0-0.047,0.021-0.088,0.065-0.123l2.015-1.69c0.035-0.034,0.087-0.052,0.156-0.052h0.352
			c0.182,0,0.287,0.016,0.318,0.045c0.029,0.031,0.045,0.137,0.045,0.318V64.007z"/>
		<path fill="#E1DFE5" d="M116.485,64.189c-0.095,0-0.167-0.002-0.214-0.006c-0.049-0.004-0.083-0.018-0.104-0.039
			c-0.022-0.021-0.034-0.057-0.039-0.104c-0.005-0.049-0.007-0.119-0.007-0.215l0.014-0.286c0-0.112,0.034-0.204,0.104-0.272
			l2.145-2.367c1.596-1.724,2.393-3.033,2.393-3.926c0-0.52-0.174-0.953-0.52-1.299c-0.338-0.339-0.759-0.508-1.262-0.508
			c-0.701,0-1.434,0.195-2.197,0.585c-0.121,0.062-0.189,0.034-0.207-0.077l-0.078-0.43c-0.026-0.147,0.018-0.238,0.13-0.273
			c0.442-0.199,0.841-0.346,1.196-0.441s0.719-0.143,1.092-0.143c0.832,0,1.494,0.207,1.988,0.623
			c0.555,0.451,0.832,1.092,0.832,1.924c0,0.321-0.078,0.672-0.233,1.054c-0.156,0.382-0.373,0.78-0.65,1.196
			c-0.173,0.242-0.418,0.559-0.734,0.949c-0.316,0.389-0.679,0.805-1.085,1.248c-0.304,0.328-0.605,0.662-0.904,1
			s-0.6,0.672-0.903,1.002h4.55c0.121,0,0.182,0.061,0.182,0.182v0.441c0,0.121-0.061,0.182-0.182,0.182H116.485z"/>
	</g>
</g>
<g>
	<g>
		<rect x="128.572" y="52.858" fill="#2B2333" width="25.714" height="25.714"/>
	</g>
	<g>
		<path fill="#E1DFE5" d="M137.948,64.008c0,0.121-0.061,0.182-0.182,0.182h-0.533c-0.122,0-0.183-0.061-0.183-0.182v-8.45
			c-0.268,0.226-0.52,0.438-0.754,0.637c-0.233,0.199-0.48,0.412-0.74,0.637c-0.096,0.078-0.182,0.07-0.26-0.025l-0.261-0.313
			c-0.026-0.043-0.038-0.088-0.038-0.137c0-0.047,0.021-0.088,0.064-0.123l2.015-1.689c0.034-0.035,0.087-0.053,0.156-0.053h0.351
			c0.183,0,0.289,0.016,0.318,0.046c0.031,0.03,0.046,0.137,0.046,0.318V64.008z"/>
		<path fill="#E1DFE5" d="M142.03,63.969c-0.13-0.034-0.187-0.135-0.169-0.3l0.052-0.506c0.018-0.104,0.087-0.131,0.208-0.078
			c0.364,0.146,0.709,0.251,1.033,0.312c0.326,0.062,0.705,0.096,1.139,0.104c0.684,0.008,1.26-0.165,1.729-0.521
			c0.546-0.364,0.818-0.897,0.818-1.599c0-1.23-0.922-1.846-2.769-1.846h-0.676c-0.112,0-0.169-0.048-0.169-0.144v-0.481
			c0-0.111,0.057-0.168,0.169-0.168h0.065c0.927,0,1.65-0.1,2.17-0.299c0.789-0.305,1.184-0.85,1.184-1.639
			c0-0.252-0.067-0.482-0.201-0.695c-0.135-0.213-0.314-0.393-0.54-0.539c-0.208-0.122-0.442-0.217-0.702-0.287
			c-0.26-0.068-0.533-0.104-0.818-0.104c-0.295,0-0.62,0.039-0.976,0.117s-0.698,0.182-1.026,0.312
			c-0.113,0.044-0.178,0.009-0.195-0.104l-0.053-0.48c-0.025-0.121,0.031-0.208,0.17-0.26c0.39-0.13,0.754-0.225,1.092-0.286
			c0.338-0.061,0.697-0.091,1.078-0.091c0.876,0,1.591,0.187,2.146,0.559c0.633,0.426,0.949,1.045,0.949,1.859
			c0,0.58-0.208,1.084-0.624,1.508c-0.347,0.373-0.797,0.646-1.352,0.819c0.277,0.034,0.535,0.108,0.773,0.221
			s0.443,0.269,0.617,0.468c0.199,0.217,0.352,0.462,0.455,0.734c0.104,0.273,0.156,0.574,0.156,0.904
			c0,0.434-0.09,0.825-0.268,1.176c-0.178,0.352-0.431,0.652-0.76,0.904c-0.32,0.233-0.689,0.418-1.105,0.553
			c-0.416,0.134-0.879,0.196-1.391,0.188c-0.459-0.008-0.855-0.034-1.189-0.078C142.717,64.16,142.377,64.082,142.03,63.969z"/>
	</g>
</g>
<g>
	<g>
		<rect x="154.286" y="52.858" fill="#2B2333" width="25.714" height="25.714"/>
	</g>
	<g>
		<path fill="#E1DFE5" d="M163.955,63.651c0,0.121-0.061,0.182-0.182,0.182h-0.533c-0.121,0-0.182-0.061-0.182-0.182v-8.45
			c-0.27,0.226-0.521,0.438-0.754,0.637c-0.234,0.199-0.481,0.412-0.742,0.637c-0.095,0.078-0.182,0.07-0.26-0.025l-0.26-0.313
			c-0.025-0.043-0.039-0.088-0.039-0.137c0-0.047,0.021-0.088,0.065-0.123l2.015-1.689c0.035-0.035,0.087-0.053,0.156-0.053h0.352
			c0.182,0,0.287,0.016,0.318,0.046c0.029,0.03,0.045,0.137,0.045,0.318V63.651z"/>
		<path fill="#E1DFE5" d="M173.016,63.651c0,0.121-0.061,0.182-0.182,0.182h-0.52c-0.121,0-0.182-0.061-0.182-0.182v-2.106h-4.291
			c-0.182,0-0.288-0.015-0.318-0.045c-0.03-0.031-0.045-0.137-0.045-0.318v-0.403c0-0.078,0.004-0.13,0.013-0.156
			s0.034-0.073,0.078-0.144l4.147-6.188c0.051-0.078,0.088-0.123,0.109-0.137c0.021-0.013,0.08-0.02,0.176-0.02h0.65
			c0.182,0,0.287,0.016,0.318,0.046c0.03,0.03,0.045,0.137,0.045,0.318v6.253h1.287c0.121,0,0.183,0.061,0.183,0.182v0.43
			c0,0.121-0.062,0.182-0.183,0.182h-1.287V63.651z M172.133,60.751v-5.798c-0.643,0.971-1.279,1.937-1.912,2.899
			c-0.633,0.961-1.273,1.928-1.924,2.898H172.133z"/>
	</g>
</g>
<g>
	<g>
		<rect y="78.572" fill="#2B2333" width="25.715" height="25.714"/>
	</g>
	<g>
		<path fill="#FF4F5F" d="M9.604,89.401c0,0.121-0.061,0.182-0.182,0.182H8.889c-0.122,0-0.183-0.061-0.183-0.182v-8.45
			c-0.269,0.226-0.52,0.438-0.754,0.637C7.719,81.787,7.472,82,7.211,82.224c-0.095,0.078-0.182,0.07-0.26-0.025l-0.26-0.313
			c-0.026-0.043-0.039-0.088-0.039-0.137c0-0.047,0.021-0.088,0.065-0.123l2.015-1.689c0.034-0.035,0.087-0.053,0.156-0.053h0.351
			c0.183,0,0.288,0.016,0.318,0.046s0.046,0.137,0.046,0.318V89.401z"/>
		<path fill="#FF4F5F" d="M14.18,89.388c-0.122-0.044-0.183-0.122-0.183-0.234v-0.546c0-0.147,0.061-0.19,0.183-0.13
			c0.312,0.146,0.617,0.251,0.916,0.312c0.299,0.062,0.626,0.091,0.981,0.091c0.763,0,1.383-0.186,1.859-0.559
			c0.52-0.398,0.78-0.971,0.78-1.717c0-1.464-0.837-2.196-2.51-2.196c-0.329,0-0.626,0.018-0.891,0.052
			c-0.264,0.035-0.557,0.096-0.877,0.182c-0.096,0.026-0.174,0.016-0.234-0.031c-0.061-0.049-0.091-0.119-0.091-0.215l0.078-4.147
			c0-0.182,0.015-0.288,0.046-0.318c0.03-0.03,0.136-0.046,0.318-0.046h4.445c0.122,0,0.183,0.061,0.183,0.183v0.429
			c0,0.121-0.061,0.182-0.183,0.182h-3.926c-0.009,0.547-0.02,1.08-0.032,1.6s-0.024,1.053-0.032,1.599
			c0.424-0.165,0.939-0.247,1.547-0.247c0.91,0,1.646,0.247,2.21,0.741c0.563,0.512,0.845,1.196,0.845,2.054
			c0,1.049-0.325,1.859-0.975,2.432c-0.624,0.546-1.479,0.818-2.562,0.818c-0.39,0-0.728-0.021-1.014-0.064
			S14.482,89.492,14.18,89.388z"/>
	</g>
</g>
<g>
	<g>
		<rect x="25.715" y="78.572" fill="#2B2333" width="25.714" height="25.714"/>
	</g>
	<g>
		<path fill="#E1DFE5" d="M35.609,89.401c0,0.121-0.061,0.182-0.182,0.182h-0.533c-0.121,0-0.182-0.061-0.182-0.182v-8.45
			c-0.269,0.226-0.521,0.438-0.754,0.637c-0.234,0.199-0.481,0.412-0.741,0.637c-0.096,0.078-0.182,0.07-0.26-0.025l-0.261-0.313
			c-0.025-0.043-0.038-0.088-0.038-0.137c0-0.047,0.021-0.088,0.064-0.123l2.015-1.689c0.035-0.035,0.087-0.053,0.156-0.053h0.352
			c0.182,0,0.288,0.016,0.318,0.046s0.045,0.137,0.045,0.318V89.401z"/>
		<path fill="#E1DFE5" d="M45.281,80.821c-0.199-0.069-0.427-0.126-0.682-0.169c-0.256-0.043-0.51-0.064-0.761-0.064
			c-1.179,0-2.05,0.424-2.613,1.273c-0.477,0.711-0.724,1.686-0.741,2.925c0.19-0.347,0.469-0.642,0.832-0.884
			c0.451-0.32,0.958-0.48,1.521-0.48c0.788,0,1.451,0.207,1.989,0.623c0.684,0.529,1.026,1.335,1.026,2.418
			c0,0.919-0.281,1.682-0.845,2.288c-0.572,0.615-1.344,0.923-2.314,0.923c-2.08,0-3.12-1.533-3.12-4.602
			c0-1.604,0.321-2.855,0.963-3.758c0.754-1.021,1.889-1.533,3.405-1.533c0.226,0,0.462,0.018,0.709,0.052s0.475,0.083,0.683,0.144
			c0.13,0.025,0.186,0.104,0.169,0.233l-0.026,0.481c0,0.061-0.021,0.102-0.064,0.123C45.368,80.835,45.325,80.838,45.281,80.821z
			 M44.943,86.528c0-0.702-0.182-1.257-0.546-1.664c-0.364-0.416-0.884-0.624-1.56-0.624c-0.347,0-0.659,0.055-0.937,0.162
			c-0.277,0.109-0.514,0.258-0.708,0.449c-0.195,0.19-0.347,0.42-0.455,0.688s-0.163,0.563-0.163,0.884
			c0,0.659,0.183,1.214,0.547,1.664c0.398,0.529,0.931,0.793,1.599,0.793c0.685,0,1.235-0.229,1.651-0.688
			C44.753,87.758,44.943,87.204,44.943,86.528z"/>
	</g>
</g>
<g>
	<g>
		<rect x="51.429" y="52.858" fill="#2B2333" width="25.715" height="25.714"/>
	</g>
	<g>
		<path fill="#E1DFE5" d="M61.325,63.687c0,0.121-0.061,0.182-0.182,0.182H60.61c-0.122,0-0.183-0.061-0.183-0.182v-8.451
			c-0.269,0.227-0.52,0.438-0.754,0.638c-0.233,0.199-0.48,0.411-0.741,0.637c-0.095,0.078-0.182,0.069-0.26-0.026l-0.26-0.312
			c-0.026-0.044-0.039-0.089-0.039-0.137s0.021-0.089,0.065-0.124l2.015-1.689c0.034-0.034,0.087-0.052,0.156-0.052h0.351
			c0.183,0,0.288,0.015,0.318,0.046c0.03,0.029,0.046,0.137,0.046,0.318V63.687z"/>
		<path fill="#E1DFE5" d="M71.569,59.006c0,3.276-1.058,4.914-3.172,4.914c-2.133,0-3.198-1.638-3.198-4.914
			c0-1.36,0.208-2.466,0.624-3.315c0.528-1.065,1.387-1.599,2.574-1.599c1.17,0,2.023,0.533,2.561,1.599
			c0.199,0.426,0.351,0.91,0.455,1.457C71.517,57.693,71.569,58.313,71.569,59.006z M70.633,59.006c0-2.722-0.745-4.082-2.235-4.082
			c-1.491,0-2.236,1.36-2.236,4.082c0,2.729,0.745,4.095,2.236,4.095C69.888,63.101,70.633,61.736,70.633,59.006z"/>
	</g>
</g>
<g>
	<g>
		<rect x="51.429" y="78.572" fill="#2B2333" width="25.715" height="25.714"/>
	</g>
	<g>
		<path fill="#E1DFE5" d="M61.379,89.544c0,0.121-0.061,0.182-0.182,0.182h-0.533c-0.122,0-0.183-0.061-0.183-0.182v-8.45
			c-0.269,0.226-0.52,0.438-0.754,0.638c-0.233,0.199-0.48,0.411-0.741,0.637c-0.095,0.078-0.182,0.068-0.26-0.026l-0.26-0.312
			c-0.026-0.044-0.039-0.09-0.039-0.137c0-0.048,0.021-0.089,0.065-0.124l2.015-1.69c0.034-0.033,0.087-0.051,0.156-0.051h0.351
			c0.183,0,0.288,0.015,0.318,0.045s0.046,0.137,0.046,0.318V89.544z"/>
		<path fill="#E1DFE5" d="M67.605,89.544c-0.061,0.121-0.147,0.182-0.26,0.182h-0.65c-0.052,0-0.089-0.018-0.11-0.052
			s-0.02-0.078,0.007-0.13l3.783-8.723h-4.823c-0.121,0-0.182-0.061-0.182-0.183V80.21c0-0.121,0.061-0.182,0.182-0.182h5.395
			c0.183,0,0.288,0.015,0.319,0.045c0.03,0.03,0.045,0.137,0.045,0.318v0.325c0,0.069-0.013,0.13-0.039,0.183L67.605,89.544z"/>
	</g>
</g>
<g>
	<g>
		<rect x="77.144" y="78.572" fill="#2B2333" width="25.714" height="25.714"/>
	</g>
	<g>
		<path fill="#FF4F5F" d="M87.052,89.723c0,0.121-0.061,0.182-0.182,0.182h-0.533c-0.121,0-0.182-0.061-0.182-0.182v-8.45
			c-0.269,0.226-0.521,0.438-0.754,0.637c-0.234,0.199-0.481,0.412-0.741,0.637c-0.096,0.078-0.182,0.07-0.26-0.025l-0.261-0.313
			c-0.025-0.043-0.038-0.088-0.038-0.137c0-0.047,0.021-0.088,0.064-0.123l2.015-1.689c0.035-0.035,0.087-0.053,0.156-0.053h0.352
			c0.182,0,0.288,0.016,0.318,0.046s0.045,0.137,0.045,0.318V89.723z"/>
		<path fill="#FF4F5F" d="M97.348,87.41c0,0.424-0.088,0.805-0.266,1.143c-0.178,0.339-0.432,0.621-0.761,0.846
			c-0.286,0.19-0.615,0.338-0.987,0.441c-0.373,0.104-0.776,0.156-1.209,0.156c-0.426,0-0.822-0.057-1.19-0.168
			c-0.368-0.113-0.704-0.27-1.007-0.469c-0.33-0.234-0.586-0.518-0.768-0.852s-0.273-0.699-0.273-1.098
			c0-0.677,0.227-1.227,0.677-1.652c0.347-0.328,0.88-0.627,1.599-0.896c-1.317-0.65-1.976-1.482-1.976-2.496
			c0-0.363,0.091-0.687,0.272-0.969c0.182-0.281,0.438-0.535,0.768-0.76c0.277-0.174,0.574-0.306,0.891-0.396
			c0.316-0.092,0.652-0.137,1.008-0.137c0.416,0,0.787,0.045,1.117,0.137c0.33,0.091,0.629,0.227,0.896,0.409
			c0.599,0.416,0.897,0.987,0.897,1.716c0,0.902-0.676,1.734-2.028,2.496c0.355,0.13,0.674,0.273,0.956,0.43
			c0.281,0.155,0.509,0.312,0.683,0.467C97.114,86.173,97.348,86.724,97.348,87.41z M96.438,87.343c0-0.477-0.217-0.893-0.65-1.248
			c-0.139-0.111-0.333-0.237-0.585-0.377c-0.252-0.138-0.559-0.289-0.923-0.454c-0.112-0.061-0.238-0.061-0.377,0
			c-0.338,0.13-0.638,0.267-0.897,0.409s-0.468,0.275-0.623,0.396c-0.174,0.174-0.314,0.375-0.423,0.604s-0.163,0.475-0.163,0.735
			c0,0.527,0.248,0.961,0.741,1.299c0.45,0.338,0.979,0.508,1.587,0.508c0.623,0,1.147-0.147,1.572-0.442
			C96.191,88.436,96.438,87.959,96.438,87.343z M96.113,82.468c0-0.493-0.217-0.883-0.65-1.17c-0.381-0.268-0.827-0.402-1.338-0.402
			c-0.556,0-1.023,0.139-1.404,0.416c-0.416,0.277-0.625,0.663-0.625,1.156c0,0.451,0.217,0.859,0.65,1.223
			c0.121,0.113,0.284,0.234,0.488,0.364c0.203,0.13,0.443,0.26,0.721,0.39c0.069,0.035,0.126,0.051,0.17,0.045
			c0.043-0.004,0.107-0.027,0.194-0.07c0.555-0.304,0.992-0.622,1.313-0.956C95.953,83.13,96.113,82.798,96.113,82.468z"/>
	</g>
</g>
<g>
	<g>
		<rect x="102.857" y="78.572" fill="#2B2333" width="25.715" height="25.714"/>
	</g>
	<g>
		<path fill="#FF4F5F" d="M112.288,89.866c0,0.121-0.061,0.182-0.182,0.182h-0.533c-0.122,0-0.183-0.061-0.183-0.182v-8.45
			c-0.268,0.226-0.52,0.438-0.754,0.637c-0.233,0.199-0.48,0.412-0.74,0.637c-0.096,0.078-0.182,0.07-0.26-0.025l-0.261-0.313
			c-0.026-0.043-0.038-0.088-0.038-0.137c0-0.047,0.021-0.088,0.064-0.123l2.015-1.689c0.034-0.035,0.087-0.053,0.156-0.053h0.351
			c0.183,0,0.289,0.016,0.318,0.046c0.031,0.03,0.046,0.137,0.046,0.318V89.866z"/>
		<path fill="#FF4F5F" d="M116.695,89.957c-0.131-0.025-0.187-0.126-0.169-0.299l0.038-0.455c0.018-0.104,0.088-0.13,0.209-0.078
			c0.217,0.087,0.436,0.147,0.656,0.182c0.221,0.035,0.471,0.053,0.748,0.053c0.605,0,1.135-0.119,1.586-0.357
			c0.45-0.238,0.818-0.579,1.104-1.021c0.433-0.728,0.659-1.65,0.676-2.769c-0.528,0.85-1.313,1.274-2.353,1.274
			c-0.798,0-1.465-0.203-2.002-0.611c-0.686-0.528-1.027-1.339-1.027-2.432c0-0.961,0.281-1.729,0.846-2.301
			c0.571-0.598,1.352-0.896,2.34-0.896c2.08,0,3.119,1.533,3.119,4.602c0,3.527-1.46,5.291-4.381,5.291
			C117.688,90.138,117.224,90.078,116.695,89.957z M121.453,83.496c0-0.676-0.182-1.244-0.546-1.703
			c-0.399-0.494-0.928-0.74-1.586-0.74c-0.702,0-1.253,0.221-1.651,0.662c-0.39,0.416-0.585,0.971-0.585,1.664
			c0,0.736,0.178,1.309,0.533,1.717h-0.013c0.372,0.398,0.9,0.598,1.586,0.598c0.711,0,1.266-0.199,1.664-0.598
			C121.254,84.679,121.453,84.146,121.453,83.496z"/>
	</g>
</g>
<g>
	<g>
		<rect x="128.572" y="78.572" fill="#2B2333" width="25.714" height="25.714"/>
	</g>
	<g>
		<path fill="#FF4F5F" d="M134.268,89.761c-0.095,0-0.166-0.002-0.214-0.006s-0.083-0.018-0.104-0.039s-0.034-0.057-0.039-0.104
			c-0.004-0.049-0.006-0.119-0.006-0.215l0.013-0.286c0-0.112,0.034-0.204,0.104-0.272l2.145-2.367
			c1.595-1.724,2.393-3.033,2.393-3.926c0-0.52-0.174-0.953-0.521-1.299c-0.338-0.339-0.759-0.508-1.261-0.508
			c-0.702,0-1.435,0.195-2.197,0.585c-0.121,0.062-0.19,0.034-0.208-0.077l-0.078-0.43c-0.026-0.147,0.018-0.238,0.13-0.273
			c0.442-0.199,0.841-0.346,1.196-0.441s0.72-0.143,1.092-0.143c0.832,0,1.495,0.207,1.989,0.623
			c0.555,0.451,0.832,1.092,0.832,1.924c0,0.321-0.078,0.672-0.234,1.054s-0.373,0.78-0.65,1.196
			c-0.173,0.242-0.418,0.559-0.734,0.949c-0.316,0.389-0.678,0.805-1.085,1.248c-0.304,0.328-0.604,0.662-0.903,1
			s-0.601,0.672-0.904,1.002h4.551c0.121,0,0.182,0.061,0.182,0.182v0.441c0,0.121-0.061,0.182-0.182,0.182H134.268z"/>
		<path fill="#FF4F5F" d="M148.139,84.9c0,3.275-1.057,4.914-3.172,4.914c-2.132,0-3.197-1.639-3.197-4.914
			c0-1.36,0.207-2.465,0.623-3.314c0.529-1.066,1.387-1.6,2.574-1.6c1.17,0,2.023,0.533,2.561,1.6c0.2,0.424,0.352,0.91,0.455,1.455
			C148.087,83.587,148.139,84.207,148.139,84.9z M147.203,84.9c0-2.721-0.746-4.082-2.236-4.082s-2.236,1.361-2.236,4.082
			c0,2.73,0.746,4.096,2.236,4.096S147.203,87.63,147.203,84.9z"/>
	</g>
</g>
<g>
	<g>
		<rect x="154.286" y="78.572" fill="#2B2333" width="25.714" height="25.714"/>
	</g>
	<g>
		<path fill="#E1DFE5" d="M160.436,89.548c-0.096,0-0.167-0.002-0.215-0.007c-0.047-0.005-0.082-0.018-0.104-0.039
			s-0.035-0.057-0.039-0.104c-0.004-0.047-0.006-0.119-0.006-0.214l0.012-0.286c0-0.112,0.035-0.203,0.104-0.273l2.146-2.365
			c1.594-1.725,2.392-3.033,2.392-3.926c0-0.521-0.173-0.953-0.521-1.301c-0.338-0.338-0.758-0.507-1.26-0.507
			c-0.703,0-1.436,0.195-2.197,0.585c-0.122,0.061-0.191,0.035-0.209-0.078l-0.078-0.429c-0.025-0.147,0.018-0.238,0.131-0.272
			c0.441-0.199,0.84-0.348,1.195-0.442s0.72-0.144,1.092-0.144c0.832,0,1.496,0.209,1.99,0.625c0.555,0.45,0.832,1.092,0.832,1.924
			c0,0.32-0.078,0.672-0.234,1.053s-0.373,0.779-0.65,1.195c-0.174,0.243-0.418,0.56-0.734,0.949
			c-0.316,0.391-0.678,0.807-1.086,1.248c-0.303,0.33-0.604,0.663-0.902,1.002c-0.3,0.338-0.602,0.671-0.904,1h4.551
			c0.121,0,0.182,0.061,0.182,0.182v0.443c0,0.121-0.061,0.182-0.182,0.182H160.436z"/>
		<path fill="#E1DFE5" d="M171.94,89.367c0,0.121-0.061,0.182-0.182,0.182h-0.533c-0.122,0-0.183-0.061-0.183-0.182v-8.451
			c-0.268,0.227-0.52,0.438-0.754,0.638c-0.233,0.199-0.48,0.411-0.74,0.637c-0.096,0.078-0.182,0.069-0.26-0.026l-0.261-0.312
			c-0.026-0.044-0.038-0.089-0.038-0.137s0.021-0.089,0.064-0.124l2.015-1.689c0.034-0.034,0.087-0.052,0.156-0.052h0.351
			c0.183,0,0.289,0.015,0.318,0.046c0.031,0.029,0.046,0.137,0.046,0.318V89.367z"/>
	</g>
</g>
<g>
	<g>
		<rect y="104.286" fill="#2B2333" width="25.715" height="25.715"/>
	</g>
	<g>
		<path fill="#FF4F5F" d="M6.084,115.298c-0.096,0-0.167-0.002-0.215-0.007s-0.082-0.018-0.104-0.039
			c-0.022-0.021-0.035-0.057-0.039-0.104c-0.005-0.047-0.007-0.119-0.007-0.214l0.013-0.286c0-0.112,0.035-0.203,0.104-0.273
			l2.145-2.365c1.595-1.725,2.393-3.033,2.393-3.926c0-0.521-0.174-0.953-0.521-1.301c-0.338-0.338-0.758-0.507-1.261-0.507
			c-0.702,0-1.435,0.195-2.197,0.585c-0.121,0.061-0.19,0.035-0.208-0.078l-0.078-0.429c-0.025-0.147,0.018-0.238,0.131-0.272
			c0.441-0.199,0.84-0.348,1.195-0.442s0.72-0.144,1.092-0.144c0.832,0,1.495,0.209,1.989,0.625c0.555,0.45,0.832,1.092,0.832,1.924
			c0,0.32-0.078,0.672-0.233,1.053c-0.156,0.381-0.373,0.779-0.65,1.195c-0.174,0.243-0.418,0.56-0.734,0.949
			c-0.316,0.391-0.679,0.807-1.086,1.248c-0.303,0.33-0.604,0.663-0.903,1.002c-0.299,0.338-0.601,0.671-0.903,1h4.55
			c0.121,0,0.182,0.061,0.182,0.182v0.443c0,0.121-0.061,0.182-0.182,0.182H6.084z"/>
		<path fill="#FF4F5F" d="M13.962,115.298c-0.096,0-0.167-0.002-0.215-0.007s-0.082-0.018-0.104-0.039
			c-0.022-0.021-0.035-0.057-0.039-0.104c-0.005-0.047-0.007-0.119-0.007-0.214l0.013-0.286c0-0.112,0.035-0.203,0.104-0.273
			l2.145-2.365c1.595-1.725,2.393-3.033,2.393-3.926c0-0.521-0.174-0.953-0.521-1.301c-0.338-0.338-0.758-0.507-1.261-0.507
			c-0.702,0-1.435,0.195-2.197,0.585c-0.121,0.061-0.19,0.035-0.208-0.078l-0.078-0.429c-0.025-0.147,0.018-0.238,0.131-0.272
			c0.441-0.199,0.84-0.348,1.195-0.442s0.72-0.144,1.092-0.144c0.832,0,1.495,0.209,1.989,0.625c0.555,0.45,0.832,1.092,0.832,1.924
			c0,0.32-0.078,0.672-0.233,1.053c-0.156,0.381-0.373,0.779-0.65,1.195c-0.174,0.243-0.418,0.56-0.734,0.949
			c-0.316,0.391-0.679,0.807-1.086,1.248c-0.303,0.33-0.604,0.663-0.903,1.002c-0.299,0.338-0.601,0.671-0.903,1h4.55
			c0.121,0,0.182,0.061,0.182,0.182v0.443c0,0.121-0.061,0.182-0.182,0.182H13.962z"/>
	</g>
</g>
<g>
	<g>
		<rect x="25.715" y="104.286" fill="#2B2333" width="25.714" height="25.715"/>
	</g>
	<g>
		<path fill="#E1DFE5" d="M32.09,115.298c-0.095,0-0.167-0.002-0.214-0.007c-0.048-0.005-0.083-0.018-0.104-0.039
			s-0.034-0.057-0.039-0.104c-0.004-0.047-0.006-0.119-0.006-0.214l0.013-0.286c0-0.112,0.034-0.203,0.104-0.273l2.146-2.365
			c1.595-1.725,2.392-3.033,2.392-3.926c0-0.521-0.173-0.953-0.52-1.301c-0.338-0.338-0.759-0.507-1.261-0.507
			c-0.702,0-1.435,0.195-2.197,0.585c-0.122,0.061-0.19,0.035-0.208-0.078l-0.078-0.429c-0.026-0.147,0.018-0.238,0.13-0.272
			c0.442-0.199,0.841-0.348,1.196-0.442s0.719-0.144,1.092-0.144c0.832,0,1.495,0.209,1.989,0.625
			c0.555,0.45,0.832,1.092,0.832,1.924c0,0.32-0.078,0.672-0.234,1.053s-0.373,0.779-0.65,1.195
			c-0.173,0.243-0.418,0.56-0.734,0.949c-0.316,0.391-0.678,0.807-1.085,1.248c-0.304,0.33-0.604,0.663-0.903,1.002
			c-0.3,0.338-0.601,0.671-0.904,1h4.551c0.121,0,0.182,0.061,0.182,0.182v0.443c0,0.121-0.061,0.182-0.182,0.182H32.09z"/>
		<path fill="#E1DFE5" d="M39.799,115.078c-0.13-0.035-0.187-0.135-0.169-0.3l0.052-0.507c0.018-0.104,0.087-0.13,0.208-0.078
			c0.364,0.147,0.709,0.252,1.034,0.313s0.704,0.096,1.138,0.104c0.685,0.009,1.261-0.164,1.729-0.52
			c0.546-0.364,0.819-0.897,0.819-1.6c0-1.23-0.923-1.846-2.77-1.846h-0.676c-0.112,0-0.169-0.047-0.169-0.143v-0.481
			c0-0.112,0.057-0.169,0.169-0.169h0.065c0.927,0,1.65-0.1,2.171-0.299c0.788-0.304,1.183-0.85,1.183-1.639
			c0-0.251-0.067-0.482-0.201-0.695c-0.135-0.212-0.314-0.392-0.54-0.539c-0.208-0.121-0.441-0.217-0.702-0.286
			c-0.26-0.069-0.532-0.104-0.818-0.104c-0.295,0-0.62,0.039-0.976,0.117s-0.697,0.182-1.026,0.313
			c-0.113,0.043-0.178,0.008-0.195-0.104l-0.052-0.481c-0.026-0.121,0.03-0.207,0.169-0.26c0.39-0.129,0.754-0.225,1.092-0.285
			s0.697-0.092,1.079-0.092c0.875,0,1.59,0.188,2.145,0.56c0.633,0.425,0.949,1.044,0.949,1.858c0,0.581-0.208,1.084-0.624,1.508
			c-0.347,0.373-0.797,0.646-1.352,0.82c0.277,0.034,0.535,0.107,0.773,0.221c0.238,0.112,0.444,0.269,0.617,0.468
			c0.199,0.217,0.352,0.462,0.455,0.734c0.104,0.272,0.156,0.574,0.156,0.903c0,0.434-0.089,0.826-0.267,1.177
			s-0.432,0.652-0.761,0.903c-0.32,0.234-0.688,0.418-1.104,0.553s-0.88,0.197-1.392,0.188c-0.459-0.009-0.855-0.034-1.189-0.078
			C40.486,115.267,40.146,115.189,39.799,115.078z"/>
	</g>
</g>
<g>
	<g>
		<rect x="51.429" y="104.286" fill="#2B2333" width="25.715" height="25.715"/>
	</g>
	<g>
		<path fill="#E1DFE5" d="M57.752,115.298c-0.096,0-0.167-0.002-0.215-0.006s-0.082-0.018-0.104-0.039
			c-0.022-0.021-0.035-0.057-0.039-0.104c-0.005-0.049-0.007-0.119-0.007-0.215l0.013-0.286c0-0.112,0.035-0.204,0.104-0.272
			l2.145-2.367c1.595-1.724,2.393-3.033,2.393-3.926c0-0.52-0.174-0.953-0.521-1.299c-0.338-0.339-0.758-0.508-1.261-0.508
			c-0.702,0-1.435,0.195-2.197,0.585c-0.121,0.062-0.19,0.034-0.208-0.077l-0.078-0.43c-0.025-0.147,0.018-0.238,0.131-0.273
			c0.441-0.199,0.84-0.346,1.195-0.441s0.72-0.143,1.092-0.143c0.832,0,1.495,0.207,1.989,0.623
			c0.555,0.451,0.832,1.092,0.832,1.924c0,0.321-0.078,0.672-0.233,1.054c-0.156,0.382-0.373,0.78-0.65,1.196
			c-0.174,0.242-0.418,0.559-0.734,0.949c-0.316,0.389-0.679,0.805-1.086,1.248c-0.303,0.328-0.604,0.662-0.903,1
			s-0.601,0.672-0.903,1.002h4.55c0.121,0,0.182,0.061,0.182,0.182v0.441c0,0.121-0.061,0.182-0.182,0.182H57.752z"/>
		<path fill="#E1DFE5" d="M70.439,115.117c0,0.121-0.061,0.182-0.182,0.182h-0.521c-0.121,0-0.182-0.061-0.182-0.182v-2.105h-4.29
			c-0.182,0-0.288-0.016-0.318-0.046s-0.046-0.136-0.046-0.318v-0.403c0-0.078,0.005-0.13,0.014-0.156
			c0.008-0.025,0.034-0.072,0.078-0.143l4.146-6.188c0.052-0.078,0.089-0.124,0.11-0.137c0.021-0.014,0.08-0.02,0.176-0.02h0.65
			c0.182,0,0.287,0.016,0.318,0.045c0.03,0.031,0.045,0.137,0.045,0.318v6.254h1.287c0.121,0,0.183,0.061,0.183,0.182v0.43
			c0,0.121-0.062,0.182-0.183,0.182h-1.287V115.117z M69.556,112.218v-5.799c-0.642,0.971-1.278,1.938-1.911,2.899
			s-1.273,1.929-1.924,2.899H69.556z"/>
	</g>
</g>
<g>
	<g>
		<rect x="77.144" y="104.286" fill="#2B2333" width="25.714" height="25.715"/>
	</g>
	<g>
		<path fill="#E1DFE5" d="M83.425,115.478c-0.095,0-0.167-0.002-0.214-0.007c-0.048-0.005-0.083-0.018-0.104-0.039
			s-0.034-0.057-0.039-0.104c-0.004-0.047-0.006-0.119-0.006-0.214l0.013-0.286c0-0.112,0.034-0.203,0.104-0.273l2.146-2.365
			c1.595-1.725,2.392-3.033,2.392-3.926c0-0.521-0.173-0.953-0.52-1.301c-0.338-0.338-0.759-0.507-1.261-0.507
			c-0.702,0-1.435,0.195-2.197,0.585c-0.122,0.061-0.19,0.035-0.208-0.078l-0.078-0.429c-0.026-0.147,0.018-0.238,0.13-0.272
			c0.442-0.199,0.841-0.348,1.196-0.442s0.719-0.144,1.092-0.144c0.832,0,1.495,0.209,1.989,0.625
			c0.555,0.45,0.832,1.092,0.832,1.924c0,0.32-0.078,0.672-0.234,1.053s-0.373,0.779-0.65,1.195
			c-0.173,0.243-0.418,0.56-0.734,0.949c-0.316,0.391-0.678,0.807-1.085,1.248c-0.304,0.33-0.604,0.663-0.903,1.002
			c-0.3,0.338-0.601,0.671-0.904,1h4.551c0.121,0,0.182,0.061,0.182,0.182v0.443c0,0.121-0.061,0.182-0.182,0.182H83.425z"/>
		<path fill="#E1DFE5" d="M91.629,115.283c-0.122-0.043-0.183-0.121-0.183-0.234v-0.545c0-0.148,0.061-0.191,0.183-0.131
			c0.312,0.147,0.617,0.252,0.916,0.313s0.626,0.091,0.981,0.091c0.763,0,1.382-0.187,1.858-0.56
			c0.521-0.398,0.781-0.971,0.781-1.716c0-1.464-0.838-2.196-2.51-2.196c-0.33,0-0.626,0.018-0.891,0.051
			c-0.264,0.035-0.557,0.096-0.877,0.183c-0.096,0.026-0.174,0.015-0.234-0.032c-0.061-0.048-0.091-0.119-0.091-0.215l0.077-4.146
			c0-0.182,0.016-0.289,0.047-0.318c0.029-0.031,0.136-0.046,0.318-0.046h4.445c0.121,0,0.182,0.061,0.182,0.183v0.428
			c0,0.122-0.061,0.183-0.182,0.183h-3.926c-0.009,0.546-0.02,1.079-0.033,1.599c-0.012,0.521-0.023,1.053-0.031,1.6
			c0.424-0.165,0.939-0.247,1.547-0.247c0.91,0,1.646,0.247,2.209,0.741c0.564,0.512,0.846,1.195,0.846,2.054
			c0,1.049-0.325,1.858-0.975,2.431c-0.625,0.547-1.479,0.819-2.562,0.819c-0.39,0-0.728-0.022-1.015-0.065
			C92.227,115.46,91.932,115.386,91.629,115.283z"/>
	</g>
</g>
<g>
	<g>
		<rect x="102.857" y="104.286" fill="#2B2333" width="25.715" height="25.715"/>
	</g>
	<g>
		<path fill="#E1DFE5" d="M108.661,115.621c-0.095,0-0.167-0.002-0.214-0.007c-0.049-0.005-0.083-0.018-0.104-0.039
			c-0.022-0.021-0.034-0.057-0.039-0.104c-0.005-0.047-0.007-0.119-0.007-0.214l0.014-0.286c0-0.112,0.034-0.203,0.104-0.273
			l2.145-2.365c1.596-1.725,2.393-3.033,2.393-3.926c0-0.521-0.174-0.953-0.52-1.301c-0.338-0.338-0.759-0.507-1.262-0.507
			c-0.701,0-1.434,0.195-2.197,0.585c-0.121,0.061-0.189,0.035-0.207-0.078l-0.078-0.429c-0.026-0.147,0.018-0.238,0.13-0.272
			c0.442-0.199,0.841-0.348,1.196-0.442s0.719-0.144,1.092-0.144c0.832,0,1.494,0.209,1.988,0.625
			c0.555,0.45,0.832,1.092,0.832,1.924c0,0.32-0.078,0.672-0.233,1.053c-0.156,0.381-0.373,0.779-0.65,1.195
			c-0.173,0.243-0.418,0.56-0.734,0.949c-0.316,0.391-0.679,0.807-1.085,1.248c-0.304,0.33-0.605,0.663-0.904,1.002
			c-0.299,0.338-0.6,0.671-0.903,1h4.55c0.121,0,0.182,0.061,0.182,0.182v0.443c0,0.121-0.061,0.182-0.182,0.182H108.661z"/>
		<path fill="#E1DFE5" d="M121.96,106.859c-0.199-0.07-0.427-0.126-0.683-0.17c-0.256-0.043-0.509-0.064-0.76-0.064
			c-1.18,0-2.051,0.424-2.613,1.273c-0.477,0.711-0.725,1.686-0.741,2.926c0.19-0.348,0.468-0.642,0.832-0.885
			c0.45-0.32,0.958-0.48,1.521-0.48c0.789,0,1.452,0.208,1.99,0.624c0.684,0.528,1.026,1.335,1.026,2.418
			c0,0.919-0.282,1.681-0.845,2.288c-0.572,0.615-1.344,0.923-2.314,0.923c-2.08,0-3.12-1.534-3.12-4.603
			c0-1.604,0.321-2.855,0.962-3.757c0.754-1.022,1.89-1.534,3.406-1.534c0.225,0,0.461,0.018,0.709,0.053
			c0.246,0.034,0.475,0.082,0.682,0.143c0.131,0.025,0.187,0.104,0.17,0.234l-0.026,0.48c0,0.061-0.022,0.102-0.065,0.123
			C122.047,106.874,122.004,106.876,121.96,106.859z M121.622,112.566c0-0.703-0.183-1.258-0.546-1.664
			c-0.364-0.416-0.884-0.625-1.561-0.625c-0.346,0-0.658,0.055-0.936,0.163s-0.514,0.258-0.709,0.448
			c-0.194,0.191-0.346,0.42-0.455,0.689c-0.107,0.269-0.162,0.563-0.162,0.884c0,0.659,0.182,1.214,0.547,1.664
			c0.398,0.528,0.931,0.793,1.598,0.793c0.686,0,1.236-0.229,1.652-0.688C121.432,113.796,121.622,113.242,121.622,112.566z"/>
	</g>
</g>
<g>
	<g>
		<rect x="128.572" y="104.286" fill="#2B2333" width="25.714" height="25.715"/>
	</g>
	<g>
		<path fill="#E1DFE5" d="M134.375,115.619c-0.095,0-0.166-0.002-0.214-0.006s-0.083-0.018-0.104-0.039s-0.034-0.057-0.039-0.104
			c-0.004-0.049-0.006-0.119-0.006-0.215l0.013-0.286c0-0.112,0.034-0.204,0.104-0.272l2.145-2.367
			c1.595-1.724,2.393-3.033,2.393-3.926c0-0.52-0.174-0.953-0.521-1.299c-0.338-0.339-0.759-0.508-1.261-0.508
			c-0.702,0-1.435,0.195-2.197,0.585c-0.121,0.062-0.19,0.034-0.208-0.077l-0.078-0.43c-0.026-0.147,0.018-0.238,0.13-0.273
			c0.442-0.199,0.841-0.346,1.196-0.441s0.72-0.143,1.092-0.143c0.832,0,1.495,0.207,1.989,0.623
			c0.555,0.451,0.832,1.092,0.832,1.924c0,0.321-0.078,0.672-0.234,1.054s-0.373,0.78-0.65,1.196
			c-0.173,0.242-0.418,0.559-0.734,0.949c-0.316,0.389-0.678,0.805-1.085,1.248c-0.304,0.328-0.604,0.662-0.903,1
			s-0.601,0.672-0.904,1.002h4.551c0.121,0,0.182,0.061,0.182,0.182v0.441c0,0.121-0.061,0.182-0.182,0.182H134.375z"/>
		<path fill="#E1DFE5" d="M144.229,115.437c-0.061,0.121-0.147,0.182-0.26,0.182h-0.65c-0.052,0-0.089-0.017-0.11-0.051
			c-0.021-0.035-0.02-0.078,0.006-0.131l3.783-8.723h-4.822c-0.121,0-0.182-0.061-0.182-0.182v-0.43
			c0-0.121,0.061-0.182,0.182-0.182h5.395c0.182,0,0.288,0.016,0.318,0.045c0.031,0.031,0.046,0.137,0.046,0.318v0.326
			c0,0.068-0.013,0.129-0.039,0.182L144.229,115.437z"/>
	</g>
</g>
<g>
	<g>
		<rect x="154.286" y="104.286" fill="#2B2333" width="25.714" height="25.715"/>
	</g>
	<g>
		<path fill="#E1DFE5" d="M160.436,115.261c-0.095,0-0.166-0.002-0.214-0.007s-0.083-0.018-0.104-0.039s-0.034-0.057-0.039-0.104
			c-0.004-0.047-0.006-0.119-0.006-0.214l0.013-0.286c0-0.112,0.034-0.203,0.104-0.273l2.145-2.365
			c1.595-1.725,2.393-3.033,2.393-3.926c0-0.521-0.174-0.953-0.521-1.301c-0.338-0.338-0.759-0.507-1.261-0.507
			c-0.702,0-1.435,0.195-2.197,0.585c-0.121,0.061-0.19,0.035-0.208-0.078l-0.078-0.429c-0.026-0.147,0.018-0.238,0.13-0.272
			c0.442-0.199,0.841-0.348,1.196-0.442s0.72-0.144,1.092-0.144c0.832,0,1.495,0.209,1.989,0.625
			c0.555,0.45,0.832,1.092,0.832,1.924c0,0.32-0.078,0.672-0.234,1.053s-0.373,0.779-0.65,1.195
			c-0.173,0.243-0.418,0.56-0.734,0.949c-0.316,0.391-0.678,0.807-1.085,1.248c-0.304,0.33-0.604,0.663-0.903,1.002
			c-0.299,0.338-0.601,0.671-0.904,1h4.551c0.121,0,0.182,0.061,0.182,0.182v0.443c0,0.121-0.061,0.182-0.182,0.182H160.436z"/>
		<path fill="#E1DFE5" d="M174.359,112.765c0,0.424-0.09,0.806-0.267,1.144c-0.178,0.339-0.432,0.62-0.761,0.845
			c-0.286,0.191-0.615,0.338-0.988,0.442s-0.775,0.156-1.209,0.156c-0.424,0-0.82-0.057-1.189-0.169
			c-0.368-0.113-0.704-0.27-1.008-0.469c-0.329-0.233-0.584-0.518-0.767-0.852c-0.182-0.333-0.272-0.699-0.272-1.098
			c0-0.676,0.225-1.227,0.676-1.651c0.346-0.329,0.879-0.628,1.599-0.897c-1.317-0.649-1.976-1.481-1.976-2.496
			c0-0.363,0.091-0.686,0.273-0.968c0.182-0.282,0.438-0.535,0.766-0.761c0.277-0.173,0.574-0.305,0.891-0.396
			c0.316-0.091,0.652-0.137,1.008-0.137c0.416,0,0.789,0.046,1.118,0.137c0.329,0.092,0.628,0.228,0.897,0.41
			c0.598,0.416,0.896,0.987,0.896,1.715c0,0.902-0.676,1.734-2.027,2.496c0.355,0.131,0.674,0.273,0.955,0.43
			s0.509,0.313,0.683,0.468C174.125,111.53,174.359,112.081,174.359,112.765z M173.449,112.7c0-0.477-0.217-0.893-0.65-1.248
			c-0.139-0.112-0.334-0.237-0.585-0.377c-0.251-0.138-0.559-0.29-0.923-0.454c-0.113-0.061-0.238-0.061-0.377,0
			c-0.338,0.129-0.637,0.266-0.896,0.408c-0.261,0.144-0.469,0.275-0.625,0.396c-0.173,0.174-0.314,0.375-0.422,0.605
			c-0.108,0.229-0.162,0.475-0.162,0.734c0,0.528,0.246,0.962,0.74,1.3c0.451,0.338,0.979,0.507,1.586,0.507
			c0.625,0,1.148-0.146,1.573-0.441C173.202,113.792,173.449,113.316,173.449,112.7z M173.124,107.825
			c0-0.493-0.217-0.884-0.649-1.17c-0.382-0.269-0.828-0.403-1.34-0.403c-0.555,0-1.022,0.139-1.404,0.416
			c-0.416,0.277-0.623,0.664-0.623,1.157c0,0.451,0.217,0.858,0.649,1.222c0.122,0.113,0.284,0.234,0.487,0.365
			c0.204,0.129,0.444,0.26,0.722,0.389c0.069,0.035,0.126,0.051,0.169,0.046c0.043-0.004,0.108-0.028,0.195-0.071
			c0.555-0.303,0.992-0.621,1.313-0.955S173.124,108.154,173.124,107.825z"/>
	</g>
</g>
<g>
	<g>
		<rect y="130" fill="#2B2333" width="25.715" height="25.714"/>
	</g>
	<g>
		<path fill="#FF4F5F" d="M6.084,141.011c-0.096,0-0.167-0.002-0.215-0.007s-0.082-0.018-0.104-0.039
			c-0.022-0.021-0.035-0.057-0.039-0.104c-0.005-0.047-0.007-0.119-0.007-0.214l0.013-0.286c0-0.112,0.035-0.203,0.104-0.273
			l2.145-2.365c1.595-1.725,2.393-3.033,2.393-3.926c0-0.521-0.174-0.953-0.521-1.301c-0.338-0.338-0.758-0.507-1.261-0.507
			c-0.702,0-1.435,0.195-2.197,0.585c-0.121,0.061-0.19,0.035-0.208-0.078l-0.078-0.429c-0.025-0.147,0.018-0.238,0.131-0.272
			c0.441-0.199,0.84-0.348,1.195-0.442s0.72-0.144,1.092-0.144c0.832,0,1.495,0.209,1.989,0.625c0.555,0.45,0.832,1.092,0.832,1.924
			c0,0.32-0.078,0.672-0.233,1.053c-0.156,0.381-0.373,0.779-0.65,1.195c-0.174,0.243-0.418,0.56-0.734,0.949
			c-0.316,0.391-0.679,0.807-1.086,1.248c-0.303,0.33-0.604,0.663-0.903,1.002c-0.299,0.338-0.601,0.671-0.903,1h4.55
			c0.121,0,0.182,0.061,0.182,0.182v0.443c0,0.121-0.061,0.182-0.182,0.182H6.084z"/>
		<path fill="#FF4F5F" d="M14.118,140.919c-0.131-0.025-0.187-0.125-0.169-0.299l0.038-0.455c0.018-0.104,0.087-0.129,0.208-0.078
			c0.217,0.088,0.436,0.148,0.657,0.183c0.221,0.034,0.47,0.052,0.747,0.052c0.606,0,1.136-0.119,1.586-0.357
			c0.451-0.238,0.819-0.578,1.105-1.021c0.433-0.728,0.658-1.651,0.676-2.769c-0.528,0.85-1.313,1.273-2.354,1.273
			c-0.797,0-1.464-0.203-2.002-0.611c-0.685-0.527-1.026-1.338-1.026-2.431c0-0.962,0.281-1.729,0.845-2.301
			c0.572-0.599,1.353-0.897,2.34-0.897c2.08,0,3.12,1.534,3.12,4.603c0,3.527-1.46,5.291-4.381,5.291
			C15.11,141.102,14.646,141.041,14.118,140.919z M18.876,134.458c0-0.676-0.183-1.243-0.546-1.703
			c-0.399-0.494-0.928-0.74-1.586-0.74c-0.702,0-1.253,0.221-1.651,0.662c-0.39,0.416-0.585,0.971-0.585,1.664
			c0,0.737,0.178,1.31,0.533,1.717h-0.014c0.373,0.398,0.901,0.598,1.586,0.598c0.711,0,1.266-0.199,1.664-0.598
			C18.677,135.642,18.876,135.109,18.876,134.458z"/>
	</g>
</g>
<g>
	<g>
		<rect x="25.715" y="130" fill="#2B2333" width="25.714" height="25.714"/>
	</g>
	<g>
		<path fill="#E1DFE5" d="M31.921,140.791c-0.13-0.035-0.187-0.135-0.169-0.3l0.052-0.507c0.018-0.104,0.087-0.13,0.208-0.078
			c0.364,0.147,0.709,0.252,1.034,0.313s0.704,0.096,1.138,0.104c0.685,0.009,1.261-0.164,1.729-0.52
			c0.546-0.364,0.819-0.897,0.819-1.6c0-1.23-0.923-1.846-2.77-1.846h-0.676c-0.112,0-0.169-0.047-0.169-0.143v-0.481
			c0-0.112,0.057-0.169,0.169-0.169h0.065c0.927,0,1.65-0.1,2.171-0.299c0.788-0.304,1.183-0.85,1.183-1.639
			c0-0.251-0.067-0.482-0.201-0.695c-0.135-0.212-0.314-0.392-0.54-0.539c-0.208-0.121-0.441-0.217-0.702-0.286
			c-0.26-0.069-0.532-0.104-0.818-0.104c-0.295,0-0.62,0.039-0.976,0.117s-0.697,0.182-1.026,0.313
			c-0.113,0.043-0.178,0.008-0.195-0.104l-0.052-0.481c-0.026-0.121,0.03-0.207,0.169-0.26c0.39-0.129,0.754-0.225,1.092-0.285
			s0.697-0.092,1.079-0.092c0.875,0,1.59,0.188,2.145,0.56c0.633,0.425,0.949,1.044,0.949,1.858c0,0.581-0.208,1.084-0.624,1.508
			c-0.347,0.373-0.797,0.646-1.352,0.82c0.277,0.034,0.535,0.107,0.773,0.221c0.238,0.112,0.444,0.269,0.617,0.468
			c0.199,0.217,0.352,0.462,0.455,0.734c0.104,0.272,0.156,0.574,0.156,0.903c0,0.434-0.089,0.826-0.267,1.177
			s-0.432,0.652-0.761,0.903c-0.32,0.234-0.688,0.418-1.104,0.553s-0.88,0.197-1.392,0.188c-0.459-0.009-0.855-0.034-1.189-0.078
			C32.608,140.98,32.268,140.902,31.921,140.791z"/>
		<path fill="#E1DFE5" d="M45.961,136.149c0,3.276-1.058,4.914-3.172,4.914c-2.132,0-3.198-1.638-3.198-4.914
			c0-1.36,0.208-2.466,0.624-3.315c0.528-1.065,1.387-1.599,2.574-1.599c1.17,0,2.023,0.533,2.561,1.599
			c0.2,0.426,0.352,0.91,0.455,1.457C45.909,134.835,45.961,135.456,45.961,136.149z M45.025,136.149
			c0-2.722-0.746-4.082-2.236-4.082s-2.236,1.36-2.236,4.082c0,2.729,0.746,4.095,2.236,4.095S45.025,138.878,45.025,136.149z"/>
	</g>
</g>
<g>
	<g>
		<rect x="51.429" y="130" fill="#2B2333" width="25.715" height="25.714"/>
	</g>
	<g>
		<path fill="#E1DFE5" d="M57.583,140.79c-0.13-0.034-0.187-0.135-0.169-0.3l0.052-0.506c0.018-0.104,0.087-0.131,0.208-0.078
			c0.364,0.146,0.708,0.251,1.033,0.312c0.325,0.062,0.704,0.096,1.138,0.104c0.685,0.008,1.261-0.165,1.729-0.521
			c0.546-0.364,0.818-0.897,0.818-1.599c0-1.23-0.923-1.846-2.769-1.846h-0.676c-0.113,0-0.17-0.048-0.17-0.144v-0.481
			c0-0.111,0.057-0.168,0.17-0.168h0.064c0.928,0,1.651-0.1,2.171-0.299c0.789-0.305,1.184-0.85,1.184-1.639
			c0-0.252-0.067-0.482-0.202-0.695c-0.134-0.213-0.314-0.393-0.539-0.539c-0.208-0.122-0.442-0.217-0.702-0.287
			c-0.26-0.068-0.533-0.104-0.819-0.104c-0.295,0-0.619,0.039-0.975,0.117s-0.698,0.182-1.027,0.312
			c-0.112,0.044-0.178,0.009-0.194-0.104l-0.053-0.48c-0.025-0.121,0.03-0.208,0.169-0.26c0.391-0.13,0.754-0.225,1.093-0.286
			c0.338-0.061,0.697-0.091,1.078-0.091c0.876,0,1.591,0.187,2.146,0.559c0.633,0.426,0.949,1.045,0.949,1.859
			c0,0.58-0.208,1.084-0.624,1.508c-0.347,0.373-0.798,0.646-1.353,0.819c0.277,0.034,0.535,0.108,0.773,0.221
			s0.444,0.269,0.618,0.468c0.199,0.217,0.351,0.462,0.455,0.734c0.104,0.273,0.155,0.574,0.155,0.904
			c0,0.434-0.089,0.825-0.267,1.176c-0.178,0.352-0.431,0.652-0.76,0.904c-0.321,0.233-0.689,0.418-1.105,0.553
			c-0.416,0.134-0.88,0.196-1.391,0.188c-0.46-0.008-0.856-0.034-1.189-0.078C58.27,140.98,57.93,140.902,57.583,140.79z"/>
		<path fill="#E1DFE5" d="M69.257,140.829c0,0.121-0.061,0.182-0.182,0.182h-0.533c-0.122,0-0.183-0.061-0.183-0.182v-8.45
			c-0.269,0.226-0.52,0.438-0.754,0.637c-0.233,0.199-0.48,0.412-0.741,0.637c-0.095,0.078-0.182,0.07-0.26-0.025l-0.26-0.313
			c-0.026-0.043-0.039-0.088-0.039-0.137c0-0.047,0.021-0.088,0.065-0.123l2.015-1.689c0.034-0.035,0.087-0.053,0.156-0.053h0.351
			c0.183,0,0.288,0.016,0.318,0.046s0.046,0.137,0.046,0.318V140.829z"/>
	</g>
</g>
<g>
	<g>
		<path fill="#FF4F5F" d="M5.338,14.437c0.406,0.166,0.826,0.25,1.26,0.25c0.359,0,0.656-0.089,0.89-0.266
			c0.233-0.176,0.351-0.415,0.351-0.715c0-0.173-0.065-0.342-0.195-0.505s-0.288-0.298-0.475-0.405
			c-0.207-0.113-0.419-0.222-0.636-0.324c-0.217-0.104-0.425-0.212-0.625-0.325c-0.239-0.134-0.416-0.299-0.529-0.495
			c-0.114-0.196-0.171-0.401-0.171-0.615c0-0.246,0.047-0.463,0.141-0.649c0.093-0.188,0.22-0.344,0.38-0.471
			c0.16-0.126,0.347-0.22,0.56-0.279c0.214-0.061,0.44-0.091,0.681-0.091c0.253,0,0.473,0.014,0.66,0.04
			c0.187,0.027,0.373,0.067,0.56,0.12C8.228,9.72,8.263,9.74,8.293,9.767c0.029,0.026,0.041,0.063,0.034,0.109l-0.029,0.3
			c-0.007,0.054-0.027,0.087-0.061,0.101s-0.066,0.014-0.1,0c-0.167-0.061-0.334-0.102-0.5-0.125
			c-0.167-0.023-0.367-0.035-0.601-0.035c-0.773,0-1.159,0.307-1.159,0.92c0,0.134,0.051,0.26,0.154,0.38s0.278,0.24,0.525,0.36
			c0.213,0.106,0.423,0.208,0.63,0.305s0.43,0.212,0.67,0.345c0.207,0.114,0.378,0.287,0.515,0.521s0.205,0.486,0.205,0.76
			c0,0.267-0.053,0.497-0.159,0.69c-0.107,0.193-0.25,0.354-0.431,0.479c-0.18,0.127-0.387,0.222-0.62,0.285
			s-0.473,0.095-0.72,0.095c-0.146,0-0.278-0.003-0.395-0.01c-0.117-0.007-0.228-0.017-0.33-0.03
			c-0.104-0.013-0.209-0.029-0.315-0.05c-0.106-0.02-0.22-0.047-0.34-0.08c-0.094-0.033-0.137-0.093-0.13-0.18l0.04-0.37
			C5.19,14.43,5.244,14.397,5.338,14.437z"/>
		<path fill="#FF4F5F" d="M14.147,14.957c0,0.094-0.047,0.141-0.141,0.141h-0.359c-0.094,0-0.141-0.047-0.141-0.141v-0.83
			c-0.173,0.4-0.404,0.688-0.694,0.865s-0.655,0.265-1.096,0.265c-1.246,0-1.869-0.696-1.869-2.09v-3.34
			c0-0.093,0.046-0.14,0.14-0.14h0.4c0.093,0,0.14,0.047,0.14,0.14v3.16c0,1.134,0.434,1.7,1.3,1.7c0.253,0,0.481-0.056,0.686-0.165
			c0.203-0.11,0.375-0.26,0.515-0.45s0.246-0.411,0.32-0.665c0.073-0.253,0.106-0.52,0.1-0.8v-2.78c0-0.093,0.047-0.14,0.14-0.14
			h0.4c0.093,0,0.14,0.047,0.14,0.14v4.021c0,0.22,0.002,0.416,0.005,0.59C14.136,14.61,14.141,14.784,14.147,14.957z"/>
		<path fill="#FF4F5F" d="M20.188,14.957c0,0.094-0.047,0.141-0.141,0.141h-0.399c-0.094,0-0.141-0.047-0.141-0.141v-3.149
			c0-0.613-0.109-1.049-0.329-1.306c-0.221-0.256-0.53-0.385-0.931-0.385c-0.54,0-0.951,0.15-1.234,0.45
			c-0.284,0.3-0.426,0.72-0.426,1.26v3.13c0,0.094-0.046,0.141-0.14,0.141h-0.4c-0.093,0-0.14-0.047-0.14-0.141v-4
			c0-0.286-0.002-0.51-0.005-0.67c-0.004-0.16-0.012-0.313-0.025-0.46c-0.007-0.047,0.005-0.081,0.035-0.104
			s0.065-0.035,0.105-0.035h0.359c0.094,0,0.141,0.047,0.141,0.14v0.55c0.187-0.286,0.411-0.496,0.675-0.63
			c0.264-0.133,0.625-0.2,1.085-0.2c0.633,0,1.11,0.184,1.43,0.551c0.32,0.366,0.48,0.883,0.48,1.55V14.957z"/>
	</g>
</g>
<g>
	<g>
		<path fill="#BEBDC1" d="M28.912,10.957c0-0.28-0.004-0.501-0.01-0.665c-0.007-0.163-0.018-0.318-0.03-0.465
			c0-0.093,0.047-0.14,0.14-0.14h0.37c0.094,0,0.14,0.047,0.14,0.14v0.54c0.153-0.246,0.36-0.441,0.62-0.585
			c0.261-0.144,0.58-0.215,0.96-0.215c0.4,0,0.75,0.099,1.051,0.295c0.3,0.196,0.482,0.485,0.55,0.865
			c0.14-0.38,0.365-0.669,0.675-0.865s0.668-0.295,1.075-0.295c0.26,0,0.495,0.047,0.705,0.14c0.21,0.094,0.39,0.222,0.54,0.385
			c0.149,0.164,0.265,0.355,0.345,0.575c0.08,0.221,0.12,0.454,0.12,0.7v3.59c0,0.094-0.047,0.141-0.141,0.141h-0.38
			c-0.093,0-0.14-0.044-0.14-0.131v-3.46c0-0.913-0.384-1.369-1.15-1.369c-0.233,0-0.441,0.051-0.625,0.154
			c-0.183,0.104-0.34,0.245-0.47,0.425c-0.13,0.181-0.227,0.391-0.29,0.631c-0.063,0.239-0.092,0.493-0.085,0.76v2.85
			c0,0.094-0.047,0.141-0.14,0.141h-0.4c-0.094,0-0.14-0.047-0.14-0.141v-3.45c0-0.913-0.387-1.369-1.16-1.369
			c-0.453,0-0.811,0.146-1.07,0.439c-0.26,0.294-0.39,0.68-0.39,1.16v3.22c0,0.094-0.047,0.141-0.14,0.141h-0.391
			c-0.094,0-0.14-0.047-0.14-0.141V10.957z"/>
		<path fill="#BEBDC1" d="M42.682,12.397c0,0.394-0.057,0.758-0.17,1.095s-0.263,0.632-0.45,0.885
			c-0.233,0.28-0.512,0.497-0.835,0.65s-0.691,0.229-1.104,0.229s-0.783-0.076-1.11-0.229c-0.326-0.153-0.606-0.37-0.84-0.65
			c-0.187-0.253-0.335-0.548-0.445-0.885c-0.109-0.337-0.165-0.701-0.165-1.095c0-0.807,0.204-1.467,0.61-1.98
			c0.467-0.58,1.116-0.87,1.95-0.87c0.42,0,0.79,0.072,1.11,0.216c0.319,0.143,0.596,0.361,0.829,0.654
			C42.476,10.944,42.682,11.603,42.682,12.397z M41.942,12.397c0-0.313-0.042-0.606-0.125-0.88c-0.084-0.273-0.199-0.517-0.346-0.73
			c-0.347-0.427-0.797-0.64-1.35-0.64c-0.28,0-0.532,0.055-0.755,0.165c-0.224,0.109-0.422,0.269-0.595,0.475
			c-0.154,0.214-0.272,0.457-0.355,0.73s-0.125,0.566-0.125,0.88c0,0.319,0.042,0.616,0.125,0.89s0.201,0.514,0.355,0.72
			c0.353,0.434,0.803,0.65,1.35,0.65c0.28,0,0.531-0.057,0.755-0.17s0.422-0.273,0.595-0.48c0.146-0.206,0.262-0.446,0.346-0.72
			C41.9,13.013,41.942,12.716,41.942,12.397z"/>
		<path fill="#BEBDC1" d="M48.322,14.957c0,0.094-0.047,0.141-0.141,0.141h-0.399c-0.094,0-0.141-0.047-0.141-0.141v-3.149
			c0-0.613-0.109-1.049-0.329-1.306c-0.221-0.256-0.53-0.385-0.931-0.385c-0.54,0-0.951,0.15-1.234,0.45
			c-0.284,0.3-0.426,0.72-0.426,1.26v3.13c0,0.094-0.046,0.141-0.14,0.141h-0.4c-0.093,0-0.14-0.047-0.14-0.141v-4
			c0-0.286-0.002-0.51-0.005-0.67c-0.004-0.16-0.012-0.313-0.025-0.46c-0.007-0.047,0.005-0.081,0.035-0.104
			s0.065-0.035,0.105-0.035h0.359c0.094,0,0.141,0.047,0.141,0.14v0.55c0.187-0.286,0.411-0.496,0.675-0.63
			c0.264-0.133,0.625-0.2,1.085-0.2c0.633,0,1.11,0.184,1.43,0.551c0.32,0.366,0.48,0.883,0.48,1.55V14.957z"/>
	</g>
</g>
<g>
	<g>
		<path fill="#BEBDC1" d="M60.166,15.107c-0.28,0.1-0.557,0.149-0.83,0.149c-0.54,0-0.896-0.177-1.07-0.529
			c-0.113-0.24-0.17-0.664-0.17-1.271v-3.189h-0.939c-0.094,0-0.141-0.047-0.141-0.141v-0.3c0-0.093,0.047-0.14,0.141-0.14h0.939
			V8.336c0-0.1,0.044-0.149,0.13-0.149h0.421c0.086,0,0.13,0.05,0.13,0.149v1.351h1.109c0.094,0,0.141,0.047,0.141,0.14v0.3
			c0,0.094-0.047,0.141-0.141,0.141h-1.109v3.529c0,0.594,0.239,0.891,0.72,0.891c0.187,0,0.396-0.04,0.63-0.12
			c0.033-0.014,0.065-0.014,0.095,0c0.03,0.014,0.045,0.04,0.045,0.08l0.021,0.26C60.3,15,60.26,15.067,60.166,15.107z"/>
		<path fill="#BEBDC1" d="M65.576,14.957c0,0.094-0.047,0.141-0.141,0.141h-0.359c-0.094,0-0.141-0.047-0.141-0.141v-0.83
			c-0.173,0.4-0.404,0.688-0.694,0.865s-0.655,0.265-1.096,0.265c-1.246,0-1.869-0.696-1.869-2.09v-3.34
			c0-0.093,0.046-0.14,0.14-0.14h0.4c0.093,0,0.14,0.047,0.14,0.14v3.16c0,1.134,0.434,1.7,1.3,1.7c0.253,0,0.481-0.056,0.686-0.165
			c0.203-0.11,0.375-0.26,0.515-0.45s0.246-0.411,0.32-0.665c0.073-0.253,0.106-0.52,0.1-0.8v-2.78c0-0.093,0.047-0.14,0.14-0.14
			h0.4c0.093,0,0.14,0.047,0.14,0.14v4.021c0,0.22,0.002,0.416,0.005,0.59C65.564,14.61,65.569,14.784,65.576,14.957z"/>
		<path fill="#BEBDC1" d="M67.676,12.586c-0.007,0.334,0.032,0.629,0.115,0.886c0.083,0.256,0.205,0.472,0.365,0.645
			c0.16,0.174,0.352,0.307,0.575,0.4c0.223,0.093,0.471,0.14,0.744,0.14c0.267,0,0.517-0.025,0.75-0.075s0.45-0.132,0.65-0.245
			c0.087-0.04,0.13-0.017,0.13,0.07v0.45c0,0.06-0.036,0.106-0.109,0.14c-0.221,0.087-0.45,0.151-0.69,0.195
			c-0.24,0.043-0.5,0.064-0.78,0.064c-0.819,0-1.439-0.238-1.859-0.715s-0.631-1.194-0.631-2.154c0-0.847,0.211-1.53,0.631-2.051
			c0.439-0.526,0.996-0.79,1.67-0.79c0.373,0,0.696,0.067,0.97,0.2c0.273,0.134,0.507,0.334,0.7,0.601
			c0.34,0.473,0.51,1.106,0.51,1.899c0,0.087-0.002,0.153-0.005,0.2c-0.004,0.047-0.015,0.08-0.035,0.1
			c-0.02,0.021-0.055,0.032-0.104,0.035c-0.051,0.004-0.122,0.005-0.216,0.005H67.676z M70.676,12.017
			c0-0.273-0.026-0.517-0.08-0.73c-0.053-0.213-0.137-0.406-0.25-0.58c-0.246-0.394-0.604-0.59-1.069-0.59
			c-0.48,0-0.87,0.2-1.17,0.6c-0.12,0.181-0.221,0.387-0.301,0.62s-0.123,0.46-0.13,0.681H70.676z"/>
	</g>
</g>
<g>
	<g>
		<path fill="#BEBDC1" d="M86.596,14.987c-0.021,0.073-0.073,0.11-0.16,0.11h-0.59c-0.08,0-0.134-0.037-0.16-0.11l-1.42-4.6
			c-0.247,0.773-0.493,1.539-0.74,2.3c-0.246,0.76-0.493,1.523-0.74,2.29c-0.02,0.08-0.079,0.12-0.18,0.12h-0.55
			c-0.047,0-0.085-0.007-0.115-0.021s-0.052-0.047-0.064-0.1l-1.67-5.15c-0.014-0.033-0.011-0.064,0.01-0.095
			c0.02-0.03,0.05-0.045,0.09-0.045h0.46c0.08,0,0.14,0.047,0.18,0.14l1.42,4.561c0.247-0.767,0.488-1.519,0.726-2.256
			c0.236-0.736,0.479-1.488,0.725-2.255c0.033-0.126,0.11-0.189,0.23-0.189h0.47c0.127,0,0.207,0.063,0.24,0.189l1.39,4.511
			c0.253-0.787,0.498-1.547,0.735-2.28c0.236-0.733,0.481-1.493,0.734-2.28c0.014-0.04,0.037-0.073,0.07-0.1
			c0.033-0.027,0.07-0.04,0.11-0.04h0.399c0.04,0,0.07,0.015,0.09,0.045c0.021,0.03,0.023,0.062,0.011,0.095L86.596,14.987z"/>
		<path fill="#BEBDC1" d="M89.756,12.586c-0.007,0.334,0.031,0.629,0.114,0.886c0.084,0.256,0.205,0.472,0.365,0.645
			c0.16,0.174,0.352,0.307,0.575,0.4c0.224,0.093,0.472,0.14,0.745,0.14c0.267,0,0.517-0.025,0.75-0.075s0.45-0.132,0.65-0.245
			c0.087-0.04,0.13-0.017,0.13,0.07v0.45c0,0.06-0.037,0.106-0.109,0.14c-0.221,0.087-0.451,0.151-0.691,0.195
			c-0.239,0.043-0.5,0.064-0.779,0.064c-0.82,0-1.44-0.238-1.86-0.715s-0.63-1.194-0.63-2.154c0-0.847,0.21-1.53,0.63-2.051
			c0.44-0.526,0.997-0.79,1.671-0.79c0.373,0,0.695,0.067,0.969,0.2c0.273,0.134,0.508,0.334,0.701,0.601
			c0.34,0.473,0.51,1.106,0.51,1.899c0,0.087-0.002,0.153-0.006,0.2c-0.003,0.047-0.014,0.08-0.034,0.1
			c-0.021,0.021-0.056,0.032-0.104,0.035c-0.051,0.004-0.123,0.005-0.216,0.005H89.756z M92.756,12.017
			c0-0.273-0.027-0.517-0.08-0.73c-0.053-0.213-0.137-0.406-0.25-0.58c-0.246-0.394-0.604-0.59-1.07-0.59
			c-0.479,0-0.87,0.2-1.17,0.6c-0.12,0.181-0.22,0.387-0.3,0.62s-0.124,0.46-0.13,0.681H92.756z"/>
		<path fill="#BEBDC1" d="M99.195,14.957c0,0.094-0.046,0.141-0.139,0.141h-0.391c-0.094,0-0.141-0.047-0.141-0.141v-0.75
			c-0.359,0.681-0.939,1.021-1.739,1.021c-0.714,0-1.271-0.273-1.67-0.82c-0.366-0.507-0.55-1.18-0.55-2.02
			c0-1.874,0.74-2.811,2.22-2.811c0.399,0,0.755,0.08,1.065,0.24c0.31,0.16,0.535,0.366,0.674,0.62v-3.15
			c0-0.093,0.047-0.14,0.141-0.14h0.391c0.093,0,0.139,0.047,0.139,0.14V14.957z M95.307,12.387c0,0.313,0.024,0.598,0.074,0.854
			c0.051,0.257,0.129,0.481,0.235,0.675c0.146,0.24,0.325,0.424,0.534,0.55c0.211,0.127,0.463,0.19,0.756,0.19
			c0.266,0,0.502-0.07,0.705-0.21s0.373-0.318,0.51-0.535s0.238-0.46,0.305-0.729c0.066-0.271,0.1-0.535,0.1-0.795
			c0-0.32-0.034-0.617-0.104-0.891c-0.069-0.273-0.173-0.51-0.31-0.71s-0.305-0.356-0.506-0.47c-0.199-0.113-0.434-0.17-0.699-0.17
			c-0.566,0-0.997,0.243-1.29,0.729c-0.106,0.193-0.185,0.419-0.235,0.675C95.331,11.808,95.307,12.086,95.307,12.387z"/>
	</g>
</g>
<g>
	<g>
		<path fill="#BEBDC1" d="M111.29,15.107c-0.28,0.1-0.558,0.149-0.83,0.149c-0.54,0-0.897-0.177-1.07-0.529
			c-0.113-0.24-0.17-0.664-0.17-1.271v-3.189h-0.94c-0.093,0-0.14-0.047-0.14-0.141v-0.3c0-0.093,0.047-0.14,0.14-0.14h0.94V8.336
			c0-0.1,0.044-0.149,0.13-0.149h0.42c0.087,0,0.131,0.05,0.131,0.149v1.351h1.109c0.094,0,0.141,0.047,0.141,0.14v0.3
			c0,0.094-0.047,0.141-0.141,0.141H109.9v3.529c0,0.594,0.239,0.891,0.719,0.891c0.188,0,0.397-0.04,0.631-0.12
			c0.033-0.014,0.064-0.014,0.095,0s0.045,0.04,0.045,0.08l0.021,0.26C111.424,15,111.383,15.067,111.29,15.107z"/>
		<path fill="#BEBDC1" d="M116.68,14.957c0,0.094-0.047,0.141-0.141,0.141h-0.399c-0.093,0-0.14-0.047-0.14-0.141v-3.08
			c0-0.319-0.029-0.591-0.086-0.814s-0.138-0.403-0.244-0.54c-0.107-0.137-0.236-0.235-0.391-0.295
			c-0.152-0.061-0.323-0.09-0.51-0.09c-0.547,0-0.965,0.13-1.255,0.39s-0.435,0.62-0.435,1.08v3.35c0,0.094-0.047,0.141-0.141,0.141
			h-0.4c-0.093,0-0.139-0.047-0.139-0.141v-7.68c0-0.094,0.046-0.14,0.139-0.14h0.4c0.094,0,0.141,0.046,0.141,0.14v2.899
			c0.186-0.213,0.418-0.368,0.695-0.465c0.275-0.097,0.621-0.145,1.034-0.145c0.646,0,1.12,0.189,1.42,0.57
			c0.3,0.38,0.45,0.956,0.45,1.729V14.957z"/>
		<path fill="#BEBDC1" d="M122.76,14.957c0,0.094-0.047,0.141-0.141,0.141h-0.359c-0.094,0-0.141-0.047-0.141-0.141v-0.83
			c-0.173,0.4-0.404,0.688-0.694,0.865s-0.655,0.265-1.095,0.265c-1.247,0-1.87-0.696-1.87-2.09v-3.34c0-0.093,0.046-0.14,0.14-0.14
			h0.4c0.094,0,0.14,0.047,0.14,0.14v3.16c0,1.134,0.434,1.7,1.3,1.7c0.254,0,0.482-0.056,0.686-0.165
			c0.203-0.11,0.375-0.26,0.515-0.45s0.247-0.411,0.32-0.665c0.073-0.253,0.106-0.52,0.1-0.8v-2.78c0-0.093,0.047-0.14,0.14-0.14
			h0.4c0.094,0,0.141,0.047,0.141,0.14v4.021c0,0.22,0.001,0.416,0.004,0.59C122.748,14.61,122.753,14.784,122.76,14.957z"/>
	</g>
</g>
<g>
	<g>
		<path fill="#BEBDC1" d="M139.939,7.057c0.086,0.026,0.126,0.097,0.119,0.21l-0.02,0.29c-0.007,0.04-0.023,0.064-0.051,0.074
			c-0.026,0.011-0.057,0.009-0.09-0.005c-0.073-0.026-0.14-0.045-0.199-0.055c-0.061-0.01-0.131-0.015-0.211-0.015
			c-0.393,0-0.646,0.196-0.76,0.59c-0.047,0.16-0.07,0.514-0.07,1.06v0.48h1.101c0.093,0,0.14,0.047,0.14,0.14v0.3
			c0,0.094-0.047,0.141-0.14,0.141h-1.101v4.689c0,0.094-0.046,0.141-0.139,0.141h-0.391c-0.094,0-0.141-0.047-0.141-0.141v-4.689
			h-0.969c-0.094,0-0.141-0.047-0.141-0.141v-0.3c0-0.093,0.047-0.14,0.141-0.14h0.969v-0.41c0-0.727,0.067-1.25,0.201-1.57
			c0.206-0.479,0.619-0.72,1.239-0.72C139.622,6.987,139.792,7.01,139.939,7.057z"/>
		<path fill="#BEBDC1" d="M143.689,10.296c-0.121-0.04-0.281-0.06-0.48-0.06c-0.494,0-0.86,0.243-1.1,0.729
			c-0.188,0.381-0.281,0.867-0.281,1.46v2.53c0,0.094-0.046,0.141-0.139,0.141h-0.391c-0.094,0-0.141-0.047-0.141-0.141v-4.06
			c0-0.24-0.001-0.436-0.004-0.585c-0.004-0.15-0.009-0.312-0.016-0.485c0-0.093,0.047-0.14,0.141-0.14h0.369
			c0.094,0,0.141,0.047,0.141,0.14v0.98c0.326-0.841,0.807-1.261,1.439-1.261c0.153,0,0.307,0.021,0.461,0.061
			c0.039,0.014,0.074,0.035,0.104,0.064c0.03,0.03,0.045,0.072,0.045,0.125v0.42c0,0.04-0.017,0.067-0.05,0.08
			C143.756,10.31,143.723,10.31,143.689,10.296z"/>
		<path fill="#BEBDC1" d="M144.639,7.796c0-0.133,0.047-0.248,0.141-0.345c0.093-0.097,0.206-0.145,0.34-0.145
			c0.133,0,0.248,0.048,0.345,0.145s0.145,0.212,0.145,0.345c0,0.134-0.048,0.247-0.145,0.341c-0.097,0.093-0.212,0.14-0.345,0.14
			c-0.134,0-0.247-0.047-0.34-0.14C144.686,8.043,144.639,7.93,144.639,7.796z M145.349,15.097h-0.44
			c-0.093,0-0.14-0.047-0.14-0.141v-5.13c0-0.093,0.047-0.14,0.14-0.14h0.44c0.093,0,0.14,0.047,0.14,0.14v5.13
			C145.488,15.05,145.441,15.097,145.349,15.097z"/>
	</g>
</g>
<g>
	<g>
		<path fill="#BEBDC1" d="M161.144,14.437c0.406,0.166,0.826,0.25,1.26,0.25c0.36,0,0.657-0.089,0.89-0.266
			c0.234-0.176,0.351-0.415,0.351-0.715c0-0.173-0.065-0.342-0.195-0.505s-0.288-0.298-0.475-0.405
			c-0.207-0.113-0.419-0.222-0.636-0.324c-0.217-0.104-0.424-0.212-0.625-0.325c-0.239-0.134-0.416-0.299-0.529-0.495
			s-0.17-0.401-0.17-0.615c0-0.246,0.047-0.463,0.14-0.649c0.093-0.188,0.22-0.344,0.38-0.471c0.16-0.126,0.347-0.22,0.561-0.279
			c0.213-0.061,0.439-0.091,0.68-0.091c0.254,0,0.473,0.014,0.66,0.04c0.187,0.027,0.373,0.067,0.56,0.12
			c0.04,0.014,0.075,0.033,0.105,0.061c0.03,0.026,0.042,0.063,0.034,0.109l-0.029,0.3c-0.007,0.054-0.027,0.087-0.061,0.101
			s-0.066,0.014-0.1,0c-0.166-0.061-0.334-0.102-0.5-0.125s-0.367-0.035-0.6-0.035c-0.773,0-1.16,0.307-1.16,0.92
			c0,0.134,0.051,0.26,0.154,0.38s0.279,0.24,0.525,0.36c0.213,0.106,0.424,0.208,0.63,0.305c0.207,0.097,0.431,0.212,0.671,0.345
			c0.206,0.114,0.377,0.287,0.514,0.521s0.205,0.486,0.205,0.76c0,0.267-0.053,0.497-0.159,0.69s-0.25,0.354-0.431,0.479
			c-0.18,0.127-0.387,0.222-0.619,0.285c-0.234,0.063-0.474,0.095-0.721,0.095c-0.146,0-0.278-0.003-0.395-0.01
			c-0.117-0.007-0.227-0.017-0.33-0.03c-0.104-0.013-0.209-0.029-0.314-0.05c-0.107-0.02-0.221-0.047-0.341-0.08
			c-0.093-0.033-0.137-0.093-0.13-0.18l0.04-0.37C160.996,14.43,161.05,14.397,161.144,14.437z"/>
		<path fill="#BEBDC1" d="M165.883,10.527c-0.033,0.02-0.064,0.024-0.095,0.015s-0.045-0.031-0.045-0.064v-0.38
			c0-0.094,0.046-0.164,0.14-0.21c0.233-0.127,0.482-0.216,0.745-0.266c0.264-0.05,0.552-0.075,0.865-0.075
			c0.667,0,1.153,0.159,1.46,0.476s0.46,0.795,0.46,1.435v2.51c0,0.2,0.003,0.379,0.011,0.535c0.006,0.157,0.016,0.309,0.029,0.455
			c0,0.094-0.047,0.141-0.141,0.141h-0.359c-0.094,0-0.141-0.047-0.141-0.141v-0.77c-0.139,0.34-0.375,0.603-0.705,0.79
			c-0.329,0.187-0.688,0.279-1.074,0.279c-0.674,0-1.167-0.196-1.48-0.59c-0.106-0.133-0.187-0.288-0.24-0.465
			c-0.053-0.177-0.08-0.352-0.08-0.525c0-0.406,0.096-0.756,0.285-1.05c0.19-0.293,0.482-0.513,0.875-0.66
			c0.48-0.173,1.217-0.26,2.211-0.26h0.129v-0.3c0-0.42-0.094-0.74-0.284-0.96s-0.509-0.33-0.955-0.33
			c-0.3,0-0.583,0.032-0.851,0.095C166.377,10.275,166.123,10.38,165.883,10.527z M168.732,12.277h-0.189
			c-0.373-0.014-0.705,0.002-0.994,0.045c-0.291,0.043-0.532,0.102-0.726,0.175c-0.28,0.101-0.49,0.249-0.63,0.445
			c-0.141,0.196-0.211,0.432-0.211,0.705c0,0.166,0.027,0.321,0.08,0.465c0.054,0.144,0.137,0.255,0.25,0.335
			c0.201,0.16,0.467,0.24,0.801,0.24c0.232,0,0.448-0.047,0.645-0.141c0.197-0.093,0.369-0.227,0.516-0.399
			c0.146-0.174,0.26-0.389,0.34-0.646c0.08-0.256,0.119-0.552,0.119-0.885V12.277z"/>
		<path fill="#BEBDC1" d="M173.623,15.107c-0.279,0.1-0.557,0.149-0.83,0.149c-0.539,0-0.896-0.177-1.07-0.529
			c-0.113-0.24-0.17-0.664-0.17-1.271v-3.189h-0.939c-0.094,0-0.141-0.047-0.141-0.141v-0.3c0-0.093,0.047-0.14,0.141-0.14h0.939
			V8.336c0-0.1,0.044-0.149,0.131-0.149h0.42c0.086,0,0.13,0.05,0.13,0.149v1.351h1.11c0.093,0,0.14,0.047,0.14,0.14v0.3
			c0,0.094-0.047,0.141-0.14,0.141h-1.11v3.529c0,0.594,0.239,0.891,0.72,0.891c0.188,0,0.396-0.04,0.631-0.12
			c0.033-0.014,0.064-0.014,0.094,0c0.031,0.014,0.045,0.04,0.045,0.08l0.021,0.26C173.757,15,173.717,15.067,173.623,15.107z"/>
	</g>
</g>
</svg>
