<?xml version="1.0" encoding="utf-8"?>
<!-- Generator: Adobe Illustrator 15.1.0, SVG Export Plug-In . SVG Version: 6.00 Build 0)  -->
<!DOCTYPE svg PUBLIC "-//W3C//DTD SVG 1.1//EN" "http://www.w3.org/Graphics/SVG/1.1/DTD/svg11.dtd">
<svg version="1.1" id="Layer_1" xmlns="http://www.w3.org/2000/svg" xmlns:xlink="http://www.w3.org/1999/xlink" x="0px" y="0px"
	 width="180px" height="35px" viewBox="0 -0.269 180 35" enable-background="new 0 -0.269 180 35" xml:space="preserve">
<g id="연말">
	<g>
		<rect x="0.499" y="0.231" fill="#2B2333" width="179" height="34"/>
		<path fill="#BEBDC1" d="M179,0.731v33H1v-33H179 M180-0.269H0v35h180V-0.269L180-0.269z"/>
	</g>
	<g>
		<path fill="#6CB2FF" d="M55.288,22.06c0,0.121-0.061,0.183-0.182,0.183h-0.533c-0.122,0-0.182-0.062-0.182-0.183v-8.45
			c-0.269,0.227-0.52,0.438-0.754,0.638s-0.481,0.412-0.741,0.637c-0.095,0.078-0.182,0.07-0.26-0.025l-0.26-0.313
			c-0.026-0.043-0.039-0.088-0.039-0.137c0-0.048,0.021-0.089,0.065-0.123l2.015-1.689c0.035-0.035,0.087-0.053,0.156-0.053h0.351
			c0.182,0,0.288,0.016,0.318,0.046c0.03,0.03,0.045,0.137,0.045,0.318L55.288,22.06L55.288,22.06z"/>
		<path fill="#6CB2FF" d="M59.539,22.243c-0.095,0-0.167-0.002-0.214-0.008c-0.048-0.004-0.083-0.018-0.104-0.039
			c-0.022-0.021-0.035-0.057-0.039-0.104c-0.004-0.048-0.006-0.119-0.006-0.215l0.013-0.285c0-0.113,0.035-0.204,0.104-0.273
			l2.145-2.365c1.595-1.725,2.392-3.033,2.392-3.927c0-0.521-0.173-0.952-0.52-1.3c-0.338-0.338-0.758-0.508-1.261-0.508
			c-0.702,0-1.435,0.195-2.197,0.586c-0.122,0.061-0.19,0.034-0.208-0.078l-0.078-0.43c-0.026-0.146,0.018-0.238,0.13-0.272
			c0.442-0.198,0.84-0.347,1.196-0.441c0.355-0.095,0.719-0.144,1.092-0.144c0.832,0,1.495,0.208,1.989,0.624
			c0.555,0.45,0.832,1.093,0.832,1.925c0,0.32-0.078,0.672-0.234,1.054c-0.156,0.381-0.373,0.778-0.65,1.194
			c-0.173,0.242-0.418,0.56-0.734,0.949c-0.316,0.391-0.678,0.807-1.085,1.248c-0.303,0.329-0.604,0.662-0.903,1.001
			c-0.299,0.338-0.601,0.671-0.904,1.001h4.55c0.121,0,0.182,0.062,0.182,0.183v0.441c0,0.121-0.061,0.183-0.182,0.183H59.539
			L59.539,22.243z"/>
		<path fill="#6CB2FF" d="M67.651,22.151c0-0.182,0.063-0.336,0.188-0.461c0.126-0.126,0.28-0.188,0.462-0.188
			c0.182,0,0.335,0.063,0.461,0.188c0.125,0.125,0.188,0.279,0.188,0.461c0,0.183-0.063,0.336-0.188,0.461
			c-0.126,0.127-0.28,0.189-0.461,0.189c-0.182,0-0.336-0.063-0.462-0.189C67.714,22.487,67.651,22.333,67.651,22.151z"/>
		<path fill="#6CB2FF" d="M71.187,22.021c-0.13-0.034-0.187-0.135-0.169-0.3l0.052-0.506c0.018-0.104,0.087-0.131,0.208-0.078
			c0.364,0.146,0.708,0.251,1.034,0.313c0.325,0.062,0.704,0.096,1.138,0.104c0.685,0.008,1.261-0.165,1.729-0.521
			c0.546-0.364,0.819-0.897,0.819-1.6c0-1.229-0.923-1.846-2.769-1.846h-0.676c-0.113,0-0.169-0.048-0.169-0.144v-0.481
			c0-0.111,0.057-0.168,0.169-0.168h0.065c0.927,0,1.651-0.101,2.171-0.299c0.789-0.306,1.183-0.851,1.183-1.64
			c0-0.252-0.067-0.481-0.202-0.694c-0.135-0.213-0.314-0.394-0.54-0.539c-0.208-0.122-0.442-0.217-0.702-0.287
			c-0.26-0.068-0.533-0.104-0.819-0.104c-0.295,0-0.62,0.039-0.975,0.117c-0.355,0.078-0.698,0.183-1.027,0.313
			c-0.113,0.044-0.178,0.009-0.195-0.104l-0.052-0.479c-0.026-0.121,0.03-0.208,0.169-0.261c0.39-0.13,0.754-0.225,1.092-0.285
			c0.338-0.062,0.697-0.092,1.079-0.092c0.875,0,1.59,0.188,2.145,0.56c0.633,0.426,0.949,1.045,0.949,1.858
			c0,0.58-0.208,1.084-0.624,1.509c-0.347,0.373-0.797,0.646-1.352,0.818c0.277,0.034,0.535,0.108,0.773,0.222
			c0.238,0.112,0.444,0.269,0.618,0.468c0.199,0.217,0.351,0.462,0.455,0.733c0.104,0.273,0.156,0.574,0.156,0.904
			c0,0.435-0.089,0.825-0.267,1.176c-0.178,0.353-0.431,0.652-0.76,0.904c-0.321,0.233-0.689,0.418-1.105,0.553
			c-0.416,0.134-0.88,0.196-1.391,0.188c-0.459-0.008-0.856-0.034-1.189-0.078C71.874,22.212,71.534,22.133,71.187,22.021z"/>
		<path fill="#6CB2FF" d="M82.861,22.06c0,0.121-0.061,0.183-0.182,0.183h-0.533c-0.122,0-0.182-0.062-0.182-0.183v-8.45
			c-0.269,0.227-0.52,0.438-0.754,0.638c-0.234,0.199-0.481,0.412-0.741,0.637c-0.095,0.078-0.182,0.07-0.26-0.025l-0.26-0.313
			c-0.026-0.043-0.039-0.088-0.039-0.137c0-0.048,0.021-0.089,0.065-0.123l2.015-1.689c0.035-0.035,0.087-0.053,0.156-0.053h0.351
			c0.182,0,0.288,0.016,0.318,0.046c0.03,0.03,0.045,0.137,0.045,0.318L82.861,22.06L82.861,22.06z"/>
		<path fill="#BEBDC1" d="M99.865,20.057h-0.533c-0.121,0-0.182-0.06-0.182-0.182v-2.781h-2.926c-0.285,0.346-0.64,0.617-1.06,0.813
			c-0.421,0.194-0.883,0.292-1.385,0.292c-0.435,0-0.837-0.073-1.209-0.222c-0.373-0.146-0.695-0.357-0.97-0.631
			c-0.273-0.272-0.489-0.596-0.649-0.968c-0.16-0.373-0.24-0.789-0.24-1.248c0-0.477,0.08-0.906,0.24-1.287
			c0.16-0.382,0.377-0.707,0.649-0.976c0.273-0.27,0.597-0.473,0.97-0.61c0.372-0.139,0.774-0.209,1.209-0.209
			c0.528,0,1.024,0.115,1.487,0.346c0.463,0.229,0.838,0.562,1.125,0.994h2.756v-1.742c0-0.121,0.062-0.182,0.183-0.182h0.533
			c0.121,0,0.182,0.061,0.182,0.182v8.229C100.047,19.999,99.986,20.057,99.865,20.057z M95.991,15.119
			c0-0.363-0.062-0.688-0.183-0.97c-0.121-0.28-0.283-0.516-0.487-0.7c-0.204-0.188-0.438-0.328-0.702-0.424
			c-0.264-0.095-0.543-0.144-0.838-0.144c-0.305,0-0.586,0.049-0.846,0.144c-0.26,0.096-0.486,0.236-0.683,0.424
			c-0.194,0.186-0.35,0.42-0.462,0.7c-0.111,0.282-0.169,0.605-0.169,0.97c0,0.347,0.056,0.657,0.162,0.936
			c0.108,0.278,0.258,0.514,0.448,0.709c0.191,0.195,0.419,0.347,0.683,0.455c0.265,0.108,0.554,0.162,0.865,0.162
			c0.295,0,0.573-0.054,0.838-0.162s0.498-0.26,0.702-0.455c0.203-0.195,0.365-0.431,0.486-0.709
			C95.93,15.776,95.991,15.465,95.991,15.119z M100.372,23.178c-0.044,0.025-0.087,0.039-0.13,0.039h-6.514
			c-0.406,0-0.674-0.076-0.799-0.229c-0.127-0.151-0.188-0.404-0.188-0.761v-2.549c0-0.121,0.062-0.182,0.183-0.182h0.532
			c0.121,0,0.183,0.061,0.183,0.182v2.484c0,0.121,0.021,0.195,0.059,0.227c0.039,0.03,0.119,0.046,0.24,0.046h6.306
			c0.043,0,0.086,0.016,0.13,0.046c0.044,0.029,0.064,0.066,0.064,0.109v0.469C100.438,23.114,100.416,23.152,100.372,23.178z
			 M96.9,15.132c0,0.434-0.073,0.832-0.221,1.195h2.471v-2.171h-2.393C96.854,14.467,96.9,14.794,96.9,15.132z"/>
		<path fill="#BEBDC1" d="M103.18,12.842c0-0.363,0.069-0.608,0.209-0.734c0.139-0.125,0.397-0.188,0.779-0.188h3.574
			c0.209,0,0.375,0.012,0.501,0.039c0.126,0.024,0.226,0.073,0.3,0.143c0.072,0.069,0.123,0.164,0.148,0.285
			c0.025,0.122,0.039,0.273,0.039,0.455v3.576c0,0.363-0.069,0.607-0.207,0.733c-0.141,0.125-0.399,0.188-0.781,0.188h-3.574
			c-0.208,0-0.375-0.013-0.5-0.039c-0.127-0.025-0.227-0.075-0.3-0.148s-0.124-0.17-0.149-0.286
			c-0.024-0.116-0.039-0.267-0.039-0.447V12.842z M104.389,12.701c-0.121,0-0.203,0.022-0.246,0.071
			c-0.045,0.047-0.065,0.137-0.065,0.267v3.186c0,0.13,0.021,0.219,0.065,0.267c0.043,0.049,0.125,0.071,0.246,0.071h3.133
			c0.121,0,0.203-0.022,0.248-0.071c0.043-0.048,0.064-0.137,0.064-0.267v-3.186c0-0.13-0.021-0.22-0.064-0.267
			c-0.045-0.049-0.127-0.071-0.248-0.071H104.389z M112.085,23.335c0,0.043-0.021,0.08-0.059,0.108
			c-0.039,0.031-0.076,0.047-0.11,0.047h-6.539c-0.408,0-0.674-0.075-0.8-0.229c-0.126-0.15-0.188-0.409-0.188-0.772v-0.976
			c0-0.364,0.076-0.608,0.229-0.733c0.15-0.126,0.423-0.189,0.813-0.189h5.2c0.121,0,0.199-0.017,0.234-0.051
			c0.034-0.035,0.051-0.117,0.051-0.248v-0.74c0-0.131-0.015-0.213-0.045-0.248c-0.03-0.033-0.104-0.051-0.228-0.051h-6.098
			c-0.043,0-0.084-0.014-0.123-0.039c-0.039-0.026-0.059-0.062-0.059-0.104v-0.468c0-0.043,0.02-0.078,0.059-0.104
			c0.039-0.026,0.08-0.038,0.123-0.038h6.24c0.207,0,0.377,0.015,0.507,0.045c0.13,0.029,0.233,0.08,0.312,0.148
			c0.08,0.069,0.134,0.167,0.162,0.292c0.031,0.127,0.047,0.279,0.047,0.462v0.977c0,0.363-0.075,0.607-0.229,0.734
			c-0.15,0.125-0.422,0.188-0.813,0.188h-5.213c-0.121,0-0.197,0.018-0.229,0.053s-0.046,0.117-0.046,0.247v0.793
			c0,0.121,0.019,0.201,0.053,0.24s0.112,0.059,0.234,0.059h6.33c0.043,0,0.085,0.014,0.124,0.039
			c0.039,0.026,0.059,0.062,0.059,0.104L112.085,23.335L112.085,23.335z M111.63,17.809h-0.532c-0.123,0-0.184-0.061-0.184-0.182
			v-5.98c0-0.121,0.061-0.182,0.184-0.182h0.532c0.121,0,0.183,0.061,0.183,0.182v2.587h1.793c0.054,0,0.099,0.016,0.138,0.047
			c0.039,0.029,0.06,0.07,0.06,0.122v0.441c0,0.044-0.021,0.083-0.06,0.117c-0.039,0.035-0.084,0.053-0.138,0.053h-1.793v2.613
			C111.811,17.75,111.751,17.809,111.63,17.809z"/>
	</g>
	<g>
		<g>
			<g>
				<circle fill="#BEBDC1" stroke="#BEBDC1" stroke-width="0.25" stroke-miterlimit="10" cx="25.63" cy="9.063" r="0.132"/>
				<circle fill="#BEBDC1" stroke="#BEBDC1" stroke-width="0.25" stroke-miterlimit="10" cx="25.63" cy="8.01" r="0.132"/>
				<circle fill="#BEBDC1" stroke="#BEBDC1" stroke-width="0.25" stroke-miterlimit="10" cx="25.63" cy="6.959" r="0.132"/>
				<circle fill="#BEBDC1" stroke="#BEBDC1" stroke-width="0.25" stroke-miterlimit="10" cx="25.63" cy="5.906" r="0.132"/>
				<circle fill="#BEBDC1" stroke="#BEBDC1" stroke-width="0.25" stroke-miterlimit="10" cx="25.63" cy="4.853" r="0.132"/>
			</g>
			<g>
				<circle fill="#BEBDC1" stroke="#BEBDC1" stroke-width="0.25" stroke-miterlimit="10" cx="25.63" cy="16.901" r="0.132"/>
				<circle fill="#BEBDC1" stroke="#BEBDC1" stroke-width="0.25" stroke-miterlimit="10" cx="25.63" cy="15.848" r="0.132"/>
				<circle fill="#BEBDC1" stroke="#BEBDC1" stroke-width="0.25" stroke-miterlimit="10" cx="25.63" cy="14.797" r="0.132"/>
				<circle fill="#BEBDC1" stroke="#BEBDC1" stroke-width="0.25" stroke-miterlimit="10" cx="25.63" cy="13.744" r="0.132"/>
				<circle fill="#BEBDC1" stroke="#BEBDC1" stroke-width="0.25" stroke-miterlimit="10" cx="25.63" cy="12.692" r="0.132"/>
			</g>
			<g>
				<circle fill="#BEBDC1" stroke="#BEBDC1" stroke-width="0.25" stroke-miterlimit="10" cx="25.63" cy="22.031" r="0.132"/>
				<circle fill="#BEBDC1" stroke="#BEBDC1" stroke-width="0.25" stroke-miterlimit="10" cx="25.63" cy="20.978" r="0.132"/>
				<circle fill="#BEBDC1" stroke="#BEBDC1" stroke-width="0.25" stroke-miterlimit="10" cx="25.63" cy="19.926" r="0.132"/>
				<circle fill="#BEBDC1" stroke="#BEBDC1" stroke-width="0.25" stroke-miterlimit="10" cx="25.63" cy="18.875" r="0.132"/>
				<circle fill="#BEBDC1" stroke="#BEBDC1" stroke-width="0.25" stroke-miterlimit="10" cx="25.63" cy="17.821" r="0.132"/>
			</g>
			<g>
				<circle fill="#BEBDC1" stroke="#BEBDC1" stroke-width="0.25" stroke-miterlimit="10" cx="24.756" cy="9.38" r="0.131"/>
				<circle fill="#BEBDC1" stroke="#BEBDC1" stroke-width="0.25" stroke-miterlimit="10" cx="24.079" cy="8.574" r="0.131"/>
				<circle fill="#BEBDC1" stroke="#BEBDC1" stroke-width="0.25" stroke-miterlimit="10" cx="23.403" cy="7.768" r="0.131"/>
				<circle fill="#BEBDC1" stroke="#BEBDC1" stroke-width="0.25" stroke-miterlimit="10" cx="22.726" cy="6.961" r="0.131"/>
				<circle fill="#BEBDC1" stroke="#BEBDC1" stroke-width="0.25" stroke-miterlimit="10" cx="22.05" cy="6.156" r="0.132"/>
			</g>
			<g>
				<circle fill="#BEBDC1" stroke="#BEBDC1" stroke-width="0.25" stroke-miterlimit="10" cx="24.291" cy="10.184" r="0.131"/>
				<circle fill="#BEBDC1" stroke="#BEBDC1" stroke-width="0.25" stroke-miterlimit="10" cx="23.255" cy="10.003" r="0.131"/>
				<circle fill="#BEBDC1" stroke="#BEBDC1" stroke-width="0.25" stroke-miterlimit="10" cx="22.218" cy="9.82" r="0.131"/>
				<circle fill="#BEBDC1" stroke="#BEBDC1" stroke-width="0.25" stroke-miterlimit="10" cx="21.182" cy="9.637" r="0.131"/>
				<circle fill="#BEBDC1" stroke="#BEBDC1" stroke-width="0.25" stroke-miterlimit="10" cx="20.146" cy="9.455" r="0.132"/>
			</g>
			<g>
				<circle fill="#BEBDC1" stroke="#BEBDC1" stroke-width="0.25" stroke-miterlimit="10" cx="24.453" cy="11.1" r="0.131"/>
				<circle fill="#BEBDC1" stroke="#BEBDC1" stroke-width="0.25" stroke-miterlimit="10" cx="23.541" cy="11.627" r="0.131"/>
				<circle fill="#BEBDC1" stroke="#BEBDC1" stroke-width="0.25" stroke-miterlimit="10" cx="22.63" cy="12.153" r="0.132"/>
				<circle fill="#BEBDC1" stroke="#BEBDC1" stroke-width="0.25" stroke-miterlimit="10" cx="21.719" cy="12.679" r="0.131"/>
				<circle fill="#BEBDC1" stroke="#BEBDC1" stroke-width="0.25" stroke-miterlimit="10" cx="20.807" cy="13.207" r="0.132"/>
			</g>
			<g>
				<circle fill="#BEBDC1" stroke="#BEBDC1" stroke-width="0.25" stroke-miterlimit="10" cx="25.164" cy="11.697" r="0.132"/>
				<circle fill="#BEBDC1" stroke="#BEBDC1" stroke-width="0.25" stroke-miterlimit="10" cx="24.805" cy="12.687" r="0.131"/>
				<circle fill="#BEBDC1" stroke="#BEBDC1" stroke-width="0.25" stroke-miterlimit="10" cx="24.445" cy="13.675" r="0.131"/>
				<circle fill="#BEBDC1" stroke="#BEBDC1" stroke-width="0.25" stroke-miterlimit="10" cx="24.085" cy="14.666" r="0.132"/>
				<circle fill="#BEBDC1" stroke="#BEBDC1" stroke-width="0.25" stroke-miterlimit="10" cx="23.725" cy="15.653" r="0.132"/>
			</g>
			<g>
				<circle fill="#BEBDC1" stroke="#BEBDC1" stroke-width="0.25" stroke-miterlimit="10" cx="26.093" cy="11.698" r="0.131"/>
				<circle fill="#BEBDC1" stroke="#BEBDC1" stroke-width="0.25" stroke-miterlimit="10" cx="26.454" cy="12.687" r="0.132"/>
				<circle fill="#BEBDC1" stroke="#BEBDC1" stroke-width="0.25" stroke-miterlimit="10" cx="26.814" cy="13.676" r="0.132"/>
				<circle fill="#BEBDC1" stroke="#BEBDC1" stroke-width="0.25" stroke-miterlimit="10" cx="27.174" cy="14.666" r="0.132"/>
				<circle fill="#BEBDC1" stroke="#BEBDC1" stroke-width="0.25" stroke-miterlimit="10" cx="27.534" cy="15.654" r="0.131"/>
			</g>
			<g>
				<circle fill="#BEBDC1" stroke="#BEBDC1" stroke-width="0.25" stroke-miterlimit="10" cx="26.806" cy="11.102" r="0.131"/>
				<circle fill="#BEBDC1" stroke="#BEBDC1" stroke-width="0.25" stroke-miterlimit="10" cx="27.718" cy="11.627" r="0.131"/>
				<circle fill="#BEBDC1" stroke="#BEBDC1" stroke-width="0.25" stroke-miterlimit="10" cx="28.629" cy="12.153" r="0.132"/>
				<circle fill="#BEBDC1" stroke="#BEBDC1" stroke-width="0.25" stroke-miterlimit="10" cx="29.54" cy="12.679" r="0.131"/>
				<circle fill="#BEBDC1" stroke="#BEBDC1" stroke-width="0.25" stroke-miterlimit="10" cx="30.451" cy="13.207" r="0.132"/>
			</g>
			<g>
				<path fill="#BEBDC1" stroke="#BEBDC1" stroke-width="0.25" stroke-miterlimit="10" d="M26.991,10.315
					c-0.072,0.014-0.141-0.034-0.153-0.106c-0.013-0.071,0.035-0.141,0.107-0.15c0.071-0.015,0.139,0.033,0.151,0.105
					C27.11,10.234,27.062,10.302,26.991,10.315z"/>
				<circle fill="#BEBDC1" stroke="#BEBDC1" stroke-width="0.25" stroke-miterlimit="10" cx="28.004" cy="10.003" r="0.131"/>
				<circle fill="#BEBDC1" stroke="#BEBDC1" stroke-width="0.25" stroke-miterlimit="10" cx="29.04" cy="9.82" r="0.131"/>
				<circle fill="#BEBDC1" stroke="#BEBDC1" stroke-width="0.25" stroke-miterlimit="10" cx="30.077" cy="9.636" r="0.132"/>
				<circle fill="#BEBDC1" stroke="#BEBDC1" stroke-width="0.25" stroke-miterlimit="10" cx="31.113" cy="9.456" r="0.133"/>
			</g>
			<g>
				<circle fill="#BEBDC1" stroke="#BEBDC1" stroke-width="0.25" stroke-miterlimit="10" cx="26.503" cy="9.38" r="0.131"/>
				<circle fill="#BEBDC1" stroke="#BEBDC1" stroke-width="0.25" stroke-miterlimit="10" cx="27.18" cy="8.573" r="0.131"/>
				<circle fill="#BEBDC1" stroke="#BEBDC1" stroke-width="0.25" stroke-miterlimit="10" cx="27.856" cy="7.768" r="0.132"/>
				<circle fill="#BEBDC1" stroke="#BEBDC1" stroke-width="0.25" stroke-miterlimit="10" cx="28.532" cy="6.961" r="0.132"/>
				<circle fill="#BEBDC1" stroke="#BEBDC1" stroke-width="0.25" stroke-miterlimit="10" cx="29.209" cy="6.156" r="0.131"/>
			</g>
		</g>
		<g>
			<g>
				<circle fill="#BEBDC1" stroke="#BEBDC1" stroke-width="0.25" stroke-miterlimit="10" cx="12.528" cy="12.708" r="0.132"/>
				<circle fill="#BEBDC1" stroke="#BEBDC1" stroke-width="0.25" stroke-miterlimit="10" cx="12.528" cy="11.655" r="0.132"/>
				<circle fill="#BEBDC1" stroke="#BEBDC1" stroke-width="0.25" stroke-miterlimit="10" cx="12.528" cy="10.603" r="0.132"/>
				<circle fill="#BEBDC1" stroke="#BEBDC1" stroke-width="0.25" stroke-miterlimit="10" cx="12.528" cy="9.55" r="0.132"/>
				<circle fill="#BEBDC1" stroke="#BEBDC1" stroke-width="0.25" stroke-miterlimit="10" cx="12.528" cy="8.499" r="0.132"/>
			</g>
			<g>
				<circle fill="#BEBDC1" stroke="#BEBDC1" stroke-width="0.25" stroke-miterlimit="10" cx="12.528" cy="20.546" r="0.132"/>
				<circle fill="#BEBDC1" stroke="#BEBDC1" stroke-width="0.25" stroke-miterlimit="10" cx="12.528" cy="19.493" r="0.132"/>
				<circle fill="#BEBDC1" stroke="#BEBDC1" stroke-width="0.25" stroke-miterlimit="10" cx="12.528" cy="18.441" r="0.132"/>
				<circle fill="#BEBDC1" stroke="#BEBDC1" stroke-width="0.25" stroke-miterlimit="10" cx="12.528" cy="17.388" r="0.132"/>
				<circle fill="#BEBDC1" stroke="#BEBDC1" stroke-width="0.25" stroke-miterlimit="10" cx="12.528" cy="16.337" r="0.132"/>
			</g>
			<g>
				<circle fill="#BEBDC1" stroke="#BEBDC1" stroke-width="0.25" stroke-miterlimit="10" cx="12.528" cy="25.675" r="0.132"/>
				<circle fill="#BEBDC1" stroke="#BEBDC1" stroke-width="0.25" stroke-miterlimit="10" cx="12.528" cy="24.624" r="0.132"/>
				<circle fill="#BEBDC1" stroke="#BEBDC1" stroke-width="0.25" stroke-miterlimit="10" cx="12.528" cy="23.571" r="0.132"/>
				<circle fill="#BEBDC1" stroke="#BEBDC1" stroke-width="0.25" stroke-miterlimit="10" cx="12.528" cy="22.518" r="0.132"/>
				<circle fill="#BEBDC1" stroke="#BEBDC1" stroke-width="0.25" stroke-miterlimit="10" cx="12.528" cy="21.466" r="0.132"/>
			</g>
			<g>
				<circle fill="#BEBDC1" stroke="#BEBDC1" stroke-width="0.25" stroke-miterlimit="10" cx="11.654" cy="13.025" r="0.131"/>
				<circle fill="#BEBDC1" stroke="#BEBDC1" stroke-width="0.25" stroke-miterlimit="10" cx="10.977" cy="12.219" r="0.131"/>
				<circle fill="#BEBDC1" stroke="#BEBDC1" stroke-width="0.25" stroke-miterlimit="10" cx="10.302" cy="11.413" r="0.131"/>
				<circle fill="#BEBDC1" stroke="#BEBDC1" stroke-width="0.25" stroke-miterlimit="10" cx="9.625" cy="10.606" r="0.131"/>
				<circle fill="#BEBDC1" stroke="#BEBDC1" stroke-width="0.25" stroke-miterlimit="10" cx="8.949" cy="9.801" r="0.132"/>
			</g>
			<g>
				<circle fill="#BEBDC1" stroke="#BEBDC1" stroke-width="0.25" stroke-miterlimit="10" cx="11.19" cy="13.83" r="0.131"/>
				<circle fill="#BEBDC1" stroke="#BEBDC1" stroke-width="0.25" stroke-miterlimit="10" cx="10.153" cy="13.648" r="0.131"/>
				<circle fill="#BEBDC1" stroke="#BEBDC1" stroke-width="0.25" stroke-miterlimit="10" cx="9.117" cy="13.464" r="0.131"/>
				<circle fill="#BEBDC1" stroke="#BEBDC1" stroke-width="0.25" stroke-miterlimit="10" cx="8.08" cy="13.282" r="0.131"/>
				<circle fill="#BEBDC1" stroke="#BEBDC1" stroke-width="0.25" stroke-miterlimit="10" cx="7.045" cy="13.098" r="0.132"/>
			</g>
			<g>
				<circle fill="#BEBDC1" stroke="#BEBDC1" stroke-width="0.25" stroke-miterlimit="10" cx="11.351" cy="14.745" r="0.131"/>
				<circle fill="#BEBDC1" stroke="#BEBDC1" stroke-width="0.25" stroke-miterlimit="10" cx="10.44" cy="15.272" r="0.131"/>
				<circle fill="#BEBDC1" stroke="#BEBDC1" stroke-width="0.25" stroke-miterlimit="10" cx="9.528" cy="15.798" r="0.132"/>
				<circle fill="#BEBDC1" stroke="#BEBDC1" stroke-width="0.25" stroke-miterlimit="10" cx="8.617" cy="16.324" r="0.131"/>
				<circle fill="#BEBDC1" stroke="#BEBDC1" stroke-width="0.25" stroke-miterlimit="10" cx="7.706" cy="16.85" r="0.132"/>
			</g>
			<g>
				<circle fill="#BEBDC1" stroke="#BEBDC1" stroke-width="0.25" stroke-miterlimit="10" cx="12.062" cy="15.342" r="0.132"/>
				<circle fill="#BEBDC1" stroke="#BEBDC1" stroke-width="0.25" stroke-miterlimit="10" cx="11.703" cy="16.333" r="0.131"/>
				<circle fill="#BEBDC1" stroke="#BEBDC1" stroke-width="0.25" stroke-miterlimit="10" cx="11.343" cy="17.32" r="0.131"/>
				<circle fill="#BEBDC1" stroke="#BEBDC1" stroke-width="0.25" stroke-miterlimit="10" cx="10.984" cy="18.31" r="0.132"/>
				<circle fill="#BEBDC1" stroke="#BEBDC1" stroke-width="0.25" stroke-miterlimit="10" cx="10.623" cy="19.297" r="0.132"/>
			</g>
			<g>
				<circle fill="#BEBDC1" stroke="#BEBDC1" stroke-width="0.25" stroke-miterlimit="10" cx="12.992" cy="15.343" r="0.131"/>
				<circle fill="#BEBDC1" stroke="#BEBDC1" stroke-width="0.25" stroke-miterlimit="10" cx="13.352" cy="16.333" r="0.132"/>
				<circle fill="#BEBDC1" stroke="#BEBDC1" stroke-width="0.25" stroke-miterlimit="10" cx="13.712" cy="17.321" r="0.132"/>
				<circle fill="#BEBDC1" stroke="#BEBDC1" stroke-width="0.25" stroke-miterlimit="10" cx="14.072" cy="18.31" r="0.132"/>
				<circle fill="#BEBDC1" stroke="#BEBDC1" stroke-width="0.25" stroke-miterlimit="10" cx="14.432" cy="19.298" r="0.131"/>
			</g>
			<g>
				<circle fill="#BEBDC1" stroke="#BEBDC1" stroke-width="0.25" stroke-miterlimit="10" cx="13.705" cy="14.747" r="0.131"/>
				<circle fill="#BEBDC1" stroke="#BEBDC1" stroke-width="0.25" stroke-miterlimit="10" cx="14.616" cy="15.272" r="0.131"/>
				<circle fill="#BEBDC1" stroke="#BEBDC1" stroke-width="0.25" stroke-miterlimit="10" cx="15.527" cy="15.798" r="0.132"/>
				<circle fill="#BEBDC1" stroke="#BEBDC1" stroke-width="0.25" stroke-miterlimit="10" cx="16.439" cy="16.324" r="0.131"/>
				<circle fill="#BEBDC1" stroke="#BEBDC1" stroke-width="0.25" stroke-miterlimit="10" cx="17.35" cy="16.85" r="0.132"/>
			</g>
			<g>
				<path fill="#BEBDC1" stroke="#BEBDC1" stroke-width="0.25" stroke-miterlimit="10" d="M13.89,13.96
					c-0.072,0.013-0.141-0.035-0.153-0.107c-0.013-0.07,0.035-0.14,0.107-0.149c0.071-0.016,0.139,0.033,0.151,0.104
					C14.009,13.879,13.96,13.948,13.89,13.96z"/>
				<circle fill="#BEBDC1" stroke="#BEBDC1" stroke-width="0.25" stroke-miterlimit="10" cx="14.903" cy="13.648" r="0.131"/>
				<circle fill="#BEBDC1" stroke="#BEBDC1" stroke-width="0.25" stroke-miterlimit="10" cx="15.939" cy="13.464" r="0.131"/>
				<circle fill="#BEBDC1" stroke="#BEBDC1" stroke-width="0.25" stroke-miterlimit="10" cx="16.975" cy="13.281" r="0.132"/>
				<circle fill="#BEBDC1" stroke="#BEBDC1" stroke-width="0.25" stroke-miterlimit="10" cx="18.012" cy="13.099" r="0.133"/>
			</g>
			<g>
				<circle fill="#BEBDC1" stroke="#BEBDC1" stroke-width="0.25" stroke-miterlimit="10" cx="13.402" cy="13.025" r="0.131"/>
				<circle fill="#BEBDC1" stroke="#BEBDC1" stroke-width="0.25" stroke-miterlimit="10" cx="14.078" cy="12.218" r="0.131"/>
				<circle fill="#BEBDC1" stroke="#BEBDC1" stroke-width="0.25" stroke-miterlimit="10" cx="14.754" cy="11.412" r="0.132"/>
				<circle fill="#BEBDC1" stroke="#BEBDC1" stroke-width="0.25" stroke-miterlimit="10" cx="15.43" cy="10.606" r="0.132"/>
				<circle fill="#BEBDC1" stroke="#BEBDC1" stroke-width="0.25" stroke-miterlimit="10" cx="16.107" cy="9.801" r="0.131"/>
			</g>
		</g>
		<g>
			<g>
				<circle fill="#BEBDC1" stroke="#BEBDC1" stroke-width="0.25" stroke-miterlimit="10" cx="31.817" cy="18.175" r="0.095"/>
				<circle fill="#BEBDC1" stroke="#BEBDC1" stroke-width="0.25" stroke-miterlimit="10" cx="31.817" cy="17.414" r="0.095"/>
				<circle fill="#BEBDC1" stroke="#BEBDC1" stroke-width="0.25" stroke-miterlimit="10" cx="31.817" cy="16.651" r="0.095"/>
				<circle fill="#BEBDC1" stroke="#BEBDC1" stroke-width="0.25" stroke-miterlimit="10" cx="31.817" cy="15.888" r="0.095"/>
				<circle fill="#BEBDC1" stroke="#BEBDC1" stroke-width="0.25" stroke-miterlimit="10" cx="31.817" cy="15.127" r="0.095"/>
			</g>
			<g>
				<circle fill="#BEBDC1" stroke="#BEBDC1" stroke-width="0.25" stroke-miterlimit="10" cx="31.817" cy="23.853" r="0.095"/>
				<circle fill="#BEBDC1" stroke="#BEBDC1" stroke-width="0.25" stroke-miterlimit="10" cx="31.817" cy="23.09" r="0.095"/>
				<circle fill="#BEBDC1" stroke="#BEBDC1" stroke-width="0.25" stroke-miterlimit="10" cx="31.817" cy="22.328" r="0.095"/>
				<circle fill="#BEBDC1" stroke="#BEBDC1" stroke-width="0.25" stroke-miterlimit="10" cx="31.817" cy="21.566" r="0.095"/>
				<circle fill="#BEBDC1" stroke="#BEBDC1" stroke-width="0.25" stroke-miterlimit="10" cx="31.817" cy="20.803" r="0.095"/>
			</g>
			<g>
				<circle fill="#BEBDC1" stroke="#BEBDC1" stroke-width="0.25" stroke-miterlimit="10" cx="31.817" cy="27.568" r="0.095"/>
				<circle fill="#BEBDC1" stroke="#BEBDC1" stroke-width="0.25" stroke-miterlimit="10" cx="31.817" cy="26.805" r="0.095"/>
				<circle fill="#BEBDC1" stroke="#BEBDC1" stroke-width="0.25" stroke-miterlimit="10" cx="31.817" cy="26.044" r="0.095"/>
				<circle fill="#BEBDC1" stroke="#BEBDC1" stroke-width="0.25" stroke-miterlimit="10" cx="31.817" cy="25.281" r="0.095"/>
				<circle fill="#BEBDC1" stroke="#BEBDC1" stroke-width="0.25" stroke-miterlimit="10" cx="31.817" cy="24.519" r="0.095"/>
			</g>
			<g>
				<circle fill="#BEBDC1" stroke="#BEBDC1" stroke-width="0.25" stroke-miterlimit="10" cx="31.183" cy="18.405" r="0.095"/>
				<circle fill="#BEBDC1" stroke="#BEBDC1" stroke-width="0.25" stroke-miterlimit="10" cx="30.693" cy="17.821" r="0.095"/>
				<circle fill="#BEBDC1" stroke="#BEBDC1" stroke-width="0.25" stroke-miterlimit="10" cx="30.204" cy="17.237" r="0.095"/>
				<circle fill="#BEBDC1" stroke="#BEBDC1" stroke-width="0.25" stroke-miterlimit="10" cx="29.713" cy="16.653" r="0.095"/>
				<circle fill="#BEBDC1" stroke="#BEBDC1" stroke-width="0.25" stroke-miterlimit="10" cx="29.224" cy="16.07" r="0.095"/>
			</g>
			<g>
				<circle fill="#BEBDC1" stroke="#BEBDC1" stroke-width="0.25" stroke-miterlimit="10" cx="30.847" cy="18.987" r="0.095"/>
				<circle fill="#BEBDC1" stroke="#BEBDC1" stroke-width="0.25" stroke-miterlimit="10" cx="30.096" cy="18.856" r="0.095"/>
				<circle fill="#BEBDC1" stroke="#BEBDC1" stroke-width="0.25" stroke-miterlimit="10" cx="29.345" cy="18.723" r="0.095"/>
				<circle fill="#BEBDC1" stroke="#BEBDC1" stroke-width="0.25" stroke-miterlimit="10" cx="28.595" cy="18.591" r="0.095"/>
				<circle fill="#BEBDC1" stroke="#BEBDC1" stroke-width="0.25" stroke-miterlimit="10" cx="27.844" cy="18.458" r="0.096"/>
			</g>
			<g>
				<circle fill="#BEBDC1" stroke="#BEBDC1" stroke-width="0.25" stroke-miterlimit="10" cx="30.964" cy="19.651" r="0.095"/>
				<circle fill="#BEBDC1" stroke="#BEBDC1" stroke-width="0.25" stroke-miterlimit="10" cx="30.304" cy="20.032" r="0.095"/>
				<circle fill="#BEBDC1" stroke="#BEBDC1" stroke-width="0.25" stroke-miterlimit="10" cx="29.644" cy="20.413" r="0.096"/>
				<circle fill="#BEBDC1" stroke="#BEBDC1" stroke-width="0.25" stroke-miterlimit="10" cx="28.984" cy="20.795" r="0.095"/>
				<circle fill="#BEBDC1" stroke="#BEBDC1" stroke-width="0.25" stroke-miterlimit="10" cx="28.323" cy="21.176" r="0.095"/>
			</g>
			<g>
				<circle fill="#BEBDC1" stroke="#BEBDC1" stroke-width="0.25" stroke-miterlimit="10" cx="31.479" cy="20.084" r="0.095"/>
				<circle fill="#BEBDC1" stroke="#BEBDC1" stroke-width="0.25" stroke-miterlimit="10" cx="31.219" cy="20.8" r="0.095"/>
				<circle fill="#BEBDC1" stroke="#BEBDC1" stroke-width="0.25" stroke-miterlimit="10" cx="30.958" cy="21.516" r="0.095"/>
				<circle fill="#BEBDC1" stroke="#BEBDC1" stroke-width="0.25" stroke-miterlimit="10" cx="30.698" cy="22.233" r="0.096"/>
				<circle fill="#BEBDC1" stroke="#BEBDC1" stroke-width="0.25" stroke-miterlimit="10" cx="30.437" cy="22.948" r="0.095"/>
			</g>
			<g>
				<circle fill="#BEBDC1" stroke="#BEBDC1" stroke-width="0.25" stroke-miterlimit="10" cx="32.152" cy="20.084" r="0.095"/>
				<circle fill="#BEBDC1" stroke="#BEBDC1" stroke-width="0.25" stroke-miterlimit="10" cx="32.413" cy="20.8" r="0.095"/>
				<circle fill="#BEBDC1" stroke="#BEBDC1" stroke-width="0.25" stroke-miterlimit="10" cx="32.674" cy="21.517" r="0.095"/>
				<circle fill="#BEBDC1" stroke="#BEBDC1" stroke-width="0.25" stroke-miterlimit="10" cx="32.935" cy="22.233" r="0.096"/>
				<circle fill="#BEBDC1" stroke="#BEBDC1" stroke-width="0.25" stroke-miterlimit="10" cx="33.195" cy="22.949" r="0.095"/>
			</g>
			<g>
				<circle fill="#BEBDC1" stroke="#BEBDC1" stroke-width="0.25" stroke-miterlimit="10" cx="32.669" cy="19.652" r="0.095"/>
				<circle fill="#BEBDC1" stroke="#BEBDC1" stroke-width="0.25" stroke-miterlimit="10" cx="33.329" cy="20.032" r="0.095"/>
				<circle fill="#BEBDC1" stroke="#BEBDC1" stroke-width="0.25" stroke-miterlimit="10" cx="33.989" cy="20.414" r="0.095"/>
				<circle fill="#BEBDC1" stroke="#BEBDC1" stroke-width="0.25" stroke-miterlimit="10" cx="34.649" cy="20.795" r="0.095"/>
				<circle fill="#BEBDC1" stroke="#BEBDC1" stroke-width="0.25" stroke-miterlimit="10" cx="35.309" cy="21.176" r="0.095"/>
			</g>
			<g>
				<circle fill="#BEBDC1" stroke="#BEBDC1" stroke-width="0.25" stroke-miterlimit="10" cx="32.786" cy="18.989" r="0.095"/>
				<circle fill="#BEBDC1" stroke="#BEBDC1" stroke-width="0.25" stroke-miterlimit="10" cx="33.536" cy="18.856" r="0.095"/>
				<circle fill="#BEBDC1" stroke="#BEBDC1" stroke-width="0.25" stroke-miterlimit="10" cx="34.286" cy="18.723" r="0.095"/>
				<circle fill="#BEBDC1" stroke="#BEBDC1" stroke-width="0.25" stroke-miterlimit="10" cx="35.037" cy="18.591" r="0.095"/>
				<circle fill="#BEBDC1" stroke="#BEBDC1" stroke-width="0.25" stroke-miterlimit="10" cx="35.788" cy="18.459" r="0.096"/>
			</g>
			<g>
				<circle fill="#BEBDC1" stroke="#BEBDC1" stroke-width="0.25" stroke-miterlimit="10" cx="32.449" cy="18.405" r="0.095"/>
				<circle fill="#BEBDC1" stroke="#BEBDC1" stroke-width="0.25" stroke-miterlimit="10" cx="32.939" cy="17.821" r="0.095"/>
				<circle fill="#BEBDC1" stroke="#BEBDC1" stroke-width="0.25" stroke-miterlimit="10" cx="33.429" cy="17.237" r="0.095"/>
				<circle fill="#BEBDC1" stroke="#BEBDC1" stroke-width="0.25" stroke-miterlimit="10" cx="33.918" cy="16.653" r="0.096"/>
				<circle fill="#BEBDC1" stroke="#BEBDC1" stroke-width="0.25" stroke-miterlimit="10" cx="34.409" cy="16.07" r="0.095"/>
			</g>
		</g>
		
			<ellipse fill="#2B2333" stroke="#BEBDC1" stroke-width="0.5" stroke-linecap="round" stroke-miterlimit="10" cx="19.56" cy="12.216" rx="1.417" ry="1.542"/>
		<path fill="#2B2333" stroke="#BEBDC1" stroke-width="0.5" stroke-linecap="round" stroke-miterlimit="10" d="M25.538,29.742
			l-0.616-13.258c0-3.227-2.401-3.924-5.363-3.924l0,0c-2.961,0-5.362,0.697-5.362,3.924l-0.616,13.258H25.538z"/>
		
			<rect x="26.07" y="20.966" fill="#2B2333" stroke="#BEBDC1" stroke-width="0.5" stroke-linecap="round" stroke-miterlimit="10" width="11.141" height="3.433"/>
		
			<line fill="none" stroke="#BEBDC1" stroke-width="0.5" stroke-linecap="round" stroke-miterlimit="10" x1="14.242" y1="15.788" x2="24.889" y2="15.788"/>
		
			<line fill="none" stroke="#BEBDC1" stroke-width="0.5" stroke-linecap="round" stroke-miterlimit="10" x1="18.143" y1="15.788" x2="18.143" y2="20.305"/>
		
			<line fill="none" stroke="#BEBDC1" stroke-width="0.5" stroke-linecap="round" stroke-miterlimit="10" x1="18.143" y1="20.305" x2="14.021" y2="20.305"/>
		
			<line fill="none" stroke="#BEBDC1" stroke-width="0.5" stroke-linecap="round" stroke-miterlimit="10" x1="20.977" y1="15.788" x2="20.977" y2="20.305"/>
		
			<line fill="none" stroke="#BEBDC1" stroke-width="0.5" stroke-linecap="round" stroke-miterlimit="10" x1="20.977" y1="20.305" x2="25.099" y2="20.305"/>
		
			<line fill="none" stroke="#BEBDC1" stroke-width="0.5" stroke-linecap="round" stroke-miterlimit="10" x1="13.654" y1="27.774" x2="25.467" y2="27.774"/>
		<polyline fill="none" stroke="#BEBDC1" stroke-width="0.5" stroke-linecap="round" stroke-miterlimit="10" points="33.968,24.639 
			33.968,14.851 29.314,14.851 29.314,24.639 		"/>
	</g>
</g>
</svg>
