<?xml version="1.0" encoding="utf-8"?>
<!-- Generator: Adobe Illustrator 15.1.0, SVG Export Plug-In . SVG Version: 6.00 Build 0)  -->
<!DOCTYPE svg PUBLIC "-//W3C//DTD SVG 1.1//EN" "http://www.w3.org/Graphics/SVG/1.1/DTD/svg11.dtd">
<svg version="1.1" id="Layer_1" xmlns="http://www.w3.org/2000/svg" xmlns:xlink="http://www.w3.org/1999/xlink" x="0px" y="0px"
	 width="180px" height="35px" viewBox="0 -0.269 180 35" enable-background="new 0 -0.269 180 35" xml:space="preserve">
<g id="설">
	<g>
		<rect x="0.499" y="0.231" fill="#2B2333" width="179" height="34"/>
		<path fill="#BEBDC1" d="M179,0.731v33H1v-33H179 M180-0.269H0v35h180V-0.269L180-0.269z"/>
	</g>
	<g>
		<path fill="#FF4F5F" d="M57.654,17.38c0,3.276-1.058,4.914-3.172,4.914c-2.132,0-3.198-1.638-3.198-4.914
			c0-1.36,0.208-2.465,0.624-3.315c0.528-1.066,1.387-1.599,2.574-1.599c1.17,0,2.023,0.533,2.561,1.599
			c0.2,0.425,0.351,0.91,0.455,1.456S57.654,16.687,57.654,17.38z M56.718,17.38c0-2.721-0.746-4.082-2.236-4.082
			c-1.491,0-2.236,1.361-2.236,4.082c0,2.73,0.746,4.095,2.236,4.095C55.973,21.476,56.718,20.11,56.718,17.38z"/>
		<path fill="#FF4F5F" d="M59.539,22.242c-0.095,0-0.167-0.002-0.214-0.006c-0.048-0.004-0.083-0.018-0.104-0.039
			c-0.022-0.021-0.035-0.057-0.039-0.104c-0.004-0.048-0.006-0.119-0.006-0.214l0.013-0.286c0-0.112,0.035-0.204,0.104-0.273
			l2.145-2.366c1.595-1.724,2.392-3.033,2.392-3.926c0-0.52-0.173-0.953-0.52-1.3c-0.338-0.338-0.758-0.507-1.261-0.507
			c-0.702,0-1.435,0.195-2.197,0.585c-0.122,0.061-0.19,0.035-0.208-0.078l-0.078-0.429c-0.026-0.147,0.018-0.238,0.13-0.273
			c0.442-0.199,0.84-0.347,1.196-0.442c0.356-0.095,0.719-0.143,1.092-0.143c0.832,0,1.495,0.208,1.989,0.624
			c0.555,0.451,0.832,1.092,0.832,1.924c0,0.321-0.078,0.672-0.234,1.053c-0.156,0.381-0.373,0.78-0.65,1.196
			c-0.173,0.243-0.418,0.559-0.734,0.949s-0.678,0.806-1.085,1.248c-0.303,0.329-0.604,0.663-0.903,1.001
			c-0.299,0.338-0.601,0.671-0.904,1.001h4.55c0.121,0,0.182,0.061,0.182,0.182v0.442c0,0.121-0.061,0.182-0.182,0.182
			L59.539,22.242L59.539,22.242z"/>
		<path fill="#FF4F5F" d="M67.651,22.151c0-0.182,0.063-0.336,0.188-0.461c0.126-0.125,0.28-0.188,0.462-0.188
			c0.182,0,0.335,0.063,0.461,0.188c0.125,0.125,0.188,0.279,0.188,0.461c0,0.182-0.063,0.336-0.188,0.461
			c-0.126,0.125-0.28,0.188-0.461,0.188c-0.182,0-0.336-0.063-0.462-0.188C67.714,22.487,67.651,22.333,67.651,22.151z"/>
		<path fill="#FF4F5F" d="M74.983,22.061c0,0.121-0.061,0.182-0.182,0.182h-0.533c-0.122,0-0.182-0.061-0.182-0.182v-8.45
			c-0.269,0.226-0.52,0.438-0.754,0.637s-0.481,0.412-0.741,0.637c-0.095,0.078-0.182,0.069-0.26-0.026l-0.26-0.312
			c-0.026-0.043-0.039-0.089-0.039-0.137c0-0.047,0.021-0.088,0.065-0.124l2.015-1.69c0.035-0.034,0.087-0.052,0.156-0.052h0.351
			c0.182,0,0.288,0.015,0.318,0.045c0.03,0.03,0.045,0.137,0.045,0.318L74.983,22.061L74.983,22.061z"/>
		<path fill="#FF4F5F" d="M85.227,17.38c0,3.276-1.058,4.914-3.172,4.914c-2.132,0-3.198-1.638-3.198-4.914
			c0-1.36,0.208-2.465,0.624-3.315c0.528-1.066,1.387-1.599,2.574-1.599c1.17,0,2.023,0.533,2.561,1.599
			c0.2,0.425,0.351,0.91,0.455,1.456S85.227,16.687,85.227,17.38z M84.291,17.38c0-2.721-0.746-4.082-2.236-4.082
			c-1.491,0-2.236,1.361-2.236,4.082c0,2.73,0.746,4.095,2.236,4.095C83.545,21.476,84.291,20.11,84.291,17.38z"/>
		<path fill="#BEBDC1" d="M94.457,11.868c-0.018,0.642-0.1,1.222-0.247,1.742c0.147,0.303,0.329,0.603,0.546,0.897
			c0.217,0.295,0.455,0.565,0.715,0.813c0.26,0.248,0.529,0.466,0.808,0.657c0.276,0.19,0.555,0.338,0.832,0.442
			c0.052,0.018,0.077,0.05,0.077,0.097c0,0.048-0.01,0.089-0.025,0.124l-0.232,0.442c-0.027,0.052-0.063,0.08-0.111,0.084
			c-0.049,0.004-0.098-0.002-0.149-0.02c-0.26-0.104-0.526-0.247-0.8-0.429c-0.271-0.182-0.535-0.385-0.786-0.611
			s-0.487-0.464-0.708-0.715c-0.222-0.251-0.414-0.507-0.579-0.767c-0.276,0.52-0.64,1.003-1.085,1.449
			c-0.447,0.447-0.99,0.877-1.632,1.293c-0.062,0.043-0.11,0.067-0.149,0.072s-0.08-0.02-0.123-0.072l-0.328-0.402
			c-0.068-0.095-0.047-0.182,0.064-0.26c0.537-0.338,0.997-0.687,1.378-1.047c0.382-0.359,0.691-0.736,0.931-1.131
			c0.238-0.394,0.414-0.813,0.525-1.254c0.112-0.441,0.169-0.915,0.169-1.417c0-0.069,0.019-0.122,0.054-0.156
			c0.033-0.034,0.067-0.052,0.104-0.052l0.611,0.039C94.409,11.686,94.457,11.747,94.457,11.868z M100.32,23.334
			c0,0.043-0.02,0.08-0.059,0.11c-0.039,0.03-0.076,0.045-0.111,0.045h-6.539c-0.406,0-0.674-0.076-0.799-0.228
			c-0.125-0.151-0.188-0.409-0.188-0.773v-0.975c0-0.364,0.075-0.608,0.228-0.734c0.151-0.125,0.422-0.188,0.813-0.188h5.2
			c0.121,0,0.199-0.017,0.232-0.052c0.035-0.035,0.054-0.117,0.054-0.247v-0.741c0-0.13-0.017-0.212-0.046-0.247
			c-0.03-0.034-0.106-0.052-0.229-0.052H92.78c-0.044,0-0.085-0.013-0.124-0.039c-0.039-0.026-0.059-0.061-0.059-0.104v-0.468
			c0-0.043,0.02-0.078,0.059-0.104s0.08-0.039,0.124-0.039h6.239c0.209,0,0.377,0.015,0.508,0.045c0.13,0.03,0.234,0.08,0.312,0.149
			c0.078,0.069,0.132,0.167,0.163,0.292c0.029,0.126,0.045,0.279,0.045,0.461v0.975c0,0.364-0.076,0.609-0.228,0.734
			c-0.151,0.126-0.423,0.188-0.813,0.188h-5.213c-0.122,0-0.197,0.018-0.229,0.052c-0.03,0.034-0.045,0.117-0.045,0.247v0.793
			c0,0.121,0.018,0.201,0.053,0.24c0.033,0.039,0.111,0.059,0.232,0.059h6.332c0.043,0,0.084,0.013,0.123,0.039
			s0.06,0.061,0.06,0.104L100.32,23.334L100.32,23.334z M99.865,17.77h-0.533c-0.121,0-0.182-0.061-0.182-0.182v-2.951h-2.678
			c-0.113,0-0.17-0.052-0.17-0.156v-0.468c0-0.104,0.057-0.156,0.17-0.156h2.678v-2.21c0-0.122,0.061-0.182,0.182-0.182h0.533
			c0.121,0,0.182,0.061,0.182,0.182v5.941C100.047,17.71,99.986,17.77,99.865,17.77z"/>
	</g>
	<g>
		<g>
			
				<path fill="#2B2333" stroke="#BEBDC1" stroke-width="0.5" stroke-linecap="round" stroke-linejoin="round" stroke-miterlimit="10" d="
				M16.662,24.715c0,0.814-0.787,1.475-1.756,1.475c-0.97,0-2.576-0.661-2.576-1.475s1.196-1.734,2.166-1.734
				C15.466,22.981,16.662,23.901,16.662,24.715z"/>
			
				<path fill="#2B2333" stroke="#BEBDC1" stroke-width="0.5" stroke-linecap="round" stroke-linejoin="round" stroke-miterlimit="10" d="
				M14.043,13.276c0,0-13.419,7.388-3.555,13.299l4.459-3.998C14.948,22.577,9.604,18.193,14.043,13.276z"/>
			
				<path fill="#2B2333" stroke="#BEBDC1" stroke-width="0.5" stroke-linecap="round" stroke-linejoin="round" stroke-miterlimit="10" d="
				M16.682,24.715c0,0.814,0.789,1.475,1.763,1.475c0.974,0,2.586-0.661,2.586-1.475s-1.201-1.734-2.175-1.734
				C17.882,22.981,16.682,23.901,16.682,24.715z"/>
			
				<path fill="#2B2333" stroke="#BEBDC1" stroke-width="0.5" stroke-linecap="round" stroke-linejoin="round" stroke-miterlimit="10" d="
				M19.311,13.276c0,0,13.475,7.388,3.569,13.299l-4.478-3.998C18.403,22.577,23.769,18.193,19.311,13.276z"/>
			
				<ellipse fill="#2B2333" stroke="#BEBDC1" stroke-width="0.5" stroke-linecap="round" stroke-miterlimit="10" cx="16.692" cy="14.145" rx="4.433" ry="4.671"/>
		</g>
		
			<path fill="#2B2333" stroke="#BEBDC1" stroke-width="0.5" stroke-linecap="round" stroke-linejoin="round" stroke-miterlimit="10" d="
			M22.266,25.78c0,0.507,0.46,0.918,1.028,0.918c0.568,0,1.508-0.411,1.508-0.918c0-0.506-0.7-1.079-1.269-1.079
			C22.965,24.701,22.266,25.273,22.266,25.78z"/>
		<path fill="#2B2333" stroke="#BEBDC1" stroke-width="0.5" stroke-linecap="round" stroke-miterlimit="10" d="M31.032,14.89
			c0,0-2.853,0.775-3.769,2.992c-0.916,2.217-3.145,5.835-3.573,6.226c-0.427,0.392,0.061,1.76,0.917,1.956
			c0.854,0.195,3.114-0.587,4.335-4.628c0,0,1.038-3.064,4.153-3.064"/>
		<path fill="none" stroke="#BEBDC1" stroke-width="0.5" stroke-linecap="round" stroke-miterlimit="10" d="M24.974,26.09
			c0,0,2.26,0.429,8.122,0.429"/>
		
			<path fill="#2B2333" stroke="#BEBDC1" stroke-width="0.5" stroke-linecap="round" stroke-linejoin="round" stroke-miterlimit="10" d="
			M43.926,25.78c0,0.507-0.46,0.918-1.028,0.918c-0.568,0-1.508-0.411-1.508-0.918c0-0.506,0.701-1.079,1.269-1.079
			C43.226,24.701,43.926,25.273,43.926,25.78z"/>
		<path fill="#2B2333" stroke="#BEBDC1" stroke-width="0.5" stroke-linecap="round" stroke-miterlimit="10" d="M35.159,14.89
			c0,0,2.853,0.775,3.769,2.992c0.916,2.217,3.145,5.835,3.573,6.226c0.427,0.392-0.062,1.76-0.916,1.956
			c-0.855,0.195-3.115-0.587-4.336-4.628c0,0-1.039-3.064-4.153-3.064"/>
		<path fill="none" stroke="#BEBDC1" stroke-width="0.5" stroke-linecap="round" stroke-miterlimit="10" d="M41.218,26.09
			c0,0-2.26,0.429-8.122,0.429"/>
		
			<ellipse fill="#2B2333" stroke="#BEBDC1" stroke-width="0.5" stroke-linecap="round" stroke-miterlimit="10" cx="33.096" cy="12.436" rx="4.153" ry="4.672"/>
		
			<ellipse fill="#2B2333" stroke="#BEBDC1" stroke-width="0.5" stroke-linecap="round" stroke-miterlimit="10" cx="38.103" cy="14.89" rx="0.796" ry="0.85"/>
		
			<ellipse fill="#2B2333" stroke="#BEBDC1" stroke-width="0.5" stroke-linecap="round" stroke-miterlimit="10" cx="39.449" cy="16.196" rx="0.55" ry="0.587"/>
		
			<ellipse fill="#2B2333" stroke="#BEBDC1" stroke-width="0.5" stroke-linecap="round" stroke-miterlimit="10" cx="40.729" cy="17.108" rx="0.55" ry="0.587"/>
	</g>
</g>
</svg>
