<?xml version="1.0" encoding="utf-8"?>
<!-- Generator: Adobe Illustrator 15.1.0, SVG Export Plug-In . SVG Version: 6.00 Build 0)  -->
<!DOCTYPE svg PUBLIC "-//W3C//DTD SVG 1.1//EN" "http://www.w3.org/Graphics/SVG/1.1/DTD/svg11.dtd">
<svg version="1.1" id="Layer_1" xmlns="http://www.w3.org/2000/svg" xmlns:xlink="http://www.w3.org/1999/xlink" x="0px" y="0px"
	 width="180px" height="35px" viewBox="0 -0.269 180 35" enable-background="new 0 -0.269 180 35" xml:space="preserve">
<g id="어린이날">
	<g>
		<rect x="0.499" y="0.231" fill="#2B2333" width="179" height="34"/>
		<path fill="#BEBDC1" d="M179,0.731v33H1v-33H179 M180-0.269H0v35h180V-0.269L180-0.269z"/>
	</g>
	<g>
		<path fill="#FF4F5F" d="M57.654,17.379c0,3.276-1.058,4.914-3.172,4.914c-2.132,0-3.198-1.638-3.198-4.914
			c0-1.36,0.208-2.465,0.624-3.315c0.528-1.066,1.387-1.599,2.574-1.599c1.17,0,2.023,0.533,2.561,1.599
			c0.2,0.425,0.351,0.91,0.455,1.456S57.654,16.686,57.654,17.379z M56.718,17.379c0-2.721-0.746-4.082-2.236-4.082
			c-1.491,0-2.236,1.361-2.236,4.082c0,2.73,0.746,4.095,2.236,4.095C55.973,21.475,56.718,20.109,56.718,17.379z"/>
		<path fill="#FF4F5F" d="M59.864,22.046c-0.122-0.043-0.182-0.122-0.182-0.234v-0.546c0-0.147,0.061-0.191,0.182-0.13
			c0.312,0.147,0.617,0.251,0.917,0.312c0.299,0.061,0.626,0.091,0.981,0.091c0.763,0,1.382-0.187,1.859-0.559
			c0.52-0.398,0.78-0.971,0.78-1.716c0-1.464-0.837-2.197-2.509-2.197c-0.33,0-0.626,0.018-0.891,0.052
			c-0.264,0.035-0.557,0.096-0.877,0.182c-0.095,0.026-0.173,0.015-0.234-0.032c-0.061-0.048-0.091-0.119-0.091-0.215l0.078-4.147
			c0-0.182,0.015-0.288,0.046-0.318c0.03-0.03,0.136-0.045,0.318-0.045h4.446c0.122,0,0.182,0.061,0.182,0.182v0.429
			c0,0.122-0.061,0.182-0.182,0.182h-3.926c-0.009,0.546-0.02,1.079-0.033,1.599c-0.013,0.52-0.024,1.053-0.032,1.599
			c0.424-0.165,0.94-0.247,1.547-0.247c0.91,0,1.646,0.247,2.21,0.741c0.563,0.512,0.845,1.196,0.845,2.054
			c0,1.049-0.325,1.859-0.975,2.431c-0.624,0.546-1.478,0.819-2.561,0.819c-0.39,0-0.728-0.022-1.014-0.065
			C60.462,22.224,60.167,22.15,59.864,22.046z"/>
		<path fill="#FF4F5F" d="M67.651,22.15c0-0.182,0.063-0.336,0.188-0.461c0.126-0.125,0.28-0.188,0.462-0.188
			c0.182,0,0.335,0.063,0.461,0.188c0.125,0.125,0.188,0.279,0.188,0.461s-0.063,0.336-0.188,0.461
			c-0.126,0.125-0.28,0.188-0.461,0.188c-0.182,0-0.336-0.063-0.462-0.188C67.714,22.486,67.651,22.333,67.651,22.15z"/>
		<path fill="#FF4F5F" d="M77.349,17.379c0,3.276-1.058,4.914-3.172,4.914c-2.132,0-3.198-1.638-3.198-4.914
			c0-1.36,0.208-2.465,0.624-3.315c0.528-1.066,1.387-1.599,2.574-1.599c1.17,0,2.023,0.533,2.561,1.599
			c0.2,0.425,0.351,0.91,0.455,1.456S77.349,16.686,77.349,17.379z M76.413,17.379c0-2.721-0.746-4.082-2.236-4.082
			c-1.491,0-2.236,1.361-2.236,4.082c0,2.73,0.746,4.095,2.236,4.095C75.667,21.475,76.413,20.109,76.413,17.379z"/>
		<path fill="#FF4F5F" d="M79.559,22.046c-0.122-0.043-0.182-0.122-0.182-0.234v-0.546c0-0.147,0.061-0.191,0.182-0.13
			c0.312,0.147,0.617,0.251,0.917,0.312c0.299,0.061,0.626,0.091,0.981,0.091c0.763,0,1.382-0.187,1.859-0.559
			c0.52-0.398,0.78-0.971,0.78-1.716c0-1.464-0.837-2.197-2.509-2.197c-0.33,0-0.626,0.018-0.891,0.052
			c-0.264,0.035-0.557,0.096-0.877,0.182c-0.095,0.026-0.173,0.015-0.234-0.032c-0.061-0.048-0.091-0.119-0.091-0.215l0.078-4.147
			c0-0.182,0.015-0.288,0.046-0.318c0.03-0.03,0.136-0.045,0.318-0.045h4.446c0.122,0,0.182,0.061,0.182,0.182v0.429
			c0,0.122-0.061,0.182-0.182,0.182h-3.926c-0.009,0.546-0.02,1.079-0.033,1.599c-0.013,0.52-0.024,1.053-0.032,1.599
			c0.424-0.165,0.94-0.247,1.547-0.247c0.91,0,1.646,0.247,2.21,0.741c0.563,0.512,0.845,1.196,0.845,2.054
			c0,1.049-0.325,1.859-0.975,2.431c-0.624,0.546-1.478,0.819-2.561,0.819c-0.39,0-0.728-0.022-1.014-0.065
			C80.157,22.224,79.862,22.15,79.559,22.046z"/>
		<path fill="#BEBDC1" d="M99.865,23.45h-0.533c-0.121,0-0.182-0.061-0.182-0.182v-6.474h-2.327
			c-0.026,0.459-0.106,0.915-0.241,1.365c-0.134,0.451-0.326,0.856-0.578,1.216c-0.252,0.359-0.564,0.652-0.941,0.877
			c-0.377,0.226-0.825,0.338-1.346,0.338c-0.572,0-1.057-0.125-1.449-0.377c-0.396-0.251-0.711-0.579-0.949-0.981
			s-0.409-0.852-0.514-1.346c-0.104-0.494-0.156-0.983-0.156-1.469c0-0.511,0.053-1.016,0.156-1.515
			c0.104-0.498,0.274-0.947,0.514-1.346c0.238-0.398,0.555-0.719,0.949-0.962c0.394-0.242,0.877-0.364,1.449-0.364
			c0.521,0,0.969,0.106,1.346,0.318s0.689,0.496,0.941,0.852s0.444,0.761,0.578,1.215c0.135,0.455,0.215,0.921,0.241,1.397h2.327
			v-4.368c0-0.122,0.061-0.182,0.182-0.182h0.533c0.121,0,0.182,0.061,0.182,0.182v11.622C100.047,23.39,99.986,23.45,99.865,23.45z
			 M95.913,16.404c0-0.39-0.042-0.784-0.124-1.183c-0.082-0.398-0.21-0.758-0.383-1.079c-0.174-0.321-0.398-0.581-0.676-0.78
			c-0.277-0.199-0.615-0.299-1.016-0.299c-0.416,0-0.761,0.1-1.033,0.299c-0.271,0.2-0.492,0.459-0.656,0.78
			c-0.164,0.32-0.281,0.68-0.352,1.079c-0.068,0.399-0.104,0.793-0.104,1.183c0,0.373,0.033,0.758,0.098,1.157
			c0.064,0.398,0.18,0.76,0.346,1.085c0.164,0.325,0.385,0.591,0.662,0.799s0.625,0.312,1.041,0.312
			c0.398,0,0.736-0.104,1.014-0.312c0.279-0.208,0.502-0.475,0.677-0.799c0.173-0.325,0.301-0.687,0.383-1.085
			C95.871,17.163,95.913,16.777,95.913,16.404z"/>
		<path fill="#BEBDC1" d="M104.232,18.614c-0.391,0-0.652-0.076-0.786-0.228c-0.134-0.151-0.202-0.409-0.202-0.773v-1.768
			c0-0.364,0.076-0.608,0.229-0.734c0.151-0.125,0.422-0.188,0.813-0.188h3.133c0.121,0,0.199-0.017,0.234-0.052
			c0.034-0.035,0.051-0.117,0.051-0.247V13.22c0-0.13-0.015-0.212-0.045-0.247c-0.03-0.034-0.104-0.052-0.228-0.052h-3.979
			c-0.104,0-0.156-0.056-0.156-0.169v-0.455c0-0.104,0.053-0.156,0.156-0.156h4.121c0.207,0,0.377,0.016,0.506,0.046
			c0.131,0.03,0.234,0.08,0.313,0.149c0.08,0.069,0.134,0.167,0.162,0.292c0.031,0.125,0.047,0.279,0.047,0.461v1.69
			c0,0.364-0.075,0.609-0.229,0.734c-0.15,0.126-0.422,0.188-0.813,0.188h-3.146c-0.121,0-0.197,0.018-0.227,0.052
			c-0.031,0.035-0.047,0.117-0.047,0.247v1.547c0,0.2,0.096,0.299,0.287,0.299c0.979,0,1.903-0.034,2.774-0.104
			c0.871-0.069,1.774-0.186,2.711-0.351c0.086-0.018,0.146-0.018,0.177,0c0.028,0.017,0.053,0.061,0.069,0.13l0.078,0.416
			c0.026,0.122-0.034,0.195-0.183,0.221c-0.84,0.147-1.766,0.262-2.774,0.345S105.256,18.623,104.232,18.614z M112.605,23.177
			c-0.045,0.026-0.088,0.039-0.131,0.039h-6.525c-0.408,0-0.674-0.076-0.801-0.228c-0.125-0.152-0.188-0.405-0.188-0.76V20.07
			c0-0.121,0.061-0.182,0.182-0.182h0.533c0.121,0,0.182,0.061,0.182,0.182v2.093c0,0.121,0.021,0.197,0.06,0.228
			c0.039,0.03,0.119,0.045,0.24,0.045h6.317c0.043,0,0.088,0.015,0.131,0.045s0.064,0.067,0.064,0.11v0.468
			C112.67,23.112,112.648,23.151,112.605,23.177z M112.085,20.331h-0.532c-0.123,0-0.184-0.061-0.184-0.182v-8.502
			c0-0.122,0.061-0.182,0.184-0.182h0.532c0.121,0,0.183,0.061,0.183,0.182v8.502C112.266,20.27,112.206,20.331,112.085,20.331z"/>
		<path fill="#BEBDC1" d="M121.444,16.418c0,0.485-0.06,0.975-0.175,1.469c-0.117,0.494-0.303,0.94-0.553,1.339
			c-0.253,0.398-0.574,0.726-0.97,0.981s-0.869,0.383-1.424,0.383c-0.572,0-1.056-0.125-1.449-0.377s-0.711-0.579-0.948-0.981
			c-0.238-0.402-0.41-0.852-0.515-1.346c-0.104-0.494-0.156-0.983-0.156-1.469c0-0.511,0.054-1.016,0.156-1.515
			c0.104-0.498,0.274-0.947,0.515-1.346c0.237-0.398,0.555-0.719,0.948-0.962c0.396-0.242,0.877-0.364,1.449-0.364
			c0.555,0,1.028,0.122,1.424,0.364c0.396,0.243,0.717,0.562,0.97,0.956c0.25,0.395,0.436,0.841,0.553,1.339
			C121.387,15.388,121.444,15.898,121.444,16.418z M120.521,16.404c0-0.398-0.041-0.801-0.123-1.209
			c-0.084-0.407-0.211-0.773-0.385-1.099c-0.174-0.325-0.398-0.589-0.677-0.793c-0.276-0.204-0.614-0.305-1.014-0.305
			c-0.416,0-0.761,0.102-1.033,0.305c-0.272,0.204-0.491,0.468-0.655,0.793c-0.166,0.325-0.283,0.691-0.353,1.099
			c-0.069,0.408-0.104,0.811-0.104,1.209c0,0.381,0.032,0.773,0.099,1.177c0.063,0.403,0.18,0.771,0.344,1.105
			c0.165,0.333,0.386,0.606,0.664,0.819c0.276,0.212,0.623,0.318,1.039,0.318c0.397,0,0.735-0.106,1.014-0.318
			s0.503-0.485,0.677-0.819c0.174-0.333,0.301-0.702,0.385-1.105C120.48,17.178,120.521,16.786,120.521,16.404z M124.305,23.45
			h-0.533c-0.12,0-0.182-0.061-0.182-0.182V11.646c0-0.122,0.062-0.182,0.182-0.182h0.533c0.121,0,0.183,0.061,0.183,0.182v11.622
			C124.486,23.39,124.426,23.45,124.305,23.45z"/>
		<path fill="#BEBDC1" d="M128.776,16.196c0.043,0.043,0.126,0.069,0.247,0.078c0.813,0.026,1.67,0.004,2.566-0.065
			c0.897-0.069,1.758-0.182,2.581-0.338c0.138-0.026,0.222,0.021,0.246,0.143l0.065,0.403c0.009,0.104-0.049,0.173-0.17,0.208
			c-0.338,0.078-0.738,0.147-1.202,0.208s-0.941,0.113-1.437,0.156c-0.494,0.043-0.988,0.074-1.482,0.091
			c-0.493,0.017-0.944,0.017-1.352,0c-0.391-0.018-0.658-0.111-0.807-0.28s-0.221-0.436-0.221-0.799v-4.03
			c0-0.121,0.061-0.182,0.182-0.182h0.533c0.121,0,0.182,0.061,0.182,0.182v3.965C128.711,16.066,128.732,16.153,128.776,16.196z
			 M136.537,23.334c0,0.043-0.02,0.08-0.059,0.11c-0.039,0.03-0.076,0.045-0.11,0.045h-6.539c-0.407,0-0.674-0.076-0.8-0.228
			c-0.125-0.151-0.188-0.409-0.188-0.773v-0.975c0-0.364,0.074-0.608,0.227-0.734c0.152-0.125,0.423-0.188,0.813-0.188h5.2
			c0.122,0,0.199-0.017,0.233-0.052c0.035-0.035,0.053-0.117,0.053-0.247v-0.741c0-0.13-0.016-0.212-0.045-0.247
			c-0.031-0.034-0.107-0.052-0.229-0.052h-6.098c-0.044,0-0.085-0.013-0.124-0.039s-0.058-0.061-0.058-0.104v-0.468
			c0-0.043,0.019-0.078,0.058-0.104c0.039-0.026,0.08-0.039,0.124-0.039h6.24c0.208,0,0.377,0.015,0.507,0.045
			c0.13,0.03,0.233,0.08,0.313,0.149c0.078,0.069,0.131,0.167,0.162,0.292c0.029,0.126,0.045,0.279,0.045,0.461v0.975
			c0,0.364-0.076,0.609-0.228,0.734c-0.151,0.126-0.423,0.188-0.813,0.188h-5.213c-0.121,0-0.197,0.018-0.229,0.052
			c-0.029,0.035-0.045,0.117-0.045,0.247v0.793c0,0.121,0.018,0.201,0.052,0.24s0.112,0.059,0.233,0.059h6.332
			c0.043,0,0.084,0.013,0.123,0.039s0.059,0.061,0.059,0.104v0.458H136.537z M136.069,17.731h-0.533
			c-0.122,0-0.183-0.061-0.183-0.182v-5.902c0-0.122,0.061-0.182,0.183-0.182h0.533c0.12,0,0.182,0.061,0.182,0.182v2.587h1.794
			c0.053,0,0.098,0.015,0.137,0.045c0.039,0.031,0.06,0.072,0.06,0.124v0.442c0,0.043-0.021,0.083-0.06,0.117
			s-0.084,0.052-0.137,0.052h-1.794v2.535C136.251,17.67,136.189,17.731,136.069,17.731z"/>
	</g>
	<g>
		<circle fill="#2B2333" stroke="#BEBDC1" stroke-width="0.5" stroke-miterlimit="10" cx="18.862" cy="9.816" r="2.895"/>
		<path fill="#2B2333" stroke="#BEBDC1" stroke-width="0.5" stroke-miterlimit="10" d="M25.945,17.696c0,0-0.88-0.767-2.488-2.385
			c-1.608-1.617-1.531-2.214-4.594-2.214s-2.986,0.597-4.594,2.214c-1.608,1.618-2.489,2.385-2.489,2.385s-0.689,1.447,0.996,1.106
			c1.684-0.341,2.948-2.291,2.948-2.291l-0.383,9.656l-1.263,0.193c0,0-0.576,0.055-0.576,0.693c0,0.638,0.268,0.596,0.497,0.596
			c0.23,0,2.489,0.001,2.489,0.001l2.374-6.293l2.374,6.293c0,0,2.258-0.001,2.488-0.001c0.229,0,0.498,0.043,0.498-0.596
			c0-0.639-0.576-0.693-0.576-0.693l-1.261-0.192l-0.383-9.656c0,0,1.263,1.95,2.948,2.291
			C26.635,19.144,25.945,17.696,25.945,17.696z"/>
		<circle fill="#2B2333" stroke="#BEBDC1" stroke-width="0.5" stroke-miterlimit="10" cx="32.513" cy="9.816" r="2.895"/>
		<path fill="#2B2333" stroke="#BEBDC1" stroke-width="0.5" stroke-miterlimit="10" d="M39.262,17.696c0,0-0.839-0.767-2.371-2.385
			c-1.533-1.617-1.459-2.214-4.378-2.214c-2.918,0-2.845,0.597-4.377,2.214c-1.532,1.618-2.371,2.385-2.371,2.385
			s-0.656,1.447,0.949,1.106c1.605-0.341,2.809-2.291,2.809-2.291l-0.365,9.656l-1.202,0.192c0,0-0.549,0.055-0.549,0.693
			c0,0.638,0.255,0.596,0.475,0.596c0.219,0,2.371,0.001,2.371,0.001l2.261-6.293l2.262,6.293c0,0,2.152-0.001,2.372-0.001
			c0.219,0,0.474,0.043,0.474-0.596c0-0.639-0.549-0.693-0.549-0.693l-1.202-0.192l-0.364-9.656c0,0,1.204,1.95,2.809,2.291
			C39.921,19.143,39.262,17.696,39.262,17.696z"/>
		<polygon fill="#2B2333" stroke="#BEBDC1" stroke-width="0.5" stroke-miterlimit="10" points="35.659,19.229 32.513,19.229 
			29.368,19.229 27.454,23.146 32.513,23.146 37.572,23.146 		"/>
		<path fill="#2B2333" stroke="#BEBDC1" stroke-width="0.5" stroke-miterlimit="10" d="M29.377,10.242c0,0-0.992-0.042-1.922,1.703
			s2.106,0.426,2.461-0.852"/>
		<path fill="#2B2333" stroke="#BEBDC1" stroke-width="0.5" stroke-miterlimit="10" d="M35.649,10.242c0,0,0.993-0.042,1.923,1.703
			c0.93,1.745-2.106,0.426-2.461-0.852"/>
	</g>
</g>
</svg>
