<?xml version="1.0" encoding="utf-8"?>
<!-- Generator: Adobe Illustrator 15.1.0, SVG Export Plug-In . SVG Version: 6.00 Build 0)  -->
<!DOCTYPE svg PUBLIC "-//W3C//DTD SVG 1.1//EN" "http://www.w3.org/Graphics/SVG/1.1/DTD/svg11.dtd">
<svg version="1.1" id="Layer_1" xmlns="http://www.w3.org/2000/svg" xmlns:xlink="http://www.w3.org/1999/xlink" x="0px" y="0px"
	 width="180px" height="35px" viewBox="0 -0.269 180 35" enable-background="new 0 -0.269 180 35" xml:space="preserve">
<g id="석가탄신일">
	<g>
		<rect x="0.499" y="0.231" fill="#2B2333" width="179" height="34"/>
		<path fill="#BEBDC1" d="M179,0.731v33H1v-33H179 M180-0.269H0v35h180V-0.269L180-0.269z"/>
	</g>
	<g>
		<path fill="#FF4F5F" d="M57.654,17.379c0,3.276-1.058,4.914-3.172,4.914c-2.132,0-3.198-1.638-3.198-4.914
			c0-1.36,0.208-2.465,0.624-3.315c0.528-1.066,1.387-1.599,2.574-1.599c1.17,0,2.023,0.533,2.561,1.599
			c0.2,0.425,0.351,0.91,0.455,1.456S57.654,16.686,57.654,17.379z M56.718,17.379c0-2.721-0.746-4.082-2.236-4.082
			c-1.491,0-2.236,1.361-2.236,4.082c0,2.73,0.746,4.095,2.236,4.095C55.973,21.474,56.718,20.109,56.718,17.379z"/>
		<path fill="#FF4F5F" d="M59.864,22.046c-0.122-0.043-0.182-0.122-0.182-0.234v-0.546c0-0.147,0.061-0.191,0.182-0.13
			c0.312,0.147,0.617,0.251,0.917,0.312c0.299,0.061,0.626,0.091,0.981,0.091c0.763,0,1.382-0.187,1.859-0.559
			c0.52-0.398,0.78-0.971,0.78-1.716c0-1.464-0.837-2.197-2.509-2.197c-0.33,0-0.626,0.018-0.891,0.052
			c-0.264,0.035-0.557,0.096-0.877,0.182c-0.095,0.026-0.173,0.015-0.234-0.032c-0.061-0.048-0.091-0.119-0.091-0.215l0.078-4.147
			c0-0.182,0.015-0.288,0.046-0.318c0.03-0.03,0.136-0.045,0.318-0.045h4.446c0.122,0,0.182,0.061,0.182,0.182v0.429
			c0,0.122-0.061,0.182-0.182,0.182h-3.926c-0.009,0.546-0.02,1.079-0.033,1.599c-0.013,0.52-0.024,1.053-0.032,1.599
			c0.424-0.165,0.94-0.247,1.547-0.247c0.91,0,1.646,0.247,2.21,0.741c0.563,0.512,0.845,1.196,0.845,2.054
			c0,1.049-0.325,1.859-0.975,2.431c-0.624,0.546-1.478,0.819-2.561,0.819c-0.39,0-0.728-0.022-1.014-0.065
			C60.462,22.224,60.167,22.15,59.864,22.046z"/>
		<path fill="#FF4F5F" d="M67.651,22.15c0-0.182,0.063-0.336,0.188-0.461c0.126-0.125,0.28-0.188,0.462-0.188
			c0.182,0,0.335,0.063,0.461,0.188c0.125,0.125,0.188,0.279,0.188,0.461s-0.063,0.336-0.188,0.461
			c-0.126,0.125-0.28,0.188-0.461,0.188c-0.182,0-0.336-0.063-0.462-0.188C67.714,22.486,67.651,22.332,67.651,22.15z"/>
		<path fill="#FF4F5F" d="M74.983,22.059c0,0.121-0.061,0.182-0.182,0.182h-0.533c-0.122,0-0.182-0.061-0.182-0.182v-8.45
			c-0.269,0.226-0.52,0.438-0.754,0.637c-0.234,0.199-0.481,0.412-0.741,0.637c-0.095,0.078-0.182,0.069-0.26-0.026l-0.26-0.312
			c-0.026-0.043-0.039-0.089-0.039-0.137c0-0.047,0.021-0.088,0.065-0.124l2.015-1.69c0.035-0.034,0.087-0.052,0.156-0.052h0.351
			c0.182,0,0.288,0.015,0.318,0.045c0.03,0.03,0.045,0.137,0.045,0.318L74.983,22.059L74.983,22.059z"/>
		<path fill="#FF4F5F" d="M81.21,22.059c-0.061,0.121-0.147,0.182-0.26,0.182H80.3c-0.052,0-0.089-0.017-0.11-0.052
			s-0.02-0.078,0.006-0.13l3.783-8.723h-4.823c-0.121,0-0.182-0.061-0.182-0.182v-0.429c0-0.122,0.061-0.182,0.182-0.182h5.395
			c0.182,0,0.288,0.015,0.319,0.045c0.03,0.03,0.045,0.137,0.045,0.318v0.325c0,0.069-0.013,0.13-0.039,0.182L81.21,22.059z"/>
		<path fill="#BEBDC1" d="M94.432,11.997c0,0.632-0.064,1.222-0.194,1.768c0.104,0.364,0.248,0.711,0.437,1.04
			c0.186,0.33,0.403,0.637,0.655,0.923c0.251,0.286,0.526,0.544,0.825,0.773c0.3,0.229,0.613,0.422,0.941,0.579
			c0.053,0.026,0.076,0.063,0.072,0.11c-0.005,0.048-0.016,0.089-0.033,0.124l-0.272,0.429c-0.025,0.043-0.056,0.074-0.091,0.091
			c-0.034,0.018-0.092,0.004-0.17-0.039c-0.198-0.104-0.426-0.245-0.682-0.422c-0.256-0.177-0.514-0.388-0.773-0.631
			c-0.26-0.242-0.508-0.509-0.74-0.799c-0.234-0.29-0.43-0.591-0.585-0.903c-0.286,0.659-0.673,1.256-1.157,1.794
			c-0.484,0.537-1.054,1.019-1.703,1.443c-0.044,0.026-0.091,0.043-0.145,0.052c-0.051,0.008-0.094-0.009-0.129-0.052l-0.325-0.429
			c-0.025-0.034-0.029-0.078-0.013-0.13c0.018-0.052,0.047-0.091,0.09-0.117c1.031-0.633,1.809-1.43,2.328-2.392
			c0.521-0.962,0.771-2.037,0.754-3.224c0-0.139,0.053-0.208,0.156-0.208l0.61,0.039C94.383,11.815,94.432,11.876,94.432,11.997z
			 M92.533,19.147c0.043-0.026,0.086-0.039,0.13-0.039h6.396c0.408,0,0.674,0.076,0.801,0.228c0.126,0.152,0.188,0.405,0.188,0.76
			v3.224c0,0.121-0.061,0.182-0.182,0.182h-0.533c-0.121,0-0.182-0.061-0.182-0.182v-3.159c0-0.121-0.02-0.197-0.059-0.227
			c-0.039-0.03-0.119-0.046-0.24-0.046h-6.188c-0.044,0-0.087-0.015-0.13-0.045c-0.043-0.03-0.064-0.067-0.064-0.11v-0.468
			C92.469,19.212,92.49,19.173,92.533,19.147z M99.15,14.22v-2.574c0-0.122,0.061-0.182,0.182-0.182h0.533
			c0.121,0,0.182,0.061,0.182,0.182v6.578c0,0.121-0.061,0.182-0.182,0.182h-0.533c-0.121,0-0.182-0.061-0.182-0.182V15h-2.666
			c-0.112,0-0.168-0.052-0.168-0.156v-0.468c0-0.104,0.056-0.156,0.168-0.156H99.15L99.15,14.22z"/>
		<path fill="#BEBDC1" d="M108.393,13.375c-0.043,0.745-0.19,1.478-0.441,2.197c-0.252,0.72-0.602,1.406-1.047,2.061
			c-0.446,0.655-0.984,1.261-1.611,1.82c-0.629,0.559-1.342,1.051-2.139,1.476c-0.113,0.061-0.195,0.048-0.248-0.039l-0.285-0.455
			c-0.061-0.104-0.044-0.178,0.053-0.221c0.735-0.381,1.389-0.817,1.955-1.307c0.568-0.489,1.053-1.021,1.457-1.592
			c0.402-0.572,0.721-1.174,0.955-1.807c0.234-0.632,0.381-1.283,0.441-1.95c0.018-0.13,0-0.219-0.053-0.266
			c-0.052-0.048-0.139-0.072-0.26-0.072h-4.029c-0.104,0-0.156-0.056-0.156-0.169v-0.455c0-0.104,0.053-0.156,0.156-0.156h4.276
			c0.407,0,0.677,0.076,0.806,0.228C108.354,12.82,108.41,13.054,108.393,13.375z M111.63,23.45h-0.532
			c-0.123,0-0.184-0.061-0.184-0.182V11.646c0-0.122,0.061-0.182,0.184-0.182h0.532c0.121,0,0.183,0.061,0.183,0.182v4.602h1.793
			c0.054,0,0.099,0.015,0.138,0.045c0.039,0.03,0.06,0.071,0.06,0.124v0.442c0,0.043-0.021,0.083-0.06,0.117
			c-0.039,0.034-0.084,0.052-0.138,0.052h-1.793v6.24C111.811,23.389,111.751,23.45,111.63,23.45z"/>
		<path fill="#BEBDC1" d="M120.365,15.559c-0.251,0.017-0.535,0.032-0.852,0.045s-0.634,0.024-0.949,0.032
			c-0.316,0.009-0.625,0.013-0.93,0.013c-0.304,0-0.566-0.004-0.793-0.013h-0.546v1.716c0,0.13,0.021,0.219,0.064,0.266
			c0.043,0.048,0.125,0.072,0.247,0.072c0.382,0.009,0.781,0.006,1.201-0.006c0.422-0.013,0.842-0.035,1.263-0.065
			c0.42-0.03,0.832-0.069,1.233-0.117c0.403-0.047,0.778-0.106,1.125-0.176c0.146-0.026,0.234,0.022,0.26,0.143l0.064,0.377
			c0.018,0.078,0.014,0.132-0.012,0.163c-0.027,0.031-0.078,0.054-0.156,0.072c-0.355,0.069-0.75,0.132-1.184,0.188
			s-0.879,0.1-1.34,0.13c-0.459,0.03-0.916,0.054-1.371,0.071c-0.455,0.018-0.881,0.022-1.279,0.013
			c-0.391-0.008-0.656-0.098-0.801-0.267c-0.143-0.169-0.215-0.436-0.215-0.799v-4.342c0-0.364,0.07-0.606,0.209-0.728
			c0.139-0.121,0.397-0.182,0.779-0.182h4.198c0.113,0,0.17,0.052,0.17,0.156v0.468c0,0.104-0.057,0.156-0.17,0.156h-4.028
			c-0.121,0-0.195,0.015-0.222,0.045c-0.026,0.031-0.039,0.111-0.039,0.241v1.651h0.546c0.217,0,0.473,0,0.768,0
			s0.603-0.004,0.924-0.013c0.32-0.009,0.639-0.018,0.955-0.026c0.316-0.008,0.604-0.021,0.863-0.039
			c0.053-0.008,0.094,0.005,0.125,0.039c0.028,0.035,0.045,0.074,0.045,0.117l0.014,0.442
			C120.535,15.49,120.479,15.542,120.365,15.559z M124.551,23.177c-0.043,0.026-0.086,0.039-0.129,0.039h-6.617
			c-0.408,0-0.674-0.078-0.8-0.234s-0.188-0.412-0.188-0.767v-2.158c0-0.121,0.062-0.182,0.183-0.182h0.533
			c0.121,0,0.182,0.061,0.182,0.182v2.106c0,0.121,0.021,0.197,0.06,0.228c0.039,0.03,0.119,0.045,0.24,0.045h6.41
			c0.043,0,0.086,0.015,0.129,0.045s0.065,0.067,0.065,0.11v0.468C124.617,23.112,124.596,23.151,124.551,23.177z M123.85,20.369
			h-0.533c-0.121,0-0.182-0.06-0.182-0.182v-8.541c0-0.122,0.061-0.182,0.182-0.182h0.533c0.121,0,0.182,0.061,0.182,0.182v3.64
			h1.795c0.051,0,0.098,0.016,0.136,0.046c0.039,0.03,0.06,0.071,0.06,0.124v0.442c0,0.043-0.021,0.083-0.06,0.117
			c-0.038,0.035-0.085,0.052-0.136,0.052h-1.795v4.121C124.031,20.309,123.971,20.369,123.85,20.369z"/>
		<path fill="#BEBDC1" d="M131.025,12.062c0,0.338-0.021,0.667-0.059,0.988c-0.039,0.321-0.095,0.633-0.162,0.936
			c0.104,0.355,0.252,0.708,0.447,1.06c0.194,0.351,0.426,0.685,0.688,1.001c0.266,0.316,0.554,0.603,0.865,0.858
			c0.313,0.256,0.633,0.461,0.961,0.618c0.054,0.026,0.076,0.061,0.072,0.104s-0.016,0.086-0.033,0.13l-0.26,0.429
			c-0.025,0.043-0.057,0.074-0.091,0.091c-0.034,0.018-0.091,0.004-0.169-0.039c-0.252-0.121-0.514-0.294-0.787-0.52
			c-0.271-0.225-0.541-0.475-0.805-0.748c-0.266-0.273-0.51-0.563-0.734-0.871c-0.227-0.307-0.412-0.604-0.561-0.89
			c-0.295,0.702-0.682,1.341-1.162,1.917s-1.047,1.077-1.697,1.501c-0.043,0.026-0.091,0.043-0.143,0.052
			c-0.053,0.009-0.096-0.008-0.131-0.052l-0.324-0.429c-0.026-0.034-0.031-0.078-0.014-0.13c0.018-0.052,0.047-0.091,0.092-0.117
			c0.468-0.286,0.895-0.641,1.279-1.066c0.387-0.424,0.715-0.893,0.987-1.404s0.481-1.06,0.625-1.645s0.209-1.181,0.201-1.788
			c0-0.139,0.052-0.208,0.155-0.208l0.611,0.039C130.977,11.88,131.025,11.94,131.025,12.062z M137.031,23.177
			c-0.043,0.026-0.087,0.039-0.13,0.039h-6.513c-0.408,0-0.674-0.076-0.801-0.228c-0.126-0.152-0.188-0.405-0.188-0.76V19.68
			c0-0.121,0.061-0.182,0.182-0.182h0.533c0.121,0,0.182,0.061,0.182,0.182v2.483c0,0.121,0.021,0.197,0.059,0.228
			c0.039,0.03,0.119,0.045,0.24,0.045h6.307c0.043,0,0.087,0.015,0.13,0.045s0.063,0.067,0.063,0.11v0.468
			C137.096,23.112,137.074,23.151,137.031,23.177z M136.523,20.122h-0.532c-0.122,0-0.183-0.061-0.183-0.182v-8.294
			c0-0.122,0.061-0.182,0.183-0.182h0.532c0.121,0,0.183,0.061,0.183,0.182v8.294C136.706,20.062,136.645,20.122,136.523,20.122z"/>
		<path fill="#BEBDC1" d="M145.702,14.584c0,0.407-0.081,0.782-0.241,1.125c-0.16,0.343-0.379,0.639-0.656,0.891
			c-0.276,0.252-0.602,0.448-0.975,0.591s-0.771,0.214-1.195,0.214c-0.416,0-0.805-0.069-1.164-0.208
			c-0.358-0.138-0.676-0.332-0.949-0.579c-0.272-0.247-0.486-0.543-0.644-0.89c-0.155-0.347-0.233-0.728-0.233-1.144
			c0-0.442,0.078-0.838,0.233-1.189c0.156-0.351,0.37-0.648,0.644-0.891c0.274-0.243,0.591-0.429,0.949-0.559
			c0.359-0.13,0.748-0.195,1.164-0.195c0.389,0,0.769,0.065,1.137,0.195c0.369,0.13,0.695,0.316,0.981,0.559s0.517,0.54,0.688,0.891
			C145.615,13.746,145.702,14.142,145.702,14.584z M144.792,14.571c0-0.32-0.062-0.606-0.183-0.858
			c-0.121-0.251-0.281-0.459-0.48-0.624s-0.43-0.29-0.689-0.377c-0.26-0.086-0.527-0.13-0.805-0.13
			c-0.287,0-0.558,0.041-0.813,0.124c-0.255,0.083-0.478,0.206-0.663,0.37c-0.186,0.165-0.334,0.373-0.441,0.624
			c-0.108,0.251-0.162,0.542-0.162,0.871c0,0.312,0.051,0.592,0.155,0.838c0.104,0.247,0.249,0.459,0.437,0.637
			c0.187,0.178,0.404,0.312,0.656,0.403c0.25,0.091,0.527,0.137,0.832,0.137c0.276,0,0.545-0.045,0.805-0.137
			c0.261-0.091,0.49-0.223,0.689-0.396c0.199-0.173,0.359-0.385,0.48-0.637C144.73,15.165,144.792,14.883,144.792,14.571z
			 M149.199,23.333c0,0.043-0.02,0.08-0.059,0.11c-0.039,0.03-0.076,0.045-0.111,0.045h-6.539c-0.406,0-0.674-0.076-0.799-0.228
			c-0.125-0.151-0.188-0.409-0.188-0.773v-0.975c0-0.364,0.075-0.608,0.228-0.734c0.152-0.125,0.423-0.188,0.813-0.188h5.2
			c0.121,0,0.199-0.017,0.232-0.052c0.035-0.035,0.054-0.117,0.054-0.247V19.55c0-0.13-0.017-0.212-0.046-0.247
			c-0.03-0.034-0.106-0.052-0.229-0.052h-6.097c-0.044,0-0.085-0.013-0.124-0.039s-0.059-0.061-0.059-0.104V18.64
			c0-0.043,0.02-0.078,0.059-0.104c0.039-0.026,0.08-0.039,0.124-0.039h6.239c0.209,0,0.377,0.015,0.508,0.045
			c0.13,0.03,0.234,0.08,0.313,0.149c0.077,0.069,0.131,0.167,0.162,0.292c0.029,0.126,0.045,0.279,0.045,0.461v0.975
			c0,0.364-0.076,0.609-0.228,0.734c-0.151,0.126-0.423,0.188-0.813,0.188h-5.213c-0.121,0-0.197,0.018-0.228,0.052
			c-0.031,0.034-0.046,0.117-0.046,0.247v0.793c0,0.121,0.018,0.201,0.053,0.24c0.034,0.039,0.111,0.059,0.232,0.059h6.332
			c0.043,0,0.084,0.013,0.123,0.039s0.06,0.061,0.06,0.104L149.199,23.333L149.199,23.333z M148.744,17.743h-0.533
			c-0.121,0-0.182-0.061-0.182-0.182v-5.915c0-0.122,0.061-0.182,0.182-0.182h0.533c0.121,0,0.182,0.061,0.182,0.182v5.915
			C148.926,17.682,148.865,17.743,148.744,17.743z"/>
	</g>
	<g>
		<path fill="#2B2333" stroke="#BEBDC1" stroke-width="0.5" stroke-linecap="round" stroke-miterlimit="10" d="M22.533,10.434
			c0,0-0.2,2.908,0.914,2.018C24.561,11.562,22.533,10.434,22.533,10.434z"/>
		<path fill="#2B2333" stroke="#BEBDC1" stroke-width="0.5" stroke-linecap="round" stroke-miterlimit="10" d="M28.671,10.434
			c0,0,0.2,2.908-0.914,2.018C26.643,11.562,28.671,10.434,28.671,10.434z"/>
		<path fill="#2B2333" stroke="#BEBDC1" stroke-width="0.5" stroke-linecap="round" stroke-miterlimit="10" d="M22.489,17.8
			c0,0,0.021,7.147,0.021,8.793c0,1.645-1.233,1.715-1.233,1.715c-1.787,0-1.859-1.644-1.859-1.644s0-5.146,0-9.65
			c0-4.504,6.184-4.075,6.184-4.075s5.969-1.264,5.969,6.314v1.62c0,0,0,2.979-2.073,2.979c-1.644,0-5.053-0.062-5.053-0.062
			s-3.62-1.011,2.194-2.035l2.085-0.286l-0.018-4.098"/>
		<path fill="#2B2333" stroke="#BEBDC1" stroke-width="0.5" stroke-linecap="round" stroke-miterlimit="10" d="M25.602,23.661
			c0,0-6.398-0.357-9.257,2.502c-2.859,2.859,5.29,4.003,9.257,3.933"/>
		<path fill="#2B2333" stroke="#BEBDC1" stroke-width="0.5" stroke-linecap="round" stroke-miterlimit="10" d="M25.602,23.661
			c0,0,6.398-0.357,9.258,2.502c2.859,2.859-5.291,4.003-9.258,3.933"/>
		<path fill="#2B2333" stroke="#BEBDC1" stroke-width="0.5" stroke-linecap="round" stroke-miterlimit="10" d="M21.328,29.819
			c0,0,1.737,0.132,4.167-1.869c2.43-2.001,4.42-1.787,5.034-1.501c0.614,0.286,6.764,1.926,1.437-1.969"/>
		<path fill="none" stroke="#BEBDC1" stroke-width="0.5" stroke-linecap="round" stroke-miterlimit="10" d="M26.295,12.86
			c0,0-0.153,6.227-3.801,6.655"/>
		<path fill="none" stroke="#BEBDC1" stroke-width="0.5" stroke-linecap="round" stroke-miterlimit="10" d="M26.734,12.939
			c0,0,0.371,9.031-4.235,8.316"/>
		<path fill="#2B2333" stroke="#BEBDC1" stroke-width="0.5" stroke-linecap="round" stroke-miterlimit="10" d="M22.489,17.8
			c0,0,0.021,7.147,0.021,8.793c0,1.645-1.233,1.715-1.233,1.715c-1.787,0-1.859-1.644-1.859-1.644s0-5.146,0-9.65
			c0-4.504,6.184-4.075,6.184-4.075"/>
		
			<ellipse fill="#2B2333" stroke="#BEBDC1" stroke-width="0.5" stroke-linecap="round" stroke-miterlimit="10" cx="25.602" cy="9.647" rx="3.069" ry="3.941"/>
		
			<line fill="none" stroke="#BEBDC1" stroke-width="0.5" stroke-linecap="round" stroke-miterlimit="10" x1="22.747" y1="8.196" x2="28.407" y2="8.196"/>
		
			<ellipse fill="#2B2333" stroke="#BEBDC1" stroke-width="0.5" stroke-linecap="round" stroke-miterlimit="10" cx="25.602" cy="5.972" rx="1.605" ry="0.896"/>
		
			<circle fill="#2B2333" stroke="#BEBDC1" stroke-width="0.5" stroke-linecap="round" stroke-miterlimit="10" cx="25.577" cy="9.646" r="0.267"/>
	</g>
</g>
</svg>
