<?xml version="1.0" encoding="utf-8"?>
<!-- Generator: Adobe Illustrator 15.1.0, SVG Export Plug-In . SVG Version: 6.00 Build 0)  -->
<!DOCTYPE svg PUBLIC "-//W3C//DTD SVG 1.1//EN" "http://www.w3.org/Graphics/SVG/1.1/DTD/svg11.dtd">
<svg version="1.1" id="Layer_1" xmlns="http://www.w3.org/2000/svg" xmlns:xlink="http://www.w3.org/1999/xlink" x="0px" y="0px"
	 width="180px" height="35px" viewBox="0 -0.269 180 35" enable-background="new 0 -0.269 180 35" xml:space="preserve">
<g id="성탄절">
	<g>
		<rect x="0.499" y="0.231" fill="#2B2333" width="179" height="34"/>
		<path fill="#BEBDC1" d="M179,0.731v33H1v-33H179 M180-0.269H0v35h180V-0.269L180-0.269z"/>
	</g>
	<g>
		<path fill="#FF4F5F" d="M55.288,22.059c0,0.121-0.061,0.183-0.182,0.183h-0.533c-0.122,0-0.182-0.062-0.182-0.183V13.61
			c-0.269,0.226-0.52,0.438-0.754,0.638c-0.234,0.199-0.481,0.411-0.741,0.637c-0.095,0.078-0.182,0.068-0.26-0.025l-0.26-0.313
			c-0.026-0.044-0.039-0.09-0.039-0.137c0-0.048,0.021-0.089,0.065-0.124l2.015-1.69c0.035-0.033,0.087-0.051,0.156-0.051h0.351
			c0.182,0,0.288,0.015,0.318,0.045c0.03,0.03,0.045,0.137,0.045,0.318L55.288,22.059L55.288,22.059z"/>
		<path fill="#FF4F5F" d="M59.539,22.242c-0.095,0-0.167-0.002-0.214-0.006c-0.048-0.005-0.083-0.019-0.104-0.039
			c-0.022-0.021-0.035-0.058-0.039-0.104s-0.006-0.119-0.006-0.214l0.013-0.287c0-0.11,0.035-0.203,0.104-0.271l2.145-2.366
			c1.595-1.726,2.392-3.033,2.392-3.926c0-0.521-0.173-0.953-0.52-1.301c-0.338-0.339-0.758-0.507-1.261-0.507
			c-0.702,0-1.435,0.195-2.197,0.584c-0.122,0.063-0.19,0.035-0.208-0.077l-0.078-0.429c-0.026-0.147,0.018-0.237,0.13-0.272
			c0.442-0.199,0.84-0.348,1.196-0.441c0.355-0.096,0.719-0.144,1.092-0.144c0.832,0,1.495,0.208,1.989,0.624
			c0.555,0.45,0.832,1.092,0.832,1.924c0,0.319-0.078,0.672-0.234,1.053c-0.156,0.382-0.373,0.78-0.65,1.196
			c-0.173,0.243-0.418,0.56-0.734,0.949c-0.316,0.389-0.678,0.806-1.085,1.247c-0.303,0.329-0.604,0.663-0.903,1.002
			c-0.299,0.338-0.601,0.672-0.904,1.001h4.55c0.121,0,0.182,0.061,0.182,0.182v0.442c0,0.12-0.061,0.182-0.182,0.182L59.539,22.242
			L59.539,22.242z"/>
		<path fill="#FF4F5F" d="M67.651,22.151c0-0.184,0.063-0.336,0.188-0.463c0.126-0.125,0.28-0.188,0.462-0.188
			c0.182,0,0.335,0.063,0.461,0.188c0.125,0.127,0.188,0.279,0.188,0.463c0,0.183-0.063,0.336-0.188,0.462
			c-0.126,0.125-0.28,0.188-0.461,0.188c-0.182,0-0.336-0.063-0.462-0.188C67.714,22.487,67.651,22.333,67.651,22.151z"/>
		<path fill="#FF4F5F" d="M71.356,22.242c-0.095,0-0.167-0.002-0.214-0.006c-0.048-0.005-0.083-0.019-0.104-0.039
			c-0.022-0.021-0.035-0.058-0.039-0.104s-0.006-0.119-0.006-0.214l0.013-0.287c0-0.11,0.035-0.203,0.104-0.271l2.145-2.366
			c1.595-1.726,2.392-3.033,2.392-3.926c0-0.521-0.173-0.953-0.52-1.301c-0.338-0.339-0.758-0.507-1.261-0.507
			c-0.702,0-1.435,0.195-2.197,0.584c-0.122,0.063-0.19,0.035-0.208-0.077l-0.078-0.429c-0.026-0.147,0.018-0.237,0.13-0.272
			c0.442-0.199,0.84-0.348,1.196-0.441c0.355-0.096,0.719-0.144,1.092-0.144c0.832,0,1.495,0.208,1.989,0.624
			c0.555,0.45,0.832,1.092,0.832,1.924c0,0.319-0.078,0.672-0.234,1.053c-0.156,0.382-0.373,0.78-0.65,1.196
			c-0.173,0.243-0.418,0.56-0.734,0.949c-0.316,0.389-0.678,0.806-1.085,1.247c-0.303,0.329-0.604,0.663-0.903,1.002
			c-0.299,0.338-0.601,0.672-0.904,1.001h4.55c0.121,0,0.182,0.061,0.182,0.182v0.442c0,0.12-0.061,0.182-0.182,0.182L71.356,22.242
			L71.356,22.242z"/>
		<path fill="#FF4F5F" d="M79.559,22.045c-0.122-0.043-0.182-0.121-0.182-0.233v-0.546c0-0.146,0.061-0.19,0.182-0.131
			c0.312,0.148,0.617,0.252,0.917,0.313c0.299,0.061,0.626,0.092,0.981,0.092c0.763,0,1.382-0.188,1.859-0.56
			c0.52-0.398,0.78-0.972,0.78-1.717c0-1.465-0.837-2.196-2.509-2.196c-0.33,0-0.626,0.018-0.891,0.052
			c-0.264,0.035-0.557,0.096-0.877,0.183c-0.095,0.025-0.173,0.016-0.234-0.033c-0.061-0.047-0.091-0.118-0.091-0.215l0.078-4.146
			c0-0.183,0.015-0.288,0.046-0.318c0.03-0.03,0.136-0.045,0.318-0.045h4.446c0.122,0,0.182,0.062,0.182,0.182v0.43
			c0,0.122-0.061,0.183-0.182,0.183h-3.926c-0.009,0.545-0.02,1.078-0.033,1.6c-0.013,0.521-0.024,1.053-0.032,1.599
			c0.424-0.164,0.94-0.246,1.547-0.246c0.91,0,1.646,0.246,2.21,0.74c0.563,0.512,0.845,1.195,0.845,2.055
			c0,1.049-0.325,1.858-0.975,2.43c-0.624,0.547-1.478,0.82-2.561,0.82c-0.39,0-0.728-0.021-1.014-0.064
			C80.157,22.223,79.862,22.151,79.559,22.045z"/>
		<path fill="#BEBDC1" d="M94.432,11.932c0,0.634-0.064,1.223-0.194,1.769c0.104,0.364,0.248,0.711,0.437,1.04
			c0.186,0.329,0.403,0.638,0.655,0.923c0.251,0.286,0.526,0.545,0.825,0.772c0.3,0.23,0.613,0.424,0.941,0.578
			c0.053,0.027,0.076,0.063,0.072,0.111c-0.005,0.048-0.016,0.089-0.033,0.123l-0.272,0.43c-0.025,0.043-0.056,0.073-0.091,0.091
			c-0.034,0.018-0.092,0.006-0.17-0.038c-0.198-0.104-0.426-0.245-0.682-0.424c-0.256-0.178-0.514-0.388-0.773-0.631
			c-0.26-0.242-0.508-0.508-0.74-0.799c-0.234-0.291-0.43-0.592-0.585-0.903c-0.286,0.659-0.673,1.257-1.157,1.794
			s-1.054,1.019-1.703,1.443c-0.044,0.025-0.091,0.043-0.145,0.051c-0.051,0.01-0.094-0.008-0.129-0.051l-0.325-0.43
			c-0.025-0.034-0.029-0.078-0.013-0.13c0.018-0.053,0.047-0.092,0.09-0.117c1.031-0.632,1.809-1.431,2.328-2.393
			c0.521-0.963,0.771-2.037,0.754-3.225c0-0.139,0.053-0.207,0.156-0.207l0.61,0.039C94.383,11.751,94.432,11.811,94.432,11.932z
			 M100.15,21.125c0,0.372-0.1,0.705-0.299,1s-0.471,0.544-0.813,0.748c-0.342,0.203-0.739,0.359-1.194,0.468
			c-0.455,0.109-0.943,0.163-1.464,0.163c-0.563,0-1.073-0.055-1.532-0.163c-0.461-0.107-0.854-0.265-1.185-0.468
			c-0.33-0.204-0.585-0.453-0.769-0.748c-0.182-0.295-0.271-0.628-0.271-1c0-0.365,0.092-0.691,0.271-0.982
			c0.184-0.29,0.438-0.536,0.769-0.739c0.329-0.204,0.724-0.359,1.185-0.47c0.459-0.106,0.969-0.161,1.532-0.161
			c0.521,0,1.009,0.055,1.464,0.161c0.455,0.109,0.854,0.264,1.194,0.462c0.343,0.199,0.613,0.444,0.813,0.734
			C100.051,20.419,100.15,20.751,100.15,21.125z M99.229,21.164c0-0.261-0.078-0.49-0.234-0.689
			c-0.156-0.198-0.366-0.365-0.631-0.501c-0.264-0.134-0.57-0.237-0.916-0.312c-0.348-0.074-0.707-0.111-1.079-0.111
			c-0.416,0-0.798,0.037-1.144,0.111c-0.349,0.073-0.646,0.178-0.892,0.312c-0.248,0.136-0.44,0.303-0.579,0.501
			c-0.139,0.199-0.208,0.43-0.208,0.689c0,0.251,0.069,0.474,0.208,0.669c0.139,0.194,0.331,0.357,0.579,0.487
			c0.246,0.13,0.543,0.229,0.892,0.299c0.346,0.069,0.728,0.104,1.144,0.104c0.372,0,0.731-0.033,1.079-0.104
			c0.346-0.069,0.652-0.169,0.916-0.299c0.265-0.13,0.475-0.293,0.631-0.487C99.15,21.636,99.229,21.415,99.229,21.164z
			 M99.15,14.272v-2.626c0-0.121,0.061-0.183,0.182-0.183h0.533c0.121,0,0.182,0.062,0.182,0.183v6.864
			c0,0.121-0.061,0.183-0.182,0.183h-0.533c-0.121,0-0.182-0.062-0.182-0.183v-3.459h-2.666c-0.112,0-0.168-0.051-0.168-0.155
			v-0.468c0-0.104,0.056-0.156,0.168-0.156H99.15z"/>
		<path fill="#BEBDC1" d="M108.146,15.559c-0.252,0.019-0.536,0.032-0.853,0.045c-0.315,0.015-0.633,0.024-0.948,0.033
			c-0.316,0.008-0.627,0.014-0.931,0.014s-0.567-0.006-0.793-0.014h-0.547v1.716c0,0.131,0.021,0.22,0.065,0.268
			c0.043,0.047,0.125,0.071,0.246,0.071c0.381,0.009,0.782,0.007,1.203-0.008c0.42-0.013,0.84-0.033,1.26-0.063
			c0.422-0.03,0.832-0.069,1.236-0.117c0.402-0.047,0.777-0.104,1.124-0.176c0.147-0.025,0.233,0.021,0.261,0.143l0.064,0.377
			c0.018,0.078,0.014,0.134-0.014,0.163c-0.025,0.03-0.078,0.055-0.156,0.071c-0.355,0.07-0.749,0.133-1.184,0.189
			c-0.433,0.056-0.879,0.1-1.338,0.129c-0.459,0.03-0.916,0.055-1.371,0.071c-0.455,0.018-0.883,0.021-1.281,0.014
			c-0.391-0.01-0.656-0.099-0.799-0.268c-0.144-0.169-0.215-0.436-0.215-0.799v-4.343c0-0.364,0.068-0.606,0.207-0.729
			s0.398-0.182,0.78-0.182h4.199c0.112,0,0.168,0.051,0.168,0.155v0.468c0,0.104-0.056,0.156-0.168,0.156h-4.03
			c-0.122,0-0.195,0.016-0.222,0.045c-0.025,0.031-0.039,0.11-0.039,0.241v1.65h0.547c0.217,0,0.474,0,0.767,0
			c0.295,0,0.604-0.005,0.924-0.014c0.32-0.008,0.639-0.019,0.955-0.025c0.315-0.009,0.604-0.021,0.865-0.039
			c0.051-0.009,0.092,0.004,0.122,0.039c0.031,0.034,0.046,0.073,0.046,0.117l0.014,0.441
			C108.314,15.491,108.258,15.542,108.146,15.559z M112.332,23.176c-0.044,0.027-0.087,0.039-0.131,0.039h-6.616
			c-0.407,0-0.675-0.078-0.8-0.232c-0.125-0.156-0.188-0.411-0.188-0.768v-2.158c0-0.121,0.061-0.182,0.183-0.182h0.532
			c0.121,0,0.183,0.061,0.183,0.182v2.105c0,0.121,0.021,0.197,0.06,0.229c0.039,0.029,0.119,0.045,0.239,0.045h6.408
			c0.044,0,0.087,0.016,0.131,0.046c0.043,0.03,0.063,0.066,0.063,0.11v0.468C112.396,23.113,112.375,23.152,112.332,23.176z
			 M111.63,20.37h-0.532c-0.123,0-0.184-0.061-0.184-0.183v-8.54c0-0.122,0.061-0.184,0.184-0.184h0.532
			c0.121,0,0.183,0.062,0.183,0.184v3.64h1.793c0.054,0,0.099,0.016,0.138,0.046s0.06,0.071,0.06,0.124v0.441
			c0,0.043-0.021,0.081-0.06,0.116s-0.084,0.053-0.138,0.053h-1.793v4.121C111.811,20.309,111.751,20.37,111.63,20.37z"/>
		<path fill="#BEBDC1" d="M120.756,13.01c-0.113,0.306-0.277,0.621-0.494,0.949c-0.217,0.33-0.485,0.659-0.807,0.988
			c0.165,0.174,0.352,0.343,0.561,0.508c0.207,0.164,0.422,0.32,0.644,0.467c0.221,0.148,0.44,0.279,0.662,0.396
			c0.222,0.116,0.428,0.207,0.618,0.268c0.068,0.018,0.109,0.051,0.123,0.104c0.014,0.052,0.007,0.1-0.02,0.143l-0.248,0.455
			c-0.018,0.044-0.054,0.07-0.109,0.078c-0.057,0.009-0.106,0.004-0.149-0.014c-0.226-0.095-0.459-0.212-0.701-0.351
			c-0.243-0.139-0.483-0.291-0.723-0.455c-0.238-0.165-0.466-0.334-0.683-0.508c-0.217-0.173-0.408-0.346-0.572-0.521
			c-0.467,0.416-0.991,0.805-1.571,1.164c-0.582,0.359-1.205,0.664-1.873,0.916c-0.043,0.019-0.088,0.027-0.137,0.032
			c-0.048,0.005-0.08-0.015-0.097-0.059l-0.234-0.468c-0.026-0.044-0.026-0.09,0-0.138c0.025-0.047,0.061-0.08,0.104-0.098
			c0.547-0.207,1.063-0.453,1.553-0.734c0.49-0.28,0.941-0.589,1.354-0.923c0.411-0.333,0.771-0.683,1.079-1.046
			c0.308-0.365,0.553-0.732,0.733-1.105c0.062-0.12,0.069-0.207,0.025-0.26c-0.043-0.053-0.125-0.078-0.246-0.078h-3.81
			c-0.104,0-0.155-0.057-0.155-0.17v-0.454c0-0.104,0.051-0.155,0.155-0.155h4.159c0.451,0,0.742,0.08,0.871,0.24
			C120.898,12.346,120.895,12.623,120.756,13.01z M124.76,23.333c0,0.043-0.02,0.08-0.059,0.111
			c-0.039,0.028-0.076,0.045-0.111,0.045h-6.539c-0.406,0-0.674-0.076-0.799-0.229c-0.125-0.151-0.188-0.409-0.188-0.772v-0.977
			c0-0.362,0.074-0.606,0.228-0.733c0.151-0.125,0.422-0.188,0.813-0.188h5.199c0.121,0,0.199-0.018,0.233-0.053
			c0.035-0.034,0.054-0.117,0.054-0.246v-0.742c0-0.129-0.017-0.212-0.047-0.246c-0.029-0.035-0.105-0.053-0.229-0.053h-6.096
			c-0.045,0-0.086-0.013-0.125-0.039c-0.039-0.025-0.059-0.061-0.059-0.104v-0.47c0-0.043,0.02-0.077,0.059-0.104
			c0.039-0.025,0.08-0.039,0.125-0.039h6.238c0.209,0,0.377,0.016,0.508,0.046s0.234,0.08,0.313,0.148
			c0.078,0.069,0.132,0.167,0.162,0.293c0.029,0.125,0.046,0.279,0.046,0.462v0.975c0,0.364-0.076,0.609-0.228,0.734
			c-0.152,0.127-0.424,0.188-0.813,0.188h-5.214c-0.121,0-0.196,0.019-0.228,0.052c-0.03,0.034-0.045,0.116-0.045,0.247v0.793
			c0,0.121,0.017,0.201,0.052,0.24c0.034,0.039,0.112,0.059,0.233,0.059h6.332c0.043,0,0.084,0.015,0.123,0.039
			c0.039,0.025,0.06,0.062,0.06,0.104V23.333L124.76,23.333z M123.59,14.168v-2.521c0-0.122,0.062-0.184,0.182-0.184h0.533
			c0.121,0,0.183,0.062,0.183,0.184v5.992c0,0.121-0.062,0.183-0.183,0.183h-0.533c-0.12,0-0.182-0.062-0.182-0.183v-2.69h-2.457
			c-0.113,0-0.17-0.052-0.17-0.156v-0.468c0-0.104,0.057-0.155,0.17-0.155L123.59,14.168L123.59,14.168z"/>
	</g>
	<g>
		<polygon fill="#2B2333" stroke="#BEBDC1" stroke-width="0.5" stroke-linecap="round" stroke-miterlimit="10" points="
			25.684,13.807 29.173,19.849 32.661,25.89 25.684,25.89 18.708,25.89 22.196,19.849 		"/>
		<polygon fill="#2B2333" stroke="#BEBDC1" stroke-width="0.5" stroke-linecap="round" stroke-miterlimit="10" points="
			25.684,10.56 29.173,16.602 32.661,22.643 25.684,22.643 18.708,22.643 22.196,16.602 		"/>
		<polygon fill="#2B2333" stroke="#BEBDC1" stroke-width="0.5" stroke-linecap="round" stroke-miterlimit="10" points="
			25.684,6.307 29.173,12.349 32.661,18.391 25.684,18.391 18.708,18.391 22.196,12.349 		"/>
		<polygon fill="#2B2333" stroke="#BEBDC1" stroke-width="0.5" stroke-linecap="round" stroke-miterlimit="10" points="25.684,3.75 
			26.437,5.272 28.119,5.517 26.902,6.704 27.189,8.378 25.684,7.587 24.18,8.378 24.467,6.704 23.25,5.517 24.932,5.272 		"/>
		
			<rect x="24.108" y="25.808" fill="#2B2333" stroke="#BEBDC1" stroke-width="0.5" stroke-linecap="round" stroke-miterlimit="10" width="3.153" height="5.056"/>
		
			<circle fill="#2B2333" stroke="#BEBDC1" stroke-width="0.5" stroke-linecap="round" stroke-miterlimit="10" cx="21.355" cy="13.807" r="1.125"/>
		
			<circle fill="#2B2333" stroke="#BEBDC1" stroke-width="0.5" stroke-linecap="round" stroke-miterlimit="10" cx="24.647" cy="17.85" r="1.576"/>
		
			<circle fill="#2B2333" stroke="#BEBDC1" stroke-width="0.5" stroke-linecap="round" stroke-miterlimit="10" cx="28.695" cy="11.523" r="1.811"/>
		<path fill="#2B2333" stroke="#BEBDC1" stroke-width="0.5" stroke-linecap="round" stroke-miterlimit="10" d="M32.089,25.257
			c0,0-2.812-3.591-2.812,0"/>
		<path fill="#2B2333" stroke="#BEBDC1" stroke-width="0.5" stroke-linecap="round" stroke-miterlimit="10" d="M32.089,25.257
			c0,0,2.813-3.591,2.813,0"/>
		<path fill="#2B2333" stroke="#BEBDC1" stroke-width="0.5" stroke-linecap="round" stroke-miterlimit="10" d="M32.76,25.752
			c0,0.354-0.286,0.638-0.638,0.638h-0.09c-0.353,0-0.639-0.284-0.639-0.638v-0.486c0-0.352,0.286-0.638,0.639-0.638h0.09
			c0.352,0,0.638,0.286,0.638,0.638V25.752z"/>
		
			<rect x="28.785" y="25.328" fill="#2B2333" stroke="#BEBDC1" stroke-width="0.5" stroke-linecap="round" stroke-miterlimit="10" width="6.496" height="5.536"/>
		
			<rect x="31.144" y="25.328" fill="#2B2333" stroke="#BEBDC1" stroke-width="0.5" stroke-linecap="round" stroke-miterlimit="10" width="1.777" height="5.536"/>
		<path fill="#2B2333" stroke="#BEBDC1" stroke-width="0.5" stroke-linecap="round" stroke-miterlimit="10" d="M19.396,27.918
			c0,0-1.668-2.129-1.668,0"/>
		<path fill="#2B2333" stroke="#BEBDC1" stroke-width="0.5" stroke-linecap="round" stroke-miterlimit="10" d="M19.396,27.918
			c0,0,1.668-2.129,1.668,0"/>
		<path fill="#2B2333" stroke="#BEBDC1" stroke-width="0.5" stroke-linecap="round" stroke-miterlimit="10" d="M19.794,28.213
			c0,0.209-0.169,0.378-0.378,0.378h-0.054c-0.209,0-0.378-0.169-0.378-0.378v-0.288c0-0.209,0.169-0.379,0.378-0.379h0.054
			c0.209,0,0.378,0.17,0.378,0.379V28.213z"/>
		
			<rect x="17.436" y="27.58" fill="#2B2333" stroke="#BEBDC1" stroke-width="0.5" stroke-linecap="round" stroke-miterlimit="10" width="3.853" height="3.284"/>
		
			<rect x="18.836" y="27.58" fill="#2B2333" stroke="#BEBDC1" stroke-width="0.5" stroke-linecap="round" stroke-miterlimit="10" width="1.055" height="3.284"/>
	</g>
</g>
</svg>
