<?xml version="1.0" encoding="utf-8"?>
<!-- Generator: Adobe Illustrator 15.1.0, SVG Export Plug-In . SVG Version: 6.00 Build 0)  -->
<!DOCTYPE svg PUBLIC "-//W3C//DTD SVG 1.1//EN" "http://www.w3.org/Graphics/SVG/1.1/DTD/svg11.dtd">
<svg version="1.1" id="Layer_1" xmlns="http://www.w3.org/2000/svg" xmlns:xlink="http://www.w3.org/1999/xlink" x="0px" y="0px"
	 width="180px" height="35px" viewBox="0 -0.269 180 35" enable-background="new 0 -0.269 180 35" xml:space="preserve">
<g id="개천절">
	<g>
		<rect x="0.499" y="0.231" fill="#2B2333" width="179" height="34"/>
		<path fill="#BEBDC1" d="M179,0.731v33H1v-33H179 M180-0.269H0v35h180V-0.269L180-0.269z"/>
	</g>
	<g>
		<path fill="#FF4F5F" d="M55.288,22.059c0,0.121-0.061,0.183-0.182,0.183h-0.533c-0.122,0-0.182-0.062-0.182-0.183V13.61
			c-0.269,0.226-0.52,0.438-0.754,0.638c-0.234,0.199-0.481,0.411-0.741,0.637c-0.095,0.078-0.182,0.068-0.26-0.025l-0.26-0.313
			c-0.026-0.044-0.039-0.09-0.039-0.137c0-0.048,0.021-0.089,0.065-0.124l2.015-1.69c0.035-0.032,0.087-0.051,0.156-0.051h0.351
			c0.182,0,0.288,0.015,0.318,0.045c0.03,0.03,0.045,0.137,0.045,0.318L55.288,22.059L55.288,22.059z"/>
		<path fill="#FF4F5F" d="M65.532,17.379c0,3.275-1.058,4.914-3.172,4.914c-2.132,0-3.198-1.639-3.198-4.914
			c0-1.361,0.208-2.466,0.624-3.314c0.528-1.065,1.387-1.6,2.574-1.6c1.17,0,2.023,0.533,2.561,1.6
			c0.2,0.425,0.351,0.909,0.455,1.456C65.48,16.067,65.532,16.686,65.532,17.379z M64.596,17.379c0-2.722-0.746-4.082-2.236-4.082
			c-1.491,0-2.236,1.36-2.236,4.082c0,2.729,0.746,4.095,2.236,4.095C63.85,21.474,64.596,20.11,64.596,17.379z"/>
		<path fill="#FF4F5F" d="M67.651,22.151c0-0.184,0.063-0.336,0.188-0.462c0.126-0.125,0.28-0.188,0.462-0.188
			c0.182,0,0.335,0.063,0.461,0.188c0.125,0.126,0.188,0.278,0.188,0.462c0,0.183-0.063,0.336-0.188,0.462
			c-0.126,0.125-0.28,0.188-0.461,0.188c-0.182,0-0.336-0.063-0.462-0.188C67.714,22.487,67.651,22.333,67.651,22.151z"/>
		<path fill="#FF4F5F" d="M77.349,17.379c0,3.275-1.058,4.914-3.172,4.914c-2.132,0-3.198-1.639-3.198-4.914
			c0-1.361,0.208-2.466,0.624-3.314c0.528-1.065,1.387-1.6,2.574-1.6c1.17,0,2.023,0.533,2.561,1.6
			c0.2,0.425,0.351,0.909,0.455,1.456C77.297,16.067,77.349,16.686,77.349,17.379z M76.413,17.379c0-2.722-0.746-4.082-2.236-4.082
			c-1.491,0-2.236,1.36-2.236,4.082c0,2.729,0.746,4.095,2.236,4.095C75.667,21.474,76.413,20.11,76.413,17.379z"/>
		<path fill="#FF4F5F" d="M79.065,22.021c-0.13-0.035-0.187-0.136-0.169-0.3l0.052-0.508c0.018-0.104,0.087-0.129,0.208-0.078
			c0.364,0.148,0.708,0.252,1.034,0.313c0.326,0.061,0.704,0.096,1.138,0.104c0.685,0.011,1.261-0.164,1.729-0.52
			c0.546-0.363,0.819-0.896,0.819-1.6c0-1.23-0.923-1.847-2.769-1.847h-0.676c-0.113,0-0.169-0.047-0.169-0.143v-0.48
			c0-0.113,0.057-0.17,0.169-0.17h0.065c0.927,0,1.651-0.1,2.171-0.299c0.789-0.303,1.183-0.851,1.183-1.638
			c0-0.251-0.067-0.483-0.202-0.695c-0.135-0.212-0.314-0.393-0.54-0.54c-0.208-0.121-0.442-0.217-0.702-0.285
			c-0.26-0.07-0.533-0.104-0.819-0.104c-0.295,0-0.62,0.039-0.975,0.116s-0.698,0.183-1.027,0.313
			c-0.113,0.044-0.178,0.009-0.195-0.104l-0.052-0.48c-0.026-0.121,0.03-0.208,0.169-0.26c0.39-0.131,0.754-0.227,1.092-0.286
			c0.338-0.062,0.697-0.091,1.079-0.091c0.875,0,1.59,0.187,2.145,0.56c0.633,0.424,0.949,1.044,0.949,1.858
			c0,0.58-0.208,1.083-0.624,1.508c-0.347,0.373-0.797,0.646-1.352,0.818c0.277,0.035,0.535,0.108,0.773,0.222
			c0.238,0.112,0.444,0.27,0.618,0.469c0.199,0.217,0.351,0.461,0.455,0.734c0.104,0.271,0.156,0.573,0.156,0.901
			c0,0.435-0.089,0.826-0.267,1.179c-0.178,0.351-0.431,0.651-0.76,0.901c-0.321,0.234-0.689,0.418-1.105,0.553
			c-0.416,0.136-0.88,0.197-1.391,0.189c-0.459-0.01-0.856-0.035-1.189-0.078C79.752,22.21,79.411,22.132,79.065,22.021z"/>
		<path fill="#BEBDC1" d="M95.549,13.493c-0.121,1.431-0.553,2.718-1.293,3.861s-1.805,2.18-3.191,3.105
			c-0.112,0.078-0.198,0.074-0.26-0.013l-0.287-0.403c-0.078-0.121-0.061-0.212,0.054-0.271c0.58-0.372,1.108-0.782,1.586-1.229
			s0.889-0.921,1.233-1.424c0.349-0.503,0.623-1.033,0.826-1.593s0.332-1.134,0.383-1.724c0.019-0.216,0-0.356-0.051-0.422
			c-0.053-0.064-0.166-0.098-0.339-0.098h-3.106c-0.104,0-0.155-0.052-0.155-0.156v-0.468c0-0.043,0.019-0.079,0.052-0.11
			c0.034-0.03,0.073-0.045,0.117-0.045h3.404c0.392,0,0.666,0.082,0.826,0.246C95.508,12.916,95.575,13.164,95.549,13.493z
			 M97.967,16.366h1.651v-4.719c0-0.122,0.062-0.184,0.183-0.184h0.493c0.122,0,0.183,0.062,0.183,0.184v11.621
			c0,0.121-0.061,0.183-0.183,0.183h-0.493c-0.121,0-0.183-0.062-0.183-0.183v-6.122h-1.651v5.629c0,0.121-0.061,0.182-0.182,0.182
			h-0.494c-0.121,0-0.182-0.061-0.182-0.182V11.868c0-0.121,0.061-0.182,0.182-0.182h0.494c0.121,0,0.182,0.061,0.182,0.182V16.366z
			"/>
		<path fill="#BEBDC1" d="M109.432,18.834c-0.025,0.062-0.059,0.1-0.097,0.117c-0.039,0.018-0.098,0.009-0.176-0.025
			c-0.451-0.209-0.899-0.455-1.347-0.74c-0.446-0.286-0.873-0.611-1.28-0.977c-0.899,0.78-1.94,1.43-3.119,1.95
			c-0.044,0.018-0.087,0.028-0.131,0.032c-0.043,0.005-0.078-0.016-0.104-0.06l-0.233-0.467c-0.025-0.044-0.027-0.087-0.007-0.131
			c0.021-0.043,0.055-0.073,0.099-0.091c0.987-0.469,1.873-1.02,2.658-1.651c0.784-0.633,1.444-1.359,1.981-2.184
			c0.069-0.112,0.08-0.197,0.033-0.254c-0.049-0.057-0.133-0.084-0.254-0.084h-3.939c-0.104,0-0.155-0.058-0.155-0.17v-0.452
			c0-0.104,0.053-0.156,0.155-0.156h4.291c0.449,0,0.756,0.087,0.916,0.261c0.16,0.173,0.142,0.441-0.059,0.806
			c-0.434,0.771-0.945,1.465-1.534,2.079c0.372,0.339,0.767,0.642,1.183,0.904s0.828,0.479,1.236,0.644
			c0.051,0.018,0.086,0.051,0.104,0.098c0.017,0.049,0.017,0.094,0,0.137L109.432,18.834z M107.756,11.971v0.416
			c0,0.13-0.064,0.195-0.195,0.195h-2.938c-0.131,0-0.195-0.065-0.195-0.195v-0.416c0-0.121,0.064-0.182,0.195-0.182h2.938
			C107.691,11.791,107.756,11.85,107.756,11.971z M112.605,23.176c-0.045,0.027-0.088,0.039-0.131,0.039h-6.617
			c-0.407,0-0.674-0.075-0.799-0.227c-0.127-0.152-0.189-0.406-0.189-0.761v-2.225c0-0.121,0.061-0.182,0.184-0.182h0.532
			c0.121,0,0.183,0.061,0.183,0.182v2.158c0,0.121,0.02,0.197,0.059,0.229c0.039,0.029,0.119,0.046,0.24,0.046h6.408
			c0.043,0,0.088,0.015,0.131,0.045s0.064,0.066,0.064,0.11v0.468C112.67,23.113,112.648,23.152,112.605,23.176z M111.369,15.703
			v-4.056c0-0.122,0.061-0.184,0.184-0.184h0.532c0.121,0,0.183,0.062,0.183,0.184v8.476c0,0.121-0.062,0.182-0.183,0.182h-0.532
			c-0.123,0-0.184-0.061-0.184-0.182v-3.64h-2.157c-0.112,0-0.169-0.053-0.169-0.156v-0.468c0-0.104,0.057-0.156,0.169-0.156
			H111.369z"/>
		<path fill="#BEBDC1" d="M120.756,13.01c-0.113,0.306-0.277,0.621-0.494,0.949c-0.217,0.33-0.485,0.659-0.807,0.988
			c0.165,0.174,0.352,0.343,0.561,0.508c0.207,0.164,0.422,0.32,0.644,0.467c0.221,0.148,0.44,0.279,0.662,0.396
			s0.428,0.207,0.618,0.268c0.068,0.019,0.109,0.051,0.123,0.104c0.014,0.052,0.007,0.1-0.02,0.143l-0.248,0.455
			c-0.018,0.044-0.054,0.07-0.109,0.078c-0.057,0.009-0.106,0.004-0.149-0.013c-0.226-0.096-0.459-0.213-0.701-0.352
			c-0.243-0.139-0.483-0.291-0.723-0.455c-0.238-0.165-0.466-0.334-0.683-0.508c-0.217-0.173-0.408-0.346-0.572-0.52
			c-0.467,0.416-0.991,0.804-1.571,1.163c-0.582,0.359-1.205,0.664-1.873,0.916c-0.043,0.019-0.088,0.027-0.137,0.032
			c-0.048,0.005-0.08-0.015-0.097-0.059l-0.234-0.468c-0.026-0.043-0.026-0.09,0-0.138c0.025-0.047,0.061-0.08,0.104-0.098
			c0.547-0.207,1.063-0.453,1.553-0.734c0.49-0.28,0.941-0.589,1.354-0.923c0.411-0.333,0.771-0.683,1.079-1.046
			c0.308-0.365,0.553-0.731,0.733-1.104c0.062-0.121,0.069-0.208,0.025-0.261c-0.043-0.053-0.125-0.078-0.246-0.078h-3.81
			c-0.104,0-0.155-0.057-0.155-0.17v-0.454c0-0.104,0.051-0.155,0.155-0.155h4.159c0.451,0,0.742,0.08,0.871,0.24
			C120.898,12.346,120.895,12.623,120.756,13.01z M124.76,23.333c0,0.043-0.02,0.08-0.059,0.111
			c-0.039,0.028-0.076,0.045-0.111,0.045h-6.539c-0.406,0-0.674-0.076-0.799-0.229c-0.125-0.151-0.188-0.408-0.188-0.772v-0.977
			c0-0.362,0.074-0.606,0.228-0.733c0.151-0.125,0.422-0.188,0.813-0.188h5.199c0.121,0,0.199-0.018,0.233-0.053
			c0.035-0.034,0.054-0.117,0.054-0.246v-0.742c0-0.129-0.017-0.212-0.047-0.246c-0.029-0.035-0.105-0.053-0.229-0.053h-6.096
			c-0.045,0-0.086-0.013-0.125-0.039c-0.039-0.025-0.059-0.061-0.059-0.104v-0.47c0-0.043,0.02-0.077,0.059-0.104
			c0.039-0.025,0.08-0.039,0.125-0.039h6.238c0.209,0,0.377,0.016,0.508,0.046s0.234,0.08,0.313,0.149
			c0.078,0.068,0.132,0.167,0.162,0.293c0.029,0.125,0.046,0.278,0.046,0.461v0.975c0,0.364-0.076,0.609-0.228,0.734
			c-0.152,0.127-0.424,0.188-0.813,0.188h-5.214c-0.121,0-0.196,0.019-0.228,0.052c-0.03,0.034-0.045,0.116-0.045,0.247v0.793
			c0,0.121,0.017,0.201,0.052,0.24c0.034,0.039,0.112,0.06,0.233,0.06h6.332c0.043,0,0.084,0.014,0.123,0.039
			c0.039,0.024,0.06,0.061,0.06,0.104V23.333L124.76,23.333z M123.59,14.168v-2.521c0-0.122,0.062-0.184,0.182-0.184h0.533
			c0.121,0,0.183,0.062,0.183,0.184v5.992c0,0.121-0.062,0.183-0.183,0.183h-0.533c-0.12,0-0.182-0.062-0.182-0.183v-2.69h-2.457
			c-0.113,0-0.17-0.052-0.17-0.156v-0.468c0-0.104,0.057-0.155,0.17-0.155L123.59,14.168L123.59,14.168z"/>
	</g>
	<g>
		<path fill="#2B2333" stroke="#BEBDC1" stroke-width="0.5" stroke-linecap="round" stroke-miterlimit="10" d="M25.517,5.738
			c0,0-3.061-0.282-3.227,2.299"/>
		<path fill="#2B2333" stroke="#BEBDC1" stroke-width="0.5" stroke-linecap="round" stroke-miterlimit="10" d="M25.517,5.738
			c0,0,3.062-0.282,3.227,2.299"/>
		<path fill="#2B2333" stroke="#BEBDC1" stroke-width="0.5" stroke-linecap="round" stroke-miterlimit="10" d="M21.871,12.551
			c0,0-1.721-0.755-1.291,1.075c0.431,1.828,1.291,3.119,1.291,3.119S22.816,12.671,21.871,12.551z"/>
		<path fill="#2B2333" stroke="#BEBDC1" stroke-width="0.5" stroke-linecap="round" stroke-miterlimit="10" d="M29.474,12.551
			c0,0,1.721-0.755,1.291,1.075c-0.43,1.828-1.291,3.119-1.291,3.119S28.529,12.671,29.474,12.551z"/>
		<path fill="#2B2333" stroke="#BEBDC1" stroke-width="0.5" stroke-linecap="round" stroke-miterlimit="10" d="M34.596,24.296
			c-1.009-4.882-9.078-4.323-9.078-4.323s-8.069-0.559-9.077,4.323c-1.009,4.882-1.17,5.763-1.17,5.763h10.248h10.248
			C35.766,30.059,35.604,29.178,34.596,24.296z"/>
		<path fill="#2B2333" stroke="#BEBDC1" stroke-width="0.5" stroke-linecap="round" stroke-miterlimit="10" d="M23.326,25.414
			c0,0-2.11,1.306-2.245,3.473c0,0,0.993,0.314,2.823-2.065"/>
		<path fill="#2B2333" stroke="#BEBDC1" stroke-width="0.5" stroke-linecap="round" stroke-miterlimit="10" d="M28.166,25.414
			c0,0,2.11,1.306,2.245,3.473c0,0-0.994,0.314-2.823-2.065"/>
		<path fill="#2B2333" stroke="#BEBDC1" stroke-width="0.5" stroke-linecap="round" stroke-miterlimit="10" d="M29.474,16.747
			c0,1.783-1.445,3.228-3.228,3.228h-1.147c-1.782,0-3.228-1.443-3.228-3.228V11.69c0-1.782,1.445-3.229,3.228-3.229h1.147
			c1.782,0,3.228,1.445,3.228,3.229V16.747z"/>
		<path fill="#2B2333" stroke="#BEBDC1" stroke-width="0.5" stroke-linecap="round" stroke-miterlimit="10" d="M25.677,8.461
			c0,0-0.864,0.678-2.649,0.813c0,0-1.524,1.356-1.133,3.276c0.392,1.917-3.373-5.199,3.782-5.521"/>
		<path fill="#2B2333" stroke="#BEBDC1" stroke-width="0.5" stroke-linecap="round" stroke-miterlimit="10" d="M25.677,8.461
			c0,0,0.863,0.678,2.649,0.813c0,0,1.525,1.356,1.133,3.276c-0.392,1.917,3.374-5.199-3.782-5.521"/>
		<path fill="#2B2333" stroke="#BEBDC1" stroke-width="0.5" stroke-linecap="round" stroke-miterlimit="10" d="M20.394,20.561
			c0,0,0.773,2.813,2.479,3.479"/>
		<path fill="#2B2333" stroke="#BEBDC1" stroke-width="0.5" stroke-linecap="round" stroke-miterlimit="10" d="M19.146,21.052
			c0,0,1.26,4.257,4.18,4.358"/>
		<path fill="#2B2333" stroke="#BEBDC1" stroke-width="0.5" stroke-linecap="round" stroke-miterlimit="10" d="M30.951,20.662
			c0,0-0.773,2.714-2.478,3.379"/>
		<path fill="#2B2333" stroke="#BEBDC1" stroke-width="0.5" stroke-linecap="round" stroke-miterlimit="10" d="M32.199,21.214
			c0,0-1.26,4.095-4.18,4.196"/>
		<path fill="#2B2333" stroke="#BEBDC1" stroke-width="0.5" stroke-linecap="round" stroke-miterlimit="10" d="M25.746,16.202
			h-1.803l-1.373,2.525c0,0-0.819-0.358-0.819-1.98c0-1.621-0.384,7.632,3.995,13.118"/>
		<path fill="#2B2333" stroke="#BEBDC1" stroke-width="0.5" stroke-linecap="round" stroke-miterlimit="10" d="M25.716,16.202h1.73
			l1.317,2.525c0,0,0.786-0.358,0.786-1.98c0-1.621,0.368,7.632-3.833,13.118"/>
		<path fill="#2B2333" stroke="#BEBDC1" stroke-width="0.5" stroke-linecap="round" stroke-miterlimit="10" d="M24.55,17.157h2.219
			l0.646,1.652c0,0-1.741-0.483-3.308,0L24.55,17.157z"/>
	</g>
</g>
</svg>
