<?xml version="1.0" encoding="utf-8"?>
<!-- Generator: Adobe Illustrator 15.1.0, SVG Export Plug-In . SVG Version: 6.00 Build 0)  -->
<!DOCTYPE svg PUBLIC "-//W3C//DTD SVG 1.1//EN" "http://www.w3.org/Graphics/SVG/1.1/DTD/svg11.dtd">
<svg version="1.1" id="Layer_1" xmlns="http://www.w3.org/2000/svg" xmlns:xlink="http://www.w3.org/1999/xlink" x="0px" y="0px"
	 width="180px" height="35px" viewBox="0 -0.269 180 35" enable-background="new 0 -0.269 180 35" xml:space="preserve">
<g id="발렌타인">
	<g>
		<rect x="0.499" y="0.231" fill="#2B2333" width="179" height="34"/>
		<path fill="#BEBDC1" d="M179,0.731v33H1v-33H179 M180-0.269H0v35h180V-0.269L180-0.269z"/>
	</g>
	<g>
		<path fill="#6CB2FF" d="M57.654,17.38c0,3.276-1.058,4.914-3.172,4.914c-2.132,0-3.198-1.638-3.198-4.914
			c0-1.36,0.208-2.465,0.624-3.315c0.528-1.066,1.387-1.599,2.574-1.599c1.17,0,2.023,0.533,2.561,1.599
			c0.2,0.425,0.351,0.91,0.455,1.456S57.654,16.686,57.654,17.38z M56.718,17.38c0-2.721-0.746-4.082-2.236-4.082
			c-1.491,0-2.236,1.361-2.236,4.082c0,2.73,0.746,4.095,2.236,4.095C55.973,21.475,56.718,20.11,56.718,17.38z"/>
		<path fill="#6CB2FF" d="M59.539,22.242c-0.095,0-0.167-0.002-0.214-0.006c-0.048-0.004-0.083-0.018-0.104-0.039
			c-0.022-0.021-0.035-0.057-0.039-0.104c-0.004-0.048-0.006-0.119-0.006-0.214l0.013-0.286c0-0.112,0.035-0.204,0.104-0.273
			l2.145-2.366c1.595-1.724,2.392-3.033,2.392-3.926c0-0.52-0.173-0.953-0.52-1.3c-0.338-0.338-0.758-0.507-1.261-0.507
			c-0.702,0-1.435,0.195-2.197,0.585c-0.122,0.061-0.19,0.035-0.208-0.078l-0.078-0.429c-0.026-0.147,0.018-0.238,0.13-0.273
			c0.442-0.199,0.84-0.347,1.196-0.442c0.356-0.095,0.719-0.143,1.092-0.143c0.832,0,1.495,0.208,1.989,0.624
			c0.555,0.451,0.832,1.092,0.832,1.924c0,0.321-0.078,0.672-0.234,1.053c-0.156,0.381-0.373,0.78-0.65,1.196
			c-0.173,0.243-0.418,0.559-0.734,0.949s-0.678,0.806-1.085,1.248c-0.303,0.329-0.604,0.663-0.903,1.001
			c-0.299,0.338-0.601,0.671-0.904,1.001h4.55c0.121,0,0.182,0.061,0.182,0.182v0.442c0,0.121-0.061,0.182-0.182,0.182
			L59.539,22.242L59.539,22.242z"/>
		<path fill="#6CB2FF" d="M67.651,22.151c0-0.182,0.063-0.336,0.188-0.461c0.126-0.125,0.28-0.188,0.462-0.188
			c0.182,0,0.335,0.063,0.461,0.188c0.125,0.125,0.188,0.279,0.188,0.461c0,0.182-0.063,0.336-0.188,0.461
			c-0.126,0.125-0.28,0.188-0.461,0.188c-0.182,0-0.336-0.063-0.462-0.188C67.714,22.487,67.651,22.333,67.651,22.151z"/>
		<path fill="#6CB2FF" d="M74.983,22.06c0,0.121-0.061,0.182-0.182,0.182h-0.533c-0.122,0-0.182-0.061-0.182-0.182v-8.45
			c-0.269,0.226-0.52,0.438-0.754,0.637c-0.234,0.199-0.481,0.412-0.741,0.637c-0.095,0.078-0.182,0.069-0.26-0.026l-0.26-0.312
			c-0.026-0.043-0.039-0.089-0.039-0.137c0-0.047,0.021-0.088,0.065-0.124l2.015-1.69c0.035-0.034,0.087-0.052,0.156-0.052h0.351
			c0.182,0,0.288,0.015,0.318,0.045c0.03,0.03,0.045,0.137,0.045,0.318L74.983,22.06L74.983,22.06z"/>
		<path fill="#6CB2FF" d="M84.044,22.06c0,0.121-0.061,0.182-0.182,0.182h-0.52c-0.121,0-0.182-0.061-0.182-0.182v-2.106h-4.29
			c-0.182,0-0.289-0.015-0.319-0.046c-0.03-0.03-0.045-0.136-0.045-0.318v-0.403c0-0.078,0.004-0.13,0.013-0.156
			c0.008-0.026,0.035-0.073,0.078-0.143l4.147-6.188c0.052-0.078,0.088-0.124,0.11-0.136c0.021-0.013,0.08-0.02,0.175-0.02h0.65
			c0.182,0,0.288,0.015,0.318,0.045c0.03,0.03,0.045,0.137,0.045,0.318v6.253h1.287c0.121,0,0.182,0.061,0.182,0.182v0.429
			c0,0.122-0.061,0.182-0.182,0.182h-1.287v2.107H84.044z M83.16,19.161v-5.798c-0.642,0.971-1.279,1.938-1.911,2.899
			c-0.633,0.962-1.274,1.929-1.924,2.899H83.16z"/>
		<path fill="#BEBDC1" d="M91.936,17.276c-0.209,0-0.375-0.013-0.502-0.039c-0.125-0.026-0.224-0.076-0.291-0.149
			c-0.07-0.074-0.117-0.169-0.145-0.286c-0.025-0.117-0.039-0.267-0.039-0.448v-4.55c0-0.043,0.018-0.08,0.053-0.11
			c0.034-0.03,0.073-0.045,0.116-0.045h0.56c0.043,0,0.08,0.018,0.111,0.052c0.028,0.035,0.045,0.07,0.045,0.104v2.028h3.797v-2.015
			c0-0.043,0.015-0.083,0.045-0.117c0.029-0.034,0.065-0.052,0.109-0.052h0.561c0.043,0,0.082,0.015,0.117,0.045
			c0.032,0.03,0.051,0.067,0.051,0.11v4.641c0,0.33-0.068,0.55-0.207,0.663c-0.139,0.113-0.398,0.169-0.78,0.169L91.936,17.276
			L91.936,17.276z M91.844,14.598v1.599c0,0.13,0.021,0.214,0.065,0.253c0.043,0.039,0.126,0.059,0.247,0.059h3.172
			c0.121,0,0.203-0.02,0.247-0.059c0.043-0.039,0.065-0.124,0.065-0.253v-1.599H91.844z M99.865,23.334
			c0,0.043-0.02,0.08-0.059,0.11c-0.039,0.03-0.076,0.045-0.111,0.045h-6.538c-0.407,0-0.675-0.076-0.8-0.228
			c-0.125-0.151-0.188-0.409-0.188-0.773v-0.975c0-0.364,0.075-0.608,0.228-0.734c0.152-0.125,0.423-0.188,0.813-0.188h5.2
			c0.121,0,0.199-0.017,0.232-0.052c0.035-0.035,0.054-0.117,0.054-0.247v-0.741c0-0.13-0.017-0.212-0.046-0.247
			c-0.03-0.034-0.106-0.052-0.229-0.052h-6.097c-0.044,0-0.085-0.013-0.124-0.039c-0.039-0.026-0.059-0.061-0.059-0.104v-0.468
			c0-0.043,0.02-0.078,0.059-0.104s0.08-0.039,0.124-0.039h6.239c0.209,0,0.377,0.015,0.508,0.045c0.13,0.03,0.234,0.08,0.313,0.149
			c0.077,0.069,0.131,0.167,0.162,0.292c0.029,0.126,0.045,0.279,0.045,0.461v0.975c0,0.364-0.076,0.609-0.227,0.734
			c-0.152,0.126-0.424,0.188-0.813,0.188h-5.215c-0.121,0-0.197,0.018-0.228,0.052c-0.031,0.034-0.046,0.117-0.046,0.247v0.793
			c0,0.121,0.019,0.201,0.053,0.24c0.034,0.039,0.111,0.059,0.232,0.059h6.332c0.043,0,0.084,0.013,0.123,0.039
			s0.06,0.061,0.06,0.104L99.865,23.334L99.865,23.334z M99.41,17.796h-0.533c-0.121,0-0.182-0.061-0.182-0.182v-5.967
			c0-0.122,0.061-0.182,0.182-0.182h0.533c0.121,0,0.182,0.061,0.182,0.182v2.587h1.795c0.051,0,0.098,0.015,0.137,0.045
			c0.039,0.031,0.059,0.072,0.059,0.124v0.442c0,0.043-0.02,0.083-0.059,0.117c-0.039,0.034-0.086,0.052-0.137,0.052h-1.795v2.6
			C99.592,17.735,99.531,17.796,99.41,17.796z"/>
		<path fill="#BEBDC1" d="M103.844,18.667c-0.391-0.018-0.652-0.098-0.787-0.241c-0.135-0.143-0.201-0.396-0.201-0.76V15.95
			c0-0.364,0.076-0.608,0.228-0.734c0.152-0.125,0.423-0.188,0.813-0.188h2.105c0.121,0,0.199-0.017,0.233-0.052
			s0.053-0.117,0.053-0.247v-1.47c0-0.13-0.017-0.212-0.046-0.247c-0.03-0.034-0.105-0.052-0.229-0.052h-2.924
			c-0.045,0-0.086-0.013-0.125-0.039c-0.039-0.026-0.059-0.061-0.059-0.104v-0.494c0-0.043,0.02-0.078,0.059-0.104
			c0.039-0.026,0.08-0.039,0.125-0.039h3.066c0.209,0,0.377,0.016,0.508,0.046c0.13,0.03,0.234,0.08,0.313,0.149
			s0.131,0.167,0.162,0.292c0.029,0.125,0.045,0.279,0.045,0.461v1.755c0,0.364-0.076,0.609-0.228,0.734
			c-0.151,0.126-0.423,0.188-0.813,0.188h-2.117c-0.122,0-0.197,0.018-0.229,0.052c-0.03,0.035-0.045,0.117-0.045,0.247v1.495
			c0,0.199,0.097,0.299,0.285,0.299c0.703,0,1.385-0.039,2.049-0.117c0.662-0.078,1.332-0.195,2.009-0.351
			c0.121-0.026,0.194,0.018,0.221,0.13l0.078,0.429c0.018,0.113-0.039,0.187-0.17,0.221c-0.623,0.147-1.32,0.265-2.092,0.351
			C105.358,18.647,104.598,18.685,103.844,18.667z M112.982,23.178c-0.045,0.026-0.088,0.039-0.131,0.039h-6.877
			c-0.407,0-0.674-0.078-0.799-0.234c-0.127-0.156-0.189-0.412-0.189-0.767V19.98c0-0.122,0.061-0.182,0.183-0.182h0.532
			c0.122,0,0.184,0.061,0.184,0.182v2.184c0,0.121,0.02,0.197,0.059,0.228c0.039,0.03,0.119,0.045,0.24,0.045h6.668
			c0.043,0,0.088,0.015,0.131,0.045c0.043,0.03,0.064,0.067,0.064,0.11v0.468C113.047,23.113,113.025,23.152,112.982,23.178z
			 M109.537,15.118v-3.25c0-0.121,0.061-0.182,0.182-0.182h0.494c0.121,0,0.182,0.061,0.182,0.182v8.086
			c0,0.121-0.061,0.182-0.182,0.182h-0.494c-0.121,0-0.182-0.061-0.182-0.182v-4.056h-1.6c-0.112,0-0.17-0.052-0.17-0.156v-0.468
			c0-0.104,0.058-0.156,0.17-0.156H109.537z M112.695,20.318c0,0.122-0.061,0.182-0.182,0.182h-0.494
			c-0.121,0-0.183-0.061-0.183-0.182v-8.671c0-0.122,0.062-0.182,0.183-0.182h0.494c0.121,0,0.182,0.061,0.182,0.182V20.318z"/>
		<path fill="#BEBDC1" d="M120.625,16.717c-0.251,0.018-0.55,0.033-0.896,0.045c-0.346,0.013-0.696,0.024-1.053,0.033
			c-0.355,0.009-0.699,0.013-1.033,0.013s-0.612-0.004-0.838-0.013h-0.65V19.2c0,0.13,0.021,0.219,0.064,0.267
			c0.043,0.048,0.125,0.072,0.246,0.072c0.391,0.008,0.812,0.006,1.262-0.007c0.451-0.013,0.903-0.037,1.358-0.071
			c0.455-0.034,0.896-0.078,1.319-0.13c0.425-0.052,0.807-0.113,1.145-0.182c0.139-0.026,0.221,0.021,0.246,0.143l0.065,0.377
			c0.018,0.069,0.009,0.122-0.026,0.156c-0.033,0.035-0.078,0.061-0.129,0.078c-0.338,0.078-0.744,0.145-1.217,0.202
			c-0.473,0.056-0.957,0.104-1.455,0.143s-0.99,0.067-1.477,0.084c-0.484,0.017-0.914,0.021-1.287,0.013
			c-0.39-0.008-0.656-0.1-0.799-0.273c-0.144-0.173-0.216-0.442-0.216-0.806v-5.915c0-0.364,0.07-0.607,0.21-0.728
			c0.139-0.122,0.397-0.182,0.778-0.182h4.474c0.111,0,0.168,0.052,0.168,0.156v0.468c0,0.104-0.057,0.156-0.168,0.156h-4.304
			c-0.122,0-0.194,0.015-0.222,0.045c-0.026,0.031-0.039,0.111-0.039,0.241v2.535h0.65c0.215,0,0.488,0,0.818,0
			c0.328,0,0.671-0.004,1.025-0.013c0.355-0.008,0.709-0.017,1.061-0.026c0.352-0.009,0.656-0.021,0.916-0.039
			c0.053-0.009,0.094,0.004,0.124,0.039c0.03,0.035,0.046,0.074,0.046,0.117v0.442C120.795,16.647,120.738,16.7,120.625,16.717z
			 M123.85,23.451h-0.533c-0.121,0-0.182-0.061-0.182-0.182V11.647c0-0.122,0.061-0.182,0.182-0.182h0.533
			c0.121,0,0.182,0.061,0.182,0.182v4.732h1.795c0.051,0,0.098,0.015,0.136,0.045c0.039,0.03,0.06,0.072,0.06,0.124v0.442
			c0,0.043-0.021,0.083-0.06,0.117c-0.038,0.034-0.085,0.052-0.136,0.052h-1.795v6.11C124.031,23.39,123.971,23.451,123.85,23.451z"
			/>
		<path fill="#BEBDC1" d="M133.521,15.066c0,0.451-0.078,0.864-0.234,1.241s-0.373,0.7-0.65,0.969
			c-0.276,0.269-0.604,0.479-0.979,0.63c-0.377,0.152-0.787,0.228-1.229,0.228c-0.426,0-0.824-0.073-1.195-0.221
			c-0.373-0.147-0.696-0.358-0.969-0.631c-0.273-0.273-0.487-0.596-0.645-0.968s-0.234-0.789-0.234-1.248
			c0-0.477,0.078-0.906,0.234-1.287c0.156-0.381,0.371-0.706,0.645-0.975c0.271-0.269,0.596-0.472,0.969-0.611
			c0.371-0.139,0.771-0.208,1.195-0.208c0.398,0,0.783,0.069,1.156,0.208c0.373,0.139,0.702,0.34,0.988,0.604
			c0.285,0.265,0.516,0.587,0.689,0.968C133.434,14.147,133.521,14.581,133.521,15.066z M132.611,15.053
			c0-0.364-0.059-0.687-0.176-0.968c-0.117-0.281-0.275-0.516-0.476-0.702c-0.198-0.186-0.432-0.327-0.694-0.422
			c-0.264-0.095-0.545-0.143-0.838-0.143c-0.306,0-0.584,0.048-0.84,0.143c-0.256,0.095-0.48,0.236-0.677,0.422
			c-0.194,0.187-0.347,0.42-0.455,0.702c-0.106,0.282-0.162,0.604-0.162,0.968c0,0.347,0.054,0.659,0.156,0.936
			c0.103,0.277,0.252,0.514,0.44,0.708c0.191,0.195,0.416,0.347,0.678,0.455c0.26,0.108,0.546,0.163,0.857,0.163
			c0.295,0,0.574-0.054,0.838-0.163c0.265-0.109,0.496-0.26,0.695-0.455c0.199-0.195,0.357-0.431,0.475-0.708
			C132.553,15.712,132.611,15.399,132.611,15.053z M137.031,23.178c-0.043,0.026-0.087,0.039-0.13,0.039h-6.513
			c-0.408,0-0.674-0.076-0.801-0.228c-0.126-0.152-0.188-0.405-0.188-0.76v-2.548c0-0.121,0.061-0.182,0.182-0.182h0.533
			c0.121,0,0.182,0.061,0.182,0.182v2.483c0,0.121,0.021,0.197,0.059,0.228c0.039,0.03,0.119,0.045,0.24,0.045h6.307
			c0.043,0,0.087,0.015,0.13,0.045c0.043,0.03,0.063,0.067,0.063,0.11v0.468C137.096,23.113,137.074,23.152,137.031,23.178z
			 M136.523,20.123h-0.532c-0.122,0-0.183-0.061-0.183-0.182v-8.294c0-0.122,0.061-0.182,0.183-0.182h0.532
			c0.121,0,0.183,0.061,0.183,0.182v8.294C136.706,20.062,136.645,20.123,136.523,20.123z"/>
		<path fill="#BEBDC1" d="M145.363,19.434c0.018,0.121-0.039,0.195-0.168,0.221c-0.305,0.069-0.641,0.132-1.008,0.188
			c-0.369,0.057-0.754,0.1-1.157,0.13c-0.403,0.031-0.813,0.052-1.235,0.065c-0.42,0.013-0.834,0.015-1.24,0.006
			c-0.391-0.009-0.656-0.1-0.801-0.273c-0.143-0.173-0.214-0.442-0.214-0.806v-5.499c0-0.364,0.069-0.606,0.208-0.728
			c0.139-0.121,0.398-0.182,0.779-0.182h3.691c0.112,0,0.17,0.052,0.17,0.156v0.468c0,0.104-0.058,0.156-0.17,0.156h-3.521
			c-0.121,0-0.195,0.015-0.221,0.045c-0.027,0.03-0.039,0.11-0.039,0.241V18.9c0,0.13,0.021,0.217,0.063,0.26
			s0.125,0.07,0.247,0.078c0.754,0.026,1.49,0.013,2.21-0.039c0.72-0.052,1.417-0.151,2.093-0.299
			c0.139-0.026,0.223,0.021,0.248,0.143L145.363,19.434z M146.195,15.846v-3.978c0-0.121,0.061-0.182,0.183-0.182h0.494
			c0.121,0,0.183,0.061,0.183,0.182v10.907c0,0.121-0.062,0.182-0.183,0.182h-0.494c-0.122,0-0.183-0.061-0.183-0.182v-6.149h-2.729
			c-0.113,0-0.17-0.052-0.17-0.156v-0.468c0-0.104,0.057-0.156,0.17-0.156H146.195z M149.355,23.269
			c0,0.121-0.062,0.182-0.184,0.182h-0.494c-0.121,0-0.182-0.061-0.182-0.182V11.647c0-0.122,0.061-0.182,0.182-0.182h0.494
			c0.122,0,0.184,0.061,0.184,0.182V23.269z"/>
		<path fill="#BEBDC1" d="M158.104,16.418c0,0.485-0.06,0.975-0.176,1.469c-0.117,0.494-0.302,0.94-0.554,1.339
			c-0.251,0.398-0.573,0.726-0.968,0.981s-0.869,0.383-1.424,0.383c-0.571,0-1.057-0.125-1.449-0.377
			c-0.395-0.251-0.711-0.579-0.949-0.981c-0.238-0.402-0.408-0.852-0.513-1.346c-0.104-0.494-0.156-0.983-0.156-1.469
			c0-0.511,0.052-1.016,0.156-1.515c0.104-0.498,0.274-0.947,0.513-1.346c0.238-0.398,0.555-0.719,0.949-0.962
			c0.395-0.242,0.878-0.364,1.449-0.364c0.555,0,1.029,0.122,1.424,0.364c0.395,0.243,0.717,0.562,0.968,0.956
			c0.252,0.395,0.437,0.841,0.554,1.339C158.045,15.389,158.104,15.898,158.104,16.418z M157.182,16.405
			c0-0.398-0.041-0.801-0.125-1.209c-0.082-0.407-0.209-0.773-0.383-1.099c-0.174-0.325-0.397-0.589-0.676-0.793
			c-0.277-0.204-0.615-0.305-1.014-0.305c-0.416,0-0.762,0.102-1.034,0.305c-0.272,0.204-0.492,0.468-0.657,0.793
			c-0.164,0.325-0.281,0.691-0.35,1.099c-0.07,0.408-0.104,0.811-0.104,1.209c0,0.381,0.031,0.773,0.096,1.177
			c0.065,0.403,0.181,0.771,0.347,1.105c0.164,0.333,0.385,0.606,0.662,0.819c0.276,0.213,0.625,0.318,1.041,0.318
			c0.397,0,0.735-0.106,1.014-0.318c0.278-0.212,0.502-0.485,0.677-0.819c0.174-0.334,0.301-0.702,0.383-1.105
			C157.141,17.178,157.182,16.786,157.182,16.405z M160.965,23.451h-0.533c-0.123,0-0.184-0.061-0.184-0.182V11.647
			c0-0.122,0.061-0.182,0.184-0.182h0.533c0.12,0,0.182,0.061,0.182,0.182v11.622C161.145,23.39,161.085,23.451,160.965,23.451z"/>
	</g>
	<g>
		<g>
			<g>
				<path id="SVGID_1_" fill="#2B2333" d="M25.021,9.668c0,0,0.815-2.954,4.484-2.954c2.242,0,4.483,1.936,4.483,4.483
					c0,6.495-8.844,11.682-8.844,11.682s-9.091-5.187-9.091-11.682c0-2.548,2.242-4.483,4.484-4.483
					C24.206,6.714,25.021,9.668,25.021,9.668"/>
			</g>
			<g>
				<path id="SVGID_2_" fill="none" stroke="#BEBDC1" stroke-width="0.5" stroke-linecap="round" stroke-miterlimit="10" d="
					M25.021,9.668c0,0,0.815-2.954,4.484-2.954c2.242,0,4.483,1.936,4.483,4.483c0,6.495-8.844,11.682-8.844,11.682
					s-9.091-5.187-9.091-11.682c0-2.548,2.242-4.483,4.484-4.483C24.206,6.714,25.021,9.668,25.021,9.668"/>
			</g>
		</g>
		<path fill="#2B2333" stroke="#BEBDC1" stroke-width="0.5" stroke-linecap="round" stroke-miterlimit="10" d="M17.321,15.264
			c0.325-0.72,1.836-1.837,4.472-1.757c2.635,0.08,5.231,2.875,7.268,2.516s4.242-1.832,4.242-1.832s0.589-0.164,0.19,0.874
			c-0.399,1.037-2.491,4.132-4.473,5.71c-1.981,1.578-2.316,0.959-2.755,1.717c-0.44,0.76-0.12,1.409,0.319,2.402
			s-0.439,2.629-1.318,2.629c-0.878,0-1.557-1.078-0.918-2.835s-0.758-2.315-2.356-3.234c-1.597-0.918-1.669-1.828-2.552-2.87
			C18.558,17.54,16.762,16.502,17.321,15.264L17.321,15.264z"/>
	</g>
</g>
</svg>
