<?xml version="1.0" encoding="utf-8"?>
<!-- Generator: Adobe Illustrator 15.1.0, SVG Export Plug-In . SVG Version: 6.00 Build 0)  -->
<!DOCTYPE svg PUBLIC "-//W3C//DTD SVG 1.1//EN" "http://www.w3.org/Graphics/SVG/1.1/DTD/svg11.dtd">
<svg version="1.1" id="Layer_1" xmlns="http://www.w3.org/2000/svg" xmlns:xlink="http://www.w3.org/1999/xlink" x="0px" y="0px"
	 width="180px" height="35px" viewBox="0 -0.269 180 35" enable-background="new 0 -0.269 180 35" xml:space="preserve">
<g id="추석">
	<g>
		<rect x="0.499" y="0.231" fill="#2B2333" width="179" height="34"/>
		<path fill="#BEBDC1" d="M179,0.731v33H1v-33H179 M180-0.269H0v35h180V-0.269L180-0.269z"/>
	</g>
	<g>
		<path fill="#FF4F5F" d="M57.654,17.38c0,3.275-1.058,4.914-3.172,4.914c-2.132,0-3.198-1.639-3.198-4.914
			c0-1.36,0.208-2.466,0.624-3.315c0.528-1.064,1.387-1.599,2.574-1.599c1.17,0,2.023,0.533,2.561,1.599
			c0.2,0.426,0.351,0.91,0.455,1.457C57.602,16.066,57.654,16.686,57.654,17.38z M56.718,17.38c0-2.723-0.746-4.082-2.236-4.082
			c-1.491,0-2.236,1.359-2.236,4.082c0,2.729,0.746,4.095,2.236,4.095C55.973,21.474,56.718,20.109,56.718,17.38z"/>
		<path fill="#FF4F5F" d="M59.695,22.15c-0.13-0.024-0.187-0.125-0.169-0.299l0.039-0.455c0.018-0.104,0.087-0.129,0.208-0.078
			c0.217,0.088,0.436,0.148,0.657,0.184s0.47,0.052,0.748,0.052c0.606,0,1.135-0.119,1.586-0.357
			c0.451-0.237,0.819-0.577,1.105-1.021c0.433-0.729,0.659-1.651,0.676-2.77c-0.528,0.851-1.313,1.273-2.353,1.273
			c-0.797,0-1.464-0.203-2.002-0.611c-0.685-0.526-1.027-1.338-1.027-2.431c0-0.962,0.282-1.729,0.845-2.301
			c0.572-0.6,1.352-0.897,2.34-0.897c2.08,0,3.12,1.534,3.12,4.604c0,3.526-1.46,5.291-4.381,5.291
			C60.687,22.333,60.224,22.271,59.695,22.15z M64.453,15.689c0-0.676-0.182-1.243-0.546-1.703
			c-0.399-0.494-0.928-0.739-1.586-0.739c-0.702,0-1.252,0.221-1.651,0.661c-0.39,0.416-0.585,0.972-0.585,1.664
			c0,0.737,0.178,1.311,0.533,1.718h-0.013c0.373,0.397,0.901,0.598,1.586,0.598c0.711,0,1.266-0.199,1.664-0.598
			C64.254,16.874,64.453,16.34,64.453,15.689z"/>
		<path fill="#FF4F5F" d="M67.651,22.15c0-0.182,0.063-0.336,0.188-0.461c0.126-0.125,0.28-0.188,0.462-0.188
			c0.182,0,0.335,0.063,0.461,0.188c0.125,0.125,0.188,0.279,0.188,0.461c0,0.184-0.063,0.336-0.188,0.462
			c-0.126,0.126-0.28,0.188-0.461,0.188c-0.182,0-0.336-0.063-0.462-0.188C67.714,22.486,67.651,22.333,67.651,22.15z"/>
		<path fill="#FF4F5F" d="M74.983,22.06c0,0.121-0.061,0.182-0.182,0.182h-0.533c-0.122,0-0.182-0.061-0.182-0.182v-8.451
			c-0.269,0.228-0.52,0.438-0.754,0.639c-0.234,0.198-0.481,0.41-0.741,0.637c-0.095,0.078-0.182,0.069-0.26-0.026l-0.26-0.312
			c-0.026-0.044-0.039-0.089-0.039-0.138c0-0.048,0.021-0.089,0.065-0.124l2.015-1.688c0.035-0.034,0.087-0.052,0.156-0.052h0.351
			c0.182,0,0.288,0.015,0.318,0.046c0.03,0.028,0.045,0.137,0.045,0.317L74.983,22.06L74.983,22.06z"/>
		<path fill="#FF4F5F" d="M79.39,22.15c-0.13-0.024-0.187-0.125-0.169-0.299l0.039-0.455c0.018-0.104,0.087-0.129,0.208-0.078
			c0.217,0.088,0.436,0.148,0.657,0.184c0.221,0.035,0.47,0.052,0.748,0.052c0.606,0,1.135-0.119,1.586-0.357
			c0.451-0.237,0.819-0.577,1.105-1.021c0.433-0.729,0.659-1.651,0.676-2.77c-0.528,0.851-1.313,1.273-2.353,1.273
			c-0.797,0-1.464-0.203-2.002-0.611c-0.685-0.526-1.027-1.338-1.027-2.431c0-0.962,0.282-1.729,0.845-2.301
			c0.572-0.6,1.352-0.897,2.34-0.897c2.08,0,3.12,1.534,3.12,4.604c0,3.526-1.46,5.291-4.381,5.291
			C80.382,22.333,79.918,22.271,79.39,22.15z M84.148,15.689c0-0.676-0.182-1.243-0.546-1.703c-0.399-0.494-0.928-0.739-1.586-0.739
			c-0.702,0-1.252,0.221-1.651,0.661c-0.39,0.416-0.585,0.972-0.585,1.664c0,0.737,0.178,1.311,0.533,1.718H80.3
			c0.373,0.397,0.901,0.598,1.586,0.598c0.711,0,1.266-0.199,1.664-0.598C83.949,16.874,84.148,16.34,84.148,15.689z"/>
		<path fill="#BEBDC1" d="M95.38,23.374c-0.044,0-0.083-0.021-0.116-0.06c-0.035-0.039-0.053-0.084-0.053-0.137V19.55h-5.044
			c-0.052,0-0.098-0.019-0.136-0.052c-0.039-0.034-0.059-0.073-0.059-0.117v-0.442c0-0.052,0.02-0.093,0.059-0.123
			c0.039-0.029,0.084-0.045,0.136-0.045h11.05c0.043,0,0.088,0.016,0.131,0.045c0.043,0.03,0.064,0.071,0.064,0.123v0.442
			c0,0.044-0.021,0.083-0.064,0.117c-0.043,0.033-0.088,0.052-0.131,0.052h-5.109v3.627c0,0.053-0.014,0.098-0.045,0.137
			c-0.029,0.039-0.07,0.06-0.123,0.06H95.38z M98.734,14.519c-0.199,0.209-0.469,0.426-0.807,0.65
			c-0.338,0.226-0.725,0.451-1.156,0.676c0.26,0.078,0.543,0.165,0.852,0.26c0.307,0.096,0.617,0.188,0.93,0.273
			c0.313,0.087,0.615,0.167,0.909,0.24s0.556,0.133,0.78,0.176c0.111,0.024,0.15,0.087,0.117,0.182l-0.156,0.469
			c-0.025,0.097-0.104,0.129-0.234,0.104c-0.25-0.052-0.551-0.123-0.896-0.215c-0.349-0.091-0.711-0.192-1.093-0.306
			c-0.381-0.112-0.766-0.229-1.149-0.352c-0.387-0.121-0.748-0.238-1.086-0.352c-0.72,0.313-1.474,0.592-2.263,0.84
			c-0.788,0.246-1.524,0.422-2.211,0.524c-0.077,0.019-0.131,0.019-0.161,0c-0.03-0.017-0.056-0.061-0.071-0.129l-0.117-0.416
			c-0.018-0.069-0.015-0.122,0.008-0.156c0.021-0.034,0.053-0.057,0.098-0.064c0.52-0.087,1.094-0.221,1.723-0.403
			c0.628-0.182,1.248-0.39,1.857-0.623c0.611-0.233,1.188-0.485,1.729-0.754c0.541-0.27,0.985-0.533,1.332-0.793
			c0.097-0.07,0.151-0.146,0.169-0.229C97.855,14.041,97.794,14,97.656,14H92.04c-0.112,0-0.169-0.058-0.169-0.169v-0.455
			c0-0.104,0.057-0.156,0.169-0.156h5.968C99.307,13.22,99.549,13.653,98.734,14.519z M97.525,11.646v0.416
			c0,0.131-0.065,0.195-0.195,0.195h-3.497c-0.13,0-0.194-0.064-0.194-0.195v-0.416c0-0.121,0.064-0.182,0.194-0.182h3.497
			C97.46,11.465,97.525,11.525,97.525,11.646z"/>
		<path fill="#BEBDC1" d="M106.65,11.999c0,0.633-0.064,1.222-0.195,1.768c0.104,0.364,0.25,0.711,0.436,1.04
			c0.188,0.329,0.406,0.638,0.658,0.923c0.25,0.286,0.525,0.545,0.824,0.773c0.299,0.229,0.613,0.423,0.943,0.579
			c0.051,0.025,0.074,0.063,0.07,0.109c-0.004,0.048-0.016,0.089-0.031,0.123l-0.273,0.43c-0.025,0.044-0.057,0.073-0.092,0.092
			c-0.034,0.018-0.09,0.005-0.168-0.039c-0.2-0.104-0.428-0.245-0.684-0.423c-0.256-0.179-0.514-0.389-0.773-0.632
			c-0.26-0.241-0.506-0.508-0.74-0.799c-0.234-0.29-0.43-0.592-0.586-0.902c-0.285,0.658-0.671,1.257-1.156,1.794
			c-0.484,0.537-1.053,1.019-1.703,1.442c-0.043,0.025-0.091,0.043-0.143,0.053c-0.053,0.009-0.096-0.01-0.131-0.053l-0.324-0.43
			c-0.025-0.034-0.031-0.078-0.014-0.13c0.017-0.052,0.048-0.091,0.092-0.116c1.031-0.633,1.807-1.431,2.326-2.393
			c0.521-0.963,0.771-2.037,0.754-3.226c0-0.139,0.053-0.207,0.156-0.207l0.611,0.039C106.604,11.816,106.65,11.877,106.65,11.999z
			 M104.753,19.148c0.043-0.025,0.087-0.039,0.13-0.039h6.396c0.406,0,0.674,0.076,0.799,0.228s0.188,0.405,0.188,0.761v3.224
			c0,0.121-0.061,0.184-0.182,0.184h-0.533c-0.121,0-0.183-0.063-0.183-0.184v-3.157c0-0.121-0.021-0.197-0.06-0.229
			c-0.037-0.03-0.119-0.046-0.239-0.046h-6.188c-0.043,0-0.087-0.015-0.13-0.045c-0.044-0.031-0.065-0.067-0.065-0.111v-0.468
			C104.688,19.213,104.709,19.174,104.753,19.148z M111.369,14.221v-2.574c0-0.121,0.061-0.182,0.184-0.182h0.532
			c0.121,0,0.183,0.061,0.183,0.182v6.578c0,0.121-0.062,0.182-0.183,0.182h-0.532c-0.123,0-0.184-0.061-0.184-0.182v-3.224h-2.664
			c-0.113,0-0.17-0.053-0.17-0.156v-0.468c0-0.104,0.057-0.156,0.17-0.156H111.369z"/>
	</g>
	<g>
		<path fill="#2B2333" stroke="#BEBDC1" stroke-width="0.5" stroke-linecap="round" stroke-miterlimit="10" d="M31.712,27.201
			c0,0,3.285-17.629,6.765,0H31.712z"/>
		<path fill="#2B2333" stroke="#BEBDC1" stroke-width="0.5" stroke-linecap="round" stroke-miterlimit="10" d="M32.839,27.201
			c0,0,2.19-11.753,4.51,0H32.839z"/>
		<path fill="#2B2333" stroke="#BEBDC1" stroke-width="0.5" stroke-linecap="round" stroke-miterlimit="10" d="M27.322,13.981
			c0,3.441-2.79,6.233-6.233,6.233c-3.443,0-6.233-2.792-6.233-6.233s2.79-6.232,6.233-6.232
			C24.532,7.749,27.322,10.54,27.322,13.981z"/>
		<path fill="none" stroke="#BEBDC1" stroke-width="0.5" stroke-miterlimit="10" d="M18.261,16.985
			c0.083,0.005,0.364-0.036,0.535-0.034l0.098-0.004c0.177-0.007,0.379-0.076,0.547-0.135c0.267-0.09,0.448-0.215,0.646-0.389
			c0.251-0.223,0.132-0.037-0.051,0.087c-0.028,0.02-0.054,0.043-0.08,0.063c-0.111,0.089-0.209,0.195-0.33,0.269
			c-0.164,0.098-0.363,0.137-0.512,0.256c-0.079,0.063-0.179,0.139-0.211,0.216c-0.04,0.093,0.206,0.009,0.303,0.041
			c0.131,0.045,0.174,0.042,0.085,0.159c-0.053,0.071-0.163,0.142-0.231,0.201c-0.117,0.104,0.311,0.267,0.404,0.307
			c0.302,0.13,0.543,0.176,0.877,0.163c0.369-0.016,0.713-0.076,1.08-0.123c0.295-0.039,0.453-0.083,0.134,0.116l-0.092,0.058
			l-0.09,0.058c-0.167,0.104-0.393,0.189-0.595,0.176c-0.314-0.021-0.646,0.134-0.96,0.072c-0.127-0.023-0.238-0.08-0.366-0.104
			c-0.128-0.023,0.122,0.217,0.164,0.266c0.422,0.495-0.531-0.15-0.646-0.237c-0.189-0.145-0.254-0.255-0.472-0.279
			c-0.074-0.008,0.127,0.327,0.139,0.341c0.1,0.113,0.148,0.271,0.277,0.367c0.215,0.163-0.499-0.272-0.651-0.462l-0.381-0.462
			c-0.065-0.081-0.155-0.131-0.24-0.166c-0.017-0.008-0.146,0.213-0.164,0.236c-0.112,0.146-0.239,0.232-0.149-0.033
			c0.048-0.146,0.068-0.32,0.161-0.444c0.059-0.077-0.193,0.039-0.288,0.065c-0.133,0.037-0.359,0.063-0.388,0.05
			c-0.004-0.001,0.17-0.088,0.272-0.17c0.076-0.062,0.354-0.169,0.287-0.253c-0.063-0.077-0.181-0.145-0.247-0.219
			c-0.1-0.112-0.209-0.229-0.278-0.368c-0.134-0.268-0.394-0.616-0.581-0.85c-0.017-0.021-0.084-0.65-0.002-0.08
			c0.055,0.378,0.282,0.779,0.585,1.011c0.097,0.073,0.271,0.146,0.378,0.192c0.066,0.027,0.204,0.003,0.283,0.025
			c0.086,0.023-0.034-0.175-0.038-0.265l-0.005-0.099c-0.019-0.352,0.143-0.696,0.09-1.062c-0.008-0.061-0.07-0.998,0.017-0.632
			c0.091,0.381,0.18,0.727,0.206,1.112c0.012,0.199-0.016,0.423-0.01,0.621c0.006,0.198,0.098,0.034,0.133-0.071
			c0.076-0.227,0.296-0.453,0.438-0.641c0.189-0.249-0.063,0.354-0.085,0.405c-0.063,0.147-0.12,0.358,0.07,0.306
			c0.198-0.056,0.229-0.07,0.104,0.095l-0.03,0.039C18.355,16.84,18.298,16.909,18.261,16.985L18.261,16.985z"/>
		<path fill="#2B2333" stroke="#BEBDC1" stroke-width="0.5" stroke-linecap="round" stroke-miterlimit="10" d="M25.574,27.201
			c0,0,4.009-21.515,8.256,0H25.574z"/>
		<path fill="#2B2333" stroke="#BEBDC1" stroke-width="0.5" stroke-linecap="round" stroke-miterlimit="10" d="M26.95,27.201
			c0,0,2.673-14.344,5.504,0H26.95z"/>
		
			<line fill="none" stroke="#BEBDC1" stroke-width="0.5" stroke-linecap="round" stroke-miterlimit="10" x1="38.476" y1="27.201" x2="12.316" y2="27.201"/>
	</g>
</g>
</svg>
