<?xml version="1.0" encoding="utf-8"?>
<!-- Generator: Adobe Illustrator 15.1.0, SVG Export Plug-In . SVG Version: 6.00 Build 0)  -->
<!DOCTYPE svg PUBLIC "-//W3C//DTD SVG 1.1//EN" "http://www.w3.org/Graphics/SVG/1.1/DTD/svg11.dtd">
<svg version="1.1" id="Layer_1" xmlns="http://www.w3.org/2000/svg" xmlns:xlink="http://www.w3.org/1999/xlink" x="0px" y="0px"
	 width="180px" height="35px" viewBox="0 -0.269 180 35" enable-background="new 0 -0.269 180 35" xml:space="preserve">
<g id="현충일">
	<g>
		<rect x="0.499" y="0.231" fill="#2B2333" width="179" height="34"/>
		<path fill="#BEBDC1" d="M179,0.731v33H1v-33H179 M180-0.269H0v35h180V-0.269L180-0.269z"/>
	</g>
	<g>
		<path fill="#FF4F5F" d="M57.654,17.381c0,3.274-1.058,4.914-3.172,4.914c-2.132,0-3.198-1.64-3.198-4.914
			c0-1.361,0.208-2.466,0.624-3.315c0.528-1.064,1.387-1.599,2.574-1.599c1.17,0,2.023,0.532,2.561,1.599
			c0.2,0.426,0.351,0.91,0.455,1.456S57.654,16.687,57.654,17.381z M56.718,17.381c0-2.722-0.746-4.082-2.236-4.082
			c-1.491,0-2.236,1.36-2.236,4.082c0,2.729,0.746,4.095,2.236,4.095C55.973,21.475,56.718,20.11,56.718,17.381z"/>
		<path fill="#FF4F5F" d="M64.96,13.48c-0.199-0.068-0.427-0.125-0.682-0.169c-0.256-0.044-0.509-0.065-0.761-0.065
			c-1.179,0-2.05,0.426-2.613,1.274c-0.477,0.71-0.724,1.687-0.741,2.925c0.19-0.347,0.468-0.641,0.832-0.884
			c0.451-0.321,0.958-0.481,1.521-0.481c0.789,0,1.452,0.209,1.989,0.625c0.684,0.527,1.027,1.334,1.027,2.418
			c0,0.919-0.282,1.682-0.845,2.287c-0.572,0.615-1.343,0.925-2.314,0.925c-2.08,0-3.12-1.535-3.12-4.604
			c0-1.604,0.321-2.854,0.962-3.757c0.754-1.023,1.889-1.534,3.406-1.534c0.225,0,0.461,0.019,0.708,0.052
			c0.247,0.035,0.475,0.082,0.683,0.144c0.13,0.026,0.186,0.104,0.169,0.233l-0.026,0.481c0,0.062-0.022,0.103-0.065,0.123
			C65.047,13.496,65.003,13.498,64.96,13.48z M64.622,19.187c0-0.701-0.182-1.257-0.546-1.664c-0.364-0.416-0.884-0.624-1.56-0.624
			c-0.347,0-0.659,0.054-0.936,0.163c-0.277,0.107-0.514,0.258-0.708,0.447c-0.195,0.191-0.347,0.421-0.455,0.689
			c-0.108,0.27-0.163,0.563-0.163,0.885c0,0.657,0.182,1.213,0.546,1.664c0.398,0.526,0.931,0.793,1.599,0.793
			c0.685,0,1.235-0.23,1.651-0.689C64.432,20.418,64.622,19.863,64.622,19.187z"/>
		<path fill="#FF4F5F" d="M67.651,22.151c0-0.183,0.063-0.336,0.188-0.462c0.126-0.125,0.28-0.188,0.462-0.188
			c0.182,0,0.335,0.063,0.461,0.188c0.125,0.126,0.188,0.279,0.188,0.462c0,0.184-0.063,0.336-0.188,0.462
			c-0.126,0.125-0.28,0.188-0.461,0.188c-0.182,0-0.336-0.063-0.462-0.188C67.714,22.487,67.651,22.334,67.651,22.151z"/>
		<path fill="#FF4F5F" d="M77.349,17.381c0,3.274-1.058,4.914-3.172,4.914c-2.132,0-3.198-1.64-3.198-4.914
			c0-1.361,0.208-2.466,0.624-3.315c0.528-1.064,1.387-1.599,2.574-1.599c1.17,0,2.023,0.532,2.561,1.599
			c0.2,0.426,0.351,0.91,0.455,1.456S77.349,16.687,77.349,17.381z M76.413,17.381c0-2.722-0.746-4.082-2.236-4.082
			c-1.491,0-2.236,1.36-2.236,4.082c0,2.729,0.746,4.095,2.236,4.095C75.667,21.475,76.413,20.11,76.413,17.381z"/>
		<path fill="#FF4F5F" d="M84.655,13.48c-0.199-0.068-0.427-0.125-0.682-0.169c-0.256-0.044-0.509-0.065-0.761-0.065
			c-1.179,0-2.05,0.426-2.613,1.274c-0.477,0.71-0.724,1.687-0.741,2.925c0.19-0.347,0.468-0.641,0.832-0.884
			c0.451-0.321,0.958-0.481,1.521-0.481c0.789,0,1.452,0.209,1.989,0.625c0.684,0.527,1.027,1.334,1.027,2.418
			c0,0.919-0.282,1.682-0.845,2.287c-0.572,0.615-1.343,0.925-2.314,0.925c-2.08,0-3.12-1.535-3.12-4.604
			c0-1.604,0.321-2.854,0.962-3.757c0.754-1.023,1.889-1.534,3.406-1.534c0.225,0,0.461,0.019,0.708,0.052
			c0.247,0.035,0.475,0.082,0.683,0.144c0.13,0.026,0.186,0.104,0.169,0.233L84.85,13.35c0,0.062-0.022,0.103-0.065,0.123
			C84.742,13.496,84.698,13.498,84.655,13.48z M84.317,19.187c0-0.701-0.182-1.257-0.546-1.664c-0.364-0.416-0.884-0.624-1.56-0.624
			c-0.347,0-0.659,0.054-0.936,0.163c-0.277,0.107-0.514,0.258-0.708,0.447c-0.195,0.191-0.347,0.421-0.455,0.689
			c-0.108,0.27-0.163,0.563-0.163,0.885c0,0.657,0.182,1.213,0.546,1.664c0.398,0.526,0.931,0.793,1.599,0.793
			c0.685,0,1.235-0.23,1.651-0.689C84.126,20.418,84.317,19.863,84.317,19.187z"/>
		<path fill="#BEBDC1" d="M97.434,14.351H90.7c-0.044,0-0.085-0.018-0.124-0.053c-0.039-0.034-0.059-0.078-0.059-0.129v-0.416
			c0-0.053,0.02-0.096,0.059-0.131c0.039-0.034,0.08-0.053,0.124-0.053h6.733c0.131,0,0.194,0.057,0.194,0.17v0.44
			C97.629,14.295,97.564,14.351,97.434,14.351z M96.797,17.224c0,0.313-0.068,0.605-0.207,0.884
			c-0.14,0.278-0.328,0.521-0.566,0.728c-0.237,0.21-0.521,0.371-0.852,0.488c-0.328,0.117-0.685,0.176-1.066,0.176
			c-0.381,0-0.735-0.059-1.064-0.176s-0.613-0.278-0.852-0.488c-0.238-0.206-0.426-0.449-0.561-0.728
			c-0.134-0.276-0.201-0.571-0.201-0.884s0.067-0.605,0.201-0.878c0.135-0.272,0.321-0.511,0.561-0.715
			c0.238-0.204,0.521-0.364,0.852-0.481s0.686-0.175,1.064-0.175c0.383,0,0.738,0.058,1.066,0.175
			c0.33,0.117,0.613,0.277,0.852,0.481c0.24,0.204,0.428,0.442,0.566,0.715C96.727,16.619,96.797,16.912,96.797,17.224z
			 M95.783,12.583h-3.432c-0.045,0-0.086-0.016-0.125-0.045c-0.039-0.03-0.059-0.071-0.059-0.125v-0.44
			c0-0.053,0.018-0.097,0.053-0.131c0.034-0.034,0.073-0.052,0.116-0.052h3.445c0.13,0,0.194,0.062,0.194,0.183v0.429
			C95.979,12.523,95.913,12.583,95.783,12.583z M95.913,17.224c0-0.209-0.046-0.4-0.137-0.578s-0.218-0.332-0.378-0.462
			c-0.159-0.13-0.35-0.231-0.57-0.306c-0.223-0.074-0.462-0.11-0.723-0.11c-0.26,0-0.498,0.036-0.715,0.11s-0.408,0.176-0.572,0.306
			s-0.292,0.284-0.383,0.462c-0.092,0.178-0.137,0.369-0.137,0.578c0,0.207,0.045,0.402,0.137,0.585
			c0.091,0.183,0.219,0.338,0.383,0.468c0.164,0.131,0.355,0.234,0.572,0.313s0.455,0.116,0.715,0.116
			c0.261,0,0.5-0.039,0.723-0.116c0.221-0.078,0.411-0.183,0.57-0.313c0.16-0.13,0.287-0.285,0.378-0.468
			S95.913,17.431,95.913,17.224z M100.385,23.217c-0.043,0.026-0.086,0.039-0.13,0.039h-6.538c-0.408,0-0.675-0.076-0.801-0.228
			c-0.125-0.151-0.188-0.405-0.188-0.761v-1.716c0-0.121,0.061-0.183,0.182-0.183h0.533c0.121,0,0.182,0.062,0.182,0.183v1.65
			c0,0.12,0.02,0.196,0.059,0.228s0.119,0.046,0.24,0.046h6.331c0.044,0,0.087,0.015,0.13,0.045
			c0.043,0.031,0.065,0.067,0.065,0.111V23.1C100.45,23.152,100.428,23.191,100.385,23.217z M99.15,15.208v-3.562
			c0-0.122,0.061-0.183,0.182-0.183h0.533c0.121,0,0.182,0.061,0.182,0.183v8.905c0,0.121-0.061,0.182-0.182,0.182h-0.533
			c-0.121,0-0.182-0.061-0.182-0.182v-2.08h-1.639c-0.113,0-0.168-0.053-0.168-0.156v-0.455c0-0.104,0.055-0.156,0.168-0.156h1.639
			v-1.729h-1.639c-0.113,0-0.168-0.053-0.168-0.156v-0.455c0-0.104,0.055-0.156,0.168-0.156H99.15z"/>
		<path fill="#BEBDC1" d="M113.566,17.621c0.043,0.031,0.064,0.072,0.064,0.123v0.442c0,0.044-0.021,0.083-0.064,0.116
			c-0.043,0.035-0.086,0.053-0.131,0.053h-5.096v1.17c0.383,0.018,0.784,0.063,1.209,0.137c0.426,0.073,0.814,0.187,1.17,0.339
			c0.355,0.15,0.647,0.352,0.879,0.598c0.229,0.247,0.344,0.557,0.344,0.93c0,0.416-0.139,0.754-0.416,1.015
			c-0.277,0.26-0.621,0.467-1.033,0.616c-0.412,0.152-0.854,0.257-1.326,0.313c-0.472,0.057-0.898,0.084-1.279,0.084
			c-0.252,0-0.526-0.01-0.826-0.031c-0.299-0.021-0.598-0.063-0.896-0.124s-0.587-0.142-0.863-0.241
			c-0.277-0.099-0.524-0.223-0.742-0.368c-0.217-0.148-0.39-0.326-0.521-0.533c-0.129-0.209-0.194-0.451-0.194-0.729
			c0-0.362,0.117-0.67,0.352-0.916c0.234-0.248,0.529-0.448,0.885-0.604c0.355-0.155,0.742-0.271,1.163-0.345
			s0.821-0.118,1.202-0.137v-1.17h-5.057c-0.053,0-0.099-0.018-0.138-0.053c-0.039-0.033-0.059-0.072-0.059-0.116v-0.442
			c0-0.051,0.02-0.092,0.059-0.123c0.039-0.029,0.085-0.045,0.138-0.045h11.049C113.48,17.576,113.523,17.591,113.566,17.621z
			 M110.746,14.299c-0.469,0.33-1.027,0.646-1.678,0.948c0.477,0.14,0.996,0.268,1.561,0.385c0.563,0.117,1.105,0.21,1.625,0.279
			c0.069,0.009,0.11,0.027,0.123,0.059c0.014,0.029,0.012,0.076-0.006,0.137l-0.117,0.442c-0.018,0.096-0.087,0.129-0.208,0.104
			c-0.278-0.043-0.587-0.099-0.93-0.162c-0.343-0.065-0.695-0.14-1.06-0.222c-0.363-0.083-0.729-0.17-1.092-0.261
			c-0.365-0.092-0.716-0.186-1.054-0.279c-0.59,0.217-1.226,0.414-1.903,0.592c-0.683,0.178-1.406,0.332-2.179,0.461
			c-0.131,0.026-0.213-0.004-0.248-0.09l-0.155-0.441c-0.018-0.045-0.013-0.088,0.014-0.131c0.025-0.043,0.064-0.068,0.117-0.078
			c0.614-0.112,1.19-0.236,1.729-0.37s1.049-0.28,1.535-0.437c0.484-0.154,0.955-0.324,1.41-0.507
			c0.455-0.182,0.908-0.381,1.357-0.598c0.147-0.07,0.215-0.136,0.201-0.195c-0.013-0.06-0.089-0.092-0.229-0.092h-5.174
			c-0.113,0-0.168-0.056-0.168-0.168v-0.455c0-0.104,0.055-0.156,0.168-0.156h5.616c0.677,0,1.087,0.119,1.235,0.357
			C111.387,13.66,111.223,13.953,110.746,14.299z M110.992,21.542c0-0.262-0.116-0.472-0.352-0.632
			c-0.232-0.159-0.518-0.283-0.852-0.37c-0.333-0.087-0.676-0.144-1.025-0.169c-0.353-0.026-0.646-0.038-0.879-0.038
			c-0.242,0-0.539,0.012-0.891,0.038c-0.352,0.025-0.688,0.082-1.014,0.169c-0.325,0.087-0.604,0.211-0.84,0.37
			c-0.234,0.16-0.351,0.37-0.351,0.632c0,0.26,0.116,0.467,0.351,0.623c0.235,0.155,0.515,0.276,0.84,0.363
			c0.324,0.087,0.662,0.145,1.014,0.169c0.352,0.025,0.646,0.039,0.891,0.039c0.233,0,0.526-0.014,0.879-0.039
			c0.351-0.024,0.692-0.082,1.025-0.169c0.334-0.087,0.618-0.208,0.852-0.363C110.876,22.008,110.992,21.801,110.992,21.542z
			 M109.744,11.647v0.416c0,0.13-0.064,0.194-0.193,0.194h-3.42c-0.13,0-0.195-0.064-0.195-0.194v-0.416
			c0-0.122,0.065-0.183,0.195-0.183h3.42C109.68,11.465,109.744,11.525,109.744,11.647z"/>
		<path fill="#BEBDC1" d="M121.264,14.585c0,0.406-0.082,0.781-0.242,1.125c-0.159,0.343-0.379,0.64-0.655,0.891
			s-0.603,0.448-0.976,0.591c-0.373,0.144-0.771,0.216-1.195,0.216c-0.416,0-0.805-0.069-1.163-0.209
			c-0.358-0.138-0.677-0.33-0.949-0.578c-0.272-0.246-0.487-0.543-0.644-0.891c-0.155-0.347-0.233-0.729-0.233-1.145
			c0-0.441,0.078-0.838,0.233-1.188c0.156-0.353,0.369-0.647,0.644-0.891c0.272-0.243,0.591-0.431,0.949-0.56
			c0.358-0.131,0.747-0.195,1.163-0.195c0.39,0,0.77,0.064,1.138,0.195c0.368,0.129,0.695,0.315,0.981,0.56
			c0.285,0.241,0.516,0.538,0.688,0.891C121.176,13.748,121.264,14.143,121.264,14.585z M120.352,14.572
			c0-0.32-0.061-0.605-0.183-0.856c-0.12-0.252-0.28-0.46-0.479-0.625c-0.199-0.164-0.43-0.289-0.689-0.377
			c-0.26-0.087-0.527-0.13-0.806-0.13c-0.286,0-0.558,0.041-0.813,0.123c-0.255,0.082-0.477,0.205-0.662,0.371
			c-0.187,0.164-0.334,0.373-0.441,0.623c-0.109,0.252-0.163,0.543-0.163,0.871c0,0.313,0.052,0.592,0.155,0.838
			c0.104,0.248,0.25,0.461,0.437,0.639s0.405,0.313,0.656,0.402c0.251,0.092,0.528,0.138,0.832,0.138
			c0.276,0,0.546-0.046,0.806-0.138s0.49-0.223,0.689-0.396s0.359-0.386,0.479-0.638C120.292,15.166,120.352,14.885,120.352,14.572z
			 M124.76,23.334c0,0.043-0.02,0.08-0.059,0.11c-0.039,0.029-0.076,0.045-0.111,0.045h-6.539c-0.406,0-0.674-0.075-0.799-0.228
			s-0.188-0.409-0.188-0.773v-0.976c0-0.363,0.074-0.607,0.228-0.734c0.151-0.125,0.422-0.188,0.813-0.188h5.199
			c0.121,0,0.199-0.019,0.233-0.053c0.035-0.034,0.054-0.117,0.054-0.246V19.55c0-0.129-0.017-0.212-0.047-0.246
			c-0.029-0.035-0.105-0.053-0.229-0.053h-6.096c-0.045,0-0.086-0.014-0.125-0.039s-0.059-0.062-0.059-0.104v-0.469
			c0-0.043,0.02-0.077,0.059-0.104c0.039-0.024,0.08-0.039,0.125-0.039h6.238c0.209,0,0.377,0.017,0.508,0.047
			c0.131,0.029,0.234,0.08,0.313,0.148c0.078,0.069,0.132,0.167,0.162,0.293c0.029,0.125,0.046,0.279,0.046,0.461v0.976
			c0,0.363-0.076,0.608-0.228,0.733c-0.152,0.127-0.424,0.189-0.813,0.189h-5.214c-0.121,0-0.196,0.018-0.228,0.052
			c-0.03,0.034-0.045,0.116-0.045,0.247v0.793c0,0.121,0.017,0.201,0.052,0.24c0.034,0.039,0.112,0.059,0.233,0.059h6.332
			c0.043,0,0.084,0.015,0.123,0.039c0.039,0.025,0.06,0.062,0.06,0.104V23.334L124.76,23.334z M124.305,17.744h-0.533
			c-0.12,0-0.182-0.061-0.182-0.182v-5.915c0-0.122,0.062-0.183,0.182-0.183h0.533c0.121,0,0.183,0.061,0.183,0.183v5.915
			C124.486,17.683,124.426,17.744,124.305,17.744z"/>
	</g>
	<g>
		<path fill="#2B2333" stroke="#BEBDC1" stroke-width="0.5" stroke-linecap="round" stroke-miterlimit="10" d="M25.715,25.372
			c1.124-0.911-0.826,1.989-0.56,2.353c0.217,0.297,0.679,0.345,1.252,0.224c1.278-0.269,2.12-1.913,2.12-1.913l0.821,0.237
			c0,0-0.763,2.312-2.874,2.268C24.364,28.492,23.831,26.897,25.715,25.372z"/>
		<path fill="#2B2333" stroke="#BEBDC1" stroke-width="0.5" stroke-linecap="round" stroke-miterlimit="10" d="M28.177,26.092
			l-0.164,0.715l0.86,0.382l0.729-0.591C29.603,26.598,28.786,25.959,28.177,26.092z"/>
		<path fill="#2B2333" stroke="#BEBDC1" stroke-width="0.5" stroke-linecap="round" stroke-miterlimit="10" d="M29.097,20.507
			c3.93-0.108,4.735,2.566,4.801,5.494c0,0,0.391,0.838-0.187,0.951c-0.578,0.115-2.01,0.106-2.482,0.072
			c-1.055-0.077-1.437-0.434-2.537-0.731c-3.102-0.845-4.605-0.485-4.735-0.732c-0.13-0.248,0.711-0.829,0.711-0.829
			C24.707,23.867,24.631,20.629,29.097,20.507"/>
		<polygon fill="#2B2333" stroke="#BEBDC1" stroke-width="0.5" stroke-linecap="round" stroke-miterlimit="10" points="
			21.187,28.256 20.462,28.455 13.076,7.852 13.781,7.6 		"/>
		
			<circle fill="#2B2333" stroke="#BEBDC1" stroke-width="0.5" stroke-linecap="round" stroke-miterlimit="10" cx="13.428" cy="7.727" r="0.873"/>
		<path fill="#2B2333" stroke="#BEBDC1" stroke-width="0.5" stroke-linecap="round" stroke-miterlimit="10" d="M29.199,18.451
			c-3.99-0.526-6.227,4.186-10.216,3.657c-1-2.792-2-5.586-3-8.378c3.99,0.526,6.226-4.186,10.216-3.658
			C27.198,12.865,28.199,15.658,29.199,18.451L29.199,18.451z"/>
		<path fill="none" stroke="#BEBDC1" stroke-width="0.5" stroke-miterlimit="10" d="M22.207,16.828
			c-0.465,0.166-0.793-0.037-1.124-0.229c0.003,0.01,0.007,0.02,0.01,0.025c0.329,0.923,1.342,1.4,2.263,1.072
			c0.92-0.33,1.4-1.344,1.07-2.266c-0.042-0.113-0.093-0.223-0.155-0.323c-0.189-0.062-0.397-0.077-0.643,0.011
			C22.727,15.441,23.107,16.505,22.207,16.828L22.207,16.828z"/>
		<path fill="#BEBDC1" stroke="#BEBDC1" stroke-width="0.5" stroke-miterlimit="10" d="M22.162,14.365
			c-0.911,0.326-1.39,1.319-1.079,2.234c0.331,0.191,0.659,0.395,1.124,0.229c0.9-0.322,0.52-1.387,1.42-1.709
			c0.246-0.088,0.454-0.07,0.643-0.01C23.844,14.406,22.968,14.076,22.162,14.365L22.162,14.365z"/>
		<polygon fill="#BEBDC1" points="25.426,13.145 23.963,12.291 24.13,12.005 25.594,12.859 		"/>
		<polygon fill="#BEBDC1" points="24.397,13.078 23.73,12.688 23.897,12.404 24.563,12.792 		"/>
		<polygon fill="#BEBDC1" points="25.193,13.544 24.527,13.154 24.693,12.869 25.361,13.258 		"/>
		<polygon fill="#BEBDC1" points="24.961,13.943 23.497,13.087 23.665,12.802 25.128,13.656 		"/>
		<polygon fill="#BEBDC1" points="21.057,18.794 20.39,18.404 20.557,18.119 21.224,18.508 		"/>
		<polygon fill="#BEBDC1" points="21.853,19.259 21.187,18.871 21.354,18.583 22.02,18.973 		"/>
		<polygon fill="#BEBDC1" points="20.591,19.591 19.924,19.201 20.092,18.914 20.758,19.305 		"/>
		<polygon fill="#BEBDC1" points="21.388,20.055 20.721,19.666 20.888,19.382 21.555,19.77 		"/>
		<polygon fill="#BEBDC1" points="21.621,19.658 20.158,18.802 20.325,18.515 21.788,19.373 		"/>
		<polygon fill="#BEBDC1" points="19.455,13.904 18.867,15.494 18.556,15.38 19.144,13.789 		"/>
		<polygon fill="#BEBDC1" points="19.888,14.064 19.299,15.654 18.989,15.539 19.577,13.949 		"/>
		<polygon fill="#BEBDC1" points="20.32,14.225 19.732,15.814 19.422,15.699 20.01,14.109 		"/>
		<polygon fill="#BEBDC1" points="25.776,17.225 25.508,17.949 25.198,17.835 25.466,17.111 		"/>
		<polygon fill="#BEBDC1" points="26.097,16.361 25.829,17.085 25.517,16.97 25.786,16.246 		"/>
		<polygon fill="#BEBDC1" points="26.209,17.387 25.941,18.111 25.631,17.996 25.898,17.271 		"/>
		<polygon fill="#BEBDC1" points="26.529,16.52 26.261,17.246 25.951,17.129 26.218,16.406 		"/>
		<polygon fill="#BEBDC1" points="26.641,17.545 26.373,18.269 26.063,18.156 26.33,17.431 		"/>
		<polygon fill="#BEBDC1" points="26.962,16.681 26.694,17.406 26.383,17.291 26.652,16.565 		"/>
	</g>
</g>
</svg>
