<?xml version="1.0" encoding="utf-8"?>
<!-- Generator: Adobe Illustrator 15.1.0, SVG Export Plug-In . SVG Version: 6.00 Build 0)  -->
<!DOCTYPE svg PUBLIC "-//W3C//DTD SVG 1.1//EN" "http://www.w3.org/Graphics/SVG/1.1/DTD/svg11.dtd">
<svg version="1.1" id="Layer_1" xmlns="http://www.w3.org/2000/svg" xmlns:xlink="http://www.w3.org/1999/xlink" x="0px" y="0px"
	 width="180px" height="35px" viewBox="0 -0.269 180 35" enable-background="new 0 -0.269 180 35" xml:space="preserve">
<g id="한글날">
	<g>
		<rect x="0.499" y="0.231" fill="#2B2333" width="179" height="34"/>
		<path fill="#BEBDC1" d="M179,0.731v33H1v-33H179 M180-0.269H0v35h180V-0.269L180-0.269z"/>
	</g>
	<g>
		<path fill="#FF4F5F" d="M55.288,22.059c0,0.121-0.061,0.183-0.182,0.183h-0.533c-0.122,0-0.182-0.062-0.182-0.183V13.61
			c-0.269,0.226-0.52,0.438-0.754,0.638c-0.234,0.199-0.481,0.411-0.741,0.637c-0.095,0.078-0.182,0.068-0.26-0.025l-0.26-0.313
			c-0.026-0.044-0.039-0.09-0.039-0.137c0-0.048,0.021-0.089,0.065-0.124l2.015-1.69c0.035-0.032,0.087-0.051,0.156-0.051h0.351
			c0.182,0,0.288,0.015,0.318,0.045c0.03,0.03,0.045,0.137,0.045,0.318L55.288,22.059L55.288,22.059z"/>
		<path fill="#FF4F5F" d="M65.532,17.379c0,3.275-1.058,4.914-3.172,4.914c-2.132,0-3.198-1.639-3.198-4.914
			c0-1.361,0.208-2.466,0.624-3.314c0.528-1.065,1.387-1.6,2.574-1.6c1.17,0,2.023,0.533,2.561,1.6
			c0.2,0.425,0.351,0.909,0.455,1.456C65.48,16.067,65.532,16.686,65.532,17.379z M64.596,17.379c0-2.722-0.746-4.082-2.236-4.082
			c-1.491,0-2.236,1.36-2.236,4.082c0,2.729,0.746,4.095,2.236,4.095C63.85,21.474,64.596,20.11,64.596,17.379z"/>
		<path fill="#FF4F5F" d="M67.651,22.151c0-0.184,0.063-0.336,0.188-0.462c0.126-0.125,0.28-0.188,0.462-0.188
			c0.182,0,0.335,0.063,0.461,0.188c0.125,0.126,0.188,0.278,0.188,0.462c0,0.183-0.063,0.336-0.188,0.462
			c-0.126,0.125-0.28,0.188-0.461,0.188c-0.182,0-0.336-0.063-0.462-0.188C67.714,22.487,67.651,22.333,67.651,22.151z"/>
		<path fill="#FF4F5F" d="M77.349,17.379c0,3.275-1.058,4.914-3.172,4.914c-2.132,0-3.198-1.639-3.198-4.914
			c0-1.361,0.208-2.466,0.624-3.314c0.528-1.065,1.387-1.6,2.574-1.6c1.17,0,2.023,0.533,2.561,1.6
			c0.2,0.425,0.351,0.909,0.455,1.456C77.297,16.067,77.349,16.686,77.349,17.379z M76.413,17.379c0-2.722-0.746-4.082-2.236-4.082
			c-1.491,0-2.236,1.36-2.236,4.082c0,2.729,0.746,4.095,2.236,4.095C75.667,21.474,76.413,20.11,76.413,17.379z"/>
		<path fill="#FF4F5F" d="M79.39,22.151c-0.13-0.026-0.187-0.126-0.169-0.3l0.039-0.454c0.018-0.104,0.087-0.131,0.208-0.078
			c0.217,0.087,0.436,0.146,0.657,0.183c0.221,0.034,0.47,0.051,0.748,0.051c0.606,0,1.135-0.119,1.586-0.356
			c0.451-0.238,0.819-0.578,1.105-1.021c0.433-0.729,0.659-1.65,0.676-2.77c-0.528,0.85-1.313,1.272-2.353,1.272
			c-0.797,0-1.464-0.203-2.002-0.609c-0.685-0.528-1.027-1.339-1.027-2.432c0-0.963,0.282-1.729,0.845-2.301
			c0.572-0.599,1.352-0.896,2.34-0.896c2.08,0,3.12,1.533,3.12,4.603c0,3.527-1.46,5.291-4.381,5.291
			C80.382,22.333,79.918,22.272,79.39,22.151z M84.148,15.69c0-0.678-0.182-1.243-0.546-1.703c-0.399-0.494-0.928-0.741-1.586-0.741
			c-0.702,0-1.252,0.221-1.651,0.663c-0.39,0.416-0.585,0.971-0.585,1.664c0,0.736,0.178,1.31,0.533,1.716H80.3
			c0.373,0.398,0.901,0.598,1.586,0.598c0.711,0,1.266-0.198,1.664-0.598C83.949,16.873,84.148,16.338,84.148,15.69z"/>
		<path fill="#BEBDC1" d="M97.564,14.35h-7.176c-0.045,0-0.086-0.018-0.125-0.053c-0.039-0.034-0.059-0.078-0.059-0.129v-0.416
			c0-0.053,0.02-0.096,0.059-0.131c0.039-0.034,0.08-0.052,0.125-0.052h7.176c0.129,0,0.193,0.057,0.193,0.169v0.44
			C97.76,14.293,97.693,14.35,97.564,14.35z M96.667,17.223c0,0.313-0.069,0.606-0.208,0.885c-0.139,0.277-0.326,0.521-0.564,0.728
			c-0.238,0.209-0.522,0.371-0.853,0.488S94.357,19.5,93.977,19.5s-0.736-0.059-1.065-0.176c-0.33-0.117-0.612-0.279-0.853-0.488
			c-0.237-0.207-0.424-0.45-0.559-0.728s-0.201-0.572-0.201-0.885s0.066-0.604,0.201-0.878c0.135-0.271,0.32-0.511,0.559-0.715
			c0.24-0.204,0.521-0.364,0.853-0.48c0.329-0.117,0.685-0.176,1.065-0.176s0.736,0.059,1.065,0.176
			c0.329,0.116,0.613,0.276,0.853,0.48c0.238,0.204,0.427,0.442,0.564,0.715C96.598,16.619,96.667,16.912,96.667,17.223z
			 M95.666,12.583h-3.563c-0.043,0-0.084-0.014-0.123-0.039c-0.039-0.026-0.06-0.064-0.06-0.117v-0.455
			c0-0.053,0.019-0.096,0.054-0.131c0.033-0.034,0.071-0.051,0.115-0.051h3.575c0.13,0,0.195,0.061,0.195,0.182v0.441
			C95.861,12.527,95.796,12.583,95.666,12.583z M95.783,17.223c0-0.209-0.046-0.399-0.137-0.577
			c-0.092-0.179-0.217-0.332-0.377-0.463c-0.16-0.13-0.353-0.23-0.572-0.306c-0.221-0.075-0.461-0.11-0.721-0.11
			c-0.262,0-0.5,0.036-0.715,0.11c-0.218,0.074-0.408,0.176-0.572,0.306c-0.166,0.131-0.293,0.284-0.385,0.463
			c-0.09,0.178-0.137,0.368-0.137,0.577c0,0.207,0.047,0.402,0.137,0.585c0.092,0.183,0.219,0.339,0.385,0.469
			c0.164,0.13,0.354,0.233,0.572,0.313c0.215,0.078,0.453,0.117,0.715,0.117c0.26,0,0.5-0.039,0.721-0.117s0.412-0.183,0.572-0.313
			s0.285-0.286,0.377-0.469C95.737,17.625,95.783,17.43,95.783,17.223z M100.111,23.215c-0.043,0.026-0.086,0.039-0.129,0.039
			h-6.709c-0.406,0-0.674-0.076-0.799-0.227c-0.127-0.152-0.188-0.406-0.188-0.762v-1.794c0-0.12,0.062-0.182,0.183-0.182h0.532
			c0.121,0,0.183,0.062,0.183,0.182v1.742c0,0.121,0.021,0.194,0.06,0.222c0.039,0.024,0.118,0.038,0.239,0.038h6.5
			c0.043,0,0.087,0.016,0.13,0.046c0.044,0.03,0.065,0.066,0.065,0.11v0.468C100.178,23.152,100.155,23.191,100.111,23.215z
			 M99.41,20.708h-0.533c-0.121,0-0.182-0.061-0.182-0.183v-8.879c0-0.122,0.061-0.184,0.182-0.184h0.533
			c0.121,0,0.182,0.062,0.182,0.184v4.303h1.795c0.051,0,0.098,0.016,0.137,0.046s0.059,0.071,0.059,0.123v0.441
			c0,0.045-0.02,0.083-0.059,0.116c-0.039,0.035-0.086,0.054-0.137,0.054h-1.795v3.796C99.592,20.648,99.531,20.708,99.41,20.708z"
			/>
		<path fill="#BEBDC1" d="M113.566,15.852c0.043,0.029,0.064,0.07,0.064,0.123v0.441c0,0.044-0.021,0.083-0.064,0.117
			c-0.043,0.035-0.086,0.053-0.131,0.053h-11.049c-0.053,0-0.099-0.018-0.138-0.053c-0.039-0.034-0.06-0.073-0.06-0.117v-0.441
			c0-0.053,0.021-0.094,0.06-0.123c0.039-0.03,0.085-0.047,0.138-0.047h8.229c0.07-0.225,0.126-0.469,0.17-0.733
			c0.043-0.265,0.078-0.527,0.104-0.793c0.025-0.265,0.043-0.523,0.053-0.779c0.009-0.256,0.013-0.488,0.013-0.695
			c0-0.131-0.021-0.219-0.063-0.267s-0.125-0.071-0.248-0.071h-6.525c-0.112,0-0.168-0.057-0.168-0.17v-0.44
			c0-0.113,0.056-0.17,0.168-0.17h6.722c0.407,0,0.677,0.071,0.806,0.215c0.132,0.144,0.195,0.4,0.195,0.772
			c0,0.2-0.007,0.426-0.02,0.677c-0.014,0.251-0.033,0.517-0.059,0.793c-0.026,0.277-0.064,0.56-0.117,0.846
			s-0.117,0.559-0.195,0.817h1.988C113.48,15.805,113.523,15.822,113.566,15.852z M112.072,23.215c0,0.044-0.02,0.08-0.059,0.111
			c-0.039,0.029-0.076,0.045-0.111,0.045h-6.916c-0.407,0-0.674-0.076-0.799-0.227c-0.127-0.152-0.189-0.41-0.189-0.773V21.24
			c0-0.364,0.076-0.608,0.229-0.734c0.151-0.126,0.422-0.188,0.813-0.188h5.59c0.121,0,0.199-0.019,0.234-0.054
			c0.034-0.032,0.051-0.115,0.051-0.246v-0.936c0-0.131-0.015-0.213-0.045-0.248c-0.03-0.034-0.104-0.052-0.228-0.052h-6.487
			c-0.043,0-0.084-0.013-0.123-0.039s-0.06-0.061-0.06-0.104v-0.453c0-0.045,0.021-0.078,0.06-0.104
			c0.039-0.025,0.08-0.039,0.123-0.039h6.616c0.209,0,0.377,0.016,0.509,0.046c0.129,0.03,0.233,0.08,0.312,0.149
			c0.079,0.068,0.133,0.167,0.163,0.293c0.029,0.125,0.046,0.278,0.046,0.461v1.145c0,0.363-0.076,0.608-0.229,0.734
			c-0.151,0.125-0.424,0.188-0.813,0.188h-5.604c-0.122,0-0.197,0.018-0.229,0.053c-0.029,0.034-0.045,0.116-0.045,0.247v0.962
			c0,0.121,0.018,0.2,0.051,0.239c0.035,0.039,0.112,0.06,0.234,0.06h6.721c0.045,0,0.086,0.014,0.125,0.039
			s0.059,0.061,0.059,0.104V23.215L112.072,23.215z"/>
		<path fill="#BEBDC1" d="M116.557,16.197c0.043,0.043,0.125,0.068,0.248,0.078c0.813,0.024,1.67,0.004,2.566-0.064
			c0.896-0.07,1.757-0.183,2.58-0.338c0.139-0.027,0.221,0.021,0.247,0.143l0.065,0.402c0.008,0.104-0.049,0.174-0.17,0.209
			c-0.339,0.078-0.738,0.146-1.201,0.207c-0.465,0.062-0.943,0.113-1.438,0.156s-0.987,0.074-1.481,0.092
			c-0.494,0.017-0.943,0.017-1.353,0c-0.39-0.018-0.658-0.111-0.806-0.28c-0.148-0.169-0.221-0.436-0.221-0.8v-4.029
			c0-0.12,0.06-0.182,0.182-0.182h0.533c0.121,0,0.183,0.062,0.183,0.182v3.966C116.492,16.067,116.514,16.154,116.557,16.197z
			 M124.316,23.333c0,0.043-0.02,0.08-0.059,0.111c-0.037,0.028-0.074,0.045-0.109,0.045h-6.539c-0.407,0-0.674-0.076-0.799-0.229
			c-0.127-0.15-0.189-0.408-0.189-0.772v-0.977c0-0.362,0.076-0.606,0.229-0.733c0.15-0.125,0.422-0.188,0.813-0.188h5.199
			c0.12,0,0.198-0.018,0.233-0.053c0.034-0.034,0.053-0.117,0.053-0.246v-0.742c0-0.129-0.016-0.212-0.047-0.246
			c-0.029-0.035-0.104-0.053-0.227-0.053h-6.098c-0.043,0-0.084-0.013-0.123-0.039c-0.039-0.025-0.059-0.061-0.059-0.104v-0.47
			c0-0.043,0.02-0.077,0.059-0.104c0.039-0.025,0.08-0.039,0.123-0.039h6.24c0.207,0,0.377,0.016,0.506,0.046
			c0.131,0.03,0.234,0.08,0.313,0.149c0.079,0.068,0.133,0.167,0.163,0.293c0.03,0.125,0.046,0.278,0.046,0.461v0.975
			c0,0.364-0.076,0.609-0.229,0.734c-0.151,0.127-0.422,0.188-0.813,0.188h-5.213c-0.121,0-0.196,0.019-0.228,0.052
			c-0.03,0.034-0.045,0.116-0.045,0.247v0.793c0,0.121,0.017,0.201,0.052,0.24c0.034,0.039,0.112,0.06,0.233,0.06h6.33
			c0.045,0,0.086,0.014,0.125,0.039c0.038,0.024,0.059,0.061,0.059,0.104V23.333L124.316,23.333z M123.85,17.731h-0.533
			c-0.121,0-0.182-0.062-0.182-0.184v-5.9c0-0.122,0.061-0.184,0.182-0.184h0.533c0.121,0,0.182,0.062,0.182,0.184v2.587h1.795
			c0.051,0,0.098,0.016,0.136,0.045c0.039,0.03,0.06,0.071,0.06,0.124v0.441c0,0.043-0.021,0.082-0.06,0.117
			c-0.038,0.034-0.085,0.051-0.136,0.051h-1.795v2.535C124.031,17.669,123.971,17.731,123.85,17.731z"/>
	</g>
	<g>
		<path stroke="#BEBDC1" stroke-width="0.5" stroke-miterlimit="10" d="M20.798,8.714c-0.035,0.591-0.151,1.173-0.351,1.743
			c-0.2,0.571-0.476,1.115-0.83,1.635c-0.354,0.521-0.781,1-1.279,1.443c-0.499,0.444-1.064,0.834-1.696,1.171
			c-0.089,0.048-0.155,0.038-0.196-0.03l-0.227-0.36c-0.048-0.083-0.035-0.143,0.042-0.177c0.584-0.302,1.102-0.646,1.552-1.035
			c0.45-0.39,0.835-0.811,1.155-1.265c0.32-0.453,0.572-0.932,0.758-1.434c0.186-0.501,0.303-1.018,0.351-1.547
			c0.014-0.104,0-0.173-0.041-0.211c-0.042-0.038-0.11-0.058-0.207-0.058h-3.197c-0.083,0-0.124-0.045-0.124-0.135v-0.36
			c0-0.083,0.042-0.124,0.124-0.124h3.393c0.323,0,0.537,0.062,0.639,0.182C20.767,8.274,20.812,8.46,20.798,8.714z M23.366,16.708
			h-0.423c-0.096,0-0.145-0.048-0.145-0.145V7.342c0-0.097,0.048-0.145,0.145-0.145h0.423c0.096,0,0.145,0.048,0.145,0.145v3.65
			h1.423c0.042,0,0.077,0.012,0.108,0.036c0.031,0.023,0.046,0.057,0.046,0.098v0.353c0,0.033-0.016,0.063-0.046,0.093
			c-0.031,0.026-0.067,0.041-0.108,0.041h-1.423v4.95C23.511,16.661,23.462,16.708,23.366,16.708z"/>
		<path stroke="#BEBDC1" stroke-width="0.5" stroke-miterlimit="10" d="M27.182,13.151c0.034,0.033,0.099,0.055,0.196,0.062
			c0.66,0.021,1.347-0.009,2.063-0.088c0.715-0.079,1.396-0.181,2.042-0.304c0.117-0.028,0.186,0.014,0.206,0.123l0.052,0.289
			c0.021,0.097-0.024,0.157-0.134,0.186c-0.255,0.063-0.566,0.12-0.934,0.176c-0.368,0.056-0.755,0.104-1.16,0.145
			c-0.406,0.042-0.81,0.072-1.212,0.093c-0.402,0.021-0.758,0.027-1.067,0.021c-0.309-0.006-0.522-0.077-0.64-0.216
			c-0.117-0.137-0.175-0.351-0.175-0.641V7.922c0-0.096,0.048-0.145,0.144-0.145h0.423c0.096,0,0.144,0.049,0.144,0.145v5.022
			C27.13,13.046,27.147,13.117,27.182,13.151z M33.06,16.708h-0.423c-0.096,0-0.144-0.048-0.144-0.145V7.342
			c0-0.097,0.048-0.145,0.144-0.145h0.423c0.096,0,0.145,0.048,0.145,0.145v3.754h1.423c0.041,0,0.077,0.013,0.108,0.036
			c0.031,0.023,0.047,0.058,0.047,0.099v0.352c0,0.034-0.016,0.064-0.047,0.093c-0.031,0.027-0.067,0.041-0.108,0.041h-1.423v4.848
			C33.205,16.661,33.156,16.708,33.06,16.708z"/>
		<path stroke="#BEBDC1" stroke-width="0.5" stroke-miterlimit="10" d="M22.046,23.93c0.014,0.098-0.031,0.155-0.134,0.177
			c-0.254,0.062-0.576,0.119-0.964,0.175c-0.389,0.055-0.797,0.104-1.227,0.145s-0.854,0.071-1.274,0.093
			c-0.419,0.021-0.784,0.027-1.093,0.021s-0.521-0.078-0.634-0.216c-0.114-0.14-0.17-0.353-0.17-0.642v-4.435
			c0-0.288,0.055-0.481,0.165-0.577c0.11-0.096,0.316-0.145,0.619-0.145h3.548c0.089,0,0.134,0.041,0.134,0.124v0.371
			c0,0.083-0.045,0.124-0.134,0.124h-3.414c-0.097,0-0.155,0.012-0.176,0.035s-0.031,0.087-0.031,0.19v4.259
			c0,0.104,0.017,0.172,0.052,0.207c0.034,0.034,0.1,0.055,0.196,0.063c0.33,0.013,0.679,0.012,1.047-0.006s0.739-0.046,1.114-0.082
			c0.375-0.038,0.742-0.083,1.104-0.136c0.361-0.051,0.703-0.107,1.026-0.17c0.109-0.021,0.175,0.019,0.196,0.113L22.046,23.93z
			 M23.366,27.261h-0.423c-0.096,0-0.145-0.048-0.145-0.145v-9.219c0-0.099,0.048-0.146,0.145-0.146h0.423
			c0.096,0,0.145,0.048,0.145,0.146v3.753h1.423c0.042,0,0.077,0.012,0.108,0.036c0.031,0.023,0.046,0.057,0.046,0.098v0.352
			c0,0.034-0.016,0.064-0.046,0.094c-0.031,0.026-0.067,0.04-0.108,0.04h-1.423v4.848C23.511,27.213,23.462,27.261,23.366,27.261z"
			/>
		<path stroke="#BEBDC1" stroke-width="0.5" stroke-miterlimit="10" d="M27.017,24.901c-0.31-0.015-0.518-0.078-0.624-0.19
			c-0.107-0.114-0.16-0.314-0.16-0.604v-2.042c0-0.289,0.06-0.483,0.181-0.583c0.12-0.101,0.335-0.149,0.645-0.149h2.599
			c0.096,0,0.158-0.015,0.186-0.041c0.027-0.027,0.041-0.093,0.041-0.196v-1.712c0-0.104-0.012-0.169-0.036-0.195
			c-0.024-0.027-0.084-0.041-0.181-0.041H26.42c-0.034,0-0.067-0.011-0.098-0.031c-0.031-0.021-0.046-0.048-0.046-0.082V18.64
			c0-0.033,0.015-0.062,0.046-0.082c0.031-0.021,0.064-0.03,0.098-0.03h3.362c0.165,0,0.299,0.013,0.402,0.037
			c0.103,0.022,0.186,0.063,0.247,0.117c0.062,0.056,0.105,0.133,0.129,0.231c0.024,0.101,0.036,0.223,0.036,0.366v1.938
			c0,0.289-0.061,0.483-0.181,0.584c-0.121,0.1-0.335,0.148-0.645,0.148h-2.609c-0.097,0-0.156,0.014-0.181,0.042
			c-0.024,0.026-0.036,0.093-0.036,0.196v1.865c0,0.158,0.076,0.237,0.227,0.237c0.818,0.014,1.604-0.018,2.356-0.093
			c0.753-0.076,1.483-0.193,2.191-0.352c0.097-0.021,0.155,0.014,0.176,0.104l0.062,0.341c0.014,0.089-0.031,0.147-0.133,0.175
			c-0.365,0.083-0.748,0.153-1.15,0.212c-0.402,0.06-0.81,0.106-1.222,0.145c-0.412,0.039-0.825,0.063-1.237,0.078
			C27.801,24.914,27.402,24.914,27.017,24.901z M33.06,27.261h-0.423c-0.096,0-0.144-0.048-0.144-0.145v-9.219
			c0-0.099,0.048-0.146,0.144-0.146h0.423c0.096,0,0.145,0.048,0.145,0.146v3.753h1.423c0.041,0,0.077,0.012,0.108,0.036
			c0.031,0.023,0.047,0.057,0.047,0.098v0.352c0,0.034-0.016,0.064-0.047,0.094c-0.031,0.026-0.067,0.04-0.108,0.04h-1.423v4.848
			C33.205,27.213,33.156,27.261,33.06,27.261z"/>
	</g>
</g>
</svg>
