<?xml version="1.0" encoding="utf-8"?>
<!-- Generator: Adobe Illustrator 15.1.0, SVG Export Plug-In . SVG Version: 6.00 Build 0)  -->
<!DOCTYPE svg PUBLIC "-//W3C//DTD SVG 1.1//EN" "http://www.w3.org/Graphics/SVG/1.1/DTD/svg11.dtd">
<svg version="1.1" id="Layer_1" xmlns="http://www.w3.org/2000/svg" xmlns:xlink="http://www.w3.org/1999/xlink" x="0px" y="0px"
	 width="180px" height="35px" viewBox="0 -0.269 180 35" enable-background="new 0 -0.269 180 35" xml:space="preserve">
<g id="성탄이브">
	<g>
		<rect x="0.499" y="0.231" fill="#2B2333" width="179" height="34"/>
		<path fill="#BEBDC1" d="M179,0.731v33H1v-33H179 M180-0.269H0v35h180V-0.269L180-0.269z"/>
	</g>
	<g>
		<path fill="#6CB2FF" d="M55.288,22.06c0,0.121-0.061,0.182-0.182,0.182h-0.533c-0.122,0-0.182-0.061-0.182-0.182v-8.45
			c-0.269,0.226-0.52,0.438-0.754,0.637s-0.481,0.412-0.741,0.638c-0.095,0.077-0.182,0.069-0.26-0.025l-0.26-0.313
			c-0.026-0.043-0.039-0.088-0.039-0.137c0-0.047,0.021-0.088,0.065-0.123l2.015-1.688c0.035-0.035,0.087-0.054,0.156-0.054h0.351
			c0.182,0,0.288,0.017,0.318,0.046c0.03,0.03,0.045,0.138,0.045,0.318L55.288,22.06L55.288,22.06z"/>
		<path fill="#6CB2FF" d="M59.539,22.241c-0.095,0-0.167-0.002-0.214-0.007c-0.048-0.004-0.083-0.018-0.104-0.039
			c-0.022-0.021-0.035-0.057-0.039-0.104c-0.004-0.049-0.006-0.119-0.006-0.216l0.013-0.284c0-0.113,0.035-0.204,0.104-0.273
			l2.145-2.366c1.595-1.724,2.392-3.033,2.392-3.926c0-0.521-0.173-0.953-0.52-1.3c-0.338-0.338-0.758-0.508-1.261-0.508
			c-0.702,0-1.435,0.194-2.197,0.586c-0.122,0.061-0.19,0.033-0.208-0.078l-0.078-0.431c-0.026-0.146,0.018-0.237,0.13-0.271
			c0.442-0.199,0.84-0.347,1.196-0.442c0.355-0.095,0.719-0.143,1.092-0.143c0.832,0,1.495,0.208,1.989,0.624
			c0.555,0.45,0.832,1.092,0.832,1.924c0,0.321-0.078,0.672-0.234,1.054c-0.156,0.381-0.373,0.779-0.65,1.195
			c-0.173,0.242-0.418,0.559-0.734,0.949c-0.316,0.39-0.678,0.806-1.085,1.248c-0.303,0.329-0.604,0.662-0.903,1.001
			c-0.299,0.338-0.601,0.671-0.904,1.001h4.55c0.121,0,0.182,0.061,0.182,0.182v0.442c0,0.121-0.061,0.182-0.182,0.182H59.539
			L59.539,22.241z"/>
		<path fill="#6CB2FF" d="M67.651,22.151c0-0.182,0.063-0.336,0.188-0.461c0.126-0.126,0.28-0.189,0.462-0.189
			c0.182,0,0.335,0.063,0.461,0.189c0.125,0.125,0.188,0.279,0.188,0.461s-0.063,0.336-0.188,0.461
			c-0.126,0.126-0.28,0.189-0.461,0.189c-0.182,0-0.336-0.063-0.462-0.189C67.714,22.487,67.651,22.332,67.651,22.151z"/>
		<path fill="#6CB2FF" d="M71.356,22.241c-0.095,0-0.167-0.002-0.214-0.007c-0.048-0.004-0.083-0.018-0.104-0.039
			c-0.022-0.021-0.035-0.057-0.039-0.104c-0.004-0.049-0.006-0.119-0.006-0.216l0.013-0.284c0-0.113,0.035-0.204,0.104-0.273
			l2.145-2.366c1.595-1.724,2.392-3.033,2.392-3.926c0-0.521-0.173-0.953-0.52-1.3c-0.338-0.338-0.758-0.508-1.261-0.508
			c-0.702,0-1.435,0.194-2.197,0.586c-0.122,0.061-0.19,0.033-0.208-0.078l-0.078-0.431c-0.026-0.146,0.018-0.237,0.13-0.271
			c0.442-0.199,0.84-0.347,1.196-0.442c0.355-0.095,0.719-0.143,1.092-0.143c0.832,0,1.495,0.208,1.989,0.624
			c0.555,0.45,0.832,1.092,0.832,1.924c0,0.321-0.078,0.672-0.234,1.054c-0.156,0.381-0.373,0.779-0.65,1.195
			c-0.173,0.242-0.418,0.559-0.734,0.949c-0.316,0.39-0.678,0.806-1.085,1.248c-0.303,0.329-0.604,0.662-0.903,1.001
			c-0.299,0.338-0.601,0.671-0.904,1.001h4.55c0.121,0,0.182,0.061,0.182,0.182v0.442c0,0.121-0.061,0.182-0.182,0.182H71.356
			L71.356,22.241z"/>
		<path fill="#6CB2FF" d="M84.044,22.06c0,0.121-0.061,0.182-0.182,0.182h-0.52c-0.121,0-0.182-0.061-0.182-0.182v-2.106h-4.29
			c-0.182,0-0.289-0.015-0.319-0.045c-0.03-0.031-0.045-0.137-0.045-0.317v-0.403c0-0.078,0.004-0.13,0.013-0.156
			c0.008-0.026,0.035-0.073,0.078-0.144l4.147-6.188c0.052-0.078,0.088-0.123,0.11-0.137c0.021-0.013,0.08-0.021,0.175-0.021h0.65
			c0.182,0,0.288,0.017,0.318,0.046c0.03,0.03,0.045,0.138,0.045,0.318v6.253h1.287c0.121,0,0.182,0.062,0.182,0.182v0.431
			c0,0.121-0.061,0.182-0.182,0.182h-1.287v2.106H84.044z M83.16,19.16v-5.798c-0.642,0.971-1.279,1.937-1.911,2.899
			c-0.633,0.961-1.274,1.928-1.924,2.897L83.16,19.16L83.16,19.16z"/>
		<path fill="#BEBDC1" d="M94.432,11.932c0,0.633-0.064,1.223-0.194,1.769c0.104,0.364,0.248,0.711,0.437,1.04
			c0.186,0.33,0.403,0.637,0.655,0.924c0.251,0.285,0.526,0.543,0.825,0.773c0.3,0.229,0.613,0.422,0.941,0.578
			c0.053,0.024,0.076,0.063,0.072,0.109c-0.005,0.049-0.016,0.089-0.033,0.124l-0.272,0.429c-0.025,0.044-0.056,0.073-0.091,0.092
			c-0.034,0.018-0.092,0.004-0.17-0.039c-0.198-0.104-0.426-0.244-0.682-0.422c-0.256-0.179-0.514-0.39-0.773-0.631
			c-0.258-0.242-0.508-0.511-0.74-0.801c-0.234-0.29-0.43-0.592-0.585-0.902c-0.286,0.658-0.673,1.256-1.157,1.794
			c-0.484,0.537-1.054,1.019-1.703,1.441c-0.044,0.026-0.091,0.044-0.145,0.054c-0.051,0.008-0.094-0.01-0.129-0.054l-0.325-0.429
			c-0.025-0.034-0.029-0.077-0.013-0.13c0.018-0.052,0.047-0.091,0.09-0.117c1.031-0.633,1.809-1.43,2.328-2.392
			c0.521-0.962,0.771-2.036,0.754-3.225c0-0.139,0.053-0.209,0.156-0.209l0.61,0.039C94.383,11.75,94.432,11.811,94.432,11.932z
			 M100.15,21.123c0,0.373-0.1,0.707-0.299,1.002c-0.199,0.294-0.471,0.543-0.813,0.747c-0.342,0.203-0.739,0.359-1.194,0.468
			c-0.455,0.109-0.943,0.162-1.464,0.162c-0.563,0-1.073-0.054-1.532-0.162c-0.461-0.107-0.854-0.265-1.185-0.468
			c-0.33-0.204-0.585-0.453-0.769-0.747c-0.182-0.295-0.271-0.629-0.271-1.002c0-0.362,0.092-0.69,0.271-0.979
			c0.184-0.291,0.438-0.538,0.769-0.742c0.329-0.203,0.724-0.359,1.185-0.467c0.459-0.109,0.969-0.163,1.532-0.163
			c0.521,0,1.009,0.054,1.464,0.163c0.455,0.106,0.854,0.262,1.194,0.461c0.343,0.199,0.613,0.442,0.813,0.733
			C100.051,20.419,100.15,20.75,100.15,21.123z M99.229,21.162c0-0.26-0.078-0.489-0.234-0.688s-0.366-0.365-0.631-0.5
			c-0.264-0.136-0.57-0.238-0.916-0.313c-0.348-0.072-0.707-0.108-1.079-0.108c-0.416,0-0.798,0.036-1.144,0.108
			c-0.349,0.074-0.646,0.178-0.892,0.313c-0.248,0.135-0.44,0.301-0.579,0.5s-0.208,0.43-0.208,0.688
			c0,0.252,0.069,0.476,0.208,0.67c0.139,0.195,0.331,0.357,0.579,0.487c0.246,0.13,0.543,0.229,0.892,0.299
			c0.346,0.069,0.728,0.104,1.144,0.104c0.372,0,0.731-0.035,1.079-0.104c0.346-0.069,0.652-0.169,0.916-0.299
			c0.265-0.13,0.475-0.292,0.631-0.487C99.15,21.637,99.229,21.414,99.229,21.162z M99.15,14.273v-2.626
			c0-0.121,0.061-0.183,0.182-0.183h0.533c0.121,0,0.182,0.062,0.182,0.183v6.863c0,0.121-0.061,0.183-0.182,0.183h-0.533
			c-0.121,0-0.182-0.062-0.182-0.183v-3.457h-2.666c-0.112,0-0.168-0.054-0.168-0.156v-0.469c0-0.104,0.056-0.155,0.168-0.155H99.15
			z"/>
		<path fill="#BEBDC1" d="M108.146,15.56c-0.252,0.017-0.536,0.032-0.853,0.046c-0.315,0.012-0.633,0.022-0.948,0.031
			c-0.316,0.01-0.627,0.014-0.931,0.014s-0.567-0.004-0.793-0.014h-0.547v1.717c0,0.13,0.021,0.219,0.065,0.266
			c0.043,0.049,0.125,0.072,0.246,0.072c0.381,0.009,0.782,0.006,1.203-0.006c0.42-0.015,0.84-0.035,1.26-0.066
			c0.422-0.029,0.832-0.067,1.236-0.116c0.402-0.048,0.777-0.105,1.124-0.176c0.147-0.025,0.233,0.022,0.261,0.145l0.064,0.377
			c0.018,0.078,0.014,0.132-0.014,0.162c-0.025,0.03-0.078,0.055-0.156,0.071c-0.355,0.068-0.749,0.131-1.184,0.188
			c-0.433,0.057-0.879,0.1-1.338,0.131c-0.459,0.029-0.916,0.054-1.371,0.07c-0.455,0.018-0.883,0.021-1.281,0.014
			c-0.391-0.008-0.656-0.098-0.799-0.267c-0.144-0.169-0.215-0.437-0.215-0.801v-4.342c0-0.363,0.068-0.605,0.207-0.729
			c0.139-0.121,0.398-0.183,0.78-0.183h4.199c0.112,0,0.168,0.054,0.168,0.156v0.469c0,0.104-0.056,0.155-0.168,0.155h-4.03
			c-0.122,0-0.195,0.015-0.222,0.046c-0.025,0.03-0.039,0.11-0.039,0.24v1.649h0.547c0.217,0,0.474,0,0.767,0
			c0.295,0,0.604-0.004,0.924-0.012c0.32-0.01,0.639-0.018,0.955-0.026c0.315-0.009,0.604-0.021,0.865-0.039
			c0.051-0.009,0.092,0.006,0.122,0.039c0.031,0.034,0.046,0.073,0.046,0.116l0.014,0.442
			C108.314,15.49,108.258,15.542,108.146,15.56z M112.332,23.178c-0.044,0.024-0.087,0.038-0.131,0.038h-6.616
			c-0.407,0-0.675-0.077-0.8-0.233s-0.188-0.412-0.188-0.769v-2.157c0-0.121,0.061-0.183,0.183-0.183h0.532
			c0.121,0,0.183,0.062,0.183,0.183v2.106c0,0.121,0.021,0.196,0.06,0.228c0.039,0.03,0.119,0.046,0.239,0.046h6.408
			c0.044,0,0.087,0.015,0.131,0.046c0.043,0.029,0.063,0.065,0.063,0.108v0.47C112.396,23.112,112.375,23.152,112.332,23.178z
			 M111.63,20.369h-0.532c-0.123,0-0.184-0.061-0.184-0.182v-8.541c0-0.121,0.061-0.183,0.184-0.183h0.532
			c0.121,0,0.183,0.062,0.183,0.183v3.64h1.793c0.054,0,0.099,0.017,0.138,0.046c0.039,0.03,0.06,0.071,0.06,0.123v0.442
			c0,0.044-0.021,0.083-0.06,0.116c-0.039,0.034-0.084,0.053-0.138,0.053h-1.793v4.121C111.811,20.309,111.751,20.369,111.63,20.369
			z"/>
		<path fill="#BEBDC1" d="M120.756,13.012c-0.113,0.303-0.277,0.618-0.494,0.948c-0.217,0.329-0.485,0.658-0.807,0.987
			c0.165,0.174,0.352,0.343,0.561,0.507c0.207,0.165,0.422,0.32,0.644,0.469c0.221,0.146,0.44,0.279,0.662,0.396
			s0.428,0.205,0.618,0.266c0.068,0.019,0.109,0.054,0.123,0.104c0.014,0.052,0.007,0.1-0.02,0.144l-0.248,0.455
			c-0.018,0.043-0.054,0.068-0.109,0.077c-0.057,0.009-0.106,0.005-0.149-0.013c-0.226-0.097-0.459-0.213-0.701-0.353
			c-0.243-0.139-0.483-0.29-0.723-0.455c-0.238-0.164-0.466-0.333-0.683-0.506c-0.217-0.174-0.408-0.348-0.572-0.521
			c-0.467,0.416-0.991,0.804-1.571,1.163c-0.582,0.358-1.205,0.666-1.873,0.917c-0.043,0.017-0.088,0.027-0.137,0.031
			c-0.048,0.005-0.08-0.016-0.097-0.059l-0.234-0.468c-0.026-0.044-0.026-0.089,0-0.137c0.025-0.049,0.061-0.08,0.104-0.098
			c0.547-0.209,1.063-0.453,1.553-0.734c0.49-0.281,0.941-0.59,1.354-0.924s0.771-0.683,1.079-1.047
			c0.308-0.362,0.553-0.731,0.733-1.104c0.062-0.122,0.069-0.208,0.025-0.261c-0.043-0.052-0.125-0.077-0.246-0.077h-3.81
			c-0.104,0-0.155-0.058-0.155-0.169v-0.455c0-0.104,0.051-0.156,0.155-0.156h4.159c0.451,0,0.742,0.08,0.871,0.24
			C120.898,12.343,120.895,12.621,120.756,13.012z M124.76,23.333c0,0.043-0.02,0.08-0.059,0.109
			c-0.039,0.031-0.076,0.046-0.111,0.046h-6.539c-0.406,0-0.674-0.075-0.799-0.228c-0.125-0.151-0.188-0.409-0.188-0.773v-0.975
			c0-0.364,0.074-0.609,0.228-0.734c0.151-0.126,0.422-0.189,0.813-0.189h5.199c0.121,0,0.199-0.017,0.233-0.051
			c0.035-0.035,0.054-0.117,0.054-0.248v-0.739c0-0.132-0.017-0.214-0.047-0.248c-0.029-0.033-0.105-0.052-0.229-0.052h-6.096
			c-0.045,0-0.086-0.014-0.125-0.039s-0.059-0.061-0.059-0.104v-0.468c0-0.043,0.02-0.078,0.059-0.104
			c0.039-0.025,0.08-0.038,0.125-0.038h6.238c0.209,0,0.377,0.016,0.508,0.045c0.131,0.03,0.234,0.08,0.313,0.149
			s0.132,0.167,0.162,0.292c0.029,0.127,0.046,0.279,0.046,0.462v0.977c0,0.362-0.076,0.607-0.228,0.733
			c-0.152,0.125-0.424,0.188-0.813,0.188h-5.214c-0.121,0-0.196,0.018-0.228,0.053c-0.03,0.035-0.045,0.117-0.045,0.247v0.793
			c0,0.121,0.017,0.201,0.052,0.24c0.034,0.039,0.112,0.059,0.233,0.059h6.332c0.043,0,0.084,0.013,0.123,0.039
			s0.06,0.061,0.06,0.104V23.333L124.76,23.333z M123.59,14.167v-2.521c0-0.121,0.062-0.183,0.182-0.183h0.533
			c0.121,0,0.183,0.062,0.183,0.183v5.992c0,0.122-0.062,0.183-0.183,0.183h-0.533c-0.12,0-0.182-0.061-0.182-0.183v-2.69h-2.457
			c-0.113,0-0.17-0.052-0.17-0.155v-0.469c0-0.104,0.057-0.156,0.17-0.156L123.59,14.167L123.59,14.167z"/>
		<path fill="#BEBDC1" d="M133.664,16.417c0,0.484-0.059,0.976-0.176,1.47c-0.117,0.493-0.301,0.938-0.553,1.339
			c-0.252,0.397-0.574,0.726-0.969,0.98c-0.395,0.256-0.869,0.383-1.423,0.383c-0.571,0-1.057-0.125-1.45-0.377
			c-0.395-0.251-0.711-0.578-0.949-0.979c-0.237-0.403-0.408-0.853-0.512-1.346c-0.104-0.494-0.156-0.984-0.156-1.47
			c0-0.512,0.052-1.017,0.156-1.516c0.104-0.498,0.273-0.946,0.512-1.346c0.238-0.398,0.556-0.72,0.949-0.961
			c0.395-0.242,0.879-0.364,1.45-0.364c0.554,0,1.028,0.122,1.423,0.364c0.395,0.241,0.717,0.561,0.969,0.954
			c0.252,0.396,0.436,0.842,0.553,1.34C133.605,15.389,133.664,15.898,133.664,16.417z M132.741,16.404
			c0-0.398-0.041-0.801-0.124-1.209c-0.082-0.407-0.209-0.773-0.383-1.099c-0.174-0.326-0.398-0.59-0.676-0.793
			c-0.278-0.204-0.615-0.307-1.015-0.307c-0.416,0-0.762,0.103-1.034,0.307c-0.271,0.203-0.492,0.468-0.656,0.793
			c-0.164,0.324-0.281,0.69-0.351,1.099s-0.104,0.811-0.104,1.209c0,0.381,0.033,0.773,0.098,1.177s0.18,0.771,0.346,1.104
			c0.164,0.334,0.385,0.606,0.662,0.818c0.277,0.213,0.625,0.318,1.041,0.318c0.398,0,0.736-0.105,1.014-0.318
			c0.278-0.212,0.502-0.484,0.677-0.818c0.174-0.333,0.301-0.701,0.383-1.104C132.7,17.178,132.741,16.785,132.741,16.404z
			 M136.523,23.45h-0.532c-0.122,0-0.183-0.061-0.183-0.182V11.646c0-0.121,0.061-0.183,0.183-0.183h0.532
			c0.121,0,0.183,0.062,0.183,0.183v11.622C136.706,23.39,136.645,23.45,136.523,23.45z"/>
		<path fill="#BEBDC1" d="M150.227,20.662c0.043,0.03,0.063,0.071,0.063,0.123v0.442c0,0.044-0.021,0.083-0.063,0.116
			c-0.045,0.034-0.088,0.053-0.131,0.053h-11.051c-0.052,0-0.098-0.019-0.136-0.053c-0.039-0.033-0.06-0.072-0.06-0.116v-0.442
			c0-0.052,0.021-0.093,0.06-0.123c0.038-0.03,0.084-0.046,0.136-0.046h11.051C150.139,20.616,150.182,20.631,150.227,20.662z
			 M141.503,18.069c-0.208,0-0.375-0.014-0.501-0.039c-0.125-0.025-0.223-0.076-0.292-0.149c-0.069-0.072-0.116-0.169-0.144-0.285
			c-0.025-0.117-0.039-0.268-0.039-0.448v-5.005c0-0.043,0.018-0.08,0.053-0.111c0.034-0.029,0.073-0.045,0.117-0.045h0.559
			c0.043,0,0.08,0.018,0.11,0.052c0.03,0.035,0.046,0.069,0.046,0.104v2.132h6.253v-2.119c0-0.044,0.015-0.082,0.046-0.117
			c0.029-0.034,0.066-0.052,0.109-0.052h0.56c0.044,0,0.083,0.016,0.117,0.045c0.034,0.031,0.052,0.068,0.052,0.111v5.096
			c0,0.33-0.068,0.551-0.207,0.663c-0.14,0.112-0.398,0.169-0.781,0.169L141.503,18.069L141.503,18.069z M141.412,15.039v1.95
			c0,0.13,0.021,0.215,0.064,0.253c0.043,0.039,0.125,0.06,0.248,0.06h5.629c0.121,0,0.203-0.021,0.246-0.06
			c0.043-0.038,0.064-0.123,0.064-0.253v-1.95H141.412z"/>
	</g>
	<g>
		<polygon fill="#2B2333" stroke="#BEBDC1" stroke-width="0.5" stroke-linecap="round" stroke-miterlimit="10" points="
			21.512,14.322 24.717,19.874 27.923,25.426 21.512,25.426 15.101,25.426 18.307,19.874 		"/>
		<polygon fill="#2B2333" stroke="#BEBDC1" stroke-width="0.5" stroke-linecap="round" stroke-miterlimit="10" points="
			21.512,11.338 24.717,16.89 27.923,22.443 21.512,22.443 15.101,22.443 18.307,16.89 		"/>
		<polygon fill="#2B2333" stroke="#BEBDC1" stroke-width="0.5" stroke-linecap="round" stroke-miterlimit="10" points="
			21.512,7.431 24.717,12.983 27.923,18.534 21.512,18.534 15.101,18.534 18.307,12.983 		"/>
		<polygon fill="#2B2333" stroke="#BEBDC1" stroke-width="0.5" stroke-linecap="round" stroke-miterlimit="10" points="
			21.512,5.078 22.203,6.48 23.749,6.703 22.63,7.793 22.894,9.333 21.512,8.607 20.129,9.333 20.393,7.793 19.275,6.703 
			20.821,6.48 		"/>
		
			<rect x="20.063" y="25.426" fill="#2B2333" stroke="#BEBDC1" stroke-width="0.5" stroke-linecap="round" stroke-miterlimit="10" width="2.898" height="3.958"/>
		<g>
			<path fill="#2B2333" stroke="#BEBDC1" stroke-width="0.5" stroke-linecap="round" stroke-miterlimit="10" d="M28.54,18.036v3.862
				c0,2.012,1.632,3.644,3.644,3.644l0,0c2.013,0,3.644-1.632,3.644-3.644v-3.862H28.54z"/>
			
				<line fill="none" stroke="#BEBDC1" stroke-width="0.5" stroke-linecap="round" stroke-miterlimit="10" x1="28.54" y1="20.73" x2="35.828" y2="20.73"/>
			
				<line fill="none" stroke="#BEBDC1" stroke-width="0.5" stroke-linecap="round" stroke-miterlimit="10" x1="32.184" y1="25.542" x2="32.184" y2="29.384"/>
			
				<line fill="none" stroke="#BEBDC1" stroke-width="0.5" stroke-linecap="round" stroke-miterlimit="10" x1="28.54" y1="29.384" x2="35.828" y2="29.384"/>
		</g>
		<g>
			<path fill="#2B2333" stroke="#BEBDC1" stroke-width="0.5" stroke-linecap="round" stroke-miterlimit="10" d="M24.279,18.036
				v3.862c0,2.012,1.632,3.644,3.644,3.644l0,0c2.013,0,3.645-1.632,3.645-3.644v-3.862H24.279z"/>
			
				<line fill="none" stroke="#BEBDC1" stroke-width="0.5" stroke-linecap="round" stroke-miterlimit="10" x1="24.279" y1="20.73" x2="31.567" y2="20.73"/>
			
				<line fill="none" stroke="#BEBDC1" stroke-width="0.5" stroke-linecap="round" stroke-miterlimit="10" x1="27.923" y1="25.542" x2="27.923" y2="29.384"/>
			
				<line fill="none" stroke="#BEBDC1" stroke-width="0.5" stroke-linecap="round" stroke-miterlimit="10" x1="24.279" y1="29.384" x2="31.567" y2="29.384"/>
		</g>
		
			<circle fill="#2B2333" stroke="#BEBDC1" stroke-width="0.5" stroke-linecap="round" stroke-miterlimit="10" cx="17.533" cy="14.322" r="1.034"/>
		
			<circle fill="#2B2333" stroke="#BEBDC1" stroke-width="0.5" stroke-linecap="round" stroke-miterlimit="10" cx="20.558" cy="18.036" r="1.448"/>
		
			<circle fill="#2B2333" stroke="#BEBDC1" stroke-width="0.5" stroke-linecap="round" stroke-miterlimit="10" cx="24.279" cy="12.224" r="1.664"/>
	</g>
</g>
</svg>
