<?xml version="1.0" encoding="utf-8"?>
<!-- Generator: Adobe Illustrator 15.1.0, SVG Export Plug-In . SVG Version: 6.00 Build 0)  -->
<!DOCTYPE svg PUBLIC "-//W3C//DTD SVG 1.1//EN" "http://www.w3.org/Graphics/SVG/1.1/DTD/svg11.dtd">
<svg version="1.1" id="Layer_1" xmlns="http://www.w3.org/2000/svg" xmlns:xlink="http://www.w3.org/1999/xlink" x="0px" y="0px"
	 width="180px" height="35px" viewBox="0 -0.269 180 35" enable-background="new 0 -0.269 180 35" xml:space="preserve">
<g id="삼일절">
	<g>
		<rect x="0.499" y="0.231" fill="#2B2333" width="179" height="34"/>
		<path fill="#BEBDC1" d="M179,0.731v33H1v-33H179 M180-0.269H0v35h180V-0.269L180-0.269z"/>
	</g>
	<g>
		<path fill="#FF4F5F" d="M57.654,17.38c0,3.276-1.058,4.914-3.172,4.914c-2.132,0-3.198-1.638-3.198-4.914
			c0-1.36,0.208-2.465,0.624-3.315c0.528-1.066,1.387-1.599,2.574-1.599c1.17,0,2.023,0.533,2.561,1.599
			c0.2,0.425,0.351,0.91,0.455,1.456S57.654,16.686,57.654,17.38z M56.718,17.38c0-2.721-0.746-4.082-2.236-4.082
			c-1.491,0-2.236,1.361-2.236,4.082c0,2.73,0.746,4.095,2.236,4.095C55.973,21.475,56.718,20.11,56.718,17.38z"/>
		<path fill="#FF4F5F" d="M59.37,22.021c-0.13-0.035-0.187-0.135-0.169-0.299l0.052-0.507c0.018-0.104,0.087-0.13,0.208-0.078
			c0.364,0.147,0.708,0.251,1.034,0.312c0.325,0.061,0.704,0.096,1.138,0.104c0.685,0.009,1.261-0.165,1.729-0.52
			c0.546-0.364,0.819-0.897,0.819-1.599c0-1.231-0.923-1.846-2.769-1.846h-0.676c-0.113,0-0.169-0.047-0.169-0.143v-0.481
			c0-0.112,0.057-0.169,0.169-0.169h0.065c0.927,0,1.651-0.1,2.171-0.299c0.789-0.304,1.183-0.85,1.183-1.638
			c0-0.251-0.067-0.483-0.202-0.695s-0.314-0.392-0.54-0.54c-0.208-0.122-0.442-0.217-0.702-0.286
			c-0.26-0.069-0.533-0.104-0.819-0.104c-0.295,0-0.62,0.039-0.975,0.117s-0.698,0.182-1.027,0.312
			c-0.113,0.044-0.178,0.009-0.195-0.104l-0.052-0.481c-0.026-0.121,0.03-0.208,0.169-0.26c0.39-0.13,0.754-0.225,1.092-0.286
			c0.338-0.061,0.697-0.091,1.079-0.091c0.875,0,1.59,0.187,2.145,0.559c0.633,0.425,0.949,1.044,0.949,1.859
			c0,0.581-0.208,1.083-0.624,1.508c-0.347,0.373-0.797,0.646-1.352,0.819c0.277,0.035,0.535,0.108,0.773,0.221
			c0.238,0.113,0.444,0.269,0.618,0.468c0.199,0.217,0.351,0.461,0.455,0.734s0.156,0.574,0.156,0.903
			c0,0.434-0.089,0.826-0.267,1.177c-0.178,0.351-0.431,0.652-0.76,0.903c-0.321,0.234-0.689,0.418-1.105,0.553
			c-0.416,0.134-0.88,0.197-1.391,0.188c-0.459-0.009-0.856-0.035-1.189-0.078S59.717,22.133,59.37,22.021z"/>
		<path fill="#FF4F5F" d="M67.651,22.151c0-0.182,0.063-0.336,0.188-0.461c0.126-0.125,0.28-0.188,0.462-0.188
			c0.182,0,0.335,0.063,0.461,0.188c0.125,0.125,0.188,0.279,0.188,0.461c0,0.182-0.063,0.336-0.188,0.461
			c-0.126,0.125-0.28,0.188-0.461,0.188c-0.182,0-0.336-0.063-0.462-0.188C67.714,22.487,67.651,22.333,67.651,22.151z"/>
		<path fill="#FF4F5F" d="M77.349,17.38c0,3.276-1.058,4.914-3.172,4.914c-2.132,0-3.198-1.638-3.198-4.914
			c0-1.36,0.208-2.465,0.624-3.315c0.528-1.066,1.387-1.599,2.574-1.599c1.17,0,2.023,0.533,2.561,1.599
			c0.2,0.425,0.351,0.91,0.455,1.456S77.349,16.686,77.349,17.38z M76.413,17.38c0-2.721-0.746-4.082-2.236-4.082
			c-1.491,0-2.236,1.361-2.236,4.082c0,2.73,0.746,4.095,2.236,4.095C75.667,21.475,76.413,20.11,76.413,17.38z"/>
		<path fill="#FF4F5F" d="M82.861,22.06c0,0.121-0.061,0.182-0.182,0.182h-0.533c-0.122,0-0.182-0.061-0.182-0.182v-8.45
			c-0.269,0.226-0.52,0.438-0.754,0.637c-0.234,0.199-0.481,0.412-0.741,0.637c-0.095,0.078-0.182,0.069-0.26-0.026l-0.26-0.312
			c-0.026-0.043-0.039-0.089-0.039-0.137c0-0.047,0.021-0.088,0.065-0.124l2.015-1.69c0.035-0.034,0.087-0.052,0.156-0.052h0.351
			c0.182,0,0.288,0.015,0.318,0.045c0.03,0.03,0.045,0.137,0.045,0.318L82.861,22.06L82.861,22.06z"/>
		<path fill="#BEBDC1" d="M94.34,11.933c0,0.633-0.063,1.222-0.195,1.768c0.104,0.364,0.25,0.711,0.437,1.04
			c0.187,0.33,0.405,0.637,0.656,0.923c0.252,0.286,0.526,0.544,0.825,0.773c0.3,0.229,0.613,0.422,0.942,0.578
			c0.052,0.026,0.075,0.063,0.071,0.111s-0.016,0.089-0.032,0.124l-0.272,0.429c-0.025,0.043-0.057,0.074-0.092,0.091
			c-0.033,0.017-0.091,0.004-0.168-0.039c-0.199-0.104-0.428-0.245-0.684-0.422c-0.256-0.177-0.514-0.388-0.773-0.631
			c-0.26-0.242-0.506-0.509-0.74-0.799c-0.233-0.291-0.43-0.592-0.586-0.903c-0.284,0.659-0.672,1.256-1.155,1.794
			c-0.486,0.537-1.054,1.018-1.703,1.443c-0.043,0.026-0.092,0.043-0.144,0.052c-0.053,0.009-0.096-0.008-0.131-0.052l-0.324-0.429
			c-0.025-0.034-0.03-0.078-0.014-0.13c0.019-0.052,0.049-0.091,0.092-0.117c1.031-0.632,1.808-1.43,2.326-2.392
			c0.521-0.962,0.771-2.037,0.754-3.224c0-0.139,0.053-0.208,0.156-0.208l0.611,0.039C94.293,11.751,94.34,11.811,94.34,11.933z
			 M92.182,19.967c0-0.364,0.07-0.609,0.209-0.734s0.398-0.188,0.779-0.188h5.447c0.208,0,0.375,0.013,0.5,0.039
			c0.126,0.026,0.227,0.074,0.299,0.143c0.074,0.069,0.124,0.165,0.15,0.286c0.025,0.122,0.039,0.273,0.039,0.455v2.457
			c0,0.364-0.07,0.609-0.209,0.734s-0.398,0.188-0.779,0.188H93.17c-0.208,0-0.375-0.013-0.5-0.039
			c-0.126-0.026-0.227-0.076-0.299-0.149c-0.074-0.074-0.124-0.169-0.15-0.286c-0.024-0.117-0.039-0.267-0.039-0.449V19.967z
			 M93.391,19.824c-0.121,0-0.203,0.024-0.246,0.072c-0.043,0.047-0.064,0.136-0.064,0.266v2.067c0,0.13,0.021,0.219,0.064,0.266
			c0.043,0.048,0.125,0.072,0.246,0.072h5.006c0.121,0,0.203-0.024,0.246-0.072c0.045-0.047,0.065-0.136,0.065-0.266v-2.067
			c0-0.13-0.021-0.219-0.065-0.266c-0.043-0.048-0.125-0.072-0.246-0.072H93.391z M99.41,18.342h-0.533
			c-0.121,0-0.182-0.061-0.182-0.182v-6.513c0-0.122,0.061-0.182,0.182-0.182h0.533c0.121,0,0.182,0.061,0.182,0.182v3.133h1.795
			c0.051,0,0.098,0.015,0.137,0.045c0.039,0.031,0.059,0.072,0.059,0.124v0.442c0,0.044-0.02,0.083-0.059,0.117
			c-0.039,0.034-0.086,0.052-0.137,0.052h-1.795v2.6C99.592,18.281,99.531,18.342,99.41,18.342z"/>
		<path fill="#BEBDC1" d="M109.043,14.585c0,0.407-0.08,0.782-0.24,1.125c-0.16,0.342-0.379,0.639-0.656,0.891
			c-0.277,0.251-0.604,0.448-0.976,0.591s-0.771,0.214-1.196,0.214c-0.416,0-0.804-0.069-1.164-0.208
			c-0.358-0.138-0.676-0.332-0.947-0.579s-0.487-0.543-0.645-0.89c-0.156-0.347-0.233-0.728-0.233-1.144
			c0-0.442,0.077-0.838,0.233-1.189s0.371-0.648,0.645-0.891c0.273-0.243,0.589-0.429,0.947-0.559
			c0.36-0.13,0.748-0.195,1.164-0.195c0.392,0,0.771,0.065,1.139,0.195c0.367,0.13,0.695,0.316,0.98,0.559
			c0.286,0.243,0.517,0.54,0.689,0.891S109.043,14.143,109.043,14.585z M108.133,14.572c0-0.32-0.061-0.606-0.182-0.858
			c-0.122-0.251-0.282-0.459-0.48-0.624c-0.199-0.165-0.43-0.29-0.688-0.377c-0.261-0.086-0.529-0.13-0.808-0.13
			c-0.285,0-0.557,0.041-0.813,0.124s-0.477,0.206-0.663,0.37c-0.187,0.165-0.333,0.373-0.442,0.624
			c-0.106,0.251-0.162,0.542-0.162,0.871c0,0.312,0.054,0.592,0.156,0.838c0.104,0.247,0.25,0.459,0.437,0.637
			c0.186,0.178,0.403,0.312,0.655,0.403c0.252,0.091,0.529,0.137,0.832,0.137c0.277,0,0.547-0.045,0.808-0.137
			c0.26-0.091,0.489-0.223,0.688-0.396c0.198-0.173,0.358-0.385,0.48-0.637C108.072,15.165,108.133,14.884,108.133,14.572z
			 M112.539,23.334c0,0.043-0.02,0.08-0.059,0.11c-0.039,0.03-0.075,0.045-0.109,0.045h-6.539c-0.408,0-0.674-0.076-0.8-0.228
			c-0.126-0.151-0.188-0.409-0.188-0.773v-0.975c0-0.364,0.076-0.608,0.229-0.734c0.15-0.125,0.423-0.188,0.813-0.188h5.2
			c0.121,0,0.199-0.017,0.234-0.052c0.032-0.035,0.051-0.117,0.051-0.247v-0.741c0-0.13-0.015-0.212-0.045-0.247
			c-0.03-0.034-0.104-0.052-0.228-0.052H105c-0.044,0-0.085-0.013-0.123-0.039c-0.039-0.026-0.059-0.061-0.059-0.104v-0.468
			c0-0.043,0.02-0.078,0.059-0.104c0.038-0.026,0.079-0.039,0.123-0.039h6.24c0.207,0,0.377,0.015,0.506,0.045
			c0.131,0.03,0.234,0.08,0.313,0.149c0.08,0.069,0.133,0.167,0.162,0.292c0.031,0.126,0.047,0.279,0.047,0.461v0.975
			c0,0.364-0.076,0.609-0.229,0.734c-0.15,0.126-0.422,0.188-0.813,0.188h-5.213c-0.121,0-0.197,0.018-0.229,0.052
			s-0.046,0.117-0.046,0.247v0.793c0,0.121,0.019,0.201,0.053,0.24c0.034,0.039,0.112,0.059,0.234,0.059h6.329
			c0.043,0,0.086,0.013,0.125,0.039c0.037,0.026,0.058,0.061,0.058,0.104L112.539,23.334L112.539,23.334z M112.085,17.744h-0.532
			c-0.123,0-0.184-0.061-0.184-0.182v-5.915c0-0.122,0.061-0.182,0.184-0.182h0.532c0.121,0,0.183,0.061,0.183,0.182v5.915
			C112.266,17.683,112.206,17.744,112.085,17.744z"/>
		<path fill="#BEBDC1" d="M120.756,13.012c-0.113,0.304-0.277,0.62-0.494,0.949c-0.217,0.33-0.485,0.659-0.807,0.988
			c0.165,0.174,0.352,0.343,0.561,0.507c0.207,0.164,0.422,0.32,0.644,0.468c0.221,0.148,0.44,0.279,0.662,0.396
			c0.222,0.117,0.428,0.206,0.618,0.267c0.068,0.018,0.109,0.052,0.123,0.104c0.014,0.052,0.007,0.1-0.02,0.143l-0.248,0.455
			c-0.018,0.043-0.054,0.069-0.109,0.078c-0.057,0.009-0.106,0.004-0.149-0.013c-0.226-0.095-0.459-0.212-0.701-0.351
			c-0.243-0.139-0.483-0.291-0.723-0.455c-0.239-0.164-0.466-0.333-0.683-0.507s-0.408-0.347-0.572-0.52
			c-0.467,0.416-0.991,0.804-1.571,1.164c-0.582,0.359-1.205,0.665-1.873,0.917c-0.043,0.017-0.088,0.028-0.137,0.032
			c-0.048,0.004-0.08-0.015-0.097-0.059l-0.234-0.468c-0.026-0.043-0.026-0.089,0-0.137c0.025-0.047,0.061-0.08,0.104-0.097
			c0.547-0.208,1.063-0.453,1.553-0.735c0.49-0.281,0.941-0.589,1.354-0.923c0.411-0.333,0.771-0.683,1.079-1.046
			c0.308-0.364,0.553-0.732,0.733-1.105c0.062-0.122,0.069-0.208,0.025-0.26c-0.043-0.052-0.125-0.078-0.246-0.078h-3.81
			c-0.104,0-0.155-0.057-0.155-0.169v-0.455c0-0.104,0.051-0.156,0.155-0.156h4.159c0.451,0,0.742,0.08,0.871,0.241
			C120.898,12.347,120.895,12.622,120.756,13.012z M124.76,23.334c0,0.043-0.02,0.08-0.059,0.11
			c-0.039,0.03-0.076,0.045-0.111,0.045h-6.539c-0.406,0-0.674-0.076-0.799-0.228c-0.125-0.151-0.188-0.409-0.188-0.773v-0.975
			c0-0.364,0.074-0.608,0.228-0.734c0.151-0.125,0.422-0.188,0.813-0.188h5.199c0.121,0,0.199-0.017,0.233-0.052
			c0.035-0.035,0.054-0.117,0.054-0.247v-0.741c0-0.13-0.017-0.212-0.047-0.247c-0.029-0.034-0.105-0.052-0.229-0.052h-6.096
			c-0.045,0-0.086-0.013-0.125-0.039c-0.039-0.026-0.059-0.061-0.059-0.104v-0.468c0-0.043,0.02-0.078,0.059-0.104
			s0.08-0.039,0.125-0.039h6.238c0.209,0,0.377,0.015,0.508,0.045c0.131,0.03,0.234,0.08,0.313,0.149
			c0.078,0.069,0.132,0.167,0.162,0.292c0.029,0.126,0.046,0.279,0.046,0.461v0.975c0,0.364-0.076,0.609-0.228,0.734
			c-0.152,0.126-0.424,0.188-0.813,0.188h-5.214c-0.121,0-0.196,0.018-0.228,0.052c-0.03,0.034-0.045,0.117-0.045,0.247v0.793
			c0,0.121,0.017,0.201,0.052,0.24c0.034,0.039,0.112,0.059,0.233,0.059h6.332c0.043,0,0.084,0.013,0.123,0.039
			s0.06,0.061,0.06,0.104V23.334L124.76,23.334z M123.59,14.169v-2.522c0-0.122,0.062-0.182,0.182-0.182h0.533
			c0.121,0,0.183,0.061,0.183,0.182v5.993c0,0.122-0.062,0.182-0.183,0.182h-0.533c-0.12,0-0.182-0.061-0.182-0.182v-2.691h-2.457
			c-0.113,0-0.17-0.052-0.17-0.156v-0.468c0-0.104,0.057-0.156,0.17-0.156H123.59z"/>
	</g>
	<g>
		<path fill="none" stroke="#BEBDC1" stroke-width="0.5" stroke-miterlimit="10" d="M41.797,11.803
			c-2.753,0.108-3.714,3.547-6.468,3.655c-1-1.767-1.999-3.535-2.998-5.303c2.753-0.109,3.714-3.549,6.467-3.657
			C39.798,8.267,40.798,10.036,41.797,11.803L41.797,11.803z"/>
		<path fill="none" stroke="#BEBDC1" stroke-width="0.5" stroke-miterlimit="10" d="M36.891,11.522
			c-0.295,0.166-0.539,0.065-0.785-0.023c0.003,0.005,0.007,0.011,0.009,0.017c0.33,0.583,1.069,0.788,1.652,0.459
			c0.583-0.33,0.788-1.068,0.458-1.651c-0.041-0.073-0.089-0.141-0.142-0.2c-0.135-0.021-0.277-0.007-0.433,0.082
			C37.08,10.526,37.461,11.199,36.891,11.522L36.891,11.522z"/>
		<path fill="#BEBDC1" stroke="#BEBDC1" stroke-width="0.5" stroke-miterlimit="10" d="M36.574,9.864
			c-0.577,0.327-0.784,1.054-0.468,1.635c0.246,0.089,0.49,0.189,0.785,0.023c0.57-0.323,0.19-0.996,0.76-1.317
			c0.156-0.089,0.298-0.103,0.433-0.082C37.713,9.697,37.083,9.576,36.574,9.864L36.574,9.864z"/>
		<polygon fill="#BEBDC1" points="38.635,8.663 37.547,8.255 37.627,8.043 38.714,8.45 		"/>
		<polygon fill="#BEBDC1" points="37.932,8.737 37.437,8.552 37.516,8.339 38.012,8.524 		"/>
		<polygon fill="#BEBDC1" points="38.524,8.958 38.029,8.773 38.108,8.561 38.603,8.747 		"/>
		<polygon fill="#BEBDC1" points="38.413,9.254 37.327,8.847 37.406,8.634 38.493,9.041 		"/>
		<polygon fill="#BEBDC1" points="36.343,12.981 35.848,12.795 35.927,12.583 36.423,12.769 		"/>
		<polygon fill="#BEBDC1" points="36.935,13.203 36.44,13.018 36.519,12.805 37.015,12.991 		"/>
		<polygon fill="#BEBDC1" points="36.122,13.573 35.626,13.387 35.706,13.175 36.202,13.361 		"/>
		<polygon fill="#BEBDC1" points="36.713,13.794 36.218,13.609 36.298,13.397 36.792,13.581 		"/>
		<polygon fill="#BEBDC1" points="36.824,13.499 35.738,13.092 35.817,12.879 36.904,13.287 		"/>
		<polygon fill="#BEBDC1" points="34.694,9.869 34.482,11.009 34.259,10.968 34.471,9.827 		"/>
		<polygon fill="#BEBDC1" points="35.005,9.926 34.792,11.067 34.57,11.026 34.781,9.884 		"/>
		<polygon fill="#BEBDC1" points="35.315,9.984 35.103,11.125 34.88,11.083 35.092,9.943 		"/>
		<polygon fill="#BEBDC1" points="39.345,11.375 39.248,11.894 39.026,11.853 39.122,11.334 		"/>
		<polygon fill="#BEBDC1" points="39.461,10.754 39.364,11.274 39.141,11.232 39.238,10.713 		"/>
		<polygon fill="#BEBDC1" points="39.656,11.433 39.559,11.953 39.336,11.912 39.432,11.391 		"/>
		<polygon fill="#BEBDC1" points="39.771,10.811 39.674,11.331 39.452,11.29 39.548,10.77 		"/>
		<polygon fill="#BEBDC1" points="39.966,11.491 39.87,12.01 39.647,11.969 39.743,11.45 		"/>
		<polygon fill="#BEBDC1" points="40.081,10.869 39.985,11.39 39.762,11.348 39.859,10.828 		"/>
		
			<line fill="none" stroke="#BEBDC1" stroke-width="0.5" stroke-linecap="round" stroke-miterlimit="10" x1="32.331" y1="10.156" x2="38.665" y2="21.362"/>
		
			<path fill="#2B2333" stroke="#BEBDC1" stroke-width="0.5" stroke-linecap="round" stroke-linejoin="round" stroke-miterlimit="10" d="
			M37.106,17.486c-0.415-0.391-1.105-0.332-1.543,0.132s-0.827,1.55-0.413,1.94c0.414,0.391,1.422,0.26,1.859-0.204
			C37.448,18.89,37.519,17.875,37.106,17.486z"/>
		<path fill="#2B2333" stroke="#BEBDC1" stroke-width="0.5" stroke-miterlimit="10" d="M18.956,19.871c0,0-3.429-0.018-5.626,3.01
			c-2.999,4.131-1.416,6.737-1.416,6.737h16.208c0,0,7.603-1.66,9.196-10.156l-2.869-1.659c0,0-3.002,4.725-10.011,1.947"/>
		<circle fill="none" stroke="#BEBDC1" stroke-width="0.5" stroke-miterlimit="10" cx="15.478" cy="18.583" r="1.074"/>
		<circle fill="none" stroke="#BEBDC1" stroke-width="0.5" stroke-miterlimit="10" cx="13.303" cy="20.389" r="0.927"/>
		<circle fill="none" stroke="#BEBDC1" stroke-width="0.5" stroke-miterlimit="10" cx="11.497" cy="21.805" r="0.879"/>
		<polygon fill="#2B2333" stroke="#BEBDC1" stroke-width="0.5" stroke-miterlimit="10" points="20.211,29.618 20.211,29.618 
			18.456,29.618 18.772,29.108 20.544,24.091 20.544,24.091 21.983,24.6 21.983,24.6 		"/>
		<path fill="#2B2333" stroke="#BEBDC1" stroke-width="0.5" stroke-miterlimit="10" d="M24.803,25.125
			c0,0.324-0.262,0.586-0.585,0.586h-2.979c-0.324,0-0.586-0.262-0.586-0.586v-0.829c0-0.324,0.262-0.587,0.586-0.587h2.979
			c0.323,0,0.585,0.263,0.585,0.587V25.125z"/>
		<polygon fill="#2B2333" stroke="#BEBDC1" stroke-width="0.5" stroke-miterlimit="10" points="21.593,29.618 21.593,29.618 
			20.067,29.618 20.067,29.618 20.067,24.296 20.067,24.296 21.593,24.296 21.593,24.296 		"/>
		<path fill="#2B2333" stroke="#BEBDC1" stroke-width="0.5" stroke-miterlimit="10" d="M22.215,25.125
			c0,0.324-0.262,0.586-0.586,0.586h-0.977c-0.323,0-0.585-0.262-0.585-0.586v-0.829c0-0.324,0.262-0.587,0.585-0.587h0.977
			c0.324,0,0.586,0.263,0.586,0.587V25.125z"/>
		<path fill="none" stroke="#BEBDC1" stroke-width="0.5" stroke-miterlimit="10" d="M17.129,13.684
			c-0.12,0.486-0.188,1.001-0.188,1.534c0,3.029,2.083,5.484,4.652,5.484c2.57,0,4.652-2.455,4.652-5.484
			c0-0.533-0.068-1.048-0.188-1.534l-4.464-0.599L17.129,13.684z"/>
		<path fill="none" stroke="#BEBDC1" stroke-width="0.5" stroke-miterlimit="10" d="M21.593,9.733c-2.116,0-3.9,1.669-4.464,3.951
			l4.464-0.599V9.733z"/>
		<path fill="none" stroke="#BEBDC1" stroke-width="0.5" stroke-miterlimit="10" d="M21.593,9.733v3.353l4.464,0.599
			C25.494,11.402,23.71,9.733,21.593,9.733z"/>
	</g>
</g>
</svg>
