<?xml version="1.0" encoding="utf-8"?>
<!-- Generator: Adobe Illustrator 15.1.0, SVG Export Plug-In . SVG Version: 6.00 Build 0)  -->
<!DOCTYPE svg PUBLIC "-//W3C//DTD SVG 1.1//EN" "http://www.w3.org/Graphics/SVG/1.1/DTD/svg11.dtd">
<svg version="1.1" id="Layer_1" xmlns="http://www.w3.org/2000/svg" xmlns:xlink="http://www.w3.org/1999/xlink" x="0px" y="0px"
	 width="180px" height="35px" viewBox="0 -0.269 180 35" enable-background="new 0 -0.269 180 35" xml:space="preserve">
<g id="화이트데이">
	<g>
		<rect x="0.499" y="0.231" fill="#2B2333" width="179" height="34"/>
		<path fill="#BEBDC1" d="M179,0.731v33H1v-33H179 M180-0.269H0v35h180V-0.269L180-0.269z"/>
	</g>
	<g>
		<path fill="#6CB2FF" d="M57.654,17.379c0,3.276-1.058,4.914-3.172,4.914c-2.132,0-3.198-1.638-3.198-4.914
			c0-1.36,0.208-2.465,0.624-3.315c0.528-1.066,1.387-1.599,2.574-1.599c1.17,0,2.023,0.533,2.561,1.599
			c0.2,0.425,0.351,0.91,0.455,1.456S57.654,16.686,57.654,17.379z M56.718,17.379c0-2.721-0.746-4.082-2.236-4.082
			c-1.491,0-2.236,1.361-2.236,4.082c0,2.73,0.746,4.095,2.236,4.095C55.973,21.475,56.718,20.109,56.718,17.379z"/>
		<path fill="#6CB2FF" d="M59.37,22.021c-0.13-0.035-0.187-0.135-0.169-0.299l0.052-0.507c0.018-0.104,0.087-0.13,0.208-0.078
			c0.364,0.147,0.708,0.251,1.034,0.312c0.325,0.061,0.704,0.096,1.138,0.104c0.685,0.009,1.261-0.165,1.729-0.52
			c0.546-0.364,0.819-0.897,0.819-1.599c0-1.231-0.923-1.846-2.769-1.846h-0.676c-0.113,0-0.169-0.047-0.169-0.143v-0.481
			c0-0.112,0.057-0.169,0.169-0.169h0.065c0.927,0,1.651-0.1,2.171-0.299c0.789-0.304,1.183-0.85,1.183-1.638
			c0-0.251-0.067-0.483-0.202-0.695c-0.135-0.212-0.314-0.392-0.54-0.54c-0.208-0.122-0.442-0.217-0.702-0.286
			c-0.26-0.069-0.533-0.104-0.819-0.104c-0.295,0-0.62,0.039-0.975,0.117c-0.355,0.078-0.698,0.182-1.027,0.312
			c-0.113,0.044-0.178,0.009-0.195-0.104l-0.052-0.481c-0.026-0.121,0.03-0.208,0.169-0.26c0.39-0.13,0.754-0.225,1.092-0.286
			c0.338-0.061,0.697-0.091,1.079-0.091c0.875,0,1.59,0.187,2.145,0.559c0.633,0.425,0.949,1.044,0.949,1.859
			c0,0.581-0.208,1.083-0.624,1.508c-0.347,0.373-0.797,0.646-1.352,0.819c0.277,0.035,0.535,0.108,0.773,0.221
			c0.238,0.113,0.444,0.269,0.618,0.468c0.199,0.217,0.351,0.461,0.455,0.734s0.156,0.574,0.156,0.903
			c0,0.434-0.089,0.826-0.267,1.177c-0.178,0.351-0.431,0.652-0.76,0.903c-0.321,0.234-0.689,0.418-1.105,0.553
			c-0.416,0.134-0.88,0.197-1.391,0.188c-0.459-0.009-0.856-0.035-1.189-0.078S59.717,22.133,59.37,22.021z"/>
		<path fill="#6CB2FF" d="M67.651,22.15c0-0.182,0.063-0.336,0.188-0.461c0.126-0.125,0.28-0.188,0.462-0.188
			c0.182,0,0.335,0.063,0.461,0.188c0.125,0.125,0.188,0.279,0.188,0.461s-0.063,0.336-0.188,0.461
			c-0.126,0.125-0.28,0.188-0.461,0.188c-0.182,0-0.336-0.063-0.462-0.188C67.714,22.486,67.651,22.333,67.651,22.15z"/>
		<path fill="#6CB2FF" d="M74.983,22.06c0,0.121-0.061,0.182-0.182,0.182h-0.533c-0.122,0-0.182-0.061-0.182-0.182v-8.45
			c-0.269,0.226-0.52,0.438-0.754,0.637c-0.234,0.199-0.481,0.412-0.741,0.637c-0.095,0.078-0.182,0.069-0.26-0.026l-0.26-0.312
			c-0.026-0.043-0.039-0.089-0.039-0.137c0-0.047,0.021-0.088,0.065-0.124l2.015-1.69c0.035-0.034,0.087-0.052,0.156-0.052h0.351
			c0.182,0,0.288,0.015,0.318,0.045c0.03,0.03,0.045,0.137,0.045,0.318L74.983,22.06L74.983,22.06z"/>
		<path fill="#6CB2FF" d="M84.044,22.06c0,0.121-0.061,0.182-0.182,0.182h-0.52c-0.121,0-0.182-0.061-0.182-0.182v-2.106h-4.29
			c-0.182,0-0.289-0.015-0.319-0.046c-0.03-0.03-0.045-0.136-0.045-0.318v-0.403c0-0.078,0.004-0.13,0.013-0.156
			c0.008-0.026,0.035-0.073,0.078-0.143l4.147-6.188c0.052-0.078,0.088-0.124,0.11-0.136c0.021-0.013,0.08-0.02,0.175-0.02h0.65
			c0.182,0,0.288,0.015,0.318,0.045c0.03,0.03,0.045,0.137,0.045,0.318v6.253h1.287c0.121,0,0.182,0.061,0.182,0.182v0.429
			c0,0.122-0.061,0.182-0.182,0.182h-1.287v2.107H84.044z M83.16,19.16v-5.798c-0.642,0.971-1.279,1.937-1.911,2.899
			c-0.633,0.962-1.274,1.929-1.924,2.899H83.16z"/>
		<path fill="#BEBDC1" d="M96.719,16.938c0,0.294-0.059,0.563-0.176,0.806c-0.115,0.243-0.279,0.455-0.486,0.637
			c-0.209,0.182-0.457,0.332-0.748,0.449c-0.291,0.117-0.608,0.193-0.955,0.227v1.352c0.295-0.017,0.603-0.041,0.923-0.071
			c0.321-0.03,0.635-0.065,0.942-0.104s0.604-0.08,0.892-0.124c0.284-0.043,0.546-0.086,0.778-0.13
			c0.14-0.026,0.213,0.004,0.222,0.091l0.077,0.494c0.019,0.104-0.039,0.165-0.168,0.182c-0.58,0.095-1.219,0.182-1.912,0.26
			c-0.692,0.078-1.391,0.139-2.092,0.182c-0.252,0.018-0.547,0.03-0.885,0.039c-0.338,0.009-0.682,0.015-1.033,0.02
			c-0.351,0.005-0.692,0.006-1.026,0.006s-0.621-0.004-0.864-0.013c-0.052,0-0.098-0.017-0.137-0.052s-0.059-0.074-0.059-0.117
			V20.63c0-0.052,0.021-0.093,0.059-0.124c0.039-0.03,0.085-0.045,0.137-0.045c0.189,0.009,0.418,0.015,0.684,0.02
			c0.264,0.004,0.541,0.004,0.832,0c0.289-0.004,0.584-0.009,0.883-0.013c0.3-0.004,0.584-0.011,0.853-0.02V19.07
			c-0.354-0.035-0.679-0.11-0.969-0.228c-0.29-0.117-0.539-0.269-0.747-0.455c-0.208-0.186-0.371-0.403-0.488-0.65
			c-0.115-0.247-0.175-0.514-0.175-0.799c0-0.321,0.071-0.613,0.214-0.877c0.145-0.265,0.34-0.49,0.592-0.676
			c0.252-0.186,0.549-0.329,0.891-0.429c0.343-0.1,0.718-0.15,1.125-0.15c0.398,0,0.771,0.052,1.117,0.156
			c0.349,0.104,0.646,0.249,0.897,0.436s0.448,0.409,0.591,0.669C96.646,16.326,96.719,16.617,96.719,16.938z M97.355,14.129h-6.916
			c-0.043,0-0.084-0.017-0.123-0.052c-0.039-0.034-0.059-0.078-0.059-0.13v-0.429c0-0.052,0.02-0.095,0.059-0.13
			c0.039-0.034,0.08-0.052,0.123-0.052h6.916c0.131,0,0.195,0.057,0.195,0.169v0.455C97.551,14.073,97.486,14.129,97.355,14.129z
			 M95.523,12.504H92.09c-0.044,0-0.085-0.015-0.123-0.045c-0.039-0.03-0.059-0.072-0.059-0.124v-0.442
			c0-0.052,0.018-0.095,0.052-0.13c0.035-0.034,0.074-0.052,0.117-0.052h3.444c0.13,0,0.195,0.061,0.195,0.182v0.429
			C95.719,12.444,95.652,12.504,95.523,12.504z M95.835,16.938c0-0.442-0.183-0.78-0.546-1.014s-0.828-0.351-1.391-0.351
			c-0.277,0-0.535,0.031-0.773,0.091s-0.445,0.147-0.617,0.26c-0.174,0.113-0.311,0.256-0.41,0.429
			c-0.099,0.173-0.148,0.368-0.148,0.585c0,0.217,0.05,0.409,0.148,0.579c0.101,0.169,0.236,0.312,0.41,0.429
			c0.172,0.117,0.379,0.208,0.617,0.273c0.238,0.065,0.496,0.098,0.773,0.098c0.563,0,1.025-0.121,1.391-0.364
			C95.652,17.709,95.835,17.371,95.835,16.938z M99.41,23.45h-0.533c-0.121,0-0.182-0.061-0.182-0.182V11.646
			c0-0.122,0.061-0.182,0.182-0.182h0.533c0.121,0,0.182,0.061,0.182,0.182v5.083h1.795c0.051,0,0.098,0.015,0.137,0.045
			s0.059,0.071,0.059,0.124v0.442c0,0.043-0.02,0.083-0.059,0.117c-0.039,0.034-0.086,0.052-0.137,0.052h-1.795v5.759
			C99.592,23.39,99.531,23.45,99.41,23.45z"/>
		<path fill="#BEBDC1" d="M109.225,16.418c0,0.485-0.06,0.975-0.176,1.469c-0.117,0.494-0.302,0.94-0.554,1.339
			c-0.251,0.398-0.574,0.726-0.968,0.981c-0.395,0.255-0.869,0.383-1.424,0.383c-0.571,0-1.057-0.125-1.449-0.377
			c-0.395-0.251-0.711-0.579-0.949-0.981s-0.409-0.852-0.513-1.346c-0.104-0.494-0.156-0.983-0.156-1.469
			c0-0.511,0.052-1.016,0.156-1.515c0.104-0.498,0.274-0.947,0.513-1.346c0.238-0.398,0.555-0.719,0.949-0.962
			c0.395-0.242,0.878-0.364,1.449-0.364c0.555,0,1.029,0.122,1.424,0.364c0.394,0.243,0.717,0.562,0.968,0.956
			c0.252,0.395,0.437,0.841,0.554,1.339C109.166,15.388,109.225,15.898,109.225,16.418z M108.303,16.404
			c0-0.398-0.041-0.801-0.125-1.209c-0.082-0.407-0.209-0.773-0.383-1.099c-0.174-0.325-0.398-0.589-0.676-0.793
			c-0.277-0.204-0.615-0.305-1.014-0.305c-0.416,0-0.762,0.102-1.034,0.305c-0.272,0.204-0.492,0.468-0.657,0.793
			c-0.164,0.325-0.281,0.691-0.35,1.099c-0.07,0.408-0.104,0.811-0.104,1.209c0,0.381,0.032,0.773,0.097,1.177
			c0.065,0.403,0.181,0.771,0.347,1.105c0.164,0.333,0.385,0.606,0.661,0.819c0.277,0.213,0.625,0.318,1.041,0.318
			c0.398,0,0.736-0.106,1.015-0.318s0.502-0.485,0.676-0.819c0.175-0.334,0.302-0.702,0.384-1.105
			C108.262,17.178,108.303,16.786,108.303,16.404z M112.085,23.45h-0.532c-0.123,0-0.184-0.061-0.184-0.182V11.646
			c0-0.122,0.061-0.182,0.184-0.182h0.532c0.121,0,0.183,0.061,0.183,0.182v11.622C112.266,23.39,112.206,23.45,112.085,23.45z"/>
		<path fill="#BEBDC1" d="M125.787,20.662c0.043,0.03,0.064,0.071,0.064,0.123v0.442c0,0.043-0.021,0.083-0.064,0.117
			c-0.044,0.035-0.088,0.052-0.131,0.052h-11.051c-0.051,0-0.098-0.018-0.135-0.052c-0.039-0.034-0.06-0.073-0.06-0.117v-0.442
			c0-0.052,0.021-0.093,0.06-0.123c0.037-0.03,0.084-0.046,0.135-0.046h11.051C125.699,20.616,125.743,20.632,125.787,20.662z
			 M124.07,18.225h-7.02c-0.383,0-0.643-0.063-0.781-0.189c-0.139-0.125-0.207-0.37-0.207-0.734v-4.225
			c0-0.364,0.068-0.608,0.207-0.734c0.14-0.125,0.398-0.188,0.781-0.188h6.928c0.113,0,0.17,0.057,0.17,0.169v0.429
			c0,0.122-0.057,0.182-0.17,0.182h-6.707c-0.121,0-0.203,0.024-0.248,0.071c-0.043,0.048-0.064,0.137-0.064,0.267v1.534h6.838
			c0.122,0,0.184,0.048,0.184,0.143v0.442c0,0.113-0.057,0.169-0.17,0.169h-6.852v1.547c0,0.122,0.021,0.208,0.064,0.26
			c0.045,0.052,0.127,0.078,0.248,0.078h6.799c0.113,0,0.169,0.057,0.169,0.169v0.429C124.239,18.164,124.184,18.225,124.07,18.225z
			"/>
		<path fill="#BEBDC1" d="M133.145,19.434c0.018,0.121-0.039,0.195-0.17,0.221c-0.304,0.069-0.64,0.132-1.008,0.188
			c-0.367,0.057-0.754,0.1-1.156,0.13c-0.402,0.031-0.814,0.052-1.234,0.065c-0.421,0.013-0.834,0.015-1.242,0.006
			c-0.39-0.009-0.656-0.1-0.799-0.273c-0.145-0.173-0.215-0.442-0.215-0.806v-5.499c0-0.364,0.068-0.606,0.208-0.728
			c0.138-0.121,0.397-0.182,0.78-0.182h3.69c0.113,0,0.17,0.052,0.17,0.156v0.468c0,0.104-0.057,0.156-0.17,0.156h-3.522
			c-0.121,0-0.194,0.015-0.222,0.045c-0.024,0.03-0.038,0.11-0.038,0.241V18.9c0,0.13,0.021,0.217,0.064,0.26
			s0.126,0.07,0.247,0.078c0.754,0.026,1.489,0.013,2.21-0.039c0.72-0.052,1.417-0.151,2.093-0.299
			c0.14-0.026,0.222,0.021,0.247,0.143L133.145,19.434z M133.977,15.845v-3.978c0-0.121,0.061-0.182,0.182-0.182h0.494
			c0.121,0,0.182,0.061,0.182,0.182v10.907c0,0.121-0.061,0.182-0.182,0.182h-0.494c-0.121,0-0.182-0.061-0.182-0.182v-6.149h-2.73
			c-0.113,0-0.169-0.052-0.169-0.156v-0.468c0-0.104,0.056-0.156,0.169-0.156H133.977L133.977,15.845z M137.135,23.269
			c0,0.121-0.061,0.182-0.182,0.182h-0.494c-0.121,0-0.182-0.061-0.182-0.182V11.647c0-0.122,0.061-0.182,0.182-0.182h0.494
			c0.121,0,0.182,0.061,0.182,0.182V23.269z"/>
		<path fill="#BEBDC1" d="M145.885,16.418c0,0.485-0.06,0.975-0.176,1.469c-0.117,0.494-0.302,0.94-0.553,1.339
			c-0.252,0.398-0.574,0.726-0.969,0.981c-0.396,0.255-0.869,0.383-1.424,0.383c-0.572,0-1.056-0.125-1.449-0.377
			c-0.395-0.252-0.711-0.579-0.949-0.981s-0.409-0.852-0.514-1.346c-0.104-0.494-0.156-0.983-0.156-1.469
			c0-0.511,0.053-1.016,0.156-1.515c0.104-0.498,0.274-0.947,0.514-1.346c0.238-0.398,0.555-0.719,0.949-0.962
			c0.395-0.242,0.877-0.364,1.449-0.364c0.555,0,1.028,0.122,1.424,0.364c0.395,0.243,0.717,0.562,0.969,0.956
			c0.251,0.395,0.436,0.841,0.553,1.339C145.825,15.388,145.885,15.898,145.885,16.418z M144.961,16.404
			c0-0.398-0.041-0.801-0.123-1.209c-0.083-0.407-0.211-0.773-0.384-1.099c-0.174-0.325-0.399-0.589-0.677-0.793
			c-0.277-0.204-0.615-0.305-1.014-0.305c-0.416,0-0.761,0.102-1.033,0.305c-0.273,0.204-0.492,0.468-0.656,0.793
			c-0.165,0.325-0.282,0.691-0.352,1.099c-0.069,0.408-0.104,0.811-0.104,1.209c0,0.381,0.032,0.773,0.099,1.177
			c0.063,0.403,0.18,0.771,0.344,1.105c0.164,0.333,0.386,0.606,0.664,0.819c0.275,0.212,0.623,0.318,1.039,0.318
			c0.397,0,0.735-0.106,1.014-0.318c0.277-0.212,0.503-0.485,0.677-0.819c0.173-0.333,0.301-0.702,0.384-1.105
			C144.92,17.178,144.961,16.786,144.961,16.404z M148.744,23.45h-0.533c-0.121,0-0.182-0.061-0.182-0.182V11.646
			c0-0.122,0.061-0.182,0.182-0.182h0.533c0.121,0,0.182,0.061,0.182,0.182v11.622C148.926,23.39,148.865,23.45,148.744,23.45z"/>
	</g>
	<g>
		<path fill="#2B2333" stroke="#BEBDC1" stroke-width="0.5" stroke-linecap="round" stroke-miterlimit="10" d="M18.676,20.02
			c-2.667,0.089-6.378,0.972-6.273,2.452c0.122,1.726,1.883,1.483,1.883,1.483c-0.818,2.611,1.916,4.003,2.951,3.143
			c0.407,1.083,1.403,1.868,2.009,1.606c1.388-0.6,2.148-2.646,2.114-6.353C21.344,20.613,19.869,19.981,18.676,20.02L18.676,20.02z
			"/>
		<path fill="#2B2333" stroke="#BEBDC1" stroke-width="0.5" stroke-linecap="round" stroke-miterlimit="10" d="M12.712,21.705
			c-0.216,0.233-0.33,0.489-0.31,0.767c0.122,1.726,1.883,1.483,1.883,1.483c-0.818,2.611,1.916,4.003,2.951,3.143
			c0.407,1.083,1.403,1.868,2.009,1.606c0.283-0.123,0.541-0.306,0.77-0.551c-0.663-1.015-1.428-0.27-1.948-1.076
			c-0.386-0.599-0.004-1.309,0.869-2.498c-1.609,1.388-3.131,1.233-3.48,0.927c-0.698-0.614-0.853-1.793-1.337-2.884
			C13.79,21.88,13.134,21.588,12.712,21.705L12.712,21.705z"/>
		<path fill="#2B2333" stroke="#BEBDC1" stroke-width="0.5" stroke-linecap="round" stroke-miterlimit="10" d="M26.418,12.048
			c0.011-2.669,0.785-6.403,2.266-6.343c1.73,0.072,1.54,1.841,1.54,1.841c2.585-0.895,4.057,1.797,3.227,2.858
			c1.096,0.374,1.909,1.347,1.664,1.961c-0.56,1.404-2.583,2.224-6.289,2.299C27.089,14.698,26.413,13.242,26.418,12.048"/>
		<path fill="#2B2333" stroke="#BEBDC1" stroke-width="0.5" stroke-linecap="round" stroke-miterlimit="10" d="M27.929,6.038
			c0.227-0.223,0.479-0.344,0.755-0.333c1.73,0.072,1.54,1.841,1.54,1.841c2.585-0.895,4.057,1.797,3.227,2.858
			c1.096,0.374,1.909,1.347,1.664,1.961c-0.114,0.287-0.29,0.548-0.527,0.785c-1.034-0.632-0.312-1.42-1.133-1.916
			c-0.61-0.37-1.308,0.034-2.471,0.941c1.34-1.649,1.142-3.166,0.825-3.505c-0.635-0.682-1.818-0.802-2.921-1.252
			C28.135,7.11,27.826,6.463,27.929,6.038L27.929,6.038z"/>
		
			<ellipse transform="matrix(-0.7223 -0.6916 0.6916 -0.7223 28.0135 45.6978)" fill="#2B2333" stroke="#BEBDC1" stroke-width="0.5" stroke-linecap="round" stroke-miterlimit="10" cx="23.181" cy="17.225" rx="5.15" ry="5.817"/>
		<path fill="#2B2333" stroke="#BEBDC1" stroke-width="0.5" stroke-linecap="round" stroke-miterlimit="10" d="M26.909,17.592
			c2.203-2.556,6.059-2.84,8.613-0.638c2.554,2.202,2.84,6.06,0.638,8.613c-2.203,2.555-6.059,2.84-8.613,0.638
			C24.991,24.003,24.706,20.147,26.909,17.592"/>
		<path fill="#2B2333" stroke="#BEBDC1" stroke-width="0.5" stroke-linecap="round" stroke-miterlimit="10" d="M29.824,27.888
			c-0.916-0.247-1.791-0.698-2.557-1.358c-0.506-0.438-0.93-0.936-1.268-1.473c0.012-0.016,0.026-0.029,0.043-0.041
			c1.375-1.066,2.934-2.56,4.458-4.329c1.525-1.768,2.772-3.529,3.625-5.046c0.009-0.019,0.021-0.034,0.034-0.049
			c1.495,0.655,2.538,2.148,3.191,3.646c-0.898,1.574-1.883,2.938-3.265,4.541C32.703,25.38,31.249,26.769,29.824,27.888"/>
		
			<ellipse transform="matrix(0.1501 -0.9887 0.9887 0.1501 -0.5437 34.871)" fill="#2B2333" stroke="#BEBDC1" stroke-width="0.5" stroke-linecap="round" stroke-miterlimit="10" cx="20.01" cy="17.752" rx="1.456" ry="1.028"/>
		
			<ellipse transform="matrix(0.1495 -0.9888 0.9888 0.1495 2.3545 44.4844)" fill="#2B2333" stroke="#BEBDC1" stroke-width="0.5" stroke-linecap="round" stroke-miterlimit="10" cx="27.036" cy="20.874" rx="1.455" ry="1.028"/>
	</g>
</g>
</svg>
