<?xml version="1.0" encoding="utf-8"?>
<!-- Generator: Adobe Illustrator 15.1.0, SVG Export Plug-In . SVG Version: 6.00 Build 0)  -->
<!DOCTYPE svg PUBLIC "-//W3C//DTD SVG 1.1//EN" "http://www.w3.org/Graphics/SVG/1.1/DTD/svg11.dtd">
<svg version="1.1" id="Layer_1" xmlns="http://www.w3.org/2000/svg" xmlns:xlink="http://www.w3.org/1999/xlink" x="0px" y="0px"
	 width="180px" height="35px" viewBox="0 -0.269 180 35" enable-background="new 0 -0.269 180 35" xml:space="preserve">
<g id="광복절">
	<g>
		<rect x="0.499" y="0.231" fill="#2B2333" width="179" height="34"/>
		<path fill="#BEBDC1" d="M179,0.731v33H1v-33H179 M180-0.269H0v35h180V-0.269L180-0.269z"/>
	</g>
	<g>
		<path fill="#FF4F5F" d="M57.654,17.381c0,3.274-1.058,4.914-3.172,4.914c-2.132,0-3.198-1.64-3.198-4.914
			c0-1.361,0.208-2.466,0.624-3.315c0.528-1.064,1.387-1.599,2.574-1.599c1.17,0,2.023,0.533,2.561,1.599
			c0.2,0.425,0.351,0.91,0.455,1.456S57.654,16.687,57.654,17.381z M56.718,17.381c0-2.722-0.746-4.082-2.236-4.082
			c-1.491,0-2.236,1.359-2.236,4.082c0,2.729,0.746,4.095,2.236,4.095C55.973,21.475,56.718,20.11,56.718,17.381z"/>
		<path fill="#FF4F5F" d="M65.584,19.747c0,0.425-0.089,0.807-0.266,1.145c-0.178,0.338-0.432,0.619-0.761,0.845
			c-0.286,0.19-0.615,0.338-0.988,0.442c-0.373,0.104-0.776,0.156-1.209,0.156c-0.425,0-0.821-0.058-1.19-0.17
			c-0.368-0.112-0.704-0.27-1.007-0.469c-0.33-0.232-0.585-0.518-0.767-0.852c-0.182-0.333-0.273-0.7-0.273-1.099
			c0-0.677,0.226-1.228,0.676-1.65c0.346-0.33,0.879-0.629,1.599-0.897c-1.317-0.648-1.976-1.48-1.976-2.495
			c0-0.364,0.091-0.688,0.273-0.969c0.182-0.281,0.438-0.535,0.767-0.762c0.277-0.172,0.574-0.305,0.891-0.396
			c0.316-0.09,0.652-0.136,1.008-0.136c0.416,0,0.788,0.046,1.118,0.136c0.33,0.093,0.628,0.229,0.897,0.41
			c0.598,0.416,0.897,0.988,0.897,1.717c0,0.9-0.676,1.732-2.028,2.495c0.355,0.131,0.674,0.272,0.956,0.43
			c0.281,0.155,0.509,0.313,0.683,0.469C65.35,18.512,65.584,19.062,65.584,19.747z M64.674,19.681c0-0.477-0.217-0.893-0.65-1.248
			c-0.139-0.113-0.333-0.238-0.585-0.377s-0.559-0.291-0.923-0.455c-0.113-0.061-0.238-0.061-0.377,0
			c-0.338,0.13-0.637,0.266-0.897,0.409c-0.26,0.144-0.468,0.274-0.624,0.396c-0.173,0.175-0.314,0.375-0.422,0.604
			c-0.108,0.229-0.163,0.475-0.163,0.734c0,0.528,0.247,0.963,0.741,1.301c0.451,0.338,0.979,0.506,1.586,0.506
			c0.624,0,1.148-0.146,1.573-0.441C64.427,20.773,64.674,20.297,64.674,19.681z M64.349,14.806c0-0.494-0.217-0.885-0.65-1.17
			c-0.381-0.271-0.828-0.403-1.339-0.403c-0.555,0-1.023,0.14-1.404,0.416c-0.416,0.277-0.624,0.663-0.624,1.157
			c0,0.451,0.217,0.857,0.65,1.222c0.122,0.112,0.284,0.233,0.488,0.364c0.204,0.13,0.444,0.26,0.721,0.39
			c0.069,0.034,0.126,0.051,0.169,0.046c0.043-0.004,0.108-0.027,0.195-0.071c0.555-0.304,0.992-0.621,1.313-0.955
			C64.188,15.467,64.349,15.136,64.349,14.806z"/>
		<path fill="#FF4F5F" d="M67.651,22.151c0-0.183,0.063-0.336,0.188-0.462c0.126-0.125,0.28-0.188,0.462-0.188
			c0.182,0,0.335,0.063,0.461,0.188c0.125,0.126,0.188,0.279,0.188,0.462c0,0.184-0.063,0.336-0.188,0.462
			c-0.126,0.125-0.28,0.188-0.461,0.188c-0.182,0-0.336-0.063-0.462-0.188C67.714,22.487,67.651,22.334,67.651,22.151z"/>
		<path fill="#FF4F5F" d="M74.983,22.06c0,0.121-0.061,0.182-0.182,0.182h-0.533c-0.122,0-0.182-0.061-0.182-0.182v-8.45
			c-0.269,0.227-0.52,0.438-0.754,0.639c-0.234,0.198-0.481,0.41-0.741,0.637c-0.095,0.078-0.182,0.067-0.26-0.026l-0.26-0.312
			c-0.026-0.044-0.039-0.09-0.039-0.138s0.021-0.089,0.065-0.123l2.015-1.69c0.035-0.033,0.087-0.051,0.156-0.051h0.351
			c0.182,0,0.288,0.015,0.318,0.045c0.03,0.03,0.045,0.137,0.045,0.317L74.983,22.06L74.983,22.06z"/>
		<path fill="#FF4F5F" d="M79.559,22.047c-0.122-0.043-0.182-0.121-0.182-0.233v-0.546c0-0.146,0.061-0.19,0.182-0.131
			c0.312,0.147,0.617,0.252,0.917,0.313c0.299,0.062,0.626,0.093,0.981,0.093c0.763,0,1.382-0.188,1.859-0.561
			c0.52-0.397,0.78-0.971,0.78-1.716c0-1.465-0.837-2.197-2.509-2.197c-0.33,0-0.626,0.019-0.891,0.053
			c-0.264,0.034-0.557,0.096-0.877,0.183c-0.095,0.025-0.173,0.015-0.234-0.033c-0.061-0.047-0.091-0.119-0.091-0.215l0.078-4.146
			c0-0.183,0.015-0.288,0.046-0.318c0.03-0.03,0.136-0.045,0.318-0.045h4.446c0.122,0,0.182,0.061,0.182,0.182v0.429
			c0,0.122-0.061,0.184-0.182,0.184h-3.926c-0.009,0.545-0.02,1.078-0.033,1.599c-0.013,0.521-0.024,1.054-0.032,1.6
			c0.424-0.164,0.94-0.246,1.547-0.246c0.91,0,1.646,0.246,2.21,0.739c0.563,0.513,0.845,1.196,0.845,2.056
			c0,1.049-0.325,1.857-0.975,2.43c-0.624,0.547-1.478,0.82-2.561,0.82c-0.39,0-0.728-0.022-1.014-0.065
			C80.157,22.224,79.862,22.151,79.559,22.047z"/>
		<path fill="#BEBDC1" d="M98.045,16.977c0.078-0.009,0.129-0.003,0.149,0.021c0.021,0.021,0.036,0.054,0.046,0.097l0.052,0.441
			c0.009,0.053,0.002,0.094-0.021,0.124c-0.021,0.03-0.07,0.051-0.148,0.06c-0.563,0.067-1.279,0.129-2.15,0.182
			c-0.871,0.052-1.85,0.078-2.933,0.078h-2.704c-0.052,0-0.098-0.018-0.137-0.053c-0.039-0.034-0.059-0.072-0.059-0.116v-0.455
			c0-0.052,0.02-0.091,0.059-0.117c0.039-0.025,0.085-0.039,0.137-0.039h2.249h0.507v-2.548c0-0.121,0.062-0.182,0.182-0.182h0.533
			c0.121,0,0.184,0.061,0.184,0.182v2.548c0.771-0.017,1.503-0.041,2.195-0.07C96.879,17.098,97.499,17.047,98.045,16.977z
			 M91.077,12.076c0.043-0.024,0.087-0.038,0.13-0.038h4.745c0.208,0,0.374,0.021,0.501,0.064c0.125,0.044,0.223,0.106,0.292,0.188
			s0.116,0.188,0.144,0.317c0.025,0.13,0.043,0.286,0.051,0.468c0.019,0.442-0.004,0.879-0.063,1.308s-0.159,0.903-0.299,1.423
			c-0.019,0.053-0.041,0.101-0.072,0.144c-0.028,0.044-0.069,0.063-0.122,0.053l-0.521-0.039c-0.148-0.008-0.199-0.086-0.156-0.233
			c0.062-0.217,0.117-0.425,0.169-0.624c0.053-0.199,0.094-0.405,0.124-0.617c0.029-0.213,0.05-0.432,0.06-0.655
			c0.008-0.228,0.008-0.474,0-0.742c-0.01-0.121-0.031-0.196-0.065-0.228c-0.035-0.03-0.112-0.046-0.233-0.046h-4.551
			c-0.043,0-0.087-0.015-0.13-0.046c-0.044-0.028-0.065-0.065-0.065-0.109v-0.469C91.012,12.14,91.033,12.102,91.077,12.076z
			 M99.762,21.215c0,0.365-0.108,0.688-0.326,0.976c-0.217,0.287-0.504,0.526-0.863,0.723c-0.359,0.194-0.773,0.342-1.241,0.44
			c-0.469,0.101-0.958,0.15-1.469,0.15c-0.556,0-1.07-0.051-1.548-0.15c-0.477-0.099-0.889-0.246-1.234-0.44
			c-0.346-0.195-0.618-0.437-0.813-0.723c-0.195-0.286-0.293-0.609-0.293-0.976c0-0.363,0.098-0.687,0.293-0.968
			c0.193-0.282,0.465-0.517,0.813-0.702c0.348-0.187,0.76-0.327,1.234-0.422c0.478-0.097,0.992-0.145,1.548-0.145
			c0.511,0,1,0.048,1.469,0.145c0.468,0.095,0.882,0.234,1.241,0.422c0.359,0.187,0.646,0.42,0.863,0.702
			C99.653,20.529,99.762,20.851,99.762,21.215z M98.838,21.254c0-0.242-0.08-0.457-0.24-0.644s-0.377-0.34-0.649-0.462
			c-0.272-0.121-0.593-0.212-0.955-0.271c-0.364-0.062-0.746-0.093-1.146-0.093c-0.44,0-0.845,0.031-1.209,0.093
			c-0.362,0.061-0.674,0.15-0.93,0.271c-0.256,0.122-0.455,0.275-0.598,0.462s-0.215,0.4-0.215,0.644
			c0,0.233,0.072,0.439,0.215,0.618c0.143,0.177,0.342,0.326,0.598,0.447s0.566,0.215,0.93,0.279
			c0.364,0.065,0.769,0.098,1.209,0.098c0.398,0,0.78-0.031,1.146-0.098c0.362-0.064,0.683-0.158,0.955-0.279
			s0.489-0.271,0.649-0.447C98.758,21.694,98.838,21.488,98.838,21.254z M99.41,18.784h-0.533c-0.121,0-0.182-0.061-0.182-0.182
			v-6.955c0-0.122,0.061-0.183,0.182-0.183h0.533c0.121,0,0.182,0.061,0.182,0.183v3.497h1.795c0.051,0,0.098,0.016,0.137,0.045
			c0.039,0.031,0.059,0.072,0.059,0.124v0.442c0,0.043-0.02,0.082-0.059,0.117c-0.039,0.033-0.086,0.051-0.137,0.051h-1.795v2.679
			C99.592,18.723,99.531,18.784,99.41,18.784z"/>
		<path fill="#BEBDC1" d="M108.314,16.301v1.431h5.121c0.045,0,0.088,0.016,0.131,0.046c0.043,0.029,0.064,0.07,0.064,0.123v0.441
			c0,0.044-0.021,0.083-0.064,0.117s-0.086,0.053-0.131,0.053h-11.049c-0.053,0-0.099-0.019-0.138-0.053s-0.06-0.073-0.06-0.117
			v-0.441c0-0.053,0.021-0.094,0.06-0.123c0.039-0.03,0.085-0.046,0.138-0.046h5.03v-1.431h-2.366c-0.207,0-0.375-0.012-0.5-0.039
			c-0.125-0.025-0.224-0.075-0.293-0.148c-0.068-0.073-0.117-0.17-0.144-0.286c-0.024-0.116-0.039-0.267-0.039-0.447V11.7
			c0-0.043,0.019-0.079,0.053-0.109s0.073-0.046,0.117-0.046h0.56c0.043,0,0.08,0.018,0.109,0.053
			c0.03,0.034,0.046,0.069,0.046,0.104v1.469h5.902v-1.455c0-0.044,0.015-0.083,0.045-0.117c0.03-0.035,0.065-0.053,0.11-0.053h0.56
			c0.043,0,0.082,0.016,0.117,0.046c0.034,0.03,0.051,0.066,0.051,0.109v3.771c0,0.33-0.067,0.551-0.207,0.664
			c-0.14,0.112-0.397,0.168-0.78,0.168h-2.443V16.301z M103.791,19.747c0.043-0.025,0.086-0.039,0.13-0.039h6.903
			c0.406,0,0.674,0.075,0.799,0.229c0.126,0.15,0.188,0.404,0.188,0.76V23.4c0,0.121-0.061,0.184-0.182,0.184h-0.533
			c-0.121,0-0.183-0.063-0.183-0.184v-2.64c0-0.121-0.021-0.196-0.058-0.228c-0.039-0.03-0.12-0.046-0.241-0.046h-6.694
			c-0.044,0-0.087-0.015-0.13-0.046c-0.044-0.028-0.065-0.065-0.065-0.108v-0.47C103.725,19.811,103.747,19.772,103.791,19.747z
			 M104.961,13.935v1.287c0,0.13,0.021,0.215,0.064,0.254c0.043,0.038,0.126,0.058,0.248,0.058h5.277c0.12,0,0.202-0.02,0.246-0.058
			c0.043-0.039,0.065-0.124,0.065-0.254v-1.287H104.961z"/>
		<path fill="#BEBDC1" d="M120.756,13.012c-0.113,0.305-0.277,0.621-0.494,0.949c-0.217,0.33-0.485,0.659-0.807,0.987
			c0.165,0.175,0.352,0.344,0.561,0.509c0.207,0.164,0.422,0.319,0.644,0.467c0.221,0.147,0.44,0.279,0.662,0.396
			c0.222,0.117,0.428,0.207,0.618,0.269c0.068,0.018,0.109,0.051,0.123,0.104s0.007,0.101-0.02,0.144l-0.248,0.455
			c-0.018,0.044-0.054,0.069-0.109,0.078c-0.057,0.009-0.106,0.004-0.149-0.014c-0.226-0.095-0.459-0.212-0.701-0.351
			c-0.243-0.14-0.483-0.291-0.723-0.455c-0.238-0.165-0.466-0.334-0.683-0.508c-0.217-0.173-0.408-0.347-0.572-0.521
			c-0.467,0.416-0.991,0.804-1.571,1.164c-0.582,0.359-1.205,0.664-1.873,0.916c-0.043,0.019-0.088,0.027-0.137,0.032
			c-0.048,0.005-0.08-0.015-0.097-0.06l-0.234-0.468c-0.026-0.043-0.026-0.089,0-0.137c0.025-0.047,0.061-0.08,0.104-0.098
			c0.547-0.207,1.063-0.453,1.553-0.734c0.49-0.281,0.941-0.589,1.354-0.923c0.411-0.333,0.771-0.684,1.079-1.046
			c0.308-0.365,0.553-0.732,0.733-1.105c0.062-0.121,0.069-0.208,0.025-0.26c-0.043-0.053-0.125-0.078-0.246-0.078h-3.81
			c-0.104,0-0.155-0.057-0.155-0.17v-0.454c0-0.104,0.051-0.156,0.155-0.156h4.159c0.451,0,0.742,0.08,0.871,0.241
			C120.898,12.348,120.895,12.624,120.756,13.012z M124.76,23.334c0,0.043-0.02,0.08-0.059,0.11
			c-0.039,0.029-0.076,0.045-0.111,0.045h-6.539c-0.406,0-0.674-0.075-0.799-0.228s-0.188-0.409-0.188-0.773v-0.976
			c0-0.363,0.074-0.607,0.228-0.734c0.151-0.125,0.422-0.188,0.813-0.188h5.199c0.121,0,0.199-0.019,0.233-0.053
			c0.035-0.034,0.054-0.117,0.054-0.246V19.55c0-0.129-0.017-0.212-0.047-0.246c-0.029-0.035-0.105-0.053-0.229-0.053h-6.096
			c-0.045,0-0.086-0.014-0.125-0.039s-0.059-0.062-0.059-0.104v-0.469c0-0.043,0.02-0.077,0.059-0.104
			c0.039-0.024,0.08-0.038,0.125-0.038h6.238c0.209,0,0.377,0.016,0.508,0.046c0.131,0.029,0.234,0.08,0.313,0.148
			c0.078,0.069,0.132,0.167,0.162,0.293c0.029,0.125,0.046,0.279,0.046,0.461v0.976c0,0.363-0.076,0.608-0.228,0.733
			c-0.152,0.127-0.424,0.189-0.813,0.189h-5.214c-0.121,0-0.196,0.018-0.228,0.052c-0.03,0.034-0.045,0.116-0.045,0.247v0.793
			c0,0.121,0.017,0.201,0.052,0.24c0.034,0.039,0.112,0.059,0.233,0.059h6.332c0.043,0,0.084,0.015,0.123,0.039
			c0.039,0.025,0.06,0.062,0.06,0.104V23.334L124.76,23.334z M123.59,14.17v-2.522c0-0.122,0.062-0.183,0.182-0.183h0.533
			c0.121,0,0.183,0.061,0.183,0.183v5.993c0,0.121-0.062,0.182-0.183,0.182h-0.533c-0.12,0-0.182-0.061-0.182-0.182V14.95h-2.457
			c-0.113,0-0.17-0.052-0.17-0.155v-0.469c0-0.104,0.057-0.154,0.17-0.154L123.59,14.17L123.59,14.17z"/>
	</g>
	<g>
		<path fill="none" stroke="#BEBDC1" stroke-width="0.5" stroke-miterlimit="10" d="M37.32,26.836
			c-7.712-3.979-15.682,3.957-23.394-0.022c0.005-6.395,0.01-12.789,0.015-19.185c7.712,3.975,15.682-3.957,23.395,0.019
			C37.33,14.045,37.325,20.438,37.32,26.836L37.32,26.836z"/>
		<path fill="none" stroke="#BEBDC1" stroke-width="0.5" stroke-miterlimit="10" d="M24.313,18.448
			c-1.066-0.002-1.58-0.654-2.113-1.281c0,0.021,0,0.043,0,0.062c-0.001,2.109,1.705,3.822,3.813,3.822
			c2.107,0.001,3.819-1.706,3.819-3.813c0.002-0.264-0.025-0.523-0.076-0.771c-0.34-0.265-0.75-0.446-1.314-0.446
			C26.379,16.015,26.376,18.453,24.313,18.448L24.313,18.448z"/>
		<path fill="#BEBDC1" stroke="#BEBDC1" stroke-width="0.5" stroke-miterlimit="10" d="M26.019,13.417
			c-2.088,0-3.784,1.672-3.819,3.75c0.533,0.627,1.047,1.279,2.113,1.281c2.063,0.005,2.065-2.433,4.127-2.431
			c0.564,0,0.975,0.183,1.314,0.446C29.4,14.725,27.863,13.418,26.019,13.417L26.019,13.417z"/>
		<polygon fill="#BEBDC1" points="33.531,13.322 31.183,10.518 31.729,10.06 34.078,12.863 		"/>
		<polygon fill="#BEBDC1" points="31.49,12.434 30.421,11.158 30.969,10.701 32.036,11.976 		"/>
		<polygon fill="#BEBDC1" points="32.766,13.962 31.697,12.684 32.244,12.223 33.314,13.501 		"/>
		<polygon fill="#BEBDC1" points="32.005,14.599 29.659,11.798 30.206,11.338 32.552,14.14 		"/>
		<polygon fill="#BEBDC1" points="20.549,21.599 19.48,20.322 20.027,19.866 21.096,21.139 		"/>
		<polygon fill="#BEBDC1" points="21.827,23.125 20.757,21.849 21.305,21.391 22.374,22.667 		"/>
		<polygon fill="#BEBDC1" points="19.024,22.88 17.953,21.602 18.502,21.142 19.572,22.419 		"/>
		<polygon fill="#BEBDC1" points="20.303,24.403 19.232,23.125 19.779,22.668 20.848,23.943 		"/>
		<polygon fill="#BEBDC1" points="21.063,23.764 18.718,20.963 19.266,20.503 21.612,23.305 		"/>
		<polygon fill="#BEBDC1" points="20.86,10.514 18.51,13.308 17.961,12.849 20.314,10.053 		"/>
		<polygon fill="#BEBDC1" points="21.622,11.151 19.269,13.946 18.724,13.49 21.075,10.691 		"/>
		<polygon fill="#BEBDC1" points="22.381,11.792 20.031,14.589 19.485,14.13 21.837,11.334 		"/>
		<polygon fill="#BEBDC1" points="31.266,21.855 30.196,23.13 29.649,22.672 30.721,21.398 		"/>
		<polygon fill="#BEBDC1" points="32.548,20.334 31.476,21.607 30.929,21.148 31.999,19.875 		"/>
		<polygon fill="#BEBDC1" points="32.029,22.499 30.958,23.773 30.41,23.315 31.482,22.038 		"/>
		<polygon fill="#BEBDC1" points="33.308,20.973 32.236,22.25 31.691,21.791 32.762,20.516 		"/>
		<polygon fill="#BEBDC1" points="32.789,23.136 31.718,24.412 31.171,23.951 32.242,22.678 		"/>
		<polygon fill="#BEBDC1" points="34.069,21.614 32.997,22.888 32.452,22.43 33.524,21.153 		"/>
	</g>
</g>
</svg>
