<?xml version="1.0" encoding="utf-8"?>
<!-- Generator: Adobe Illustrator 15.1.0, SVG Export Plug-In . SVG Version: 6.00 Build 0)  -->
<!DOCTYPE svg PUBLIC "-//W3C//DTD SVG 1.1//EN" "http://www.w3.org/Graphics/SVG/1.1/DTD/svg11.dtd">
<svg version="1.1" id="Layer_1" xmlns="http://www.w3.org/2000/svg" xmlns:xlink="http://www.w3.org/1999/xlink" x="0px" y="0px"
	 width="180px" height="35px" viewBox="0 -0.269 180 35" enable-background="new 0 -0.269 180 35" xml:space="preserve">
<g id="성년의날">
	<g>
		<rect x="0.499" y="0.231" fill="#2B2333" width="179" height="34"/>
		<path fill="#BEBDC1" d="M179,0.731v33H1v-33H179 M180-0.269H0v35h180V-0.269L180-0.269z"/>
	</g>
	<g>
		<path fill="#6CB2FF" d="M57.654,17.38c0,3.276-1.058,4.914-3.172,4.914c-2.132,0-3.198-1.638-3.198-4.914
			c0-1.36,0.208-2.465,0.624-3.315c0.528-1.066,1.387-1.599,2.574-1.599c1.17,0,2.023,0.533,2.561,1.599
			c0.2,0.425,0.351,0.91,0.455,1.456S57.654,16.686,57.654,17.38z M56.718,17.38c0-2.721-0.746-4.082-2.236-4.082
			c-1.491,0-2.236,1.361-2.236,4.082c0,2.73,0.746,4.095,2.236,4.095C55.973,21.475,56.718,20.11,56.718,17.38z"/>
		<path fill="#6CB2FF" d="M59.864,22.047c-0.122-0.043-0.182-0.122-0.182-0.234v-0.546c0-0.147,0.061-0.191,0.182-0.13
			c0.312,0.147,0.617,0.251,0.917,0.312c0.299,0.061,0.626,0.091,0.981,0.091c0.763,0,1.382-0.187,1.859-0.559
			c0.52-0.398,0.78-0.971,0.78-1.716c0-1.464-0.837-2.197-2.509-2.197c-0.33,0-0.626,0.018-0.891,0.052
			c-0.264,0.035-0.557,0.096-0.877,0.182c-0.095,0.026-0.173,0.015-0.234-0.032c-0.061-0.048-0.091-0.119-0.091-0.215l0.078-4.147
			c0-0.182,0.015-0.288,0.046-0.318c0.03-0.03,0.136-0.045,0.318-0.045h4.446c0.122,0,0.182,0.061,0.182,0.182v0.429
			c0,0.122-0.061,0.182-0.182,0.182h-3.926c-0.009,0.546-0.02,1.079-0.033,1.599c-0.013,0.52-0.024,1.053-0.032,1.599
			c0.424-0.165,0.94-0.247,1.547-0.247c0.91,0,1.646,0.247,2.21,0.741c0.563,0.512,0.845,1.196,0.845,2.054
			c0,1.049-0.325,1.859-0.975,2.431c-0.624,0.546-1.478,0.819-2.561,0.819c-0.39,0-0.728-0.022-1.014-0.065
			C60.462,22.224,60.167,22.151,59.864,22.047z"/>
		<path fill="#6CB2FF" d="M67.651,22.151c0-0.182,0.063-0.336,0.188-0.461c0.126-0.125,0.28-0.188,0.462-0.188
			c0.182,0,0.335,0.063,0.461,0.188c0.125,0.125,0.188,0.279,0.188,0.461s-0.063,0.336-0.188,0.461
			c-0.126,0.125-0.28,0.188-0.461,0.188c-0.182,0-0.336-0.063-0.462-0.188C67.714,22.486,67.651,22.333,67.651,22.151z"/>
		<path fill="#6CB2FF" d="M71.356,22.241c-0.095,0-0.167-0.002-0.214-0.006c-0.048-0.004-0.083-0.018-0.104-0.039
			c-0.022-0.021-0.035-0.057-0.039-0.104c-0.004-0.048-0.006-0.119-0.006-0.214l0.013-0.286c0-0.112,0.035-0.204,0.104-0.273
			l2.145-2.366c1.595-1.724,2.392-3.033,2.392-3.926c0-0.52-0.173-0.953-0.52-1.3c-0.338-0.338-0.758-0.507-1.261-0.507
			c-0.702,0-1.435,0.195-2.197,0.585c-0.122,0.061-0.19,0.035-0.208-0.078l-0.078-0.429c-0.026-0.147,0.018-0.238,0.13-0.273
			c0.442-0.199,0.84-0.347,1.196-0.442c0.356-0.095,0.719-0.143,1.092-0.143c0.832,0,1.495,0.208,1.989,0.624
			c0.555,0.451,0.832,1.092,0.832,1.924c0,0.321-0.078,0.672-0.234,1.053c-0.156,0.381-0.373,0.78-0.65,1.196
			c-0.173,0.243-0.418,0.559-0.734,0.949c-0.316,0.39-0.678,0.806-1.085,1.248c-0.303,0.329-0.604,0.663-0.903,1.001
			c-0.299,0.338-0.601,0.671-0.904,1.001h4.55c0.121,0,0.182,0.061,0.182,0.182v0.442c0,0.121-0.061,0.182-0.182,0.182
			L71.356,22.241L71.356,22.241z"/>
		<path fill="#6CB2FF" d="M85.227,17.38c0,3.276-1.058,4.914-3.172,4.914c-2.132,0-3.198-1.638-3.198-4.914
			c0-1.36,0.208-2.465,0.624-3.315c0.528-1.066,1.387-1.599,2.574-1.599c1.17,0,2.023,0.533,2.561,1.599
			c0.2,0.425,0.351,0.91,0.455,1.456S85.227,16.686,85.227,17.38z M84.291,17.38c0-2.721-0.746-4.082-2.236-4.082
			c-1.491,0-2.236,1.361-2.236,4.082c0,2.73,0.746,4.095,2.236,4.095C83.545,21.475,84.291,20.11,84.291,17.38z"/>
		<path fill="#BEBDC1" d="M94.432,11.932c0,0.633-0.064,1.222-0.194,1.768c0.104,0.364,0.248,0.711,0.437,1.04
			c0.186,0.33,0.403,0.637,0.655,0.923c0.251,0.286,0.526,0.544,0.825,0.773c0.3,0.229,0.613,0.422,0.941,0.578
			c0.053,0.026,0.076,0.063,0.072,0.111c-0.005,0.048-0.016,0.089-0.033,0.124l-0.272,0.429c-0.025,0.043-0.056,0.074-0.091,0.091
			c-0.034,0.017-0.092,0.004-0.17-0.039c-0.198-0.104-0.426-0.245-0.682-0.422c-0.256-0.177-0.514-0.388-0.773-0.631
			c-0.26-0.242-0.508-0.509-0.74-0.799c-0.234-0.291-0.43-0.592-0.585-0.903c-0.286,0.659-0.673,1.256-1.157,1.794
			c-0.484,0.537-1.054,1.018-1.703,1.443c-0.044,0.026-0.091,0.043-0.145,0.052c-0.051,0.009-0.094-0.008-0.129-0.052l-0.325-0.429
			c-0.025-0.034-0.029-0.078-0.013-0.13c0.018-0.052,0.047-0.091,0.09-0.117c1.031-0.632,1.809-1.43,2.328-2.392
			c0.521-0.962,0.771-2.037,0.754-3.224c0-0.139,0.053-0.208,0.156-0.208l0.61,0.039C94.383,11.751,94.432,11.811,94.432,11.932z
			 M100.15,21.124c0,0.373-0.1,0.706-0.299,1.001c-0.199,0.294-0.471,0.543-0.813,0.748c-0.342,0.203-0.739,0.359-1.194,0.468
			s-0.943,0.163-1.464,0.163c-0.563,0-1.073-0.054-1.532-0.163c-0.461-0.108-0.854-0.265-1.185-0.468
			c-0.33-0.204-0.585-0.453-0.769-0.748c-0.182-0.295-0.271-0.628-0.271-1.001c0-0.364,0.092-0.691,0.271-0.981
			c0.184-0.291,0.438-0.538,0.769-0.741c0.329-0.204,0.724-0.359,1.185-0.468c0.459-0.108,0.969-0.163,1.532-0.163
			c0.521,0,1.009,0.054,1.464,0.163c0.455,0.109,0.854,0.262,1.194,0.461c0.343,0.199,0.613,0.444,0.813,0.734
			C100.051,20.419,100.15,20.751,100.15,21.124z M99.229,21.163c0-0.26-0.078-0.49-0.234-0.689c-0.156-0.199-0.366-0.366-0.631-0.5
			c-0.264-0.134-0.57-0.238-0.916-0.312c-0.348-0.073-0.707-0.11-1.079-0.11c-0.416,0-0.798,0.037-1.144,0.11
			c-0.349,0.074-0.646,0.178-0.892,0.312c-0.248,0.135-0.44,0.301-0.579,0.5c-0.139,0.2-0.208,0.429-0.208,0.689
			c0,0.251,0.069,0.474,0.208,0.669c0.139,0.195,0.331,0.357,0.579,0.487c0.246,0.13,0.543,0.229,0.892,0.299
			c0.346,0.069,0.728,0.104,1.144,0.104c0.372,0,0.731-0.035,1.079-0.104c0.346-0.069,0.652-0.169,0.916-0.299
			c0.265-0.13,0.475-0.292,0.631-0.487C99.15,21.637,99.229,21.414,99.229,21.163z M99.15,14.273v-2.626
			c0-0.122,0.061-0.182,0.182-0.182h0.533c0.121,0,0.182,0.061,0.182,0.182v6.864c0,0.122-0.061,0.182-0.182,0.182h-0.533
			c-0.121,0-0.182-0.061-0.182-0.182v-3.458h-2.666c-0.112,0-0.168-0.052-0.168-0.156v-0.468c0-0.104,0.056-0.156,0.168-0.156H99.15
			z"/>
		<path fill="#BEBDC1" d="M104.337,17.366c0.043,0.043,0.126,0.07,0.247,0.078c0.372,0.018,0.76,0.024,1.163,0.02
			s0.806-0.015,1.209-0.033c0.403-0.017,0.798-0.045,1.183-0.084c0.388-0.039,0.752-0.088,1.101-0.149
			c0.078-0.017,0.136-0.015,0.175,0.007c0.039,0.021,0.066,0.071,0.085,0.149l0.039,0.351c0.008,0.104-0.01,0.171-0.053,0.201
			c-0.043,0.031-0.082,0.045-0.117,0.045c-0.347,0.061-0.729,0.115-1.149,0.163s-0.853,0.084-1.293,0.111
			c-0.441,0.026-0.881,0.041-1.313,0.045c-0.435,0.004-0.837-0.002-1.209-0.02c-0.392-0.018-0.659-0.111-0.808-0.28
			c-0.147-0.169-0.221-0.436-0.221-0.799v-4.966c0-0.122,0.061-0.182,0.182-0.182h0.533c0.121,0,0.182,0.061,0.182,0.182v4.901
			C104.271,17.236,104.293,17.323,104.337,17.366z M112.605,23.177c-0.045,0.026-0.088,0.039-0.131,0.039h-6.514
			c-0.406,0-0.675-0.076-0.8-0.228s-0.188-0.405-0.188-0.76v-2.457c0-0.122,0.062-0.182,0.184-0.182h0.533
			c0.121,0,0.182,0.061,0.182,0.182v2.392c0,0.121,0.02,0.197,0.059,0.228c0.039,0.03,0.119,0.045,0.24,0.045h6.305
			c0.043,0,0.088,0.015,0.131,0.045c0.043,0.03,0.064,0.067,0.064,0.11v0.468C112.67,23.112,112.648,23.152,112.605,23.177z
			 M111.369,13.09v-1.443c0-0.122,0.061-0.182,0.184-0.182h0.532c0.121,0,0.183,0.061,0.183,0.182v8.385
			c0,0.122-0.062,0.182-0.183,0.182h-0.532c-0.123,0-0.184-0.061-0.184-0.182v-3.939h-3.25c-0.111,0-0.168-0.052-0.168-0.156v-0.455
			c0-0.104,0.057-0.156,0.168-0.156h3.25v-1.469h-3.25c-0.111,0-0.168-0.052-0.168-0.156v-0.455c0-0.104,0.057-0.156,0.168-0.156
			H111.369L111.369,13.09z"/>
		<path fill="#BEBDC1" d="M122.744,19.46c0.043-0.009,0.085-0.002,0.124,0.02s0.063,0.05,0.071,0.084l0.063,0.442
			c0.011,0.104-0.043,0.169-0.155,0.195c-0.285,0.052-0.599,0.102-0.937,0.15c-0.338,0.047-0.687,0.093-1.046,0.136
			c-0.36,0.043-0.723,0.083-1.086,0.117c-0.364,0.034-0.721,0.065-1.064,0.091c-0.271,0.018-0.585,0.035-0.943,0.052
			c-0.359,0.017-0.727,0.032-1.098,0.045c-0.373,0.013-0.729,0.021-1.066,0.026c-0.338,0.005-0.615,0.002-0.832-0.006
			c-0.053,0-0.098-0.018-0.137-0.052c-0.039-0.034-0.06-0.073-0.06-0.117v-0.442c0-0.052,0.021-0.093,0.06-0.124
			c0.039-0.03,0.084-0.045,0.137-0.045c0.252,0,0.553-0.002,0.904-0.006c0.35-0.004,0.709-0.011,1.078-0.02
			c0.368-0.008,0.723-0.02,1.065-0.033c0.342-0.013,0.631-0.028,0.864-0.045c0.304-0.017,0.644-0.043,1.021-0.078
			c0.377-0.035,0.752-0.074,1.125-0.117c0.372-0.043,0.728-0.089,1.065-0.137C122.237,19.548,122.52,19.503,122.744,19.46z
			 M121.521,15.156c0,0.434-0.077,0.83-0.232,1.189c-0.156,0.36-0.373,0.669-0.65,0.93c-0.276,0.26-0.606,0.461-0.987,0.604
			c-0.382,0.143-0.798,0.214-1.248,0.214c-0.441,0-0.851-0.071-1.222-0.214c-0.373-0.143-0.696-0.345-0.97-0.604
			c-0.272-0.26-0.487-0.57-0.644-0.93c-0.156-0.359-0.234-0.756-0.234-1.189c0-0.459,0.078-0.871,0.234-1.235
			c0.156-0.364,0.371-0.674,0.644-0.93c0.272-0.255,0.597-0.45,0.97-0.585c0.371-0.134,0.779-0.201,1.222-0.201
			c0.416,0,0.813,0.067,1.188,0.201c0.377,0.135,0.709,0.33,0.994,0.585c0.287,0.256,0.514,0.565,0.684,0.93
			C121.438,14.285,121.521,14.697,121.521,15.156z M120.612,15.144c0-0.355-0.058-0.667-0.175-0.936s-0.277-0.492-0.481-0.669
			c-0.204-0.177-0.44-0.31-0.708-0.396c-0.27-0.087-0.551-0.13-0.846-0.13c-0.313,0-0.598,0.045-0.857,0.137
			c-0.26,0.091-0.488,0.226-0.684,0.403c-0.194,0.178-0.346,0.399-0.454,0.663c-0.108,0.265-0.163,0.574-0.163,0.93
			c0,0.667,0.197,1.194,0.592,1.579c0.395,0.386,0.916,0.579,1.566,0.579c0.295,0,0.576-0.05,0.846-0.149
			c0.268-0.1,0.504-0.241,0.708-0.422c0.204-0.182,0.364-0.407,0.481-0.676C120.555,15.785,120.612,15.482,120.612,15.144z
			 M124.305,23.45h-0.533c-0.12,0-0.182-0.061-0.182-0.182V11.646c0-0.122,0.062-0.182,0.182-0.182h0.533
			c0.121,0,0.183,0.061,0.183,0.182v11.623C124.486,23.39,124.426,23.45,124.305,23.45z"/>
		<path fill="#BEBDC1" d="M132.416,16.196c0.043,0.043,0.126,0.069,0.248,0.078c0.814,0.026,1.67,0.004,2.566-0.065
			c0.896-0.069,1.758-0.182,2.58-0.338c0.139-0.026,0.222,0.021,0.248,0.143l0.063,0.403c0.009,0.104-0.047,0.173-0.168,0.208
			c-0.339,0.078-0.74,0.147-1.203,0.208c-0.464,0.061-0.942,0.113-1.437,0.156s-0.988,0.074-1.481,0.091
			c-0.494,0.017-0.944,0.017-1.353,0c-0.391-0.018-0.659-0.111-0.807-0.28c-0.148-0.169-0.221-0.436-0.221-0.799v-4.03
			c0-0.121,0.061-0.182,0.182-0.182h0.533c0.121,0,0.182,0.061,0.182,0.182v3.965C132.352,16.067,132.373,16.153,132.416,16.196z
			 M140.178,23.334c0,0.043-0.02,0.08-0.059,0.11s-0.076,0.045-0.111,0.045h-6.539c-0.406,0-0.674-0.076-0.799-0.228
			c-0.126-0.151-0.188-0.409-0.188-0.773v-0.975c0-0.364,0.074-0.608,0.228-0.734c0.151-0.125,0.423-0.188,0.813-0.188h5.199
			c0.121,0,0.198-0.017,0.233-0.052c0.035-0.035,0.054-0.117,0.054-0.247v-0.741c0-0.13-0.017-0.212-0.047-0.247
			c-0.029-0.034-0.105-0.052-0.228-0.052h-6.099c-0.043,0-0.084-0.013-0.123-0.039s-0.059-0.061-0.059-0.104v-0.468
			c0-0.043,0.02-0.078,0.059-0.104c0.039-0.026,0.08-0.039,0.123-0.039h6.24c0.209,0,0.377,0.015,0.508,0.045
			c0.129,0.03,0.233,0.08,0.313,0.149c0.078,0.069,0.132,0.167,0.163,0.292c0.028,0.126,0.045,0.279,0.045,0.461v0.975
			c0,0.364-0.076,0.609-0.228,0.734c-0.152,0.126-0.424,0.188-0.813,0.188h-5.214c-0.121,0-0.196,0.018-0.227,0.052
			c-0.031,0.034-0.046,0.117-0.046,0.247v0.793c0,0.121,0.017,0.201,0.052,0.24c0.034,0.039,0.112,0.059,0.233,0.059h6.331
			c0.044,0,0.085,0.013,0.124,0.039c0.039,0.026,0.06,0.061,0.06,0.104V23.334L140.178,23.334z M139.709,17.731h-0.533
			c-0.121,0-0.182-0.061-0.182-0.182v-5.902c0-0.122,0.061-0.182,0.182-0.182h0.533c0.121,0,0.182,0.061,0.182,0.182v2.587h1.795
			c0.053,0,0.099,0.015,0.138,0.045c0.039,0.031,0.06,0.072,0.06,0.124v0.442c0,0.043-0.021,0.083-0.06,0.117
			c-0.039,0.034-0.085,0.052-0.138,0.052h-1.795v2.535C139.891,17.67,139.83,17.731,139.709,17.731z"/>
	</g>
	<g>
		
			<path fill="#2B2333" stroke="#BEBDC1" stroke-width="0.5" stroke-linecap="round" stroke-linejoin="round" stroke-miterlimit="10" d="
			M25.201,6.485c0,0-2.096-0.536-2.666,2.339S20.145,1.104,25.201,6.485z"/>
		
			<path fill="none" stroke="#BEBDC1" stroke-width="0.5" stroke-linecap="round" stroke-linejoin="round" stroke-miterlimit="10" d="
			M23.92,15.853c0,0-8.714,2.106-5.683,13.106c0,0,1.499-3.215,3.848-2.982"/>
		
			<path fill="#2B2333" stroke="#BEBDC1" stroke-width="0.5" stroke-linecap="round" stroke-linejoin="round" stroke-miterlimit="10" d="
			M21.438,25.762c2.414,1.37,6.054-0.45,6.641-2.603C26.578,21.202,21.503,23.413,21.438,25.762L21.438,25.762z"/>
		
			<path fill="#2B2333" stroke="#BEBDC1" stroke-width="0.5" stroke-linecap="round" stroke-linejoin="round" stroke-miterlimit="10" d="
			M21.379,25.718c1.566-1.174,2.313-2.298,0.486-4.125C20.299,23.094,20.14,24.545,21.379,25.718L21.379,25.718z"/>
		
			<path fill="#2B2333" stroke="#BEBDC1" stroke-width="0.5" stroke-linecap="round" stroke-linejoin="round" stroke-miterlimit="10" d="
			M18.034,29.526c-1.827-0.392-4.875-1.548-4.549-7.616C17.399,23.215,18.817,26.263,18.034,29.526L18.034,29.526z"/>
		
			<path fill="#2B2333" stroke="#BEBDC1" stroke-width="0.5" stroke-linecap="round" stroke-linejoin="round" stroke-miterlimit="10" d="
			M19.484,6.431c0,0,5.517,5.154,5.031,9.345c0,0-4.425-0.226-3.997-3.893C20.946,8.216,19.484,6.431,19.484,6.431z"/>
		
			<path fill="#2B2333" stroke="#BEBDC1" stroke-width="0.5" stroke-linecap="round" stroke-linejoin="round" stroke-miterlimit="10" d="
			M24.317,15.936c0,0,4.628-1.988,5.122-4.346l3.833,3.431C33.272,15.021,26.196,18.142,24.317,15.936z"/>
		
			<path fill="#2B2333" stroke="#BEBDC1" stroke-width="0.5" stroke-linecap="round" stroke-linejoin="round" stroke-miterlimit="10" d="
			M22.873,11.495c0,0,6.146-0.496,7.106,1.328c0.96,1.824-5.221,3.495-5.221,3.495S21.223,11.913,22.873,11.495z"/>
		
			<path fill="#2B2333" stroke="#BEBDC1" stroke-width="0.5" stroke-linecap="round" stroke-linejoin="round" stroke-miterlimit="10" d="
			M23.22,7.214c0,0,3.537,3.118,6.476,3.891S18.89,13.588,23.22,7.214z"/>
		
			<path fill="#2B2333" stroke="#BEBDC1" stroke-width="0.5" stroke-linecap="round" stroke-linejoin="round" stroke-miterlimit="10" d="
			M23.955,6.936c0,0,2.966-1.947,4.996,0.277c2.03,2.224,2.019,4.282,1.129,4.014C30.08,11.227,22.01,7.668,23.955,6.936z"/>
		
			<path fill="#2B2333" stroke="#BEBDC1" stroke-width="0.5" stroke-linecap="round" stroke-linejoin="round" stroke-miterlimit="10" d="
			M26.782,7.419c0,0,3,0.833,2.912,1.28c-0.088,0.447-2.341,1.016-3.046,0.739C25.943,9.161,25.625,7.566,26.782,7.419z"/>
	</g>
</g>
</svg>
