<?xml version="1.0" encoding="utf-8"?>
<!-- Generator: Adobe Illustrator 15.1.0, SVG Export Plug-In . SVG Version: 6.00 Build 0)  -->
<!DOCTYPE svg PUBLIC "-//W3C//DTD SVG 1.1//EN" "http://www.w3.org/Graphics/SVG/1.1/DTD/svg11.dtd">
<svg version="1.1" id="Layer_1" xmlns="http://www.w3.org/2000/svg" xmlns:xlink="http://www.w3.org/1999/xlink" x="0px" y="0px"
	 width="180px" height="35px" viewBox="0 0 180 35" enable-background="new 0 0 180 35" xml:space="preserve">
<g>
	<g>
		<rect x="0.5" y="0.5" fill="#2B2333" width="179" height="34"/>
		<path fill="#BEBDC1" d="M179,1v33H1V1H179 M180,0H0v35h180V0L180,0z"/>
	</g>
	<polygon fill="#BEBDC1" points="160.424,24.635 157.602,19.748 154.779,14.859 160.424,14.859 166.066,14.859 163.246,19.748 	"/>
	<g>
		<path fill="#BEBDC1" d="M26.038,22.277c0,0.121-0.061,0.182-0.182,0.182h-0.585c-0.122,0-0.182-0.061-0.182-0.182v-8.619
			c-0.642,1.594-1.218,3.02-1.729,4.277c-0.217,0.538-0.429,1.063-0.637,1.579s-0.394,0.976-0.559,1.379
			c-0.165,0.401-0.299,0.729-0.403,0.98s-0.156,0.382-0.156,0.391c-0.043,0.086-0.108,0.131-0.195,0.131h-0.585
			c-0.061,0-0.104-0.013-0.13-0.033c-0.026-0.021-0.048-0.055-0.065-0.098l-3.588-8.605v8.619c0,0.121-0.061,0.182-0.182,0.182
			h-0.585c-0.122,0-0.182-0.061-0.182-0.182v-9.102c0-0.182,0.015-0.288,0.045-0.318c0.03-0.03,0.137-0.046,0.319-0.046h0.975
			c0.069,0,0.119,0.01,0.15,0.026c0.03,0.018,0.058,0.061,0.084,0.13l3.458,8.411l3.354-8.424c0.034-0.095,0.104-0.144,0.208-0.144
			h0.988c0.182,0,0.288,0.016,0.318,0.046c0.03,0.03,0.046,0.137,0.046,0.318V22.277L26.038,22.277z"/>
		<path fill="#BEBDC1" d="M34.735,18.949c0,0.512-0.074,0.986-0.221,1.424s-0.343,0.82-0.585,1.15
			c-0.304,0.362-0.666,0.645-1.085,0.844c-0.421,0.199-0.899,0.3-1.437,0.3c-0.538,0-1.019-0.101-1.443-0.3
			c-0.425-0.199-0.789-0.48-1.092-0.844c-0.243-0.33-0.436-0.713-0.579-1.15s-0.214-0.912-0.214-1.424
			c0-1.049,0.264-1.906,0.793-2.574c0.606-0.754,1.452-1.131,2.535-1.131c0.546,0,1.027,0.093,1.443,0.279s0.775,0.471,1.079,0.852
			C34.466,17.06,34.735,17.918,34.735,18.949z M33.773,18.949c0-0.408-0.054-0.789-0.163-1.145s-0.258-0.672-0.448-0.949
			c-0.451-0.555-1.036-0.832-1.755-0.832c-0.364,0-0.691,0.072-0.982,0.215c-0.29,0.143-0.548,0.35-0.773,0.617
			c-0.199,0.277-0.353,0.594-0.461,0.949s-0.163,0.736-0.163,1.145c0,0.416,0.054,0.801,0.163,1.156
			c0.109,0.354,0.262,0.668,0.461,0.937c0.459,0.563,1.044,0.845,1.755,0.845c0.364,0,0.691-0.072,0.981-0.221
			c0.29-0.146,0.548-0.355,0.773-0.624c0.19-0.269,0.34-0.581,0.448-0.937C33.717,19.749,33.773,19.365,33.773,18.949z"/>
		<path fill="#BEBDC1" d="M42.067,22.277c0,0.121-0.061,0.182-0.182,0.182h-0.52c-0.121,0-0.182-0.061-0.182-0.182v-4.096
			c0-0.798-0.143-1.363-0.429-1.697c-0.286-0.333-0.689-0.501-1.209-0.501c-0.702,0-1.237,0.195-1.605,0.586
			c-0.369,0.39-0.553,0.936-0.553,1.638v4.069c0,0.121-0.061,0.182-0.182,0.182h-0.52c-0.122,0-0.182-0.061-0.182-0.182v-5.201
			c0-0.371-0.002-0.662-0.006-0.87s-0.015-0.407-0.033-0.599c-0.009-0.061,0.006-0.105,0.045-0.137
			c0.039-0.029,0.084-0.045,0.137-0.045h0.468c0.122,0,0.182,0.061,0.182,0.182v0.715c0.243-0.372,0.535-0.645,0.877-0.818
			c0.342-0.173,0.813-0.26,1.411-0.26c0.823,0,1.443,0.238,1.859,0.715s0.624,1.148,0.624,2.016V22.277L42.067,22.277z"/>
		<path fill="#BEBDC1" d="M47.657,22.473c-0.364,0.129-0.724,0.194-1.079,0.194c-0.702,0-1.166-0.229-1.391-0.688
			c-0.147-0.313-0.221-0.862-0.221-1.651V16.18h-1.222c-0.121,0-0.182-0.061-0.182-0.182v-0.391c0-0.121,0.061-0.182,0.182-0.182
			h1.222V13.67c0-0.13,0.056-0.194,0.169-0.194h0.546c0.113,0,0.169,0.064,0.169,0.194v1.755h1.443c0.121,0,0.182,0.061,0.182,0.182
			v0.391c0,0.121-0.061,0.182-0.182,0.182H45.85v4.589c0,0.771,0.312,1.156,0.936,1.156c0.243,0,0.516-0.052,0.819-0.156
			c0.043-0.018,0.084-0.018,0.124,0c0.04,0.019,0.059,0.054,0.059,0.104l0.026,0.338C47.83,22.333,47.778,22.42,47.657,22.473z"/>
		<path fill="#BEBDC1" d="M54.664,22.277c0,0.121-0.061,0.182-0.182,0.182h-0.52c-0.121,0-0.182-0.061-0.182-0.182v-4.004
			c0-0.417-0.037-0.771-0.111-1.062c-0.074-0.289-0.18-0.523-0.318-0.701c-0.138-0.178-0.308-0.306-0.507-0.384
			c-0.2-0.078-0.42-0.117-0.663-0.117c-0.711,0-1.254,0.169-1.631,0.507s-0.566,0.807-0.566,1.404v4.354
			c0,0.121-0.061,0.183-0.182,0.183h-0.52c-0.122,0-0.182-0.062-0.182-0.183v-9.983c0-0.121,0.061-0.182,0.182-0.182h0.52
			c0.121,0,0.182,0.061,0.182,0.182v3.77c0.243-0.277,0.544-0.479,0.904-0.604c0.359-0.126,0.808-0.189,1.345-0.189
			c0.841,0,1.456,0.248,1.846,0.741c0.39,0.494,0.585,1.243,0.585,2.249V22.277z"/>
		<path fill="#BEBDC1" d="M63.523,17.006c0.013,0.013,0.02,0.066,0.02,0.162v0.572c0,0.096-0.006,0.148-0.02,0.162
			c-0.013,0.014-0.067,0.02-0.162,0.02h-3.042c-0.096,0-0.149-0.006-0.163-0.02c-0.014-0.014-0.021-0.066-0.021-0.162v-0.572
			c0-0.096,0.006-0.149,0.021-0.162c0.013-0.014,0.067-0.02,0.163-0.02h3.042C63.456,16.986,63.51,16.992,63.523,17.006z"/>
		<path fill="#BEBDC1" d="M76.244,17.623c0,0.807-0.139,1.525-0.416,2.158c-0.277,0.633-0.663,1.156-1.157,1.572
			c-0.468,0.354-1.036,0.629-1.703,0.818s-1.422,0.286-2.262,0.286h-1.339c-0.182,0-0.289-0.017-0.319-0.045
			c-0.03-0.031-0.045-0.138-0.045-0.319v-8.892c0-0.182,0.015-0.288,0.045-0.318c0.03-0.031,0.137-0.046,0.319-0.046h2.041
			c1.646,0,2.886,0.446,3.718,1.339C75.871,15.002,76.244,16.149,76.244,17.623z M75.294,17.57c0-1.377-0.381-2.396-1.144-3.055
			c-0.676-0.58-1.604-0.871-2.782-0.871h-1.404v7.997h0.793C73.782,21.641,75.294,20.283,75.294,17.57z"/>
		<path fill="#BEBDC1" d="M78.726,16.518c-0.043,0.026-0.084,0.033-0.124,0.02c-0.039-0.013-0.058-0.041-0.058-0.084V15.96
			c0-0.121,0.061-0.213,0.182-0.273c0.303-0.164,0.626-0.279,0.969-0.344c0.342-0.065,0.717-0.098,1.125-0.098
			c0.867,0,1.499,0.205,1.898,0.617c0.398,0.412,0.598,1.033,0.598,1.865v3.264c0,0.26,0.004,0.491,0.013,0.694
			c0.009,0.203,0.021,0.4,0.039,0.592c0,0.121-0.061,0.183-0.182,0.183h-0.468c-0.122,0-0.182-0.062-0.182-0.183v-1.002
			c-0.182,0.442-0.487,0.785-0.917,1.027c-0.429,0.242-0.895,0.364-1.397,0.364c-0.875,0-1.517-0.256-1.924-0.767
			c-0.139-0.174-0.243-0.375-0.312-0.605c-0.069-0.229-0.104-0.457-0.104-0.682c0-0.529,0.124-0.984,0.371-1.365
			s0.626-0.668,1.137-0.857c0.624-0.227,1.582-0.339,2.873-0.339h0.169v-0.39c0-0.547-0.124-0.963-0.371-1.248
			c-0.247-0.286-0.661-0.43-1.241-0.43c-0.39,0-0.758,0.042-1.105,0.124C79.368,16.191,79.038,16.327,78.726,16.518z M82.431,18.793
			h-0.247c-0.485-0.018-0.917,0.002-1.293,0.059c-0.376,0.058-0.691,0.133-0.942,0.229c-0.364,0.13-0.637,0.322-0.819,0.578
			c-0.182,0.256-0.273,0.563-0.273,0.917c0,0.217,0.034,0.418,0.104,0.604c0.069,0.188,0.177,0.331,0.325,0.436
			c0.26,0.209,0.606,0.313,1.04,0.313c0.303,0,0.583-0.061,0.838-0.182c0.256-0.121,0.479-0.295,0.67-0.52
			c0.19-0.228,0.338-0.506,0.442-0.841c0.104-0.333,0.156-0.717,0.156-1.149L82.431,18.793L82.431,18.793z"/>
		<path fill="#BEBDC1" d="M84.914,24.383c-0.104-0.025-0.147-0.091-0.13-0.195l0.039-0.44c0-0.104,0.052-0.136,0.156-0.093
			c0.139,0.054,0.299,0.078,0.481,0.078s0.349-0.026,0.5-0.084c0.151-0.057,0.266-0.133,0.344-0.228
			c0.095-0.122,0.202-0.321,0.318-0.599c0.117-0.277,0.232-0.594,0.345-0.948c-0.39-1.058-0.776-2.103-1.157-3.134
			s-0.767-2.074-1.157-3.133c-0.018-0.043-0.018-0.084,0-0.123c0.017-0.039,0.052-0.059,0.104-0.059h0.611
			c0.122,0,0.208,0.061,0.26,0.182l1.755,5.045c0.32-0.885,0.626-1.728,0.917-2.529c0.29-0.801,0.596-1.64,0.917-2.516
			c0.043-0.121,0.13-0.182,0.26-0.182h0.559c0.052,0,0.086,0.02,0.104,0.059s0.018,0.08,0,0.123l-2.704,7.254
			c-0.095,0.252-0.201,0.477-0.318,0.677C87,23.736,86.881,23.896,86.76,24.02c-0.156,0.146-0.33,0.258-0.52,0.332
			c-0.191,0.072-0.39,0.109-0.598,0.109c-0.13,0-0.247-0.004-0.351-0.014C85.187,24.439,85.062,24.418,84.914,24.383z"/>
	</g>
</g>
</svg>
