<?xml version="1.0" encoding="utf-8"?>
<!-- Generator: Adobe Illustrator 15.1.0, SVG Export Plug-In . SVG Version: 6.00 Build 0)  -->
<!DOCTYPE svg PUBLIC "-//W3C//DTD SVG 1.1//EN" "http://www.w3.org/Graphics/SVG/1.1/DTD/svg11.dtd">
<svg version="1.1" id="Layer_1" xmlns="http://www.w3.org/2000/svg" xmlns:xlink="http://www.w3.org/1999/xlink" x="0px" y="0px"
	 width="180px" height="35px" viewBox="0 0 180 35" enable-background="new 0 0 180 35" xml:space="preserve">
<g>
	<g>
		<rect x="0.5" y="0.5" fill="#2B2333" width="179" height="34"/>
		<path fill="#BEBDC1" d="M179,1v33H1V1H179 M180,0H0v35h180V0L180,0z"/>
	</g>
	<polygon fill="#BEBDC1" points="160.424,24.635 157.602,19.748 154.779,14.859 160.424,14.859 166.068,14.859 163.246,19.748 	"/>
	<rect x="14.819" y="11.5" fill="none" width="120.054" height="12"/>
	<g enable-background="new    ">
		<path fill="#BEBDC1" d="M18.901,13.646v8.632c0,0.121-0.061,0.182-0.182,0.182h-0.598c-0.121,0-0.182-0.061-0.182-0.182v-8.632
			h-2.678c-0.122,0-0.182-0.061-0.182-0.182v-0.442c0-0.121,0.061-0.182,0.182-0.182h6.344c0.121,0,0.182,0.061,0.182,0.182v0.442
			c0,0.121-0.061,0.182-0.182,0.182H18.901z"/>
		<path fill="#BEBDC1" d="M22.931,12.97c0-0.174,0.061-0.323,0.182-0.449c0.121-0.125,0.269-0.188,0.442-0.188
			s0.323,0.063,0.449,0.188c0.125,0.126,0.188,0.275,0.188,0.449c0,0.173-0.063,0.32-0.188,0.441
			c-0.126,0.122-0.275,0.183-0.449,0.183s-0.321-0.061-0.442-0.183C22.992,13.29,22.931,13.143,22.931,12.97z M23.854,22.459h-0.572
			c-0.122,0-0.182-0.061-0.182-0.182v-6.669c0-0.121,0.061-0.182,0.182-0.182h0.572c0.121,0,0.182,0.061,0.182,0.182v6.669
			C24.036,22.398,23.976,22.459,23.854,22.459z"/>
		<path fill="#BEBDC1" d="M26.272,17.077c0-0.363-0.004-0.651-0.013-0.864c-0.009-0.212-0.021-0.414-0.039-0.604
			c0-0.121,0.061-0.182,0.182-0.182h0.481c0.121,0,0.182,0.061,0.182,0.182v0.702c0.199-0.32,0.468-0.574,0.806-0.761
			c0.338-0.187,0.754-0.279,1.248-0.279c0.52,0,0.975,0.128,1.365,0.384c0.39,0.255,0.628,0.63,0.715,1.124
			c0.182-0.494,0.475-0.869,0.877-1.124c0.403-0.256,0.869-0.384,1.397-0.384c0.338,0,0.644,0.061,0.917,0.182
			c0.273,0.122,0.507,0.288,0.702,0.501c0.195,0.212,0.345,0.461,0.449,0.747s0.156,0.59,0.156,0.91v4.667
			c0,0.121-0.061,0.182-0.182,0.182h-0.494c-0.122,0-0.182-0.056-0.182-0.169v-4.498c0-1.187-0.499-1.78-1.495-1.78
			c-0.303,0-0.574,0.067-0.813,0.201c-0.238,0.135-0.442,0.318-0.611,0.553c-0.169,0.233-0.295,0.507-0.377,0.818
			c-0.083,0.313-0.12,0.642-0.111,0.988v3.705c0,0.121-0.061,0.182-0.182,0.182h-0.52c-0.122,0-0.182-0.061-0.182-0.182v-4.485
			c0-1.187-0.503-1.78-1.508-1.78c-0.59,0-1.053,0.19-1.391,0.571c-0.338,0.382-0.507,0.885-0.507,1.509v4.186
			c0,0.121-0.061,0.182-0.182,0.182h-0.507c-0.121,0-0.182-0.061-0.182-0.182V17.077z"/>
		<path fill="#BEBDC1" d="M38.505,19.196c-0.009,0.434,0.041,0.817,0.149,1.15c0.108,0.334,0.267,0.613,0.475,0.839
			s0.457,0.398,0.748,0.52c0.291,0.122,0.613,0.183,0.969,0.183c0.346,0,0.671-0.033,0.975-0.098
			c0.303-0.065,0.585-0.171,0.845-0.318c0.112-0.053,0.169-0.021,0.169,0.091v0.585c0,0.078-0.048,0.139-0.143,0.182
			c-0.286,0.113-0.585,0.197-0.897,0.254c-0.312,0.056-0.65,0.084-1.014,0.084c-1.066,0-1.872-0.31-2.418-0.929
			c-0.546-0.62-0.819-1.554-0.819-2.802c0-1.101,0.273-1.989,0.819-2.665c0.572-0.685,1.296-1.027,2.171-1.027
			c0.485,0,0.905,0.087,1.261,0.26c0.355,0.174,0.659,0.434,0.91,0.78c0.442,0.615,0.663,1.438,0.663,2.47
			c0,0.113-0.002,0.2-0.007,0.261s-0.02,0.104-0.045,0.13c-0.026,0.025-0.071,0.041-0.136,0.045
			c-0.065,0.005-0.158,0.007-0.28,0.007H38.505z M42.405,18.455c0-0.354-0.035-0.671-0.104-0.948s-0.178-0.529-0.325-0.755
			c-0.321-0.511-0.785-0.767-1.391-0.767c-0.624,0-1.131,0.26-1.521,0.78c-0.156,0.233-0.286,0.503-0.39,0.806
			c-0.104,0.304-0.16,0.598-0.169,0.884H42.405z"/>
	</g>
</g>
</svg>
